<?xml version="1.0" encoding="UTF-8"?> <svg xmlns="http://www.w3.org/2000/svg" viewBox="0 0 126.159 129.2927"><g id="eabfbdd3-7437-4e91-bdb7-9f96fb63a9c2" data-name="OBJECTS"><ellipse cx="62.74261" cy="66.36732" rx="62.74261" ry="62.92538" fill="#fdbf1b"></ellipse><circle cx="63.07949" cy="63.0795" r="63.07949" fill="#fff24c"></circle><circle cx="75.00719" cy="71.93313" r="51.40362" transform="translate(-24.46084 119.08973) rotate(-76.41355)" fill="#d46020"></circle><circle cx="63.07945" cy="63.0795" r="48.56884" fill="#fdbf1b"></circle><path d="M62.51018,1.9014h1.8317a.9176.9176,0,0,1,.9176.9176V8.892a.9176.9176,0,0,1-.9176.9176h-1.8316a.9176.9176,0,0,1-.9176-.9176V2.8189A.9175.9175,0,0,1,62.51018,1.9014Z" fill="#ffd62f"></path><rect x="61.59268" y="116.1592" width="3.6668" height="7.9083" rx="0.9176" fill="#ffd62f"></rect><path d="M114.83423,27.48773h1.83159a.91761.91761,0,0,1,.91761.91761v6.07309a.91754.91754,0,0,1-.91754.91754h-1.83172a.91754.91754,0,0,1-.91754-.91754v-6.0731a.9176.9176,0,0,1,.9176-.9176Z" transform="translate(44.21143 -81.49448) rotate(45.00221)" fill="#ffd62f"></path><path d="M34.04172,108.28019h1.83165a.91758.91758,0,0,1,.91758.91758v6.07306a.91758.91758,0,0,1-.91758.91758H34.04175a.91758.91758,0,0,1-.91758-.91758v-6.07309A.91754.91754,0,0,1,34.04172,108.28019Z" transform="translate(77.66872 -0.70182) rotate(44.99779)" fill="#ffd62f"></path><path d="M131.56691,67.884h1.8316a.9176.9176,0,0,1,.9176.9176v6.0731a.9175.9175,0,0,1-.9175.9175h-1.8318a.9175.9175,0,0,1-.9175-.9175v-6.0731A.9176.9176,0,0,1,131.56691,67.884Z" transform="translate(192.39303 -69.49831) rotate(90)" fill="#ffd62f"></path><path d="M17.309,67.884h1.8317a.9176.9176,0,0,1,.9176.9176v6.073a.9176.9176,0,0,1-.9176.9176h-1.8316a.9176.9176,0,0,1-.9176-.9176v-6.0731A.9175.9175,0,0,1,17.309,67.884Z" transform="translate(78.13523 44.75949) rotate(90)" fill="#ffd62f"></path><path d="M114.83425,108.28019h1.83158a.91761.91761,0,0,1,.91761.91761v6.073a.91758.91758,0,0,1-.91758.91758h-1.83162a.91758.91758,0,0,1-.91758-.91758v-6.07306A.91758.91758,0,0,1,114.83425,108.28019Z" transform="translate(265.03152 100.88841) rotate(134.99779)" fill="#ffd62f"></path><path d="M34.04174,27.48773h1.83171a.91754.91754,0,0,1,.91754.91754v6.07306a.91765.91765,0,0,1-.91765.91765H34.04176a.91758.91758,0,0,1-.91758-.91758V28.40528a.91755.91755,0,0,1,.91755-.91755Z" transform="translate(69.98135 20.1022) rotate(135)" fill="#ffd62f"></path><path d="M81.60683,11.2066h1.83173a.91749.91749,0,0,1,.91749.91749v6.07316a.91761.91761,0,0,1-.91761.91761H81.60682a.91758.91758,0,0,1-.91758-.91758V12.12418a.91758.91758,0,0,1,.91758-.91758Z" transform="matrix(0.99209, 0.12551, -0.12551, 0.99209, -9.37228, -19.09141)" fill="#ffd62f"></path><path d="M67.26915,124.56129h1.83163a.91762.91762,0,0,1,.91762.91762v6.07314a.9175.9175,0,0,1-.9175.9175H67.2692a.91763.91763,0,0,1-.91763-.91763v-6.073a.91759.91759,0,0,1,.91759-.91759Z" transform="matrix(0.99209, 0.12551, -0.12551, 0.99209, 4.74181, -16.39544)" fill="#ffd62f"></path><path d="M119.584,32.87611h1.83171a.91757.91757,0,0,1,.91757.91757v6.07318a.91754.91754,0,0,1-.91754.91754h-1.83168a.91762.91762,0,0,1-.91762-.91762V33.79367a.91755.91755,0,0,1,.91755-.91755Z" transform="translate(63.83865 -89.81814) rotate(52.20979)" fill="#ffd62f"></path><path d="M29.29195,102.89173h1.83168a.91755.91755,0,0,1,.91755.91755v6.07316a.91755.91755,0,0,1-.91755.91755H29.29191a.91757.91757,0,0,1-.91757-.91757v-6.07308A.91761.91761,0,0,1,29.29195,102.89173Z" transform="translate(84.20553 8.64808) rotate(52.20979)" fill="#ffd62f"></path><path d="M131.11522,75.05277h1.83168a.91763.91763,0,0,1,.91763.91763v6.07306a.91757.91757,0,0,1-.91757.91757h-1.83162a.91761.91761,0,0,1-.91761-.91761V75.97026a.91748.91748,0,0,1,.91748-.91748Z" transform="translate(215.05712 -50.9174) rotate(97.21037)" fill="#ffd62f"></path><path d="M17.7607,60.71513h1.83163a.91761.91761,0,0,1,.91761.91761v6.073a.9176.9176,0,0,1-.9176.9176H17.76065a.91761.91761,0,0,1-.91761-.91761v-6.073a.91766.91766,0,0,1,.91766-.91766Z" transform="translate(73.25007 45.39928) rotate(97.20663)" fill="#ffd62f"></path><path d="M109.4458,113.03h1.83159a.91764.91764,0,0,1,.91764.91764v6.07311a.91754.91754,0,0,1-.91754.91754h-1.83169a.91762.91762,0,0,1-.91762-.91762v-6.07305a.91761.91761,0,0,1,.91761-.91761Z" transform="translate(257.3328 132.95175) rotate(142.20979)" fill="#ffd62f"></path><path d="M39.43021,22.73787h1.83164a.91755.91755,0,0,1,.91755.91755v6.07319a.91754.91754,0,0,1-.91754.91754H39.43022a.91762.91762,0,0,1-.91762-.91762v-6.073A.91761.91761,0,0,1,39.43021,22.73787Z" transform="translate(76.65823 14.20943) rotate(142.2102)" fill="#ffd62f"></path><path d="M89.142,12.67972h1.83168a.9176.9176,0,0,1,.9176.9176v6.07311a.91759.91759,0,0,1-.91759.91759H89.14193a.91748.91748,0,0,1-.91748-.91748v-6.0733a.91752.91752,0,0,1,.91752-.91752Z" transform="matrix(0.9663, 0.25741, -0.25741, 0.9663, -4.61135, -31.47473)" fill="#ffd62f"></path><path d="M59.734,123.08813h1.83171a.91753.91753,0,0,1,.91753.91753v6.07317a.91755.91755,0,0,1-.91755.91755H59.734a.91763.91763,0,0,1-.91763-.91763v-6.073a.9176.9176,0,0,1,.9176-.9176Z" transform="translate(22.81036 -20.18305) rotate(14.91328)" fill="#ffd62f"></path><path d="M123.87056,39.246h1.83167a.91758.91758,0,0,1,.91758.91758v6.07307a.91756.91756,0,0,1-.91756.91756h-1.83167a.91755.91755,0,0,1-.91755-.91755V40.16358A.91754.91754,0,0,1,123.87056,39.246Z" transform="translate(87.68434 -95.28434) rotate(59.91446)" fill="#ffd62f"></path><path d="M25.00541,96.52188H26.837a.91758.91758,0,0,1,.91758.91758v6.07306a.91756.91756,0,0,1-.91756.91756H25.00536a.91756.91756,0,0,1-.91756-.91756v-6.073a.9176.9176,0,0,1,.9176-.9176Z" transform="translate(87.94174 18.82819) rotate(59.9166)" fill="#ffd62f"></path><path d="M129.64224,82.588h1.83161a.91756.91756,0,0,1,.91756.91756v6.0731a.91757.91757,0,0,1-.91757.91757h-1.83162a.91764.91764,0,0,1-.91764-.91764V83.50569A.91765.91765,0,0,1,129.64224,82.588Z" transform="translate(235.85883 -26.19798) rotate(104.91409)" fill="#ffd62f"></path><path d="M19.23385,53.17993h1.83162a.91755.91755,0,0,1,.91755.91755v6.07311a.91757.91757,0,0,1-.91757.91757h-1.8317a.91755.91755,0,0,1-.91755-.91755v-6.073A.91765.91765,0,0,1,19.23385,53.17993Z" transform="translate(68.61715 43.51418) rotate(104.91409)" fill="#ffd62f"></path><path d="M103.07589,117.31654h1.83164a.91761.91761,0,0,1,.91761.91761v6.073a.91755.91755,0,0,1-.91755.91755h-1.83173a.91754.91754,0,0,1-.91754-.91754v-6.07308A.91757.91757,0,0,1,103.07589,117.31654Z" transform="translate(242.83779 165.21954) rotate(149.91446)" fill="#ffd62f"></path><path d="M45.80005,18.45136h1.83173a.91754.91754,0,0,1,.91754.91754V25.442a.91762.91762,0,0,1-.91762.91762H45.80009a.9176.9176,0,0,1-.9176-.9176V19.36894A.91757.91757,0,0,1,45.80005,18.45136Z" transform="translate(86.44212 9.52052) rotate(149.91446)" fill="#ffd62f"></path><path d="M96.4035,15.14659h1.8316a.91765.91765,0,0,1,.91765.91765v6.07309a.91753.91753,0,0,1-.91753.91753H96.40358a.91765.91765,0,0,1-.91765-.91765v-6.073a.91758.91758,0,0,1,.91758-.91758Z" transform="translate(2.89925 -44.80656) rotate(22.61409)" fill="#ffd62f"></path><path d="M52.4725,120.62129h1.83163a.91756.91756,0,0,1,.91756.91756v6.073a.91766.91766,0,0,1-.91766.91766H52.47248a.9176.9176,0,0,1-.9176-.9176v-6.073A.91762.91762,0,0,1,52.4725,120.62129Z" transform="translate(40.07618 -19.80471) rotate(22.61289)" fill="#ffd62f"></path><path d="M127.26085,46.125h1.83165a.9176.9176,0,0,1,.9176.9176v6.07316a.91753.91753,0,0,1-.91753.91753h-1.83173a.91752.91752,0,0,1-.91752-.91752V47.04249a.91753.91753,0,0,1,.91753-.91753Z" transform="translate(113.73643 -96.36406) rotate(67.61306)" fill="#ffd62f"></path><path d="M21.615,89.64289h1.83175a.91754.91754,0,0,1,.91754.91754v6.07313a.91759.91759,0,0,1-.91759.91759H21.615a.91753.91753,0,0,1-.91753-.91753V90.56042A.91753.91753,0,0,1,21.615,89.64289Z" transform="translate(88.56495 28.26322) rotate(67.61306)" fill="#ffd62f"></path><path d="M127.17522,89.8495H129.007a.91753.91753,0,0,1,.91753.91753v6.07312a.91759.91759,0,0,1-.91759.91759h-1.83161a.91762.91762,0,0,1-.91762-.91762V90.767a.9175.9175,0,0,1,.9175-.9175Z" transform="translate(252.00716 2.77378) rotate(112.61289)" fill="#ffd62f"></path><path d="M21.7006,45.9184h1.83178a.91753.91753,0,0,1,.91753.91753V52.909a.91765.91765,0,0,1-.91765.91765h-1.8315a.91768.91768,0,0,1-.91768-.91768v-6.073a.91753.91753,0,0,1,.91753-.91753Z" transform="translate(65.42329 39.31445) rotate(112.61)" fill="#ffd62f"></path><path d="M96.19695,120.70686H98.0285a.91764.91764,0,0,1,.91764.91764v6.073a.91759.91759,0,0,1-.91759.91759H96.197a.91761.91761,0,0,1-.91761-.91761v-6.073A.91759.91759,0,0,1,96.19695,120.70686Z" transform="translate(222.46095 194.07971) rotate(157.61017)" fill="#ffd62f"></path><path d="M52.67907,15.061h1.83165a.91754.91754,0,0,1,.91754.91754v6.07324a.91751.91751,0,0,1-.91751.91751H52.67908a.91761.91761,0,0,1-.91761-.91761V15.9786a.91759.91759,0,0,1,.91759-.91759Z" transform="translate(98.46481 7.33142) rotate(157.61306)" fill="#ffd62f"></path><path d="M103.286,18.57367h1.83171a.91765.91765,0,0,1,.91765.91765v6.073a.91764.91764,0,0,1-.91764.91764H103.286a.91756.91756,0,0,1-.91756-.91756V19.49117a.9175.9175,0,0,1,.9175-.9175Z" transform="translate(13.70786 -58.38744) rotate(30.32804)" fill="#ffd62f"></path><path d="M45.59,117.1942h1.83164a.91754.91754,0,0,1,.91754.91754V124.185a.91749.91749,0,0,1-.91749.91749H45.58995a.91762.91762,0,0,1-.91762-.91762v-6.073a.91765.91765,0,0,1,.91765-.91765Z" transform="translate(55.61051 -15.7574) rotate(30.32804)" fill="#ffd62f"></path><path d="M129.70425,53.415h1.83162a.91762.91762,0,0,1,.91762.91762v6.0731a.91752.91752,0,0,1-.91752.91752h-1.83181a.91752.91752,0,0,1-.91752-.91752v-6.0731A.91762.91762,0,0,1,129.70425,53.415Z" transform="translate(141.10842 -92.37572) rotate(75.32872)" fill="#ffd62f"></path><path d="M19.17168,82.35286h1.83171a.91755.91755,0,0,1,.91755.91755v6.07318a.91752.91752,0,0,1-.91752.91752H19.1717a.91751.91751,0,0,1-.91751-.91751V83.27035A.91749.91749,0,0,1,19.17168,82.35286Z" transform="translate(86.5657 36.16258) rotate(75.32951)" fill="#ffd62f"></path><path d="M123.74826,96.732h1.83162a.91754.91754,0,0,1,.91754.91754v6.07313a.9176.9176,0,0,1-.9176.9176h-1.83161a.91758.91758,0,0,1-.91758-.91758V97.64964a.91762.91762,0,0,1,.91762-.91762Z" transform="translate(262.59252 35.07041) rotate(120.32804)" fill="#ffd62f"></path><path d="M25.12773,39.03586h1.83168a.91757.91757,0,0,1,.91757.91757v6.07311a.9176.9176,0,0,1-.9176.9176H25.12773a.91758.91758,0,0,1-.91758-.91758V39.95343a.91758.91758,0,0,1,.91758-.91758Z" transform="translate(64.37331 33.36705) rotate(120.33074)" fill="#ffd62f"></path><path d="M88.90691,123.15018h1.83162a.91761.91761,0,0,1,.91761.91761V130.141a.91752.91752,0,0,1-.91752.91752H88.90691a.91762.91762,0,0,1-.91762-.91762v-6.0731A.91762.91762,0,0,1,88.90691,123.15018Z" transform="matrix(-0.96739, 0.25327, -0.25327, -0.96739, 196.98111, 218.46113)" fill="#ffd62f"></path><path d="M59.969,12.61767h1.83177a.91755.91755,0,0,1,.91755.91755v6.07308a.9176.9176,0,0,1-.9176.9176H59.969a.91753.91753,0,0,1-.91753-.91753V13.53516a.91749.91749,0,0,1,.91749-.91749Z" transform="translate(112.05408 8.32998) rotate(165.32951)" fill="#ffd62f"></path><path d="M109.59075,22.85066h1.83156a.91762.91762,0,0,1,.91762.91762v6.073a.91759.91759,0,0,1-.91759.91759h-1.83159a.91757.91757,0,0,1-.91757-.91757V23.76823a.91757.91757,0,0,1,.91757-.91757Z" transform="translate(27.96286 -71.17563) rotate(37.97539)" fill="#ffd62f"></path><path d="M39.28524,112.91723h1.83165a.91757.91757,0,0,1,.91757.91757v6.07311a.91757.91757,0,0,1-.91757.91757h-1.8316a.91762.91762,0,0,1-.91762-.91762V113.8348a.91757.91757,0,0,1,.91757-.91757Z" transform="translate(68.50139 -8.84436) rotate(37.97732)" fill="#ffd62f"></path><path d="M131.138,60.89732h1.83167a.91758.91758,0,0,1,.91758.91758V67.888a.91757.91757,0,0,1-.91757.91757h-1.83176a.9175.9175,0,0,1-.9175-.9175V61.81491A.91758.91758,0,0,1,131.138,60.89732Z" transform="translate(168.3423 -82.99548) rotate(82.97586)" fill="#ffd62f"></path><path d="M17.73792,74.87052H19.5696a.91758.91758,0,0,1,.91758.91758v6.073a.91767.91767,0,0,1-.91767.91767H17.73793a.91758.91758,0,0,1-.91758-.91758V75.78809a.91757.91757,0,0,1,.91757-.91757Z" transform="translate(82.67776 41.81745) rotate(82.97547)" fill="#ffd62f"></path><path d="M119.47128,103.03669H121.303a.91755.91755,0,0,1,.91755.91755v6.07315a.91757.91757,0,0,1-.91757.91757h-1.83168a.91757.91757,0,0,1-.91757-.91757v-6.07312a.91758.91758,0,0,1,.91758-.91758Z" transform="translate(266.87581 69.07984) rotate(127.97789)" fill="#ffd62f"></path><path d="M29.40463,32.73118h1.83169a.9176.9176,0,0,1,.9176.9176V39.7219a.91757.91757,0,0,1-.91757.91757H29.40468a.91757.91757,0,0,1-.91757-.91757V33.64871a.91752.91752,0,0,1,.91752-.91752Z" transform="translate(65.96786 26.50569) rotate(127.97732)" fill="#ffd62f"></path><path d="M81.4246,124.58407h1.83174a.9175.9175,0,0,1,.9175.9175v6.07305a.91765.91765,0,0,1-.91765.91765H81.42452a.91752.91752,0,0,1-.91752-.91752v-6.07308a.9176.9176,0,0,1,.9176-.9176Z" transform="translate(167.85452 237.18812) rotate(172.97547)" fill="#ffd62f"></path><path d="M67.45137,11.18387h1.83168a.91757.91757,0,0,1,.91757.91757v6.07311a.91758.91758,0,0,1-.91758.91758H67.4514a.9176.9176,0,0,1-.9176-.9176V12.10144A.91757.91757,0,0,1,67.45137,11.18387Z" transform="translate(126.14482 12.94771) rotate(172.97539)" fill="#ffd62f"></path><path d="M103.63531,111.15975l-67.8547-67.8547a48.29594,48.29594,0,0,0-9.0252,23.1412L80.494,120.185A48.2953,48.2953,0,0,0,103.63531,111.15975Z" transform="translate(-11.92773 -8.85365)" fill="#ffd62f"></path><path d="M49.85231,30.37865a48.78613,48.78613,0,0,0-10.608,8.7002l68.6172,68.6172a48.78936,48.78936,0,0,0,8.7001-10.6079Z" transform="translate(-11.92773 -8.85365)" fill="#ffd62f"></path><path d="M60.32791,25.62785a48.24726,48.24726,0,0,0-6.227,2.4579l64.7536,64.7538a48.22682,48.22682,0,0,0,2.4579-6.2272Z" transform="translate(-11.92773 -8.85365)" fill="#ffd62f"></path><path d="M100.92281,68.672a18.48478,18.48478,0,0,0,1.8262-16.6092c-2.4645-7.0278-7.625-11.1265-15.03128-12.2603-.95252-.1458-1.35442-.5512-1.34072-1.496.02072-1.4213-.03128-2.8437-.0116-4.265.0128-.9222-.3779-1.3267-1.3112-1.3207q-4.6917.0306-9.3837,0c-.8849-.0047-1.2452.4053-1.2336,1.2634.0187,1.3809-.0217,2.7629.0117,4.1432.0243,1.0045-.3298,1.5279-1.41488,1.4598a21.19526,21.19526,0,0,0-2.558.0004c-1.07192.0628-1.44952-.4422-1.42592-1.455.0313-1.3397-.027-2.6815.0027-4.0212.0214-.9648-.3486-1.4088-1.3575-1.3987-3.087.031-6.1746.0246-9.2618.0049-.9252-.0058-1.3376.3822-1.3187,1.3128.0278,1.3806-.01978,2.763.0201,4.143.0302,1.0446-.40488,1.4438-1.4533,1.4177-2.0704-.0514-4.1434.0069-6.2147-.0216-.9362-.0129-1.3257.3831-1.30788,1.3118.02948,1.5431.008,3.0872.008,4.6308h.01488c0,1.6249.0159,3.2501-.0064,4.8746-.0119.8736.3669,1.2614,1.2442,1.2436,1.1775-.0238,2.3565.0226,3.5338-.0032.9116-.02,1.331.3421,1.3308,1.2911-.00028,1.5423.114,3.0845.121,4.627q.05208,11.6382.0722,23.2766c.0087,3.2905-.0152,6.5813.0316,9.8711.0157,1.1047-.413,1.5554-1.5066,1.5094-1.0542-.0444-2.1133.0297-3.1678-.0112-1.0489-.0406-1.446.4102-1.4311,1.4513q.06405,4.44735.0173,8.896c-.0125,1.1436.4422,1.618,1.5907,1.5945,1.9896-.0406,3.9809.0131,5.9711-.0064,1.0047-.0099,1.5081.3671,1.4508,1.4391-.0519.9719.0177,1.9497-.0049,2.924-.02058.8856.4007,1.2426,1.2579,1.2391q4.75278-.019,9.50552-.004c.93178.0022,1.31248-.4526,1.28648-1.3621-.0279-.9741.0297-1.951-.0112-2.9242-.0399-.9487.3955-1.3319,1.3059-1.3118.8526.0189,1.7065.025,2.55882-.0011,1.05428-.0324,1.44908.4769,1.40138,1.4951-.0437.932.0243,1.8689-.0041,2.8022-.0286.9426.4171,1.3133,1.3266,1.3089q4.6308-.0222,9.2618.0018c1.0141.0068,1.517-.3873,1.4604-1.4464-.0412-.7697-.008-1.5432-.0099-2.3151-.0046-1.7847-.0043-1.7718,1.7922-1.885a18.61868,18.61868,0,0,0,13.0738-6.4659c6.125-6.7925,6.2596-19.3359-.502-26.2438A1.8277,1.8277,0,0,1,100.92281,68.672Zm-34.6125-15.5855c-.0149-1.1247.4639-1.4866,1.53642-1.472,3.00168.0406,6.00428.0141,9.00658.0141v.0042c2.84,0,5.6803-.026,8.5199.0063,3.9148.0445,6.41352,2.7456,6.4104,6.8745-.00288,3.9293-2.5277,6.5982-6.3884,6.6262-5.842.0425-11.68448-.0017-17.5266.0303-1.091.006-1.5352-.3981-1.5282-1.4948Q66.374,58.381,66.31031,53.08645Zm20.975,39.0878c-3.2063.0657-6.415.0131-9.62258.0131v.0058c-3.167,0-6.33412.0099-9.50112-.0044-1.4643-.0065-1.5981-.1576-1.616-1.6056-.0481-3.8966-.1061-7.7931-.1325-11.6899-.0105-1.5557.1308-1.6845,1.655-1.686,6.37462-.0065,12.7494-.027,19.1239.0095,4.1579.0238,6.9964,3.07,7.0179,7.423C94.23151,88.98375,91.42031,92.08955,87.28531,92.17425Z" transform="translate(-11.92773 -8.85365)" fill="#d46020"></path><path d="M101.80173,67.10175l-10.154-10.154a9.13234,9.13234,0,0,1,.13608,1.5658,6.569,6.569,0,0,1-2.14508,5.1103l15.92888,15.9286a17.80406,17.80406,0,0,0-4.4356-8.1752,1.82763,1.82763,0,0,1-.20928-2.7053C101.25011,68.15405,101.529,67.62835,101.80173,67.10175Z" transform="translate(-11.92773 -8.85365)" fill="#f26e26"></path><path d="M84.615,65.14145c-5.582.0335-11.1644-.002-16.7465.0286-1.0909.006-1.535-.3981-1.5281-1.4948q.0336-5.29425-.03-10.5888c-.015-1.1247.4637-1.4866,1.5362-1.4721,1.082.0147,2.1642.0035,3.2464.0051l-13.9621-13.9621c.0027.1719-.00118.3441.0037.516.0302,1.0446-.40488,1.4437-1.4534,1.4178-2.0703-.0515-4.1434.0068-6.2146-.0217-.9362-.013-1.3256.383-1.3081,1.3117.0295,1.5432.0083,3.0872.0083,4.6309h.0148c0,.8336-.0044,1.6672-.0033,2.5009l3.6156,3.6156c.3866.0021.7733.0069,1.1595-.0015.9112-.0201,1.3306.342,1.3306,1.291,0,.4104.01872.8208.03072,1.2312l23.06258,23.0626c3.2715-.0017,6.5433-.0138,9.8146.0048,4.1582.0239,6.9965,3.0701,7.0179,7.4232a7.36782,7.36782,0,0,1-3.0607,6.3438l8.532,8.5319a22.25933,22.25933,0,0,0,1.95262-1.8945,18.84772,18.84772,0,0,0,4.48968-10.9712Z" transform="translate(-11.92773 -8.85365)" fill="#f26e26"></path><path d="M67.41273,32.71275c-2.893.0268-5.78692.0223-8.68032.0047l18.916,18.9158c2.575-.0038,5.1501-.0235,7.7247.0058a7.74046,7.74046,0,0,1,1.0723.1063l-12.4109-12.4109a1.37545,1.37545,0,0,1-1.00078.2527,21.19227,21.19227,0,0,0-2.55782.0004c-1.072.0627-1.4497-.4423-1.42618-1.455.02958-1.2594-.01592-2.5206.00278-3.7802Z" transform="translate(-11.92773 -8.85365)" fill="#f26e26"></path><path d="M84.66673,92.19115c-2.33442.0102-4.66942-.0038-7.004-.0038v.0058c-3.16712,0-6.33412.0099-9.50122-.0044-1.4642-.0066-1.598-.1577-1.61578-1.6057-.04822-3.8965-.10612-7.793-.13262-11.6899-.01038-1.5557.1308-1.6844,1.655-1.6859.5385-.0006,1.0771.0015,1.61562.0008l-15.26522-15.265q.03495,9.43935.0586,18.8787c.0088,3.2904-.015,6.5813.03162,9.8711.01568,1.1046-.41292,1.5553-1.50642,1.5093-.1643-.0069-.329,0-.4933-.0021l16.8582,16.8579a1.77023,1.77023,0,0,0,.1109-.6954c-.0279-.9742.0298-1.9511-.011-2.9243-.0399-.9486.39562-1.3318,1.3057-1.3117.8527.0189,1.7065.025,2.5587-.0012,1.0543-.0324,1.4493.477,1.4017,1.4951-.0438.9321.0243,1.869-.0041,2.8023-.0286.9426.4171,1.3132,1.3265,1.3089q4.6308-.02235,9.2617.0017c1.0141.0069,1.5171-.3872,1.4603-1.4464-.0411-.7696-.0078-1.5431-.0097-2.3151-.0046-1.7846-.0041-1.7717,1.7921-1.8849a18.5768,18.5768,0,0,0,6.4365-1.566Z" transform="translate(-11.92773 -8.85365)" fill="#f26e26"></path></g></svg> 