<?xml version="1.0" encoding="utf-8"?>
<!-- Generator: Adobe Illustrator 24.3.0, SVG Export Plug-In . SVG Version: 6.00 Build 0)  -->
<svg version="1.1" id="Layer_2" xmlns="http://www.w3.org/2000/svg" xmlns:xlink="http://www.w3.org/1999/xlink" x="0px" y="0px"
	 viewBox="0 0 1623.8 1564.6" style="enable-background:new 0 0 1623.8 1564.6;" xml:space="preserve">
<style type="text/css">
	.st0{fill:#FFFFFF;}
	.st1{opacity:0.32;fill:#DCDFFE;}
	.st2{opacity:0.44;fill:#DCDFFE;}
	.st3{fill:#DCDFFE;}
	.st4{opacity:0.19;}
	.st5{fill:#252144;}
	.st6{fill:#F0B90B;}
	.st7{fill:#F7AFA4;}
	.st8{fill:#E98786;}
	.st9{fill:#3D3B66;}
	.st10{fill:#F94B4B;}
	.st11{fill:#6F6FEF;}
	.st12{fill:#3D325C;}
</style>
<g>
	<g>
		<g>
			<g>
				<ellipse class="st0" cx="1280.8" cy="665.3" rx="18.5" ry="18.1"/>
			</g>
			<g>
				<ellipse class="st0" cx="1287.2" cy="625.6" rx="9.9" ry="9.7"/>
			</g>
		</g>
		<g>
			<g>
				<ellipse class="st0" cx="551.1" cy="722.3" rx="18.1" ry="17.7"/>
			</g>
			<g>
				<ellipse class="st0" cx="554.2" cy="771.9" rx="9.8" ry="9.6"/>
			</g>
		</g>
		<g>
			<g>
				<path class="st0" d="M627.7,388.1c2.9,9.3,13,14.5,22.6,11.7c9.5-2.9,14.9-12.8,11.9-22.1c-2.9-9.3-13-14.5-22.6-11.7
					C630.1,368.9,624.7,378.8,627.7,388.1z"/>
			</g>
			<g>
				<ellipse class="st0" cx="1086.7" cy="731" rx="10.9" ry="10.7"/>
			</g>
		</g>
	</g>
</g>
<g>
	<g>
		<g>
			<g>
				<g>
					<path class="st1" d="M1383.7,697.6l2.5-3c0.2-0.2,18.3-21.9,35.5-50.6c23.2-38.8,33.6-71.4,31-96.9c-1.6-16.1-8.6-29.3-20.7-39
						c-16.3-13.1-28.8-9.1-36.4-3.4c-15.5,11.5-26.5,41.4-29.6,80c-3.1,39.7,2.7,79.6,16,109.4L1383.7,697.6z M1410.8,504.2
						c5.7,0,11.8,2.5,18.1,7.6c11.1,8.9,17.5,20.9,18.9,35.8c5.2,52.2-50.3,125.1-62.9,141c-26.4-63.5-15.1-158.8,13.6-180
						C1402.4,505.6,1406.5,504.2,1410.8,504.2z"/>
				</g>
			</g>
		</g>
		<g>
			<g>
				<g>
					<path class="st1" d="M1363.7,800.3l-0.6-4c0-0.3-4.1-26.9-15.1-58.3c-10.2-29.1-28.7-68.4-58.9-90.4
						c-14.3-10.5-23.9-9.1-29.5-6.1c-9,4.8-13.6,17.4-12.5,33.8c1.5,20.8,11.7,44.5,28.2,65.1c20.3,25.4,49.6,45.6,84.5,58.6
						L1363.7,800.3z M1268.4,644c5.1,0,11.2,2.5,17.8,7.3c49.6,36.2,67.8,121.9,71.4,141.6c-32.4-12.6-59.4-31.8-78.5-55.5
						c-15.9-19.8-25.8-42.6-27.2-62.5c-1-14.5,2.7-25.5,10-29.3C1263.9,644.6,1266,644,1268.4,644z"/>
				</g>
			</g>
		</g>
		<g>
			<g>
				<g>
					<path class="st1" d="M1404.2,807.1c16.2,0,37-2.3,62.8-9.4c39.3-10.7,68.8-47.9,64.5-69.7c-1.5-7.7-8.6-20.1-38.8-16.7
						c-36.1,4-70.5,26.6-93.1,44.9c-24.4,19.7-40.5,38.8-40.7,39l-1.8,2.1l2.4,1.4C1360.3,799.2,1374.3,807.1,1404.2,807.1z
						 M1502.1,715.5c14.3,0,22.9,4.6,24.7,13.4c3.9,19.7-25,54.4-61,64.2c-60.2,16.4-92.2,6.4-101.1,2.7
						c11.3-12.6,68.4-73.2,128.6-79.8C1496.3,715.7,1499.3,715.5,1502.1,715.5z"/>
				</g>
			</g>
		</g>
		<g>
			<g>
				<g>
					<path class="st1" d="M1324.3,922.5l-1-4.2c-0.1-0.3-7.9-32.9-23.7-67.2c-21.3-46.5-46.1-74.1-73.7-81.9
						c-16.9-4.8-28.9-0.4-32.9,12.1c-5.4,16.6,4.7,44.3,25.5,70.5c24.8,31.1,60.9,55.8,101.6,69.3L1324.3,922.5z M1213.5,772.1
						c3.7,0,7.6,0.7,11.1,1.7c56.2,15.9,86.8,119.1,92.9,141.4c-38.1-13.5-71.8-36.9-95.1-66.3c-19.6-24.6-29.5-51.2-24.7-66.2
						C1200.3,774.6,1206.6,772.1,1213.5,772.1z"/>
				</g>
			</g>
		</g>
		<g>
			<g>
				<g>
					<path class="st1" d="M1412.5,940.2c9.6,0,19.2-0.8,28.6-2.6c42.8-8.4,62.9-33.2,60.2-52.2c-2-13.7-16.6-27.4-51.9-24.6
						c-70.9,5.6-129.5,55.9-130.1,56.4l-2.9,2.5l3.5,1.5C1322.2,922,1366.2,940.2,1412.5,940.2z M1458.4,865.1
						c25.7,0,36.6,10.4,38.2,20.9c2.5,17.1-18,39.3-56.4,46.9c-46.2,9.1-100.1-9.3-114.6-14.7c12.8-10.2,64.1-48,124.2-52.7
						C1452.9,865.3,1455.7,865.1,1458.4,865.1z"/>
				</g>
			</g>
		</g>
		<g>
			<g>
				<g>
					<path class="st1" d="M1264.9,1051.9l-0.5-3.9c0-0.3-4.2-33.2-16.7-69.5c-11.6-33.7-33-77.4-69.1-94.1
						c-15.6-7.2-24.6-4.5-29.5-1c-7.8,5.6-10.9,17.5-8.6,33.4c3.1,22.1,16.2,49.1,34.9,72.1c15.9,19.5,43.6,46.1,85.8,61.6
						L1264.9,1051.9z M1161,884.6c4.4,0,9.7,1.4,15.6,4.1c59.7,27.6,79.1,134,82.4,155.9c-73.6-28.7-108.8-93.7-113.7-128.5
						c-2-13.9,0.5-24.5,6.7-29C1154.5,885.5,1157.5,884.6,1161,884.6z"/>
				</g>
			</g>
		</g>
		<g>
			<g>
				<g>
					<path class="st1" d="M1396.8,1109.5c25.5,0,49.4-12.6,55.2-30.6c5-15.6-5.2-30.8-28.1-41.8c-31.5-15.1-74.1-11.8-104.3-6.4
						c-32.6,5.8-58.2,15.4-58.4,15.5l-4,1.5l3.3,2.6c0.6,0.5,63.6,49,124.7,58.4C1389.1,1109.2,1393,1109.5,1396.8,1109.5z
						 M1367.4,1030.9c19.4,0,38.5,2.8,54.4,10.5c20.8,10,29.9,22.8,25.6,36.1c-5.3,16.2-31.8,31.1-61.4,26.5
						c-51.8-8-105-44.7-118.9-54.9C1280.5,1044.5,1324.5,1030.9,1367.4,1030.9z"/>
				</g>
			</g>
		</g>
		<g>
			<g>
				<g>
					<path class="st1" d="M1190.1,1172.3l-0.8-3.9c-0.1-0.4-7-36.1-20.8-71.8c-18.8-48.6-40.7-73.9-65.1-75.3
						c-15-0.9-25.2,6.6-27.8,20.3c-3.5,18.1,5.9,44.5,24.5,68.8c21.5,28.2,52.2,49.7,86.2,60.6L1190.1,1172.3z M1101,1026
						c0.7,0,1.4,0,2.1,0.1c48.6,2.7,75.7,116.3,80.7,139.2c-31.5-10.9-59.7-31.3-79.8-57.6c-17.5-23-26.8-48.5-23.6-65.1
						C1082.4,1031.7,1089.6,1026,1101,1026z"/>
				</g>
			</g>
		</g>
		<g>
			<g>
				<g>
					<path class="st1" d="M1312.5,1241.1c26.6,0,49.3-13.2,54.7-29.1c2.6-7.7,4.7-27.2-32.8-42.3c-36.2-14.6-74.5-14.6-100.3-12.2
						c-27.9,2.7-46.9,8.7-47.7,9l-3.2,1l2,2.6c0.4,0.5,39.4,51.2,107.5,68.4C1299.3,1240.4,1306,1241.1,1312.5,1241.1z
						 M1259.6,1161.2c22.8,0,48.4,3.1,72.9,13c23.7,9.5,34.7,22.8,30.1,36.4c-5.9,17.4-37.3,31.5-68.8,23.6
						c-57.4-14.5-93.6-53.4-102.6-64C1200.3,1167.6,1227,1161.2,1259.6,1161.2z"/>
				</g>
			</g>
		</g>
		<g>
			<path class="st2" d="M1026.9,1338.3c63.6-45.7,122-108.1,173.8-185.4c41.4-61.8,78.6-133.2,110.6-212.2
				c54.5-134.5,75.2-246.1,75.4-247.2l-4.8-0.8c-0.2,1.1-20.9,112.3-75.2,246.4c-50.1,123.6-139.8,292.6-282.7,395.4L1026.9,1338.3z
				"/>
		</g>
	</g>
	<g>
		<g>
			<g>
				<g>
					<path class="st1" d="M485.7,1130.4l-0.5-3.4c-0.1-0.8-9.8-77.7,36.4-205.9c9.4-26,17.9-48.3,25.5-68
						c30-78.3,42.4-110.7,11.9-135.2c-9.6-7.7-20.3-10.7-31.6-8.7c-31.3,5.4-58.1,46-65.6,58.3c-5.4,9-8.6,10.2-9.3,9.9
						c-1-0.4-3.2-4.5-2-18.2c1.2-13.2,5.2-31.2,11.6-51.8l0.7-2.1c21-67.9,49.8-160.8,13.2-183.4c-10-6.2-19.2-8.1-27.9-5.8
						c-19.1,5.1-32.2,29.7-45.9,55.7c-1.1,2-2.1,4-3.2,6.1c-21.4,40.1-27.4,38.7-27.7,38.7c-0.2-0.1-5-1.9-0.5-35.9
						c0.5-3.8,1-7.8,1.6-11.9c4.4-32.6,10.4-77.3,9.4-116.1c-1.1-46.8-11.8-74.9-32.8-85.9c-18.5-9.7-36.1-10.9-52.3-3.5
						c-28.9,13.2-51.3,53.7-64.9,117.1c-13.5,63.3-0.5,116.5,7.3,148.3c4.3,17.4,7.7,31.2,2.9,32.9c-4.2,1.5-16-9.1-27.4-19.4
						c-20.9-18.8-49.6-44.4-76.9-42.4c-12,0.9-22.7,7-32,18.2c-7.7,9.3-10.9,19.6-9.6,30.8c4.1,34.6,49.9,69.4,83.3,94.8
						c8.9,6.8,16.6,12.7,22.1,17.4c7.6,6.7,7.6,8.6,7.6,8.8c0,0-0.5,1.4-7.1,0.7c-5.3-0.6-12.5-2.3-20.8-4.2
						c-17.4-4.1-39.1-9.1-58.3-7.8c-23,1.6-37.3,12.3-42.7,31.8c-2.7,9.9-1.7,19.1,3.2,27.3c14.6,24.7,61.5,36.8,99.1,46.5
						c23.4,6,45.6,11.7,51.7,18.7c6.6,7.5,9.1,13,7.9,17.4c-2.3,7.9-17.3,14-42.6,21.9c-5.1,1.6-7.8,5.3-7.5,10.5
						c0.8,18.7,41.4,60.7,98.7,102.3c66.1,48,135.9,82.5,191.5,94.7L485.7,1130.4z M534.1,713.4c7.7,0,15.1,2.8,21.9,8.2
						c27.8,22.3,16.6,51.6-13.4,129.9c-7.5,19.7-16.1,42-25.5,68.1c-24.3,67.5-33,120.4-36,152.9c-2.5,27.3-1.6,44.8-1,51.8
						c-54.4-12.7-122.1-46.5-186.4-93.2c-55.3-40.1-95.9-81.6-96.7-98.7c-0.1-3.1,1.1-4.9,4.2-5.8c28.1-8.8,42.9-15.1,45.8-25.1
						c1.7-6.1-1.1-13-8.9-21.8c-7.1-8-27.9-13.4-54.1-20.1c-36.8-9.5-82.5-21.2-96.2-44.3c-4.3-7.2-5.1-15-2.7-23.7
						c11.1-40.3,61.7-28.5,95.2-20.6c19.6,4.6,31.4,7.3,33.7,0.4c1.9-5.9-8.2-13.9-31.3-31.4c-30.9-23.5-77.6-59-81.5-91.6
						c-1.2-10,1.6-18.9,8.5-27.3c8.5-10.3,17.8-15.7,28.6-16.5c25.2-1.8,53,23,73.2,41.2c15.3,13.7,25.4,22.7,32.3,20.3
						c8.9-3.1,5.6-16.4,0.2-38.4c-7.7-31.4-20.6-84-7.3-146.2c13.2-61.9,34.7-101.3,62.2-113.8c14.7-6.7,30.8-5.6,47.9,3.4
						c44.2,23.1,29.6,132.1,20.8,197.2c-0.6,4.1-1.1,8.1-1.6,11.9c-4.4,33.7-0.5,39.6,3.9,41c4.7,1.4,12.6-2,33.5-41
						c1.1-2,2.2-4.1,3.2-6.1c13.3-25.1,25.8-48.8,42.9-53.3c7.4-2,15.2-0.3,24.1,5.2c33.4,20.6,4.1,115.3-15.3,178l-0.7,2.1
						c-10.4,33.6-17.7,71.2-7,75.8c4.4,1.9,9.6-2.1,15.4-11.8c14.8-24.5,39-52.1,62.2-56.1C530.2,713.6,532.2,713.4,534.1,713.4z"/>
				</g>
			</g>
		</g>
		<g>
			<path class="st2" d="M570.7,1246l3.6-3.2c-140.6-152-201.1-360.8-227-509.3c-28.1-160.9-22.9-287.4-22.9-288.7l-4.8-0.2
				c-0.1,1.3-5.3,128.3,22.9,289.7c16.6,94.8,41.3,182.8,73.5,261.5C456.2,1094.4,508.2,1178.5,570.7,1246z"/>
		</g>
		<g>
			<path class="st2" d="M354.8,796.6l1.7-4.4C328,782,261,740.9,260.3,740.5l-2.6,4C260.5,746.2,325.8,786.3,354.8,796.6z"/>
		</g>
		<g>
			<path class="st2" d="M348.5,744.4c25.9-14.1,66-78.8,67.7-81.6l-4.1-2.4c-0.4,0.7-41.1,66.4-65.9,79.9L348.5,744.4z"/>
		</g>
		<g>
			<path class="st3" d="M417,990.4c30.6-22.4,60.2-114,61.4-117.9l-4.6-1.4c-0.3,0.9-30.4,94-59.7,115.5L417,990.4z"/>
		</g>
		<g>
			<path class="st2" d="M383.6,896.4l0.5-4.7c-53.7-5-103.8-33.3-104.3-33.5l-2.4,4.1C277.8,862.5,328.8,891.3,383.6,896.4z"/>
		</g>
	</g>
	<g class="st4">
		<path class="st1" d="M623.1,1326.2c-382-158.6-74.7-314.1-161.5-483.9C341,606.7,382.2,413.4,613.9,376.9
			c231.7-36.5,577.5,134.4,646.1,286.3c94.9,210.1-137.3,285.6-161.9,362.4C1072.9,1104.4,1303.1,1608.5,623.1,1326.2z"/>
	</g>
	<g>
		<g>
			<path class="st5" d="M696.6,663.2c0,0-78.8-4.8-59.5-86.4c0,0-35.8-16.1-31.3-79c4.4-62.9,69.2-66.6,69.2-66.6
				s-15.7-38.6,18.5-61c34.2-22.3,51.2,14.2,51.2,14.2s11.9-72.4,95.7-65.5c83.8,6.9,86.8,74.3,86.8,74.3s56.5-5,75.6,46.3
				c19.1,51.3-12.5,69.5-12.5,69.5s24.8,13.1,19.7,53.3c-5.1,40.1-45.7,55-87.1,57.9C881.4,623.2,696.6,663.2,696.6,663.2z"/>
		</g>
		<g>
			<path class="st6" d="M454.1,916.5c33.1-107,192.9-174.6,192.9-174.6l99.2,49.7l20.3,8.8l12.8-10.1l17.4-20.9
				c22.4,6.2,84.5,30.3,138.8,42.8c54.3,12.5,123.1-4.3,123.1-4.3c-11.7-54.3-30.9-139.7-30.9-139.7c21-4.5,75.4-30.9,75.4-30.9
				s28.5,44.5,48.1,83.4c19.7,38.8,90.4,150.1,44.8,213c-45.6,62.9-259.3,58.8-259.3,58.8c32.1,83.9,42.4,357.8,42.2,418.8
				c-43.5,91.8-301.5-6.7-448.9-40.9c3.7-59.1,11.4-114.1,6.5-165.9C529.4,1127.5,421,1023.5,454.1,916.5z"/>
		</g>
		<g>
			<path class="st7" d="M643.5,746.7c0,0,51.6-64.3,69.1-125.4c17.4-61,90.6,108.8,90.6,108.8l-6.4,39.2l-20.3,34.7l-69.3-9.9
				L643.5,746.7z"/>
		</g>
		<g>
			<path class="st8" d="M712.6,621.4c17.4-61,90.6,108.8,90.6,108.8l-6.4,39.2l-4.4,10.3c-14.4,1.8-27.3-0.7-37.4-6.3
				c-25.9-14.6-47.8-83.5-54.2-119.2C705.1,644,709.2,633.1,712.6,621.4z"/>
		</g>
		<g>
			<path class="st0" d="M602.5,948.3l4.8-0.3c-3.7-49,16-89.4,33.2-114.6c18.6-27.4,40.6-44.2,40.8-44.4l-5.3-2.7
				c-0.8,0.7-20.5,16.5-39.5,44.5C618.9,856.5,598.7,897.9,602.5,948.3z"/>
		</g>
		<g>
			<path class="st6" d="M579.4,919.1c0,0,100,76.2,130.3,175.4l243.5-26.7c0,0,7.8,62.5,8.6,93.4c0,0-189.8,70.7-260.5,83.3
				c-70.7,12.5-84.9,6.1-143.4-83.6c-58.5-89.7-65.9-125.3-74.1-161.9"/>
		</g>
		<g>
			<path class="st6" d="M573.3,926.5c0,0,87.4,116.1,118.1,216.6l248.2-46.5c0,0,10.6,34.4,22.2,64.6c0,0-205.5,120.6-263.9,130.9
				c-71.6,12.7-86,6.2-145.3-84.7c-9.6-14.7-18.5-29-26.6-42.7c-19-47.8-49.6-113.1-64.5-171.1L573.3,926.5z"/>
		</g>
		<g>
			<path class="st7" d="M944,529.3c0,0,12,71.7-35.8,152.6c-47.8,80.9-107.7,94.8-139.5,76.9c-31.8-17.9-57.6-117.5-56-137.5
				c1.6-20,35.3-111.9,35.3-111.9s93.9-75.3,114.7-55.9C883.3,473,944,529.3,944,529.3z"/>
		</g>
		<g>
			<path class="st5" d="M962,546.9c0,0-22.5,26.6-77.8,5.6c-59.4-22.6-49.2-73-49.2-73s-17,31-62.2,37.3c0,0-12.7,59.5-34.2,72
				c-21.5,12.5,14.4-43.8-32.4-48.9C659.3,534.7,707,415,707,415l111.1-39.8l82.5,29.9c0,0,73.8,35.9,77.9,63.2
				C982.6,495.7,962,546.9,962,546.9z"/>
		</g>
		<g>
			<path class="st7" d="M1085.2,603.6c0,0-13.1-87-66.4-126.9c-40.5-30.3-81.3-23.7-110.2,5.6c-20.9,21.2,8.6,22.1,25.4,15.9
				c9.5-3.5,36.1-13,43-2.6c4.9,7.4-28,13.4-33,33.7c-5.1,20.2,0.6,22.1,5.2,42.4c3.5,15.5,11.5,17.6,24.4,21.1
				c13,3.5,17.4,2.2,17.4,2.2s1.5-4.5,22.2,29.8C1024.8,643.8,1085.2,603.6,1085.2,603.6z"/>
		</g>
		<g>
			<path class="st9" d="M993.1,1156.2l-5.9-1.5c-6.6-1.7-10.3-8.4-8.2-14.8l55.1-168.2c1.9-6,7.3-10.2,13.7-10.8l82-6.8
				c2.8-0.2,5.5,0.4,7.8,1.9l10.9,6.9L993.1,1156.2z"/>
		</g>
		<g>
			<path class="st5" d="M1146.5,962.7l-92.5,11.4c-3.4,0.4-6.1,2.7-7.1,5.9l-53.8,176.2l86-13.8c5.8-0.9,10.6-4.9,12.6-10.3
				l59.3-163.9C1152.1,965.3,1149.6,962.3,1146.5,962.7z"/>
		</g>
		<g>
			<path class="st7" d="M943,1084.1c0,0,26.8-22.3,35-38.8c8.2-16.5,42.9-23.6,55.3-30.5c12.4-6.8,30.7-5.5,12.8,26.2
				c0,0,44.6-11.1,64.2-20.5c19.6-9.4,31.7-19.3,36-16.4c4.3,2.9-1.1,30.8-21.8,43.1c0,0-1.3,19.5-17.9,32.6c0,0-9.1,23.8-34.7,33.6
				c-25.7,9.8-115.6,39.4-115.6,39.4L943,1084.1z"/>
		</g>
		<g>
			<path class="st6" d="M576.4,900.5c0,0,86.3,114.6,116.6,213.8l214.1-25.8c0,0,28,69,28.5,74.9c0,0-165.5,85.5-236.2,98
				s-84.9,6.1-143.4-83.6c-58.5-89.7-90.5-163.6-98.8-200.1"/>
		</g>
		<g>
			<ellipse class="st7" cx="712.8" cy="588.8" rx="41.8" ry="40.8"/>
		</g>
		<g>
			<path class="st0" d="M796.8,769.4c0,0-6.9,15.9-51,11.1c-44.1-4.8-92-48.1-92-48.1s-11.8,7-19.7,15.5c0,0,58.3,72.2,125.1,69
				c66.8-3.3,49.8-43.6,49.8-43.6L796.8,769.4z"/>
		</g>
		<g>
			<path class="st0" d="M952,1076.1c0,0-37,9.9-44.9,12.4c0,0,10.9,54.5,28.5,74.9c0,0,38.4-13.2,42.9-18
				C978.5,1145.5,957.7,1125.9,952,1076.1z"/>
		</g>
		<g>
			<path class="st0" d="M1013.3,624.8c0,0,11.6,35.7,14.5,43.4c0,0,55.3-12.8,75.4-30.9c0,0-15-37-20.1-41.2
				C1083.1,596,1064,617.1,1013.3,624.8z"/>
		</g>
		<g>
			<path class="st0" d="M938,992.2c0.1,0,0.2,0,0.3,0c1.3-0.2,2.2-1.4,2.1-2.7c-0.1-0.4-5.7-38.6-25.4-82.5
				c-11.6-25.8-25.7-48.6-42-67.7c-20.4-23.9-44.2-42.1-70.8-53.9c-1.2-0.5-2.7,0-3.2,1.2c-0.6,1.2,0,2.6,1.2,3.1
				c58.8,26.2,92.4,79.2,110.3,119.1c19.5,43.4,25,81,25.1,81.4C935.8,991.3,936.8,992.2,938,992.2z"/>
		</g>
	</g>
	<g>
		<g>
			<path class="st1" d="M497.2,303.2c4.1,0,7.7-1.4,10.8-4.2c3.2-2.9,4.8-6.6,5-10.8c0.1-4.3-1.3-8.1-4.2-11.2c-3-3.1-6.7-4.8-11-5
				l0,0c-4.4-0.2-8.3,1.3-11.5,4.2c-3.2,2.9-4.8,6.6-5,10.9c-0.1,4.2,1.3,8,4.2,11.1c3,3.1,6.7,4.8,11.1,5
				C496.8,303.2,497,303.2,497.2,303.2z M497.5,276.6c3.1,0.1,5.6,1.2,7.6,3.4c2.1,2.2,3.1,4.8,3,7.9c-0.1,3-1.2,5.5-3.5,7.5
				c-2.2,2.1-4.8,3-7.9,2.9c-3.1-0.1-5.7-1.2-7.7-3.4c-2.1-2.2-3.1-4.8-3-7.8c0.1-3.1,1.2-5.6,3.5-7.7
				C491.8,277.5,494.4,276.5,497.5,276.6L497.5,276.6z M498.3,263.4c5.5,0,10.2-4.3,10.4-9.7c1.2-25.9-0.5-32.9-1.8-35.7
				c-2.8-8.1-11-15.7-25.1-23.5c-0.3-0.1-0.4-0.3-0.6-0.4c-6.2-4.5-8.8-14.4-7.7-29.5c0.2-5.6,2.7-10.1,7.6-13.8
				c5-3.8,11.8-5.5,20.2-5.2c10.3,0.3,17.9,3.8,23.4,10.6c2.8,3.4,4.6,8,5.3,13.7c0.6,4.9,4.9,8.7,10,8.9l0,0c3,0.1,5.9-1.1,8-3.3
				c2.1-2.2,3-5.2,2.7-8.1c-1.3-10.8-5.4-19.9-12.3-27c-8.8-9.2-20.9-14.1-36.1-14.6c-14.9-0.5-26.9,2.9-35.8,10.1
				c-8.7,7.1-13.4,16.2-14,26.9c0,0.3-0.1,0.6-0.1,1c-1.2,5.3-1.1,12.5,0.5,22.2c1.6,10.1,6.8,18.3,15.5,24.5
				c0.6,0.4,1.3,0.8,2.1,1.1c7.3,3,12.8,7.5,16.5,13.3c0.4,0.6,0.6,1.2,0.7,2c0.6,4.1,0.7,12.9,0.4,26c-0.1,5.6,4.4,10.2,10,10.4
				C498.1,263.4,498.2,263.4,498.3,263.4z M499.6,140.8c-8.7,0-15.9,2.1-21.4,6.3c-6.1,4.6-9.2,10.4-9.5,17.3
				c-1.3,16.9,1.9,27.9,9.6,33.5c0.3,0.2,0.7,0.5,1.1,0.7c12.9,7.1,20.6,14.1,22.9,21l0.1,0.3c1.2,2.5,2.5,10.3,1.4,33.6
				c-0.1,3-2.8,5.3-5.7,5.2c-3.1-0.1-5.5-2.6-5.4-5.6c0.3-13.6,0.2-22.4-0.4-26.8c-0.2-1.4-0.7-2.7-1.4-3.8
				c-4.2-6.7-10.5-11.8-18.7-15.2c-0.4-0.2-0.8-0.4-1.1-0.6c-7.7-5.5-12.1-12.5-13.5-21.4c-1.5-9-1.7-15.8-0.6-20.4
				c0.1-0.6,0.2-1.2,0.3-1.8c0.5-9.5,4.5-17.2,12.2-23.5c7.9-6.4,18.8-9.5,32.5-9c13.9,0.5,24.9,4.9,32.8,13.1
				c6.2,6.4,9.9,14.6,11,24.3c0.2,1.6-0.3,3.2-1.4,4.4c-1.1,1.2-2.6,1.8-4.2,1.7l0,0c-2.7-0.1-5-2.1-5.4-4.7
				c-0.8-6.6-2.9-12-6.3-16.1c-6.3-7.8-15.4-12-27-12.4C500.8,140.8,500.2,140.8,499.6,140.8z"/>
		</g>
	</g>
	<g>
		<g>
			<path class="st0" d="M570.9,555.2L570.9,555.2c4.7,0,8.2-4,7.5-8.5c-1.5-9.7-5.4-17.7-11.9-24c-8.2-8-19.2-12-33.1-12
				c-13.6,0-24.3,3.4-32,10.1c-7.6,6.6-11.4,14.7-11.6,24.3c0,0.4-0.1,0.9-0.1,1.3c-0.9,4.7-0.5,11.4,1.2,20.2
				c1.8,8.9,6.6,16,14.5,21.3c0.5,0.3,1,0.6,1.6,0.8c7.5,2.8,13.2,7.1,17.1,12.9c0.5,0.8,0.9,1.7,1.1,2.7c0.7,4,1.1,12.4,1.3,25.1
				c0,4.1,3.4,7.3,7.6,7.3l0,0c4.1,0,7.5-3.3,7.6-7.3c0.2-18.2-0.7-29.1-2.7-32.8c-2.7-7-10.5-13.8-23.5-20.4
				c-0.3-0.1-0.6-0.3-0.8-0.5c-6.7-4.6-9.8-14.4-9.2-29.6c0-5.9,2.5-10.9,7.6-15c5.1-4.1,11.8-6.1,20.4-6.1
				c10.4,0,18.5,3.4,24.2,10.1c3,3.5,5,8.1,5.9,13.8C564,552.5,567.2,555.2,570.9,555.2z M533.7,641.7c-3.6,0-6.6,1.2-9.1,3.7
				c-2.5,2.5-3.7,5.4-3.7,8.9c0,3.4,1.2,6.4,3.7,8.8c2.5,2.5,5.5,3.7,9.1,3.7c3.5,0,6.5-1.2,9-3.7c2.5-2.5,3.7-5.4,3.7-8.8
				c0-3.5-1.2-6.5-3.7-8.9C540.2,643,537.2,641.7,533.7,641.7z"/>
		</g>
	</g>
	<g>
		<g>
			<path class="st1" d="M841.5,101.2c30.9,2.8,60.4,14.2,84.9,33c12,9.2,25.4,20.9,28.8,36.1c3.2,14.3-3.6,26.6-16.4,33.5
				c-13.1,7.1-29.1,9.9-43.9,11.4c-16.3,1.6-32.9,0.7-48.9-2.6c-8.4-1.7-16.7-4.1-24.7-7.1c-6.6-2.5-13.9-5.1-19.5-9.5
				c-4.9-3.8-7.8-9.5-5.7-15.6c2.3-6.4,8.8-9.8,15.2-10.9c8.1-1.4,16.8-0.8,25-0.8c9,0,18,0.3,26.9,0.8c17.6,1,35.1,3.1,52.3,6.7
				c30.7,6.5,60.3,18.3,85.4,36.9c11.7,8.7,22.3,18.7,31.3,30.2c9.1,11.6,17.6,25,20,39.6c2.3,14.3-2.7,27.2-14.8,35.7
				c-12.6,8.9-29,12.8-44.2,14.3c-34.3,3.5-69.3-5.7-101.7-15.9c-33.1-10.4-65.1-23.9-95.5-40.4c-7.7-4.1-15.2-8.5-22.7-13
				c-3.7-2.2-0.3-7.9,3.4-5.7c26.6,16.1,54.5,29.9,83.6,41.2c28.2,10.9,57.7,20.3,87.7,25.2c15.2,2.5,30.7,3.6,46,1.9
				c14.2-1.6,30.3-5.5,41.6-14.6c24.6-19.7,0.9-54.2-14.8-71.7c-38.9-43.2-98-60.2-155-63.8c-15.7-1-31.6-1.3-47.3-0.7
				c-5.9,0.2-21.1,3-15.6,12.3c3.3,5.5,12.1,8.2,17.8,10.5c27.7,11.1,58.8,14,88.1,8.3c12.1-2.4,27.1-5.6,35.5-15.3
				c11.2-12.9,1.7-29.8-8.4-40c-19.7-19.9-46-33.8-73.5-40.1c-6.9-1.6-13.9-2.7-20.9-3.3C837.2,107.4,837.1,100.9,841.5,101.2
				L841.5,101.2z"/>
		</g>
	</g>
	<g>
		<path class="st1" d="M490.1,345.9c49.5,0,96.1-13.1,131.1-37c35.3-24.1,54.8-56.1,54.8-90.3s-19.5-66.2-54.8-90.3
			c-35.1-23.9-81.6-37-131.1-37c-49.5,0-96.1,13.1-131.1,37c-35.3,24.1-54.8,56.1-54.8,90.3s19.5,66.2,54.8,90.3
			C394,332.8,440.6,345.9,490.1,345.9z M490.1,96c99.8,0,181.1,55,181.1,122.6s-81.2,122.6-181.1,122.6S309,286.2,309,218.6
			S390.2,96,490.1,96z"/>
	</g>
	<g>
		<path class="st3" d="M641.5,356.5c1.6,0,3.2-0.1,4.9-0.4c6.6-1,12.5-3.8,16.7-7.9c4.4-4.3,6.3-9.5,5.5-14.7
			c-1.6-10.4-14.1-17.2-28-15.2c-6.6,1-12.5,3.8-16.7,7.9c-4.4,4.3-6.3,9.5-5.5,14.7l0,0C619.8,350.1,629.7,356.5,641.5,356.5z
			 M645.6,322.8c9.4,0,17.2,4.7,18.2,11.5c0.6,3.7-0.9,7.4-4.2,10.6c-3.4,3.4-8.4,5.7-13.9,6.5c-11.2,1.6-21.3-3.4-22.5-11.2l0,0
			c-0.6-3.7,0.9-7.4,4.2-10.6c3.4-3.4,8.4-5.7,13.9-6.5C642.8,322.9,644.2,322.8,645.6,322.8z"/>
	</g>
	<g>
		<ellipse class="st10" cx="229.6" cy="813.7" rx="13.5" ry="13.2"/>
	</g>
	<g>
		<ellipse class="st11" cx="1325.8" cy="595.8" rx="11.8" ry="11.5"/>
	</g>
	<g>
		<ellipse class="st0" cx="1083.6" cy="1230.9" rx="11.4" ry="11.2"/>
	</g>
	<g>
		<g>
			<g>
				<g>
					<ellipse class="st0" cx="1187.4" cy="681.9" rx="17.5" ry="17.1"/>
				</g>
			</g>
			<g>
				<g>
					<ellipse class="st0" cx="1193.5" cy="644.3" rx="9.4" ry="9.2"/>
				</g>
			</g>
		</g>
		<g>
			<g>
				<g>
					<ellipse class="st0" cx="496.5" cy="735.9" rx="17.1" ry="16.7"/>
				</g>
			</g>
			<g>
				<g>
					<ellipse class="st0" cx="499.4" cy="782.9" rx="9.3" ry="9.1"/>
				</g>
			</g>
		</g>
		<g>
			<g>
				<g>
					<ellipse class="st0" cx="585.3" cy="414.5" rx="17.1" ry="16.7"/>
				</g>
			</g>
			<g>
				<g>
					<path class="st0" d="M993.7,747.1c1.7,5.3,7.5,8.3,12.9,6.7c5.5-1.6,8.5-7.3,6.8-12.7c-1.7-5.3-7.5-8.3-12.9-6.7
						C995.1,736.1,992,741.8,993.7,747.1z"/>
				</g>
			</g>
		</g>
	</g>
	<g>
		<g>
			<path class="st1" d="M1177,493.3c1.1,0,2.2-0.1,3.4-0.4c3.5-0.9,6.3-2.9,8.1-5.9c1.9-3.1,2.4-6.4,1.5-9.8c-0.9-3.5-2.9-6.2-6-8.1
				c-2.4-1.5-5-2.1-7.7-1.9c3.5-1.8,5.5-5.8,4.5-9.7c-4.9-20.4-7.8-25.5-9.6-27.5c-4.1-5.7-12.3-10-25.1-13c-0.2,0-0.3-0.1-0.5-0.1
				c-5.7-2.1-9.8-9.1-12.3-20.9c-1.1-4.3-0.2-8.2,2.7-12c3-3.9,7.7-6.7,14.2-8.3c7.9-1.9,14.5-0.9,20.1,3.1c2.9,2,5.2,5.1,7,9.2
				c1.7,4,6,6.1,10.3,5.1l0,0c2.5-0.6,4.6-2.2,5.8-4.5c1.2-2.3,1.3-4.9,0.3-7.3c-3.5-8.2-8.8-14.4-15.8-18.5
				c-9-5.3-19.7-6.5-31.7-3.5c-11.8,2.9-20.5,8.2-25.8,15.8c-5.2,7.5-6.9,15.7-4.8,24.3c0.1,0.2,0.1,0.4,0.1,0.7
				c0.2,4.4,2,10.1,5.5,17.3c3.6,7.6,9.6,12.9,17.8,15.9c0.6,0.2,1.3,0.4,2,0.5c6.2,0.8,11.4,3,15.5,6.6c0.4,0.3,0.7,0.7,0.9,1.2
				c1.4,3,3.5,9.8,6.2,20.1c1,3.8,4.5,6.4,8.4,6.5c-2.7,1.1-4.8,2.8-6.3,5.3c-1.9,3.1-2.3,6.4-1.5,9.9c0.9,3.4,2.9,6.1,6,8
				C1172.4,492.6,1174.7,493.3,1177,493.3z M1177.2,471.8c1.5,0,2.9,0.4,4.2,1.2c2,1.2,3.3,2.9,3.9,5.2c0.6,2.2,0.3,4.3-0.9,6.3
				c-1.2,2-2.9,3.2-5.1,3.8c-2.3,0.6-4.4,0.3-6.4-0.9c-2-1.2-3.3-2.9-3.8-5.1c-0.6-2.3-0.3-4.4,0.9-6.3c1.2-2,2.9-3.2,5.2-3.8l0,0
				C1175.8,471.9,1176.5,471.8,1177.2,471.8z M1157.6,370c-2.7,0-5.5,0.4-8.5,1.1c-7.6,1.8-13.3,5.2-16.9,10
				c-3.8,5-4.9,10.3-3.5,15.9c2.9,13.6,7.9,21.5,15.3,24.3c0.3,0.1,0.7,0.2,1.1,0.3c11.5,2.7,19,6.4,22.3,11.1l0.2,0.2
				c1.2,1.3,3.9,6.4,8.6,25.5c0.5,2.1-0.8,4.2-2.9,4.7c-2.1,0.5-4.3-0.8-4.9-2.8c-2.8-10.7-4.9-17.6-6.4-20.9c-0.5-1.1-1.2-2-2-2.8
				c-4.9-4.3-11-7-18.2-7.8c-0.4,0-0.7-0.1-0.9-0.2c-7.1-2.6-12-7-15.1-13.4c-3.1-6.6-4.8-11.8-5-15.6c0-0.5-0.1-1-0.2-1.5
				c-1.7-7.4-0.4-14.1,4.1-20.6c4.6-6.6,12.3-11.3,22.9-13.9c10.7-2.6,20.2-1.6,28,3c6.1,3.6,10.8,9.1,13.8,16.3
				c0.5,1.1,0.4,2.3-0.1,3.3c-0.5,1-1.5,1.8-2.6,2l0.6,2.3l-0.6-2.3c-1.9,0.5-3.9-0.5-4.7-2.3c-2.1-4.9-5-8.7-8.6-11.2
				C1168.6,371.7,1163.4,370,1157.6,370z"/>
		</g>
	</g>
</g>
<g>
	<g>
		<path class="st12" d="M503.8,1431.4c0.1,0,0.2,0,0.4,0l25.1-4.5c1.1-0.2,1.8-1.2,1.6-2.3c-0.2-1.1-1.3-1.8-2.4-1.6l-23.1,4.2
			l-4.2-22.6c-0.2-1.1-1.3-1.8-2.4-1.6c-1.1,0.2-1.8,1.2-1.6,2.3l4.6,24.6C502,1430.8,502.8,1431.4,503.8,1431.4z"/>
	</g>
	<g>
		<path class="st12" d="M582.5,1417.3c0.1,0,0.2,0,0.4,0l53.5-9.6c1.1-0.2,1.8-1.2,1.6-2.3c-0.2-1.1-1.3-1.8-2.4-1.6l-53.5,9.6
			c-1.1,0.2-1.8,1.2-1.6,2.3C580.7,1416.6,581.5,1417.3,582.5,1417.3z M689.6,1398.1c0.1,0,0.2,0,0.4,0l53.5-9.6
			c1.1-0.2,1.8-1.2,1.6-2.3c-0.2-1.1-1.3-1.8-2.4-1.6l-53.5,9.6c-1.1,0.2-1.8,1.2-1.6,2.3C687.7,1397.4,688.6,1398.1,689.6,1398.1z
			 M796.7,1378.8c0.1,0,0.2,0,0.4,0l53.5-9.6c1.1-0.2,1.8-1.2,1.6-2.3c-0.2-1.1-1.3-1.8-2.4-1.6l-53.5,9.6c-1.1,0.2-1.8,1.2-1.6,2.3
			C794.8,1378.2,795.7,1378.8,796.7,1378.8z M903.7,1359.6c0.1,0,0.2,0,0.4,0l53.5-9.6c1.1-0.2,1.8-1.2,1.6-2.3
			c-0.2-1.1-1.3-1.8-2.4-1.6l-53.5,9.6c-1.1,0.2-1.8,1.2-1.6,2.3C901.9,1358.9,902.8,1359.6,903.7,1359.6z M1010.8,1340.4
			c0.1,0,0.2,0,0.4,0l53.5-9.6c1.1-0.2,1.8-1.2,1.6-2.3c-0.2-1.1-1.3-1.8-2.4-1.6l-53.5,9.6c-1.1,0.2-1.8,1.2-1.6,2.3
			C1009,1339.7,1009.8,1340.4,1010.8,1340.4z M1117.9,1321.1c0.1,0,0.2,0,0.4,0l53.5-9.6c1.1-0.2,1.8-1.2,1.6-2.3
			c-0.2-1.1-1.3-1.8-2.4-1.6l-53.5,9.6c-1.1,0.2-1.8,1.2-1.6,2.3C1116.1,1320.5,1116.9,1321.1,1117.9,1321.1z"/>
	</g>
	<g>
		<path class="st12" d="M1225,1301.9c0.1,0,0.2,0,0.4,0l25.1-4.5c1.1-0.2,1.8-1.2,1.6-2.3l-4.6-24.6c-0.2-1.1-1.3-1.8-2.4-1.6
			c-1.1,0.2-1.8,1.2-1.6,2.3l4.2,22.6l-23.1,4.2c-1.1,0.2-1.8,1.2-1.6,2.3C1223.2,1301.2,1224,1301.9,1225,1301.9z"/>
	</g>
	<g>
		<path class="st12" d="M1236.4,1224.3c0.1,0,0.2,0,0.4,0c1.1-0.2,1.8-1.2,1.6-2.3l-9.1-48.5c-0.2-1.1-1.3-1.8-2.4-1.6
			c-1.1,0.2-1.8,1.2-1.6,2.3l9.1,48.5C1234.6,1223.6,1235.4,1224.3,1236.4,1224.3z M1218.2,1127.4c0.1,0,0.2,0,0.4,0
			c1.1-0.2,1.8-1.2,1.6-2.3l-9.1-48.5c-0.2-1.1-1.3-1.8-2.4-1.6c-1.1,0.2-1.8,1.2-1.6,2.3l9.1,48.5
			C1216.4,1126.7,1217.2,1127.4,1218.2,1127.4z M1200,1030.4c0.1,0,0.2,0,0.4,0c1.1-0.2,1.8-1.2,1.6-2.3l-9.1-48.5
			c-0.2-1.1-1.3-1.8-2.4-1.6c-1.1,0.2-1.8,1.2-1.6,2.3l9.1,48.5C1198.2,1029.7,1199,1030.4,1200,1030.4z M1181.8,933.4
			c0.1,0,0.2,0,0.4,0c1.1-0.2,1.8-1.2,1.6-2.3l-9.1-48.5c-0.2-1.1-1.3-1.8-2.4-1.6c-1.1,0.2-1.8,1.2-1.6,2.3l9.1,48.5
			C1180,932.8,1180.8,933.4,1181.8,933.4z M1163.6,836.5c0.1,0,0.2,0,0.4,0c1.1-0.2,1.8-1.2,1.6-2.3l-9.1-48.5
			c-0.2-1.1-1.3-1.8-2.4-1.6c-1.1,0.2-1.8,1.2-1.6,2.3l9.1,48.5C1161.8,835.8,1162.6,836.5,1163.6,836.5z M1145.4,739.5
			c0.1,0,0.2,0,0.4,0c1.1-0.2,1.8-1.2,1.6-2.3l-9.1-48.5c-0.2-1.1-1.3-1.8-2.4-1.6c-1.1,0.2-1.8,1.2-1.6,2.3l9.1,48.5
			C1143.6,738.8,1144.4,739.5,1145.4,739.5z M1127.2,642.5c0.1,0,0.2,0,0.4,0c1.1-0.2,1.8-1.2,1.6-2.3l-9.1-48.5
			c-0.2-1.1-1.3-1.8-2.4-1.6c-1.1,0.2-1.8,1.2-1.6,2.3l9.1,48.5C1125.3,641.9,1126.2,642.5,1127.2,642.5z M1109,545.6
			c0.1,0,0.2,0,0.4,0c1.1-0.2,1.8-1.2,1.6-2.3l-9.1-48.5c-0.2-1.1-1.3-1.8-2.4-1.6c-1.1,0.2-1.8,1.2-1.6,2.3l9.1,48.5
			C1107.1,544.9,1108,545.6,1109,545.6z M1090.8,448.6c0.1,0,0.2,0,0.4,0c1.1-0.2,1.8-1.2,1.6-2.3l-9.1-48.5
			c-0.2-1.1-1.3-1.8-2.4-1.6c-1.1,0.2-1.8,1.2-1.6,2.3l9.1,48.5C1088.9,448,1089.8,448.6,1090.8,448.6z"/>
	</g>
	<g>
		<path class="st12" d="M1072.6,351.7c0.1,0,0.2,0,0.4,0c1.1-0.2,1.8-1.2,1.6-2.3l-4.6-24.6c-0.2-1.1-1.3-1.8-2.4-1.6l-25.1,4.5
			c-1.1,0.2-1.8,1.2-1.6,2.3c0.2,1.1,1.3,1.8,2.4,1.6l23.1-4.2l4.2,22.6C1070.7,351,1071.6,351.7,1072.6,351.7z"/>
	</g>
	<g>
		<path class="st12" d="M400.3,447c0.1,0,0.2,0,0.4,0l53.5-9.6c1.1-0.2,1.8-1.2,1.6-2.3c-0.2-1.1-1.3-1.8-2.4-1.6l-53.5,9.6
			c-1.1,0.2-1.8,1.2-1.6,2.3C398.5,446.3,399.3,447,400.3,447z M507.4,427.8c0.1,0,0.2,0,0.4,0l53.5-9.6c1.1-0.2,1.8-1.2,1.6-2.3
			c-0.2-1.1-1.3-1.8-2.4-1.6l-53.5,9.6c-1.1,0.2-1.8,1.2-1.6,2.3C505.6,427.1,506.4,427.8,507.4,427.8z M614.5,408.5
			c0.1,0,0.2,0,0.4,0l53.5-9.6c1.1-0.2,1.8-1.2,1.6-2.3c-0.2-1.1-1.3-1.8-2.4-1.6l-53.5,9.6c-1.1,0.2-1.8,1.2-1.6,2.3
			C612.7,407.9,613.5,408.5,614.5,408.5z M721.6,389.3c0.1,0,0.2,0,0.4,0l53.5-9.6c1.1-0.2,1.8-1.2,1.6-2.3
			c-0.2-1.1-1.3-1.8-2.4-1.6l-53.5,9.6c-1.1,0.2-1.8,1.2-1.6,2.3C719.7,388.6,720.6,389.3,721.6,389.3z M828.6,370.1
			c0.1,0,0.2,0,0.4,0l53.5-9.6c1.1-0.2,1.8-1.2,1.6-2.3c-0.2-1.1-1.3-1.8-2.4-1.6l-53.5,9.6c-1.1,0.2-1.8,1.2-1.6,2.3
			C826.8,369.4,827.7,370.1,828.6,370.1z M935.7,350.8c0.1,0,0.2,0,0.4,0l53.5-9.6c1.1-0.2,1.8-1.2,1.6-2.3
			c-0.2-1.1-1.3-1.8-2.4-1.6l-53.5,9.6c-1.1,0.2-1.8,1.2-1.6,2.3C933.9,350.1,934.8,350.8,935.7,350.8z"/>
	</g>
	<g>
		<path class="st12" d="M326.3,485.7c0.1,0,0.2,0,0.4,0c1.1-0.2,1.8-1.2,1.6-2.3l-4.2-22.6l23.1-4.2c1.1-0.2,1.8-1.2,1.6-2.3
			c-0.2-1.1-1.3-1.8-2.4-1.6l-25.1,4.5c-1.1,0.2-1.8,1.2-1.6,2.3l4.6,24.6C324.4,485,325.3,485.7,326.3,485.7z"/>
	</g>
	<g>
		<path class="st12" d="M490.1,1358.4c0.1,0,0.2,0,0.4,0c1.1-0.2,1.8-1.2,1.6-2.3l-9.1-48.5c-0.2-1.1-1.3-1.8-2.4-1.6
			c-1.1,0.2-1.8,1.2-1.6,2.3l9.1,48.5C488.3,1357.7,489.1,1358.4,490.1,1358.4z M471.9,1261.4c0.1,0,0.2,0,0.4,0
			c1.1-0.2,1.8-1.2,1.6-2.3l-9.1-48.5c-0.2-1.1-1.3-1.8-2.4-1.6c-1.1,0.2-1.8,1.2-1.6,2.3l9.1,48.5
			C470.1,1260.7,470.9,1261.4,471.9,1261.4z M453.7,1164.5c0.1,0,0.2,0,0.4,0c1.1-0.2,1.8-1.2,1.6-2.3l-9.1-48.5
			c-0.2-1.1-1.3-1.8-2.4-1.6c-1.1,0.2-1.8,1.2-1.6,2.3l9.1,48.5C451.9,1163.8,452.7,1164.5,453.7,1164.5z M435.5,1067.5
			c0.1,0,0.2,0,0.4,0c1.1-0.2,1.8-1.2,1.6-2.3l-9.1-48.5c-0.2-1.1-1.3-1.8-2.4-1.6c-1.1,0.2-1.8,1.2-1.6,2.3l9.1,48.5
			C433.6,1066.8,434.5,1067.5,435.5,1067.5z M417.3,970.5c0.1,0,0.2,0,0.4,0c1.1-0.2,1.8-1.2,1.6-2.3l-9.1-48.5
			c-0.2-1.1-1.3-1.8-2.4-1.6c-1.1,0.2-1.8,1.2-1.6,2.3l9.1,48.5C415.4,969.9,416.3,970.5,417.3,970.5z M399.1,873.6
			c0.1,0,0.2,0,0.4,0c1.1-0.2,1.8-1.2,1.6-2.3l-9.1-48.5c-0.2-1.1-1.3-1.8-2.4-1.6c-1.1,0.2-1.8,1.2-1.6,2.3l9.1,48.5
			C397.2,872.9,398.1,873.6,399.1,873.6z M380.9,776.6c0.1,0,0.2,0,0.4,0c1.1-0.2,1.8-1.2,1.6-2.3l-9.1-48.5
			c-0.2-1.1-1.3-1.8-2.4-1.6c-1.1,0.2-1.8,1.2-1.6,2.3l9.1,48.5C379,775.9,379.9,776.6,380.9,776.6z M362.7,679.6c0.1,0,0.2,0,0.4,0
			c1.1-0.2,1.8-1.2,1.6-2.3l-9.1-48.5c-0.2-1.1-1.3-1.8-2.4-1.6c-1.1,0.2-1.8,1.2-1.6,2.3l9.1,48.5
			C360.8,679,361.7,679.6,362.7,679.6z M344.5,582.7c0.1,0,0.2,0,0.4,0c1.1-0.2,1.8-1.2,1.6-2.3l-9.1-48.5c-0.2-1.1-1.3-1.8-2.4-1.6
			c-1.1,0.2-1.8,1.2-1.6,2.3l9.1,48.5C342.6,582,343.5,582.7,344.5,582.7z"/>
	</g>
</g>
</svg>
