<svg class="d-none d-md-block" height="50" xmlns="http://www.w3.org/2000/svg" xmlns:xlink="http://www.w3.org/1999/xlink" viewBox="0 0 310.82 124.97"><defs><linearGradient id="linear-gradient" x1="-65.72" y1="218.66" x2="-64.13" y2="218.66" gradientTransform="matrix(-9.41, 12.01, -12.92, -8.12, 2433.61, 2639.18)" gradientUnits="userSpaceOnUse"><stop offset="0" stop-color="gray"></stop><stop offset="0.46" stop-color="gray"></stop><stop offset="0.57" stop-color="#838383"></stop><stop offset="0.66" stop-color="#8e8e8e"></stop><stop offset="0.75" stop-color="#a0a0a0"></stop><stop offset="0.84" stop-color="#b9b9b9"></stop><stop offset="0.92" stop-color="#d9d9d9"></stop><stop offset="1" stop-color="#fff"></stop></linearGradient><linearGradient id="linear-gradient-2" x1="-65.74" y1="218.01" x2="-64.16" y2="218.01" gradientTransform="matrix(-9.41, 12.01, -12.92, -8.12, 2448.47, 2647.77)" xlink:href="#linear-gradient"></linearGradient><linearGradient id="linear-gradient-3" x1="-56.43" y1="213.9" x2="-54.84" y2="213.9" gradientTransform="matrix(6.18, 13.66, -12.95, 7.56, 3373.23, -787.37)" xlink:href="#linear-gradient"></linearGradient><linearGradient id="linear-gradient-4" x1="-50.02" y1="220.37" x2="-48.44" y2="220.37" gradientTransform="matrix(15.43, 3.24, -1.63, 15.68, 1382.8, -3207)" xlink:href="#linear-gradient"></linearGradient><linearGradient id="linear-gradient-5" x1="-52.95" y1="230.67" x2="-51.37" y2="230.67" gradientTransform="matrix(8.86, -12.1, 12.95, 7.57, -2288.06, -2283.64)" xlink:href="#linear-gradient"></linearGradient><linearGradient id="linear-gradient-6" x1="-51.36" y1="233.21" x2="-49.77" y2="233.21" gradientTransform="matrix(8.86, -12.1, 12.95, 7.57, -2288.06, -2283.64)" xlink:href="#linear-gradient"></linearGradient><linearGradient id="linear-gradient-7" x1="-52.38" y1="229.6" x2="-50.79" y2="229.6" gradientTransform="matrix(8.86, -12.1, 12.94, 7.57, -2302.83, -2309.29)" xlink:href="#linear-gradient"></linearGradient><linearGradient id="linear-gradient-8" x1="-52.37" y1="230.27" x2="-50.79" y2="230.27" gradientTransform="matrix(8.86, -12.1, 12.94, 7.57, -2287.96, -2300.7)" xlink:href="#linear-gradient"></linearGradient><linearGradient id="linear-gradient-9" x1="-49.99" y1="220.71" x2="-48.41" y2="220.71" gradientTransform="matrix(14.99, 1.82, -0.27, 15.1, 1035.69, -3167.85)" gradientUnits="userSpaceOnUse"><stop offset="0" stop-color="gray"></stop><stop offset="0.46" stop-color="gray"></stop><stop offset="0.57" stop-color="#838383"></stop><stop offset="0.66" stop-color="#8e8e8e"></stop><stop offset="0.75" stop-color="#a0a0a0"></stop><stop offset="0.84" stop-color="#b9b9b9"></stop><stop offset="0.92" stop-color="#d9d9d9"></stop><stop offset="1" stop-color="#fff"></stop></linearGradient><linearGradient id="linear-gradient-10" x1="-56.97" y1="215" x2="-55.39" y2="215" gradientTransform="matrix(6.28, 13.66, -12.94, 7.66, 3348.82, -809.86)" xlink:href="#linear-gradient"></linearGradient><linearGradient id="linear-gradient-11" x1="-51.01" y1="220.11" x2="-49.43" y2="220.11" gradientTransform="matrix(15.32, 2.81, -1.22, 15.53, 1253.99, -3215.79)" xlink:href="#linear-gradient"></linearGradient><linearGradient id="linear-gradient-12" x1="-55.86" y1="214.17" x2="-54.27" y2="214.17" gradientTransform="matrix(6.15, 13.65, -12.94, 7.53, 3370.7, -764.09)" xlink:href="#linear-gradient"></linearGradient><clipPath id="clip-path" transform="translate(-1.23 -1.17)"><polygon points="202.66 29.16 253.06 58.18 300 29.39 251.12 1.17 202.66 29.16" style="fill:none"></polygon></clipPath><linearGradient id="linear-gradient-13" x1="237.98" y1="49.09" x2="262.21" y2="7.11" gradientUnits="userSpaceOnUse"><stop offset="0.05" stop-color="#d98633"></stop><stop offset="0.43" stop-color="#e9ab16"></stop><stop offset="0.98" stop-color="#f0b90b"></stop></linearGradient><clipPath id="clip-path-2" transform="translate(-1.23 -1.17)"><rect x="203.84" y="74.47" width="23.57" height="27.21" style="fill:none"></rect></clipPath><clipPath id="clip-path-3" transform="translate(-1.23 -1.17)"><polyline points="203.84 88.08 227.41 101.68 227.41 74.47" style="fill:none"></polyline></clipPath><mask id="mask" x="188.33" y="63.38" width="52.12" height="47.06" maskUnits="userSpaceOnUse"><g transform="translate(-1.23 -1.17)"><polygon points="211.61 64.55 189.56 92.71 219.63 111.61 241.69 83.45 211.61 64.55" style="fill:url(#linear-gradient)"></polygon></g></mask><linearGradient id="linear-gradient-14" x1="-65.72" y1="218.66" x2="-64.13" y2="218.66" gradientTransform="matrix(-9.41, 12.01, -12.92, -8.12, 2432.37, 2638.01)" gradientUnits="userSpaceOnUse"><stop offset="0" stop-color="#fff"></stop><stop offset="0.46" stop-color="#fff"></stop><stop offset="0.57" stop-color="#fcfcfc"></stop><stop offset="0.66" stop-color="#f1f1f1"></stop><stop offset="0.75" stop-color="#dfdfdf"></stop><stop offset="0.83" stop-color="#c6c6c6"></stop><stop offset="0.91" stop-color="#a6a5a5"></stop><stop offset="0.99" stop-color="#7f7e7e"></stop><stop offset="1" stop-color="#7c7b7b"></stop></linearGradient><clipPath id="clip-path-4" transform="translate(-1.23 -1.17)"><rect x="227.4" y="88.08" width="23.57" height="27.21" style="fill:none"></rect></clipPath><clipPath id="clip-path-5" transform="translate(-1.23 -1.17)"><polyline points="227.4 101.68 250.97 115.28 250.97 88.08" style="fill:none"></polyline></clipPath><mask id="mask-2" x="211.89" y="76.98" width="52.12" height="47.06" maskUnits="userSpaceOnUse"><g transform="translate(-1.23 -1.17)"><polygon points="235.18 78.15 213.13 106.31 243.2 125.21 265.25 97.05 235.18 78.15" style="fill:url(#linear-gradient-2)"></polygon></g></mask><linearGradient id="linear-gradient-15" x1="-65.74" y1="218.01" x2="-64.16" y2="218.01" gradientTransform="matrix(-9.41, 12.01, -12.92, -8.12, 2447.24, 2646.59)" xlink:href="#linear-gradient-14"></linearGradient><clipPath id="clip-path-6" transform="translate(-1.23 -1.17)"><rect x="227.41" y="74.47" width="23.57" height="27.21" style="fill:none"></rect></clipPath><clipPath id="clip-path-7" transform="translate(-1.23 -1.17)"><polyline points="250.97 88.07 227.41 74.47 227.41 101.68" style="fill:none"></polyline></clipPath><mask id="mask-3" x="212.21" y="63.65" width="51.48" height="46.5" maskUnits="userSpaceOnUse"><g transform="translate(-1.23 -1.17)"><polygon points="243.91 111.33 264.93 82.63 234.47 64.82 213.45 93.52 243.91 111.33" style="fill:url(#linear-gradient-5)"></polygon></g></mask><linearGradient id="linear-gradient-16" x1="-52.95" y1="230.67" x2="-51.37" y2="230.67" gradientTransform="matrix(8.86, -12.1, 12.95, 7.57, -2289.3, -2284.81)" xlink:href="#linear-gradient-14"></linearGradient><clipPath id="clip-path-8" transform="translate(-1.23 -1.17)"><rect x="274.53" y="74.47" width="23.57" height="27.21" style="fill:none"></rect></clipPath><clipPath id="clip-path-9" transform="translate(-1.23 -1.17)"><polyline points="298.1 88.08 274.54 74.47 274.54 101.68" style="fill:none"></polyline></clipPath><mask id="mask-4" x="259.34" y="63.65" width="51.48" height="46.5" maskUnits="userSpaceOnUse"><g transform="translate(-1.23 -1.17)"><polygon points="291.03 111.33 312.06 82.63 281.6 64.83 260.58 93.52 291.03 111.33" style="fill:url(#linear-gradient-6)"></polygon></g></mask><linearGradient id="linear-gradient-17" x1="-51.36" y1="233.21" x2="-49.77" y2="233.21" gradientTransform="matrix(8.86, -12.1, 12.95, 7.57, -2289.3, -2284.81)" xlink:href="#linear-gradient-14"></linearGradient><clipPath id="clip-path-10" transform="translate(-1.23 -1.17)"><rect x="275.9" y="32.56" width="24.1" height="30.3" style="fill:none"></rect></clipPath><clipPath id="clip-path-11" transform="translate(-1.23 -1.17)"><polyline points="300 32.56 275.9 47.31 300 62.86" style="fill:none"></polyline></clipPath><linearGradient id="linear-gradient-18" x1="-61.66" y1="233.83" x2="-60.07" y2="233.83" gradientTransform="matrix(-6.58, -15.48, 14.72, -8.14, -3551.12, 1013.37)" xlink:href="#linear-gradient-14"></linearGradient><clipPath id="clip-path-12" transform="translate(-1.23 -1.17)"><rect x="203.84" y="33.66" width="23.57" height="27.09" style="fill:none"></rect></clipPath><clipPath id="clip-path-13" transform="translate(-1.23 -1.17)"><polyline points="227.41 47.26 203.87 60.74 203.84 33.66" style="fill:none"></polyline></clipPath><linearGradient id="linear-gradient-19" x1="-57.59" y1="233.17" x2="-56.01" y2="233.17" gradientTransform="matrix(8.86, 12.1, 12.95, -7.57, -2304.14, 2492.83)" xlink:href="#linear-gradient-14"></linearGradient><clipPath id="clip-path-14" transform="translate(-1.23 -1.17)"><rect x="203.84" y="33.66" width="23.57" height="27.21" style="fill:none"></rect></clipPath><clipPath id="clip-path-15" transform="translate(-1.23 -1.17)"><polyline points="227.41 47.26 203.84 33.66 203.84 60.87" style="fill:none"></polyline></clipPath><mask id="mask-5" x="188.65" y="22.84" width="51.48" height="46.5" maskUnits="userSpaceOnUse"><g transform="translate(-1.23 -1.17)"><polygon points="220.34 70.51 241.36 41.81 210.91 24.01 189.88 52.71 220.34 70.51" style="fill:url(#linear-gradient-7)"></polygon></g></mask><linearGradient id="linear-gradient-20" x1="-52.38" y1="229.6" x2="-50.79" y2="229.6" gradientTransform="matrix(8.86, -12.1, 12.94, 7.57, -2304.06, -2310.46)" xlink:href="#linear-gradient-14"></linearGradient><clipPath id="clip-path-16" transform="translate(-1.23 -1.17)"><rect x="227.41" y="47.26" width="23.57" height="27.21" style="fill:none"></rect></clipPath><clipPath id="clip-path-17" transform="translate(-1.23 -1.17)"><polyline points="250.97 60.87 227.41 47.26 227.41 74.47" style="fill:none"></polyline></clipPath><mask id="mask-6" x="212.22" y="36.45" width="51.48" height="46.5" maskUnits="userSpaceOnUse"><g transform="translate(-1.23 -1.17)"><polygon points="243.91 84.12 264.93 55.42 234.47 37.62 213.45 66.31 243.91 84.12" style="fill:url(#linear-gradient-8)"></polygon></g></mask><linearGradient id="linear-gradient-21" x1="-52.37" y1="230.27" x2="-50.79" y2="230.27" gradientTransform="matrix(8.86, -12.1, 12.94, 7.57, -2289.2, -2301.87)" xlink:href="#linear-gradient-14"></linearGradient><clipPath id="clip-path-18" transform="translate(-1.23 -1.17)"><rect x="227.41" y="60.87" width="23.57" height="27.21" style="fill:none"></rect></clipPath><clipPath id="clip-path-19" transform="translate(-1.23 -1.17)"><polyline points="250.97 88.07 250.97 60.87 227.41 74.47" style="fill:none"></polyline></clipPath><mask id="mask-7" x="225.69" y="56.84" width="24.53" height="32.93" maskUnits="userSpaceOnUse"><g transform="translate(-1.23 -1.17)"><polygon points="226.93 88.02 250.92 90.93 251.45 60.92 227.46 58.01 226.93 88.02" style="fill:url(#linear-gradient-9)"></polygon></g></mask><linearGradient id="linear-gradient-22" x1="-49.99" y1="220.71" x2="-48.41" y2="220.71" gradientTransform="matrix(14.99, 1.82, -0.27, 15.1, 1034.45, -3169.02)" gradientUnits="userSpaceOnUse"><stop offset="0" stop-color="#fff"></stop><stop offset="0.46" stop-color="#fff"></stop><stop offset="0.57" stop-color="#fcfcfc"></stop><stop offset="0.66" stop-color="#f1f1f1"></stop><stop offset="0.75" stop-color="#dfdfdf"></stop><stop offset="0.83" stop-color="#c6c6c6"></stop><stop offset="0.91" stop-color="#a6a5a5"></stop><stop offset="0.99" stop-color="#7f7e7e"></stop><stop offset="1" stop-color="#7c7b7b"></stop></linearGradient><clipPath id="clip-path-20" transform="translate(-1.23 -1.17)"><rect x="203.84" y="60.87" width="23.56" height="27.21" style="fill:none"></rect></clipPath><clipPath id="clip-path-21" transform="translate(-1.23 -1.17)"><polyline points="203.84 88.08 227.41 74.47 203.84 60.87" style="fill:none"></polyline></clipPath><mask id="mask-8" x="192.77" y="48.73" width="43.24" height="49.13" maskUnits="userSpaceOnUse"><g transform="translate(-1.23 -1.17)"><polygon points="194 66.69 208.88 99.04 237.24 82.25 222.37 49.91 194 66.69" style="fill:url(#linear-gradient-10)"></polygon></g></mask><linearGradient id="linear-gradient-23" x1="-56.97" y1="215" x2="-55.39" y2="215" gradientTransform="matrix(6.28, 13.66, -12.94, 7.66, 3347.59, -811.03)" xlink:href="#linear-gradient-14"></linearGradient><clipPath id="clip-path-22" transform="translate(-1.23 -1.17)"><rect x="203.84" y="47.26" width="23.56" height="27.21" style="fill:none"></rect></clipPath><clipPath id="clip-path-23" transform="translate(-1.23 -1.17)"><polyline points="227.41 74.47 227.41 47.26 203.84 60.87" style="fill:none"></polyline></clipPath><mask id="mask-9" x="200.5" y="41.82" width="27.78" height="35.74" maskUnits="userSpaceOnUse"><g transform="translate(-1.23 -1.17)"><polygon points="201.74 74.08 227.07 78.74 229.51 47.65 204.18 43 201.74 74.08" style="fill:url(#linear-gradient-11)"></polygon></g></mask><linearGradient id="linear-gradient-24" x1="-51.01" y1="220.11" x2="-49.43" y2="220.11" gradientTransform="matrix(15.32, 2.81, -1.22, 15.53, 1252.75, -3216.96)" xlink:href="#linear-gradient-14"></linearGradient><clipPath id="clip-path-24" transform="translate(-1.23 -1.17)"><rect x="250.97" y="88.07" width="23.56" height="27.21" style="fill:none"></rect></clipPath><clipPath id="clip-path-25" transform="translate(-1.23 -1.17)"><polyline points="250.97 115.28 274.53 101.67 250.97 88.07" style="fill:none"></polyline></clipPath><mask id="mask-10" x="240.02" y="76.05" width="42.99" height="48.92" maskUnits="userSpaceOnUse"><g transform="translate(-1.23 -1.17)"><polygon points="241.25 93.73 255.86 126.14 284.25 109.63 269.63 77.22 241.25 93.73" style="fill:url(#linear-gradient-12)"></polygon></g></mask><linearGradient id="linear-gradient-25" x1="-55.86" y1="214.17" x2="-54.27" y2="214.17" gradientTransform="matrix(6.15, 13.65, -12.94, 7.53, 3369.47, -765.26)" xlink:href="#linear-gradient-14"></linearGradient><clipPath id="clip-path-26" transform="translate(-1.23 -1.17)"><rect x="250.97" y="60.87" width="23.56" height="27.21" style="fill:none"></rect></clipPath><clipPath id="clip-path-27" transform="translate(-1.23 -1.17)"><polyline points="250.97 88.07 274.53 74.47 250.97 60.87" style="fill:none"></polyline></clipPath><mask id="mask-11" x="239.99" y="48.81" width="43.05" height="48.97" maskUnits="userSpaceOnUse"><g transform="translate(-1.23 -1.17)"><polygon points="241.23 66.55 255.9 98.95 284.28 82.39 269.61 49.99 241.23 66.55" style="fill:url(#linear-gradient-3)"></polygon></g></mask><linearGradient id="linear-gradient-26" x1="-56.43" y1="213.9" x2="-54.84" y2="213.9" gradientTransform="matrix(6.18, 13.66, -12.95, 7.56, 3372, -788.54)" xlink:href="#linear-gradient-14"></linearGradient><clipPath id="clip-path-28" transform="translate(-1.23 -1.17)"><rect x="274.53" y="74.47" width="23.57" height="27.21" style="fill:none"></rect></clipPath><clipPath id="clip-path-29" transform="translate(-1.23 -1.17)"><rect x="250.97" y="74.47" width="23.56" height="27.21" style="fill:none"></rect></clipPath><clipPath id="clip-path-30" transform="translate(-1.23 -1.17)"><polyline points="274.53 101.68 274.53 74.47 250.97 88.07" style="fill:none"></polyline></clipPath><mask id="mask-12" x="246.96" y="68.45" width="29.11" height="36.9" maskUnits="userSpaceOnUse"><g transform="translate(-1.23 -1.17)"><polygon points="248.2 101.1 274.03 106.53 277.31 75.05 251.47 69.63 248.2 101.1" style="fill:url(#linear-gradient-4)"></polygon></g></mask><linearGradient id="linear-gradient-27" x1="-50.02" y1="220.37" x2="-48.44" y2="220.37" gradientTransform="matrix(15.43, 3.24, -1.63, 15.68, 1381.56, -3208.17)" xlink:href="#linear-gradient-14"></linearGradient></defs><title>logo</title><g style="isolation:isolate"><g data-name="Layer 1"><path d="M1.23,94.24l.95-1.42a1.9,1.9,0,0,0,.31-1.26L6.12,51.86h9.46L12.11,91.72a3.08,3.08,0,0,1-.47,1.58,1.83,1.83,0,0,1-.94.95Z" transform="translate(-1.23 -1.17)" style="fill:#1d1f3c"></path><path d="M109,41.93a6.53,6.53,0,0,1-2.52-.47A7,7,0,0,1,103,38a7.12,7.12,0,0,1-.47-2.52,6.53,6.53,0,0,1,.47-2.52,6,6,0,0,1,1.42-2,9.47,9.47,0,0,1,2-1.42,7,7,0,0,1,5,0,6,6,0,0,1,2,1.42,9.47,9.47,0,0,1,1.42,2,7.13,7.13,0,0,1,.47,2.52A6.52,6.52,0,0,1,115,38a9.47,9.47,0,0,1-1.42,2,6,6,0,0,1-2,1.42,7.13,7.13,0,0,1-2.52.47" transform="translate(-1.23 -1.17)" style="fill:#1d1f3c"></path><path d="M11.18,41.93a6.53,6.53,0,0,1-2.52-.47,6,6,0,0,1-2-1.42,6,6,0,0,1-1.42-2,7.13,7.13,0,0,1-.47-2.52,6.53,6.53,0,0,1,.47-2.52,6,6,0,0,1,1.42-2,9.47,9.47,0,0,1,2-1.42A6.53,6.53,0,0,1,11.18,29a6.53,6.53,0,0,1,2.52.47,6,6,0,0,1,2,1.42,9.47,9.47,0,0,1,1.42,2,7.13,7.13,0,0,1,.47,2.52A6.52,6.52,0,0,1,17.16,38a9.47,9.47,0,0,1-1.42,2,6,6,0,0,1-2,1.42,7.13,7.13,0,0,1-2.52.47" transform="translate(-1.23 -1.17)" style="fill:#1d1f3c"></path><path d="M17.64,94.24l.95-1.42a2.12,2.12,0,0,0,.31-1.26L22.52,51.7h9.61L28.67,91.57a3.1,3.1,0,0,1-.47,1.58c-.32.32-.47.79-.95.95,0,.16-9.61.16-9.61.16" transform="translate(-1.23 -1.17)" style="fill:#1d1f3c"></path><polygon points="43.2 83.3 33.43 83.3 37.84 35.24 47.61 35.24 43.2 83.3" style="fill:#1d1f3c"></polygon><polygon points="134.63 73.1 124.12 81.13 128.33 35.33 138.1 35.33 134.63 73.1" style="fill:#1d1f3c"></polygon><path d="M57.74,84.47l9.88,0,2.13-24.34a.78.78,0,0,1,.78-.71h6.88l-2.23,25,11.8,0s-1.81-.79-1.73-1.81l2.46-31-25.18.15a1.91,1.91,0,0,0-1.89,1.74L58,82c0,.36-.29,2.43-.29,2.43" transform="translate(-1.23 -1.17)" style="fill:#1d1f3c"></path><path d="M131.37,84.41h45.55a2,2,0,0,0,2-1.81l2.46-31H169.09l-9,7.77h12.1l-1.2,14.92A1.88,1.88,0,0,1,169.08,76l-27.89.13Z" transform="translate(-1.23 -1.17)" style="fill:#1d1f3c"></path><path d="M149.22,69V59.12a3.82,3.82,0,0,1,1.27-2.84L183,27.49l4.45,6.06a2,2,0,0,1-.42,2.58Z" transform="translate(-1.23 -1.17)" style="fill:#1d1f3c"></path><path d="M89.19,84.41H99.53l.57-8,1.15-16.11.13-.92h12.42l-1.32,14.37,0,.34a2.2,2.2,0,0,1-2.19,2H100.09l-.57,8.3h19a2,2,0,0,0,2-1.81l2.46-31-27.87.15a1.91,1.91,0,0,0-1.89,1.74L90.61,82a2,2,0,0,1-.39,1Z" transform="translate(-1.23 -1.17)" style="fill:#1d1f3c"></path><g style="clip-path:url(#clip-path)"><polygon points="201.42 27.98 249.89 0 298.76 28.22 251.83 57.01 201.42 27.98" style="fill:url(#linear-gradient-13)"></polygon></g><polygon points="298.76 61.69 274.66 46.14 298.76 31.39 298.76 61.69" style="fill:#e27b14"></polygon><polygon points="296.87 86.9 273.3 73.3 273.3 100.51 296.87 86.9" style="fill:#0e6275"></polygon><polygon points="273.3 73.3 249.74 59.69 249.74 86.9 273.3 73.3" style="fill:#356184"></polygon><polygon points="273.3 100.51 249.74 86.9 249.74 114.11 273.3 100.51" style="fill:#304d6f"></polygon><polygon points="249.74 114.11 249.74 86.9 226.17 100.51 249.74 114.11" style="fill:#1e738c"></polygon><polygon points="249.74 86.9 249.74 59.69 226.17 73.3 249.74 86.9" style="fill:#a8875c"></polygon><polygon points="273.3 100.51 273.3 73.3 249.74 86.9 273.3 100.51" style="fill:#293b5b"></polygon><polygon points="249.74 86.9 226.17 73.3 226.17 100.51 249.74 86.9" style="fill:#68837e"></polygon><polygon points="226.17 73.3 202.61 59.7 202.61 86.9 226.17 73.3" style="fill:#de9222"></polygon><polygon points="226.17 100.51 226.17 73.3 202.61 86.91 226.17 100.51" style="fill:#4a8086"></polygon><polygon points="249.74 59.7 226.17 46.09 226.17 73.3 249.74 59.7" style="fill:#df9e0c"></polygon><polygon points="226.17 73.3 226.17 46.09 202.61 59.7 226.17 73.3" style="fill:#d98732"></polygon><polygon points="226.17 46.09 202.61 32.49 202.61 59.7 226.17 46.09" style="fill:#c28849"></polygon><g style="opacity:0.6999970078468323;mix-blend-mode:multiply"><g style="clip-path:url(#clip-path-2)"><g style="clip-path:url(#clip-path-3)"><g style="mask:url(#mask)"><polygon points="210.38 63.38 188.33 91.53 218.4 110.43 240.45 82.28 210.38 63.38" style="fill:url(#linear-gradient-14)"></polygon></g></g></g></g><g style="opacity:0.6999970078468323;mix-blend-mode:multiply"><g style="clip-path:url(#clip-path-4)"><g style="clip-path:url(#clip-path-5)"><g style="mask:url(#mask-2)"><polygon points="233.94 76.98 211.89 105.14 241.96 124.04 264.01 95.88 233.94 76.98" style="fill:url(#linear-gradient-15)"></polygon></g></g></g></g><g style="opacity:0.6999970078468323;mix-blend-mode:multiply"><g style="clip-path:url(#clip-path-6)"><g style="clip-path:url(#clip-path-7)"><g style="mask:url(#mask-3)"><polygon points="242.67 110.15 263.69 81.46 233.24 63.65 212.21 92.35 242.67 110.15" style="fill:url(#linear-gradient-16)"></polygon></g></g></g></g><g style="opacity:0.6999970078468323;mix-blend-mode:multiply"><g style="clip-path:url(#clip-path-8)"><g style="clip-path:url(#clip-path-9)"><g style="mask:url(#mask-4)"><polygon points="289.8 110.15 310.82 81.46 280.37 63.65 259.34 92.35 289.8 110.15" style="fill:url(#linear-gradient-17)"></polygon></g></g></g></g><g style="opacity:0.6999970078468323;mix-blend-mode:multiply"><g style="clip-path:url(#clip-path-10)"><g style="clip-path:url(#clip-path-11)"><polygon points="298.76 61.69 298.76 23.59 264.23 37.16 279.25 72.49 298.76 61.69" style="fill:url(#linear-gradient-18)"></polygon></g></g></g><g style="opacity:0.6999970078468323;mix-blend-mode:multiply"><g style="clip-path:url(#clip-path-12)"><g style="clip-path:url(#clip-path-13)"><polygon points="219.11 22.84 240.06 51.45 209.67 69.22 188.71 40.61 219.11 22.84" style="fill:url(#linear-gradient-19)"></polygon></g></g></g><g style="opacity:0.6999970078468323;mix-blend-mode:multiply"><g style="clip-path:url(#clip-path-14)"><g style="clip-path:url(#clip-path-15)"><g style="mask:url(#mask-5)"><polygon points="219.11 69.34 240.13 40.64 209.67 22.84 188.65 51.54 219.11 69.34" style="fill:url(#linear-gradient-20)"></polygon></g></g></g></g><g style="opacity:0.6999970078468323;mix-blend-mode:multiply"><g style="clip-path:url(#clip-path-16)"><g style="clip-path:url(#clip-path-17)"><g style="mask:url(#mask-6)"><polygon points="242.67 82.94 263.69 54.25 233.24 36.45 212.22 65.14 242.67 82.94" style="fill:url(#linear-gradient-21)"></polygon></g></g></g></g><g style="opacity:0.6999970078468323;mix-blend-mode:multiply"><g style="clip-path:url(#clip-path-18)"><g style="clip-path:url(#clip-path-19)"><g style="mask:url(#mask-7)"><polygon points="225.69 86.84 249.69 89.76 250.22 59.75 226.22 56.84 225.69 86.84" style="fill:url(#linear-gradient-22)"></polygon></g></g></g></g><g style="opacity:0.6999970078468323;mix-blend-mode:multiply"><g style="clip-path:url(#clip-path-20)"><g style="clip-path:url(#clip-path-21)"><g style="mask:url(#mask-8)"><polygon points="192.77 65.52 207.65 97.86 236.01 81.08 221.13 48.73 192.77 65.52" style="fill:url(#linear-gradient-23)"></polygon></g></g></g></g><g style="opacity:0.6999970078468323;mix-blend-mode:multiply"><g style="clip-path:url(#clip-path-22)"><g style="clip-path:url(#clip-path-23)"><g style="mask:url(#mask-9)"><polygon points="200.5 72.91 225.84 77.56 228.28 46.48 202.94 41.83 200.5 72.91" style="fill:url(#linear-gradient-24)"></polygon></g></g></g></g><g style="opacity:0.6999970078468323;mix-blend-mode:multiply"><g style="clip-path:url(#clip-path-24)"><g style="clip-path:url(#clip-path-25)"><g style="mask:url(#mask-10)"><polygon points="240.02 92.55 254.63 124.97 283.01 108.46 268.4 76.05 240.02 92.55" style="fill:url(#linear-gradient-25)"></polygon></g></g></g></g><g style="opacity:0.6999970078468323;mix-blend-mode:multiply"><g style="clip-path:url(#clip-path-26)"><g style="clip-path:url(#clip-path-27)"><g style="mask:url(#mask-11)"><polygon points="239.99 65.38 254.66 97.78 283.04 81.22 268.38 48.81 239.99 65.38" style="fill:url(#linear-gradient-26)"></polygon></g></g></g></g><g style="opacity:0.6999970078468323;mix-blend-mode:multiply"><g style="clip-path:url(#clip-path-29)"><g style="clip-path:url(#clip-path-30)"><g style="mask:url(#mask-12)"><polygon points="246.96 99.93 272.8 105.35 276.07 73.88 250.24 68.45 246.96 99.93" style="fill:url(#linear-gradient-27)"></polygon></g></g></g></g></g></g></svg>