<?xml version="1.0" encoding="UTF-8"?> <svg xmlns="http://www.w3.org/2000/svg" id="ad7e3440-8a0c-42f9-a01b-253198587550" data-name="Layer 1" viewBox="0 0 59.52832 59.51093"><path d="M26.48438.36328a29.88267,29.88267,0,0,0-26.25,26.41406,45.50309,45.50309,0,0,0,0,6.44532,31.44445,31.44445,0,0,0,1.94531,7.8164A29.84406,29.84406,0,0,0,26.66016,59.64844a45.50593,45.50593,0,0,0,6.44531,0A29.83876,29.83876,0,0,0,58.51172,38.32031,27.1599,27.1599,0,0,0,59.64844,30a27.1599,27.1599,0,0,0-1.13672-8.32031A29.83876,29.83876,0,0,0,33.10547.35156,52.01569,52.01569,0,0,0,26.48438.36328Zm8.08593,11.13281c2.75391.1875,4.00782.59766,5.53125,1.81641a10.90491,10.90491,0,0,1,2.57813,3.42187,16.82979,16.82979,0,0,1,.05859,12.48047A9.90407,9.90407,0,0,1,38.625,33.80859c-1.73437.84375-3.59766,1.11328-8.47266,1.19532l-3.668.07031V49.21875H20.03906V11.36719h6.375C29.92969,11.36719,33.59766,11.42578,34.57031,11.49609Z" transform="translate(-0.12012 -0.25177)" fill="#0099de"></path><path d="M26.48438,23.19141v5.28515h2.3789c4.83985-.01172,6.30469-.375,7.39453-1.86328.79688-1.07812.9375-1.62891.9375-3.46875a4.772,4.772,0,0,0-.26953-2.28516A4.34715,4.34715,0,0,0,34.043,18.21094a20.92459,20.92459,0,0,0-4.125-.2461l-3.43359-.05859Z" transform="translate(-0.12012 -0.25177)" fill="#0099de"></path></svg> 