<?xml version="1.0" encoding="UTF-8"?> <svg xmlns="http://www.w3.org/2000/svg" id="a57d8459-f722-4973-b057-a467b7ba8001" data-name="Layer 1" viewBox="0 0 60 60"><g id="f95bc456-9a98-4f34-b44f-8870730b08a9" data-name="Layer 2"><rect width="60" height="60" fill="none"></rect><path d="M46.836,8.472C44.412,5.748,40.104,4.56,34.56,4.56H18.456a2.3213,2.3213,0,0,0-2.292,1.944L9.468,49.044a1.38517,1.38517,0,0,0,1.38,1.584h9.936L23.28,34.8l-.084.516a2.30438,2.30438,0,0,1,2.256-1.944h4.704c9.264,0,16.548-3.756,18.684-14.688a6.50485,6.50485,0,0,0,.156-.948h0c.648-4.032.012-6.768-2.16-9.264" fill="#27346a"></path><path d="M27.084,16.272a2.12594,2.12594,0,0,1,.876-.192H40.584a23.56243,23.56243,0,0,1,4.152.312c.36.036.708.12,1.068.192.516.12.984.24,1.464.396a7.13172,7.13172,0,0,1,1.74.756c.636-4.032,0-6.768-2.172-9.264C44.412,5.748,40.104,4.56,34.56,4.56H18.456A2.257,2.257,0,0,0,16.2,6.504L9.468,49.044a1.3789,1.3789,0,0,0,1.344,1.584h9.936l5.184-32.844A2.21621,2.21621,0,0,1,27.084,16.272Z" fill="#27346a"></path><path d="M48.852,18.684c-2.1,10.884-9.384,14.64-18.636,14.64H25.464a2.257,2.257,0,0,0-2.256,1.944L20.124,54.972a1.17214,1.17214,0,0,0,1.188,1.38H29.7a1.99922,1.99922,0,0,0,1.98-1.704l.084-.432,1.584-10.008.12-.552a2.00076,2.00076,0,0,1,1.98-1.704H36.72c8.112,0,14.484-3.288,16.344-12.828.792-3.996.36-7.32-1.668-9.66a7.87616,7.87616,0,0,0-2.292-1.776,8.08283,8.08283,0,0,0-.252.996Z" fill="#2790c3"></path><path d="M46.788,16.872a9.78328,9.78328,0,0,0-.984-.24,8.31666,8.31666,0,0,0-1.068-.192,27.7086,27.7086,0,0,0-4.152-.312H27.96a2.44387,2.44387,0,0,0-.876.192,1.89993,1.89993,0,0,0-1.104,1.5l-2.7,17.016-.084.516a2.30438,2.30438,0,0,1,2.256-1.944h4.704c9.264,0,16.548-3.756,18.684-14.688a6.50485,6.50485,0,0,0,.156-.948,18.04443,18.04443,0,0,0-1.74-.756,1.93445,1.93445,0,0,0-.468-.144" fill="#1f264f"></path></g></svg> 