<?xml version="1.0" encoding="UTF-8"?> <svg xmlns="http://www.w3.org/2000/svg" id="a8e24e04-4b42-4fdb-bd19-5904691193f2" data-name="Layer 3" viewBox="0 0 51.144 51.144"><path d="M29.88,4.656A25.572,25.572,0,1,0,55.452,30.228,25.54774,25.54774,0,0,0,29.88,4.656ZM18.516,39.84H12.252a1.6756,1.6756,0,0,1-.672-.336c.192-.144.408-.408.6-.408,1.452-.264,1.716-.444,1.86-1.98.072-1.188.072-2.388.072-3.576V32.532l2.352.144v4.068c0,1.716.408,2.124,2.124,2.316.192,0,.408.264.672.444A2.586,2.586,0,0,1,18.516,39.84Zm2.868-8.76a16.84977,16.84977,0,0,1-8.424.516c-1.188-.192-2.316-.408-3.504-.6v-.144c1.716.072,3.396.192,5.112.192a28.07492,28.07492,0,0,0,4.74-.408,4.32136,4.32136,0,0,0,3.504-4.992c-.264-2.796-1.68-4.176-4.404-4.404H18c-1.38,0-1.452.072-1.452,1.38v7.644H14.232V27.84c0-1.524,0-3.06-.072-4.656-.072-1.38-.408-1.68-1.716-1.86a4.05717,4.05717,0,0,1-.78-.408c.264-.144.516-.408.78-.408,2.652,0,5.364-.192,8.052.072a5.308,5.308,0,0,1,4.776,7.116C24.624,29.628,23.016,30.492,21.384,31.08Zm22.104,8.76c-.264,0-.444-.264-.744-.408a1.19891,1.19891,0,0,1,.672-.336c1.452-.192,1.716-.408,1.716-1.86,0-4.068,0-8.088-.072-12.156,0-.192-.072-.408-.264-.444L37.08,40.332,29.808,24.564h-.192c-.144,2.46-.264,4.92-.336,7.452-.072,1.524-.072,3.06-.144,4.584a7.79405,7.79405,0,0,0,.144,1.272,1.2055,1.2055,0,0,0,1.38,1.188,1.25368,1.25368,0,0,1,.516.072,6.42,6.42,0,0,1,.6.444c-.264.072-.444.264-.744.264-.936,0-1.788-.072-2.724-.072-.852,0-1.716.072-2.568.072-.192,0-.408-.192-.6-.264.192-.144.336-.408.516-.444,1.452-.264,1.788-.444,1.944-1.944.336-4.74.6-9.432.852-14.16.072-1.116-.264-1.452-1.38-1.716a3.55632,3.55632,0,0,1-.744-.192c-.144-.072-.192-.192-.336-.336.144-.144.264-.336.408-.336h4.44a15.441,15.441,0,0,0,1.98,5.592c1.608,3.312,3.24,6.564,5.028,9.912,2.46-5.112,5.364-10.032,7.452-15.468h4.32c.144,0,.264.192.408.336-.144.144-.192.336-.408.336-2.316.672-2.388.672-2.316,3.132.072,4.32.192,8.652.336,13.008.072,1.38.408,1.716,1.788,1.86.192,0,.408.264.6.408a1.32446,1.32446,0,0,1-.672.336c-1.956-.06-3.852-.06-5.868-.06Z" transform="translate(-4.308 -4.656)" fill="#c91428"></path></svg> 