<svg version="1.1" xmlns="http://www.w3.org/2000/svg" xmlns:xlink="http://www.w3.org/1999/xlink" x="0px" y="0px" viewBox="0 0 100 100" enable-background="new 0 0 100 100" xml:space="preserve"> <g id="Layer_1" display="none"> <g id="Layer_1_1_"> <g id="Layer_2_1_" display="inline"> <rect x="-2.3" y="-2.3" fill="none" width="104.7" height="104.7"></rect> <path display="none" fill="#27356A" d="M79.4,12.4C75.1,7.7,67.6,5.6,58,5.6H29.9c-2,0-3.7,1.4-4,3.4L14.2,83.2 C14,84.7,15.1,86,16.6,86h17.3l4.3-27.6L38,59.3c0.3-1.9,2-3.4,3.9-3.4h8.2c16.2,0,28.9-6.5,32.6-25.6c0.2-0.5,0.2-1.1,0.3-1.6 c-0.5-0.3-0.5-0.3,0,0C84.3,21.6,83.2,16.8,79.4,12.4"></path> <path fill="#EFB91C" d="M44.9,26c0.5-0.2,1-0.3,1.5-0.3h22c2.6,0,5.1,0.1,7.2,0.5c0.6,0.1,1.2,0.2,1.9,0.3 c0.9,0.2,1.7,0.4,2.6,0.7c1.1,0.3,2.1,0.8,3,1.3c1.1-7,0-11.8-3.8-16.2c-4.2-4.8-11.8-6.8-21.4-6.8H29.8c-2,0-3.7,1.4-3.9,3.4 L14.2,83.2C14,84.7,15.1,86,16.5,86h17.3l9-57.3C43.1,27.6,43.9,26.6,44.9,26z"></path> <path fill="#848D9A" d="M82.9,30.3c-3.7,19-16.4,25.5-32.5,25.5h-8.3c-2,0-3.7,1.4-3.9,3.4l-5.4,34.4c-0.2,1.3,0.8,2.4,2.1,2.4 h14.6c1.7,0,3.2-1.2,3.5-3l0.2-0.8L56,74.7l0.2-1c0.3-1.7,1.7-3,3.5-3h2.2c14.1,0,25.3-5.7,28.5-22.4c1.4-7,0.6-12.8-2.9-16.9 c-1.1-1.2-2.4-2.3-4-3.1C83.1,29.2,83,29.7,82.9,30.3L82.9,30.3z"></path> <path fill="#C4942C" d="M79.3,27.1c-0.5-0.1-1.2-0.3-1.7-0.4c-0.6-0.1-1.2-0.3-1.9-0.3c-2.2-0.3-4.6-0.5-7.2-0.5h-22 c-0.5,0-1,0.1-1.5,0.3c-1,0.5-1.8,1.4-1.9,2.6l-4.7,29.7l-0.2,0.9c0.3-1.9,2-3.4,3.9-3.4h8.2c16.2,0,28.9-6.5,32.6-25.6 c0.2-0.5,0.2-1.1,0.3-1.6c-1-0.5-1.9-0.9-3-1.3C79.8,27.2,79.6,27.2,79.3,27.1"></path> </g> <g id="Layer_3" display="inline"> </g> </g> <g id="Layer_2_3_"> <g id="Layer_3_1_" display="inline"> <path fill="#848D9A" d="M4.5,49.9C4.6,25.3,24.8,5.2,49.8,5.2l0,0c6.9,0,13.7,1.5,19.9,4.6c0.9,0.4,1.9,0.9,2.9,1.5L68.4,15 l-6.2-6.4L51.5,18l-6.4-6.8L25.5,28.6l12.6,13.8l-5,4.3l12.4,13.8l-5,4.3l17.8,19.6l10.6-9.6L78.1,85c-1.9,1.5-3.9,2.7-6,3.9 c-6.8,3.8-14.5,5.8-22.3,5.8C24.8,94.7,4.5,74.6,4.5,49.9"></path> <polygon fill="#EEB91D" points="41.5,47.1 52.4,37.5 62,48.2 51.2,57.8 "></polygon> <polygon fill="#EEB91D" points="49.2,65.6 59.9,56 69.7,66.7 58.8,76.2 "></polygon> <polygon fill="#EEB91D" points="33.9,28.9 44.7,19.4 54.4,30 43.5,39.6 "></polygon> <polygon fill="#EEB91D" points="53.6,23.8 61.7,16.6 68.9,24.6 60.9,31.9 "></polygon> <polygon fill="#EEB91D" points="68,56.7 76,49.6 83.3,57.6 75.3,64.7 "></polygon> <polygon fill="#EEB91D" points="75.1,72.8 83.1,65.7 90.4,73.6 82.4,80.9 "></polygon> <polygon fill="#EEB91D" points="78.4,35.9 83.7,31.1 88.5,36.5 83.2,41.3 "></polygon> <polygon fill="#EEB91D" points="71.4,20.1 76.8,15.2 81.6,20.6 76.2,25.5 "></polygon> <polygon fill="#EEB91D" points="85.2,51.7 90.5,46.9 95.5,52.2 90.1,57 "></polygon> <polygon fill="#EEB91D" points="61,39.9 69.1,32.7 76.4,40.7 68.3,47.8 "></polygon> </g> <g id="Layer_2_2_" display="inline"> </g> </g> <g id="Layer_3_2_"> <path display="inline" fill="#848D9A" d="M5.2,50c0,24.8,20,44.8,44.8,44.8s44.8-20,44.8-44.8S74.8,5.2,50,5.2S5.2,25.2,5.2,50"></path> <path display="inline" fill="#EDB91D" d="M30.1,66.9c-3.6,0-7.2,0-11,0c-0.3,0-0.8-0.3-1.2-0.6c0.3-0.2,0.7-0.7,1-0.7 c2.5-0.5,3-0.8,3.3-3.5c0.1-2.1,0.1-4.2,0.1-6.3V54l4.1,0.2v7.1c0,3,0.7,3.7,3.7,4.1c0.3,0,0.7,0.5,1.2,0.8 C31,66.5,30.5,66.7,30.1,66.9z"></path> <path display="inline" fill="#EDB91D" d="M35.1,51.5c-4.8,1.8-9.8,1.6-14.8,0.9c-2.1-0.3-4.1-0.7-6.1-1v-0.2c3,0.1,6,0.3,9,0.3 c2.8,0,5.6-0.2,8.3-0.7c4.2-0.8,6.7-4.4,6.2-8.8c-0.5-4.9-3-7.3-7.7-7.7h-0.7c-2.4,0-2.5,0.1-2.5,2.4v13.4h-4.1v-4.2 c0-2.7,0-5.4-0.1-8.2c-0.1-2.4-0.7-3-3-3.3c-0.5-0.1-0.9-0.5-1.4-0.7c0.5-0.2,0.9-0.7,1.4-0.7c4.6,0,9.4-0.3,14.1,0.1 c6.5,0.6,10.4,6.4,8.4,12.5C40.8,49,38,50.5,35.1,51.5z"></path> <path display="inline" fill="#EDB91D" d="M73.9,66.9c-0.5,0-0.8-0.5-1.3-0.7c0.3-0.2,0.7-0.6,1.2-0.6c2.6-0.3,3-0.7,3-3.3 c0-7.1,0-14.2-0.1-21.3c0-0.3-0.1-0.7-0.5-0.8L62.6,67.7L49.9,40.1h-0.3c-0.2,4.3-0.5,8.6-0.6,13.1c-0.1,2.7-0.1,5.4-0.2,8 c0,0.7,0.1,1.5,0.2,2.2c0.1,1.5,1,2.1,2.4,2.1c0.3,0,0.6,0,0.9,0.1c0.3,0.2,0.7,0.5,1,0.8c-0.5,0.1-0.8,0.5-1.3,0.5 c-1.6,0-3.1-0.1-4.8-0.1c-1.5,0-3,0.1-4.5,0.1c-0.3,0-0.7-0.3-1-0.5c0.3-0.2,0.6-0.7,0.9-0.8c2.5-0.5,3.1-0.8,3.4-3.4 c0.6-8.3,1-16.5,1.5-24.8c0.1-2-0.5-2.5-2.4-3c-0.5-0.1-0.9-0.1-1.3-0.3c-0.2-0.1-0.3-0.3-0.6-0.6c0.2-0.2,0.5-0.6,0.7-0.6 c2.5,0,5.1,0,7.8,0c0.2,3.6,2,6.7,3.5,9.8C58,48.5,60.8,54.2,64,60c4.3-9,9.4-17.6,13.1-27.1h7.6c0.2,0,0.5,0.3,0.7,0.6 c-0.2,0.2-0.3,0.6-0.7,0.6c-4.1,1.2-4.2,1.2-4.1,5.5c0.1,7.6,0.3,15.2,0.6,22.8c0.1,2.4,0.7,3,3.1,3.3c0.3,0,0.7,0.5,1.1,0.7 C85,66.6,84.6,67,84.2,67C80.7,66.9,77.4,66.9,73.9,66.9L73.9,66.9L73.9,66.9z"></path> </g> <g id="Layer_4" display="inline"> <path fill="none" stroke="#848D9A" stroke-width="5" stroke-miterlimit="10" d="M90.2,60c-5.5,22.2-28,35.7-50.2,30.1 c-22.2-5.5-35.7-28-30.1-50.2S37.8,4.3,60,9.8S95.7,37.8,90.2,60L90.2,60z"></path> <path fill="#EFB91C" d="M49.1,77.9"></path> </g> </g> <g id="Layer_2" display="none"> <g display="inline"> <path fill="#EEB91D" d="M38.8,26.3c3.1-0.5,7.1-0.9,12.2-0.9c6.3,0,10.9,1.5,13.8,4.1c2.7,2.3,4.3,5.9,4.3,10.3 c0,4.5-1.3,8-3.8,10.5c-3.4,3.6-8.8,5.4-15,5.4c-1.9,0-3.6-0.1-5.1-0.4v19.7h-6.4V26.3z M45.1,50c1.4,0.4,3.1,0.5,5.3,0.5 c7.7,0,12.3-3.7,12.3-10.5c0-6.5-4.6-9.6-11.6-9.6c-2.8,0-4.9,0.2-6,0.5V50z"></path> </g> </g> <g id="Layer_3_3_" display="none"> <path display="inline" fill="#848D9A" d="M19.2,25.1H8v7.4H26L19.2,25.1z"></path> <path display="inline" fill="#EEB91D" d="M77.1,25.1H40.6l36.5,40.1V25.1z"></path> <path display="inline" fill="#EEB91D" d="M20.5,57.1h9.8V62h-9.8V57.1z"></path> <path display="inline" fill="#848D9A" d="M30.5,37.4H8v36.9h56.3L30.5,37.4z M15.6,67V52.2h19.7V67H15.6z"></path> <path display="inline" fill="#848D9A" d="M25.9,25.1L71,74.3h6.1v-1.8L33.9,25.1H25.9z"></path> <path display="inline" fill="#848D9A" d="M29.6,15.1c-1.4-5.4-7.7-7.9-12.4-4.8c-5.2,3.5-5.1,11.2,0.5,14l1.5,0.8h21.4l1.7-0.8 c5.6-2.8,6.1-10.5,0.9-14c-4.6-3.1-11-0.7-12.4,4.8l-0.6,2.4L29.6,15.1z M20.3,19.9c-2.2-1.1-2.4-4.1-0.3-5.5 c1.8-1.2,4.3-0.2,4.9,1.9l1.7,6.7L20.3,19.9z M35.5,16.3c0.5-2.1,3-3.1,4.9-1.9c2,1.4,1.8,4.4-0.3,5.5L33.8,23L35.5,16.3z"></path> <path display="inline" fill="#848D9A" d="M82,79.2h-59v10h69V35H82V79.2z"></path> </g> <g id="Layer_5"> </g> <g id="Layer_6" display="none"> <g display="inline"> <path fill="#848D9A" d="M33.3,46c4,8.8,12.5,12.6,16.7,12.6c2.8,0,7.4-1.7,11.4-5.3c-1.5,0.1-3,0.2-4.7,0.2c-0.4,0-0.8,0-1.2,0 c-0.8,0.6-1.9,1-2.9,1H49c-2.7,0-4.8-2.2-4.8-4.8s2.2-4.8,4.8-4.8h3.5c1.3,0,2.5,0.5,3.4,1.4c0.3,0,0.6,0,0.9,0 c4.6,0,7.6-0.4,9.5-0.9c-0.3-0.6-0.4-1.3-0.4-2V30.9c0-1.3,0.5-2.5,1.3-3.4c-0.4-3.4-1.2-6-2.4-7.9c-2.4-3.9-7.1-5.8-14.8-5.8 c-6.3,0-10.7,1.3-13.4,4c-2.1,2.1-3.3,5.1-3.8,9.6c0.8,0.9,1.3,2.2,1.3,3.5v12.3C34.1,44.2,33.8,45.1,33.3,46z"></path> <path fill="#EEB91D" d="M24.6,46.1h4.2c1.6,0,2.9-1.3,2.9-2.9V30.9c0-1.1-0.6-2-1.4-2.5c0.9-10,4.8-17,19.7-17 c8.6,0,13.9,2.2,16.8,6.9c1.7,2.7,2.5,6.3,2.9,10.1c-0.8,0.5-1.4,1.4-1.4,2.5v12.3c0,1.4,1,2.5,2.3,2.8c-1.9,1.2-5.7,2.5-13.8,2.5 c-0.6,0-1.3,0-2,0c-0.4-0.8-1.2-1.3-2.2-1.3H49c-1.4,0-2.5,1.1-2.5,2.5c0,1.4,1.1,2.5,2.5,2.5h3.5c0.8,0,1.6-0.4,2-1 c0.7,0,1.5,0,2.2,0c9,0,14.8-1.5,17.1-4.6c0.1-0.1,0.2-0.3,0.3-0.4h1.3c1.6,0,2.9-1.3,2.9-2.9V30.9c0-1.6-1.3-2.9-2.9-2.9h-1.6 c-0.4-4.6-1.4-8.6-3.5-11.9C66.6,10.2,60,7.3,50,7.3c-10,0-16.6,2.9-20.3,8.9c-2,3.3-3,7.3-3.5,11.9h-1.6c-1.6,0-2.9,1.3-2.9,2.9 v12.3C21.7,44.8,23,46.1,24.6,46.1z"></path> <path fill="#848D9A" d="M85,82.1c-1-6-2.9-13.7-6.9-16.4c-2.7-1.9-12.2-6.9-16.2-9.1l-0.1,0c-0.5-0.2-1-0.2-1.4,0.1 c-2.1,1.7-4.4,2.8-6.9,3.3c-0.4,0.1-0.8,0.4-0.9,0.8L50,67.4l-2.5-6.6c-0.2-0.4-0.5-0.7-0.9-0.8c-2.5-0.5-4.8-1.7-6.9-3.3 c-0.4-0.3-1-0.4-1.4-0.1c-4,2.1-13.6,7.3-16.3,9.1c-4.6,3.1-6.6,14.2-6.9,16.4c0,0.2,0,0.4,0.1,0.7c0.2,0.5,4.4,11.3,34.9,11.3 c30.6,0,34.8-10.9,34.9-11.3C85,82.6,85,82.3,85,82.1z M70.8,75.2H58.6v-2.5h12.1V75.2z"></path> </g> </g> <g id="Layer_7"> <g> <g> <path fill="#848D9A" d="M42.9,34.2C24.8,34.2,9.8,46.6,9.8,62c0,6.1,2.4,12.4,6.7,17.2l-6.2,7C9.8,87,9.7,87.9,10,88.8 c0.4,0.8,1.2,1.4,2.1,1.4h33.1C58.7,90.2,76,78.6,76,62C76,46.6,61.1,34.2,42.9,34.2z M28.7,66.3c-2.6,0-4.7-2.1-4.7-4.7 c0-2.6,2.1-4.7,4.7-4.7s4.7,2.1,4.7,4.7C33.4,64.2,31.3,66.3,28.7,66.3z M42.9,66.3c-2.6,0-4.7-2.1-4.7-4.7 c0-2.6,2.1-4.7,4.7-4.7s4.7,2.1,4.7,4.7S45.5,66.3,42.9,66.3z M57.2,66.3c-2.6,0-4.7-2.1-4.7-4.7c0-2.6,2.1-4.7,4.7-4.7 s4.7,2.1,4.7,4.7C61.9,64.2,59.8,66.3,57.2,66.3z"></path> </g> </g> <g> <g> <path fill="#EEB91D" d="M89.6,57.7l-5.5-6.5c4-4.5,6.1-9.9,6.1-15.5c0-14.3-13.7-25.9-30.6-25.9c-15.3,0-28.2,9.5-30.5,21.9 c4.3-1.4,9-2.3,13.9-2.3c20.6,0,37.5,14.4,37.8,32.2h7.1C89.8,61.6,90.9,59.2,89.6,57.7z"></path> </g> </g> </g> <g id="Layer_4_1_" display="none"> <g display="inline"> <path fill="#EEB91D" d="M22.7,50.2h10.9v4.7H22.7V50.2z"></path> <path fill="#848D9A" d="M71.1,38.5h-53c-3.9,0-7,3.1-7,7v37.4c0,3.9,3.1,7,7,7h53c3.9,0,7-3.1,7-7V45.5 C78.1,41.6,74.9,38.5,71.1,38.5z M18.1,47.8c0-1.3,1-2.3,2.3-2.3H36c1.3,0,2.3,1,2.3,2.3v9.4c0,1.3-1,2.3-2.3,2.3H20.4 c-1.3,0-2.3-1-2.3-2.3V47.8z M20.4,68.9h4.7c1.3,0,2.3,1,2.3,2.3s-1,2.3-2.3,2.3h-4.7c-1.3,0-2.3-1-2.3-2.3S19.1,68.9,20.4,68.9z M36,82.9H20.4c-1.3,0-2.3-1-2.3-2.3s1-2.3,2.3-2.3H36c1.3,0,2.3,1,2.3,2.3S37.3,82.9,36,82.9z M39.1,73.5h-4.7 c-1.3,0-2.3-1-2.3-2.3s1-2.3,2.3-2.3h4.7c1.3,0,2.3,1,2.3,2.3S40.4,73.5,39.1,73.5z M53.1,73.5h-4.7c-1.3,0-2.3-1-2.3-2.3 s1-2.3,2.3-2.3h4.7c1.3,0,2.3,1,2.3,2.3S54.4,73.5,53.1,73.5z M68.7,59.5h-7.8c-1.3,0-2.3-1-2.3-2.3s1-2.3,2.3-2.3h7.8 c1.3,0,2.3,1,2.3,2.3S70,59.5,68.7,59.5z M68.7,50.2h-7.8c-1.3,0-2.3-1-2.3-2.3s1-2.3,2.3-2.3h7.8c1.3,0,2.3,1,2.3,2.3 S70,50.2,68.7,50.2z"></path> <path fill="#848D9A" d="M90.6,51.4L86,34.1l-7.8,2.1c2.8,2.1,4.6,5.5,4.6,9.3v15.3l2.9-0.8C89.4,59,91.6,55.2,90.6,51.4z"></path> <path fill="#EEB91D" d="M69.1,33.8l15.6-4.2l-1.2-4.5l-32.5,8.7H69.1z"></path> <path fill="#EEB91D" d="M16.5,33.8H33l49.3-13.2l-1.4-5.3c-1-3.7-4.9-6-8.6-5L21.1,24.1c-3.7,1-6,4.9-5,8.6L16.5,33.8z"></path> </g> </g> </svg>