<?xml version="1.0" encoding="UTF-8"?> <svg xmlns="http://www.w3.org/2000/svg" id="b9570b40-df02-4a5a-9f75-d8cc7c2fb6d7" data-name="Layer 1" viewBox="0 0 43.596 42.87605"><g id="afd81d98-89ba-40fb-a86a-d2d486a78d5b" data-name="Layer 3"><path d="M8.244,30A21.63935,21.63935,0,0,1,29.964,8.568h0a21.56165,21.56165,0,0,1,9.516,2.184c.444.192.9.444,1.38.708l-1.992,1.764-2.976-3.072-5.124,4.512L27.72,11.388l-9.444,8.388,6.06,6.6L21.96,28.428l5.964,6.6L25.536,37.08l8.52,9.384L39.12,41.88l4.392,4.896a23.96257,23.96257,0,0,1-2.856,1.884,21.9386,21.9386,0,0,1-10.704,2.784A21.5619,21.5619,0,0,1,8.244,30" transform="translate(-8.244 -8.568)" fill="#006cb4"></path><polygon points="17.748 20.088 22.932 15.504 27.576 20.628 22.392 25.212 17.748 20.088" fill="#006cb4"></polygon><polygon points="21.432 28.956 26.556 24.348 31.236 29.472 26.04 34.056 21.432 28.956" fill="#006cb4"></polygon><polygon points="14.064 11.376 19.248 6.792 23.892 11.916 18.708 16.5 14.064 11.376" fill="#006cb4"></polygon><polygon points="23.544 8.904 27.384 5.484 30.876 9.288 27.036 12.78 23.544 8.904" fill="#006cb4"></polygon><polygon points="30.432 24.696 34.272 21.276 37.764 25.116 33.924 28.548 30.432 24.696" fill="#006cb4"></polygon><polygon points="33.828 32.424 37.668 28.992 41.16 32.808 37.32 36.3 33.828 32.424" fill="#006cb4"></polygon><polygon points="35.4 14.736 37.956 12.432 40.26 15 37.704 17.304 35.4 14.736" fill="#006cb4"></polygon><polygon points="32.064 7.152 34.632 4.812 36.936 7.404 34.368 9.708 32.064 7.152" fill="#006cb4"></polygon><polygon points="38.664 22.296 41.22 19.992 43.596 22.524 41.004 24.828 38.664 22.296" fill="#006cb4"></polygon><polygon points="27.096 16.632 30.948 13.2 34.44 17.016 30.588 20.436 27.096 16.632" fill="#006cb4"></polygon></g></svg> 