<?xml version="1.0" encoding="utf-8"?>
<!-- Generator: Adobe Illustrator 21.0.0, SVG Export Plug-In . SVG Version: 6.00 Build 0)  -->
<svg version="1.1" xmlns="http://www.w3.org/2000/svg" xmlns:xlink="http://www.w3.org/1999/xlink" x="0px" y="0px"
	 viewBox="0 0 500 500" style="enable-background:new 0 0 500 500;" xml:space="preserve">
<style type="text/css">
	.st0{fill:none;}
	.st1{fill:#27346A;}
	.st2{fill:#2790C3;}
	.st3{fill:#1F264F;}
</style>
<g id="Layer_2">
	<rect class="st0" width="500" height="500"/>
	<path class="st1" d="M390.3,70.6C370.1,47.9,334.2,38,288,38H153.8c-9.6,0-17.5,6.9-19.1,16.2L78.9,408.7
		c-1,6.9,4.3,13.2,11.5,13.2h82.8L194,290l-0.7,4.3c1.3-9.2,9.6-16.2,18.8-16.2h39.2c77.2,0,137.9-31.3,155.7-122.4
		c0.7-2.6,1-5.3,1.3-7.9c-2.3-1.3-2.3-1.3,0,0C413.7,114.2,408.4,91.4,390.3,70.6"/>
	<path class="st1" d="M225.7,135.6c2.3-1,4.6-1.6,7.3-1.6h105.2c12.5,0,24.1,0.7,34.6,2.6c3,0.3,5.9,1,8.9,1.6c4.3,1,8.2,2,12.2,3.3
		c5.3,1.6,10.2,3.6,14.5,6.3c5.3-33.6,0-56.4-18.1-77.2C370.1,47.9,334.2,38,288,38H153.8c-9.6,0-17.5,6.9-18.8,16.2L78.9,408.7
		c-1,6.9,4.3,13.2,11.2,13.2h82.8l43.2-273.7C217.1,142.9,220.7,138.3,225.7,135.6z"/>
	<path class="st2" d="M407.1,155.7c-17.5,90.7-78.2,122-155.3,122h-39.6c-9.6,0-17.5,6.9-18.8,16.2l-25.7,164.2
		c-1,6.3,3.6,11.5,9.9,11.5h69.9c8.2,0,15.2-5.9,16.5-14.2l0.7-3.6l13.2-83.4l1-4.6c1.3-8.2,8.2-14.2,16.5-14.2h10.6
		c67.6,0,120.7-27.4,136.2-106.9c6.6-33.3,3-61-13.9-80.5c-5.3-5.9-11.5-10.9-19.1-14.8C408.1,150.5,407.7,153.1,407.1,155.7
		L407.1,155.7z"/>
	<path class="st3" d="M389.9,140.6c-2.6-0.7-5.6-1.6-8.2-2c-3-0.7-5.9-1.3-8.9-1.6c-10.6-1.6-22.1-2.6-34.6-2.6H233
		c-2.6,0-4.9,0.7-7.3,1.6c-4.9,2.3-8.6,6.9-9.2,12.5L194,290.3l-0.7,4.3c1.3-9.2,9.6-16.2,18.8-16.2h39.2
		c77.2,0,137.9-31.3,155.7-122.4c0.7-2.6,1-5.3,1.3-7.9c-4.6-2.3-9.2-4.3-14.5-6.3C392.6,141.2,391.3,140.9,389.9,140.6"/>
</g>
<g id="Layer_3">
</g>
</svg>
