<?xml version="1.0" encoding="UTF-8"?> <svg xmlns="http://www.w3.org/2000/svg" viewBox="0 0 425 299.5142"><g style="isolation:isolate"><g id="b18b2f98-d4d2-4bca-9027-e2ab36fcbb4d" data-name="Capa 1"><path d="M110.1875,174.3369c0-56.4131,45.8516-102.146,102.4101-102.146a102.27774,102.27774,0,0,1,102.4083,102.146" transform="translate(-0.0371 -46.56)" fill="none" stroke="#efb077" stroke-linecap="round" stroke-linejoin="round" stroke-width="3.46959" stroke-dasharray="13.9117 11.1294 13.9117"></path><polygon points="425 279.32 372.626 229.244 329.391 260.567 365.446 299.514 425 299.514 425 279.32" fill="#fbc4ab"></polygon><polygon points="425 282.211 425 276.427 375.33 228.938 372.811 226.529 369.988 228.574 330.072 257.492 326.255 260.257 329.457 263.717 362.598 299.514 368.295 299.514 332.525 260.877 372.441 231.959 425 282.211" fill="#1d4277"></polygon><path d="M371.9844,288.2007c2.6679-6.8667,3.0039-16.8833,1.8828-24.6592-1.2188-8.4531-3.8711-27.9439-10.2481-35.6182-4.7617-5.7251-22.9511-24.9389-28.8222-28.3169-15.8575-9.1391-50.6211,52.2178-44.5078,69.0454,2.2539,6.2041,19.9492,24.8252,26.3418,30.6582,14.1425,12.9092,18.2343,12.024,30.0234,9.6792" transform="translate(-0.0371 -46.56)" fill="#fbc4ab" stroke="#1d4277" stroke-linecap="round" stroke-linejoin="round" stroke-width="4.18049"></path><path d="M272.7793,85.4385h71.6465a7.0215,7.0215,0,0,1,7.0215,7.0215V227.6714a7.0196,7.0196,0,0,1-7.0196,7.0196H272.7783a7.0215,7.0215,0,0,1-7.0215-7.0215V92.461A7.0225,7.0225,0,0,1,272.7793,85.4385Z" fill="#61cae5"></path><path d="M344.4648,133.2138a5.8063,5.8063,0,0,1,5.8047,5.8062V274.2295a5.80628,5.80628,0,0,1-5.8047,5.8061H272.8164a5.80668,5.80668,0,0,1-5.8066-5.8061V139.02a5.8067,5.8067,0,0,1,5.8066-5.8062h71.6484m0-2.4311H272.8164a8.24756,8.24756,0,0,0-8.2383,8.2373V274.2295a8.24756,8.24756,0,0,0,8.2383,8.2373h71.6484a8.24652,8.24652,0,0,0,8.2364-8.2373V139.02a8.24652,8.24652,0,0,0-8.2364-8.2373Z" transform="translate(-0.0371 -46.56)" fill="#1d4277"></path><path d="M343.4805,257.1621a4.8094,4.8094,0,0,1-4.8614,4.7524H278.6582a4.80592,4.80592,0,0,1-4.8574-4.7524V146.4912a4.80538,4.80538,0,0,1,4.8574-4.7529h59.9609a4.80885,4.80885,0,0,1,4.8614,4.7529Z" transform="translate(-0.0371 -46.56)" fill="#f1f0ef"></path><path d="M297.2226,276.2378a3.95942,3.95942,0,1,1,0-7.8428h22.836a3.95919,3.95919,0,1,1,0,7.8428Z" transform="translate(-0.0371 -46.56)" fill="#f8be2c"></path><path d="M320.0586,269.6103a2.75771,2.75771,0,1,1,0,5.4121h-22.836a2.758,2.758,0,1,1,0-5.4121h22.836m0-2.4311h-22.836c-3.1552,0-5.7226,2.3042-5.7226,5.1367,0,2.833,2.5674,5.1377,5.7226,5.1377h22.836c3.1543,0,5.7207-2.3047,5.7207-5.1377,0-2.8325-2.5664-5.1367-5.7207-5.1367Z" transform="translate(-0.0371 -46.56)" fill="#1d4277"></path><g style="mix-blend-mode:multiply"><path d="M344.4648,133.2138H308.9883V280.0356h35.4765a5.80628,5.80628,0,0,0,5.8047-5.8061V139.02A5.8063,5.8063,0,0,0,344.4648,133.2138Z" transform="translate(-0.0371 -46.56)" fill="#e6e7e8"></path></g><line x1="277.957" y1="110.6846" x2="277.957" y2="203.4429" fill="none" stroke-dasharray="10.5013 8.40108 10.5013" stroke-linecap="round" stroke-linejoin="round" stroke-width="2.43097" stroke="#1d4277"></line><path d="M373.4082,261.3013c.4316-15.0757-3.0293-24.3101-7.9844-30.2623-2.6777-3.2119-28.5957-10.8745-33.4004-11.3085-7.3125-.004-6.248,7.0566-6.1992,10.312.1973,12.7622,26.6817,18.1211,33.9063,29.5283" transform="translate(-0.0371 -46.56)" fill="#fbc4ab" stroke="#1d4277" stroke-linecap="round" stroke-linejoin="round" stroke-width="4.18049"></path><path d="M272.0019,200.7739c-1.7275-.0005-10.4511-.1958-12.5341-4.0537-2.5694-4.7607-1.8047-11.5186-.294-14.3696a3.47137,3.47137,0,0,1,2.6914-2.1118,24.41372,24.41372,0,0,1,2.5078-.1309,43.90222,43.90222,0,0,1,8.544,1.1201c1.7031.3286,3.6328.7007,5.9824,1.0864a4.11553,4.11553,0,0,1,2.8477,2c2.1533,3.4126,1.4228,10.583.8964,12.3941-1.0273,3.5366-7.1064,4.0654-10.6416,4.0654Z" transform="translate(-0.0371 -46.56)" fill="#fbc4ab"></path><path d="M264.373,182.1982c3.8584,0,7.2286,1.0366,14.1875,2.1787,3.2305.5284,2.7051,9.584,2.0762,11.7481-.5019,1.7295-4.4316,2.5586-8.6348,2.5586-4.6552,0-9.6484-1.0176-10.6953-2.9566-2.6738-4.9555-1.0781-13.2197.7715-13.4087a22.26872,22.26872,0,0,1,2.2949-.1201m0-4.1806a26.354,26.354,0,0,0-2.7216.142,5.519,5.519,0,0,0-4.3252,3.2125c-1.7676,3.3388-2.6475,10.875.3007,16.3403.8379,1.5498,3.9122,5.1514,14.375,5.1514,5.0323,0,11.3116-.9668,12.6495-5.5728.5175-1.7813,1.5498-9.835-1.1358-14.0918a6.26106,6.26106,0,0,0-4.2803-2.9478c-2.3173-.3803-4.2334-.75-5.9218-1.0761a46.09859,46.09859,0,0,0-8.9405-1.1577Z" transform="translate(-0.0371 -46.56)" fill="#1d4277"></path><path d="M272.5156,226.0957c-2.6074,0-11.2793-.3091-13.4238-4.2857-2.7725-5.1337-1.9375-12.4677-.3008-15.5747a3.65586,3.65586,0,0,1,2.8066-2.2397,26.65834,26.65834,0,0,1,2.879-.1582,48.93331,48.93331,0,0,1,9.2255,1.1767c1.878.3516,4.0059.75,6.5977,1.1607a4.30126,4.30126,0,0,1,2.998,2.0942c2.335,3.6929,1.5127,11.4912.9317,13.4634-1.1123,3.7959-7.8154,4.3633-11.7129,4.3633Z" transform="translate(-0.0371 -46.56)" fill="#fbc4ab"></path><path d="M264.4766,205.9277c4.1972,0,7.9101,1.1104,15.496,2.3115,3.5547.5616,2.9532,10.5205,2.252,12.9029-.5654,1.9297-5.0078,2.8633-9.709,2.8633-5.0742,0-10.4512-1.0879-11.584-3.1875-2.9336-5.4327-1.1523-14.5269.8868-14.7437a24.56036,24.56036,0,0,1,2.6582-.1465m0-4.1802a28.69191,28.69191,0,0,0-3.1075.1705,5.69439,5.69439,0,0,0-4.4277,3.3432c-1.8965,3.6001-2.8438,11.6997.3125,17.543,2.6191,4.8574,11.5449,5.3818,15.2617,5.3818,5.4746,0,12.2988-1.018,13.7207-5.8681.5645-1.92,1.7119-10.6055-1.1719-15.1661a6.45035,6.45035,0,0,0-4.4394-3.042c-2.5606-.4052-4.6738-.8012-6.5391-1.1503a51.12469,51.12469,0,0,0-9.6093-1.212Z" transform="translate(-0.0371 -46.56)" fill="#1d4277"></path><path d="M273.9307,246.0473c-2.6084,0-11.2793-.3095-13.4258-4.2846-2.7725-5.1333-1.9375-12.4678-.3008-15.5752a3.65742,3.65742,0,0,1,2.8066-2.2412,26.59957,26.59957,0,0,1,2.876-.1573,48.96286,48.96286,0,0,1,9.2285,1.1768c1.878.3516,4.0078.75,6.5987,1.1606a4.30341,4.30341,0,0,1,2.9961,2.0923c2.333,3.687,1.5136,11.4893.9345,13.4634-1.1152,3.7979-7.8164,4.3652-11.7129,4.3652Z" transform="translate(-0.0371 -46.56)" fill="#fbc4ab"></path><path d="M265.8867,225.8789c4.1992,0,7.9121,1.1103,15.5,2.312,3.5547.562,2.9512,10.52,2.252,12.9028-.5664,1.9292-5.0069,2.8633-9.708,2.8633-5.0752,0-10.4541-1.0884-11.587-3.1875-2.9336-5.4331-1.1503-14.5273.8887-14.7446a24.61612,24.61612,0,0,1,2.6543-.146m0-4.1802a28.70822,28.70822,0,0,0-3.1016.1699,5.69691,5.69691,0,0,0-4.4306,3.3448c-1.8965,3.601-2.8438,11.7002.3105,17.5424,2.6241,4.8575,11.5498,5.3814,15.2657,5.3814,5.4736,0,12.2959-1.0176,13.7197-5.8662.5644-1.9263,1.708-10.6162-1.1738-15.1699a6.4502,6.4502,0,0,0-4.4375-3.0396c-2.5616-.4058-4.6749-.8013-6.5391-1.1504a51.194,51.194,0,0,0-9.6133-1.2124Z" transform="translate(-0.0371 -46.56)" fill="#1d4277"></path><path d="M273.0195,260.8081c-.4306,0-10.5781-.0488-12.7148-4.2881-2.2451-4.4517-1.378-10.5508.081-13.064a3.252,3.252,0,0,1,2.6524-1.8667c.4092-.0214.8056-.0317,1.1953-.0317a35.355,35.355,0,0,1,8.7178,1.4077c1.5127.3672,3.2265.7837,5.3125,1.23a3.96846,3.96846,0,0,1,2.6298,2.0181c1.8545,3.1958,1.0411,9.6108.5284,11.2114-.7178,2.2451-3.545,3.3833-8.4024,3.3833Z" transform="translate(-0.0371 -46.56)" fill="#fbc4ab"></path><path d="M264.2324,243.6479c3.8887,0,6.833,1.1446,13.5938,2.5913,2.875.6119,2.2129,8.6495,1.6054,10.5489-.4267,1.3325-3.1992,1.9301-6.4121,1.9301-4.497,0-9.8564-1.1718-10.8476-3.1386-2.2852-4.5303-.6836-11.8164.9746-11.9029.373-.0195.7324-.0288,1.0859-.0288m0-4.1806c-.4258,0-.8652.0117-1.3047.0346a5.29881,5.29881,0,0,0-4.3496,2.9053c-1.998,3.4424-2.5303,10.314-.1387,15.0552,2.6075,5.1738,12.6026,5.436,14.5801,5.436,5.8692,0,9.3662-1.6269,10.3936-4.8359a21.9651,21.9651,0,0,0,.7256-5.6797,14.19889,14.19889,0,0,0-1.4375-7.2188,6.11558,6.11558,0,0,0-4.0049-3.0136c-2.0537-.4395-3.7529-.8521-5.251-1.2163a36.875,36.875,0,0,0-9.2129-1.4668Z" transform="translate(-0.0371 -46.56)" fill="#1d4277"></path><polygon points="59.675 299.514 95.731 260.567 52.495 229.244 0 279.435 0 299.514 59.675 299.514" fill="#fbc4ab"></polygon><polygon points="92.596 260.877 56.826 299.514 62.523 299.514 95.664 263.717 98.866 260.257 95.049 257.492 55.133 228.574 52.311 226.529 49.791 228.938 0 276.543 0 282.327 52.68 231.959 92.596 260.877" fill="#1d4277"></polygon><path d="M53.209,288.2007c-2.668-6.8667-3.002-16.8833-1.8809-24.6592,1.2188-8.4531,3.8711-27.9439,10.2481-35.6182,4.7617-5.7251,22.9511-24.9389,28.8222-28.3169,15.8575-9.1391,50.6211,52.2178,44.5078,69.0454-2.2539,6.2041-19.9511,24.8252-26.3418,30.6582-14.1445,12.9092-18.2363,12.024-30.0253,9.6792" transform="translate(-0.0371 -46.56)" fill="#fbc4ab" stroke="#1d4277" stroke-linecap="round" stroke-linejoin="round" stroke-width="4.18049"></path><path d="M80.6953,85.4385h71.6475a7.0215,7.0215,0,0,1,7.0215,7.0215V227.6705a7.0205,7.0205,0,0,1-7.0205,7.0205H80.6944a7.0215,7.0215,0,0,1-7.0215-7.0215V92.4609A7.0224,7.0224,0,0,1,80.6953,85.4385Z" fill="#61cae5"></path><path d="M152.3809,133.2138a5.80628,5.80628,0,0,1,5.8046,5.8062V274.2295a5.80625,5.80625,0,0,1-5.8046,5.8061H80.7324a5.80668,5.80668,0,0,1-5.8066-5.8061V139.02a5.8067,5.8067,0,0,1,5.8066-5.8062h71.6485m0-2.4311H80.7324a8.24756,8.24756,0,0,0-8.2383,8.2373V274.2295a8.24756,8.24756,0,0,0,8.2383,8.2373h71.6485a8.2465,8.2465,0,0,0,8.2363-8.2373V139.02a8.2465,8.2465,0,0,0-8.2363-8.2373Z" transform="translate(-0.0371 -46.56)" fill="#1d4277"></path><path d="M151.3965,257.1621a4.8094,4.8094,0,0,1-4.8614,4.7524H86.5742a4.80592,4.80592,0,0,1-4.8574-4.7524V146.4912a4.80538,4.80538,0,0,1,4.8574-4.7529h59.9609a4.80885,4.80885,0,0,1,4.8614,4.7529Z" transform="translate(-0.0371 -46.56)" fill="#f1f0ef"></path><path d="M105.1387,276.2378a3.95943,3.95943,0,1,1,0-7.8428h22.8359a3.95919,3.95919,0,1,1,0,7.8428Z" transform="translate(-0.0371 -46.56)" fill="#f8be2c"></path><path d="M127.9746,269.6103a2.75773,2.75773,0,1,1,0,5.4121H105.1387a2.75805,2.75805,0,1,1,0-5.4121h22.8359m0-2.4311H105.1387c-3.1553,0-5.7227,2.3042-5.7227,5.1367,0,2.833,2.5674,5.1377,5.7227,5.1377h22.8359c3.1543,0,5.7207-2.3047,5.7207-5.1377,0-2.8325-2.5664-5.1367-5.7207-5.1367Z" transform="translate(-0.0371 -46.56)" fill="#1d4277"></path><g style="mix-blend-mode:multiply"><path d="M152.3809,133.2138H116.9043V280.0356h35.4766a5.80625,5.80625,0,0,0,5.8046-5.8061V139.02A5.80628,5.80628,0,0,0,152.3809,133.2138Z" transform="translate(-0.0371 -46.56)" fill="#e6e7e8"></path></g><line x1="85.873" y1="110.6846" x2="85.873" y2="203.4429" fill="none" stroke-dasharray="10.5013 8.40108 10.5013" stroke-linecap="round" stroke-linejoin="round" stroke-width="2.43097" stroke="#1d4277"></line><path d="M51.7871,261.3013c-.4316-15.0757,3.0273-24.3101,7.9844-30.2623,2.6758-3.2119,28.5957-10.8745,33.3984-11.3085,7.3145-.004,6.25,7.0566,6.1992,10.312-.1953,12.7622-26.6816,18.1211-33.9043,29.5283" transform="translate(-0.0371 -46.56)" fill="#fbc4ab" stroke="#1d4277" stroke-linecap="round" stroke-linejoin="round" stroke-width="4.18049"></path><path d="M153.1914,200.7739c-3.5322,0-9.6123-.5283-10.6416-4.0649-.5264-1.815-1.2529-8.9888.8994-12.3965a4.11653,4.11653,0,0,1,2.8486-1.9986c2.3477-.3852,4.2774-.7573,5.9805-1.0859a43.90222,43.90222,0,0,1,8.544-1.1201,24.33346,24.33346,0,0,1,2.5087.1313,3.47174,3.47174,0,0,1,2.6905,2.1104c1.5097,2.8511,2.2734,9.6089-.2949,14.3701C163.6426,200.5781,154.918,200.7739,153.1914,200.7739Z" transform="translate(-0.0371 -46.56)" fill="#fbc4ab"></path><path d="M160.8223,182.1982a22.26872,22.26872,0,0,1,2.2949.1201c1.8496.189,3.4433,8.4532.7695,13.4087-1.0469,1.939-6.0391,2.9566-10.6953,2.9566-4.2031,0-8.1309-.8291-8.6348-2.5586-.6269-2.1641-1.1523-11.2197,2.0782-11.7481,6.9589-1.1421,10.3291-2.1787,14.1875-2.1787m0-4.1806h0a46.06268,46.06268,0,0,0-8.9405,1.1582c-1.6894.3256-3.6045.6953-5.9248,1.0756a6.26035,6.26035,0,0,0-4.2754,2.9449c-2.6855,4.2514-1.6572,12.3086-1.1406,14.0918,1.3418,4.6093,7.6191,5.5757,12.6504,5.5757,3.4863,0,11.8633-.502,14.374-5.1504,2.9502-5.4673,2.0713-13.0035.3028-16.3418a5.51679,5.51679,0,0,0-4.3262-3.212,26.29172,26.29172,0,0,0-2.7197-.142Z" transform="translate(-0.0371 -46.56)" fill="#1d4277"></path><path d="M152.6797,226.0957c-3.8975,0-10.6016-.5669-11.7149-4.3657-.58-1.9698-1.4023-9.7681.9327-13.461a4.29726,4.29726,0,0,1,2.999-2.0942c2.5908-.4107,4.7197-.8091,6.5967-1.1607a48.91472,48.91472,0,0,1,9.2246-1.1767,26.66227,26.66227,0,0,1,2.8838.1587,3.655,3.655,0,0,1,2.8027,2.2392c1.6367,3.107,2.4717,10.441-.3018,15.5757C163.959,225.7866,155.2861,226.0957,152.6797,226.0957Z" transform="translate(-0.0371 -46.56)" fill="#fbc4ab"></path><path d="M160.7178,205.9277a24.57792,24.57792,0,0,1,2.6591.1465c2.0391.2168,3.8204,9.311.8868,14.7437-1.1328,2.0996-6.5098,3.1875-11.584,3.1875-4.7012,0-9.1436-.9336-9.709-2.8633-.7012-2.3824-1.3027-12.3413,2.2519-12.9029,7.586-1.2011,11.2969-2.3115,15.4952-2.3115m.0009-4.1802h-.0009a51.12467,51.12467,0,0,0-9.6094,1.212c-1.8643.3491-3.9766.7446-6.54,1.1508a6.44651,6.44651,0,0,0-4.4375,3.0415c-2.8838,4.5606-1.7364,13.2461-1.17,15.1704,1.42,4.8458,8.2442,5.8638,13.7188,5.8638,3.7168,0,12.6426-.5244,15.2637-5.3838,3.1542-5.8413,2.207-13.9409.3105-17.541a5.69679,5.69679,0,0,0-4.4355-3.3442,28.69228,28.69228,0,0,0-3.0997-.1695Z" transform="translate(-0.0371 -46.56)" fill="#1d4277"></path><path d="M151.2637,246.0473c-3.8965,0-10.5996-.5673-11.7129-4.3657-.5801-1.9702-1.4024-9.7685.9316-13.4599a4.3032,4.3032,0,0,1,3-2.0953c2.5918-.4106,4.7197-.809,6.5977-1.1606a48.96327,48.96327,0,0,1,9.2275-1.1768,26.53429,26.53429,0,0,1,2.877.1578,3.65991,3.65991,0,0,1,2.8066,2.2426c1.6367,3.1075,2.4707,10.4414-.3037,15.5738C162.5439,245.7383,153.8711,246.0473,151.2637,246.0473Z" transform="translate(-0.0371 -46.56)" fill="#fbc4ab"></path><path d="M159.3066,225.8789a24.60234,24.60234,0,0,1,2.6543.146c2.041.2173,3.8242,9.3115.8887,14.7446-1.1328,2.0991-6.5117,3.1875-11.5859,3.1875-4.7012,0-9.1407-.9341-9.7071-2.8633-.7011-2.3828-1.3047-12.3408,2.252-12.9028,7.5879-1.2017,11.3008-2.3115,15.498-2.312m.002-4.1802h0a51.194,51.194,0,0,0-9.6133,1.2124c-1.8643.3491-3.9775.7446-6.541,1.1509a6.4469,6.4469,0,0,0-4.4375,3.042c-2.8838,4.5596-1.7363,13.2451-1.1699,15.1699,1.4199,4.8457,8.2431,5.8633,13.7168,5.8633,3.7168,0,12.6435-.5244,15.2656-5.3828,3.1543-5.8384,2.207-13.9375.3115-17.5386a5.70039,5.70039,0,0,0-4.4375-3.3481,28.7407,28.7407,0,0,0-3.0947-.169Z" transform="translate(-0.0371 -46.56)" fill="#1d4277"></path><path d="M152.1748,260.8081c-4.8564,0-7.6836-1.1382-8.4033-3.3828-.5108-1.6016-1.3252-8.0176.5293-11.2124a3.969,3.969,0,0,1,2.6308-2.0181c2.085-.4458,3.7998-.8623,5.3125-1.23a35.37567,35.37567,0,0,1,8.7178-1.4072c.3897,0,.7861.0103,1.1963.0317a3.24959,3.24959,0,0,1,2.6494,1.8648c1.459,2.5132,2.3272,8.6118.0811,13.0664C162.7519,260.7597,152.6055,260.8081,152.1748,260.8081Z" transform="translate(-0.0371 -46.56)" fill="#fbc4ab"></path><path d="M160.9629,243.6479c.3535,0,.7129.0093,1.0859.0288,1.6563.0865,3.2578,7.3726.9746,11.9029-.9922,1.9668-6.3515,3.1386-10.8476,3.1386-3.2129,0-5.9864-.5976-6.4121-1.9301-.6075-1.8994-1.2715-9.937,1.6035-10.5489,6.7617-1.4467,9.707-2.5913,13.5957-2.5913m0-4.1806h0a36.875,36.875,0,0,0-9.2129,1.4668c-1.499.3642-3.1992.7768-5.2578,1.2172a6.11437,6.11437,0,0,0-4,3.0123,14.19044,14.19044,0,0,0-1.4356,7.2192,21.95558,21.95558,0,0,0,.7246,5.6787c1.0284,3.21,4.5254,4.8369,10.3946,4.8369,1.9765,0,11.9707-.2617,14.5801-5.436,2.3906-4.7442,1.8574-11.6153-.1407-15.0576a5.29672,5.29672,0,0,0-4.3486-2.9029c-.4385-.0229-.8779-.0346-1.3037-.0346Z" transform="translate(-0.0371 -46.56)" fill="#1d4277"></path><path d="M116.9043,169.414a24.49705,24.49705,0,1,1,24.498-24.4965A24.52512,24.52512,0,0,1,116.9043,169.414Z" transform="translate(-0.0371 -46.56)" fill="#f8be2c"></path><path d="M116.9043,121.5532A23.36375,23.36375,0,1,1,93.54,144.9175a23.364,23.364,0,0,1,23.3643-23.3643m0-2.2671a25.63085,25.63085,0,1,0,25.6308,25.6314,25.6602,25.6602,0,0,0-25.6308-25.6314Z" transform="translate(-0.0371 -46.56)" fill="#1d4277"></path><path d="M111.4912,148.7187c0,2.4429,2.4238,4.4243,5.4131,4.4243,2.9883,0,5.4131-2.2602,5.4131-4.4243,0-2.1635-1.4844-3.5942-5.0342-3.8012-3.5498-.208-5.792-1.5806-5.792-3.8018,0-2.8838,2.4238-4.4228,5.4131-4.4228,2.9883,0,5.4131,1.9804,5.4131,4.4228" transform="translate(-0.0371 -46.56)" fill="none" stroke="#f1f0ef" stroke-linecap="round" stroke-linejoin="round" stroke-width="1.93308"></path><line x1="116.8672" y1="107.0415" x2="116.8672" y2="110.0611" fill="none" stroke="#f1f0ef" stroke-linecap="round" stroke-linejoin="round" stroke-width="1.93308"></line><line x1="116.8672" y1="86.6538" x2="116.8672" y2="89.9659" fill="none" stroke="#f1f0ef" stroke-linecap="round" stroke-linejoin="round" stroke-width="1.93308"></line><path d="M126.4297,130.728a17.24156,17.24156,0,0,1,2.5586,2.106" transform="translate(-0.0371 -46.56)" fill="#f8be2c" stroke="#1d4277" stroke-linecap="round" stroke-linejoin="round" stroke-width="2.09856"></path><path d="M133.9932,144.9165a17.0889,17.0889,0,1,1-17.0889-17.0869" transform="translate(-0.0371 -46.56)" fill="#f8be2c" stroke="#1d4277" stroke-linecap="round" stroke-linejoin="round" stroke-width="2.09856"></path><path d="M111.4912,148.7187c0,2.4429,2.4238,4.4243,5.4131,4.4243,2.9883,0,5.4131-2.2602,5.4131-4.4243,0-2.1635-1.4844-3.5942-5.0342-3.8012-3.5498-.208-5.792-1.5806-5.792-3.8018,0-2.8838,2.4238-4.4228,5.4131-4.4228,2.9883,0,5.4131,1.9804,5.4131,4.4228" transform="translate(-0.0371 -46.56)" fill="none" stroke="#1d4277" stroke-linecap="round" stroke-linejoin="round" stroke-width="1.93308"></path><line x1="116.8672" y1="107.0415" x2="116.8672" y2="110.0611" fill="none" stroke="#1d4277" stroke-linecap="round" stroke-linejoin="round" stroke-width="1.93308"></line><line x1="116.8672" y1="86.6538" x2="116.8672" y2="89.9659" fill="none" stroke="#1d4277" stroke-linecap="round" stroke-linejoin="round" stroke-width="1.93308"></line><path d="M100.6992,144.5176s-1.2715-7.813-1.6953-8.2364c-.3955-.3965-8.126-1.584-8.126-1.584s7.8272-1.2876,8.2569-1.7163c.3916-.3911,1.5644-8.1049,1.5644-8.1049s1.1621,7.7041,1.5488,8.0913c.4327.4326,8.2715,1.7299,8.2715,1.7299s-7.7969,1.2554-8.2168,1.6739C101.9033,136.7724,100.6992,144.5176,100.6992,144.5176Z" transform="translate(-0.0371 -46.56)" fill="#f1f0ef"></path><g style="mix-blend-mode:multiply"><path d="M116.9043,121.5532c-.0352,0-.0703.0034-.1055.0034v46.7217c.0352,0,.0703.0024.1055.0024a23.36375,23.36375,0,0,0,0-46.7275Z" transform="translate(-0.0371 -46.56)" fill="#e6e7e8"></path></g><path d="M213.9277,96.688a24.4971,24.4971,0,1,1,24.4981-24.4966A24.52512,24.52512,0,0,1,213.9277,96.688Z" transform="translate(-0.0371 -46.56)" fill="#f8be2c"></path><path d="M213.9277,48.8271a23.3638,23.3638,0,1,1-23.3642,23.3643,23.36487,23.36487,0,0,1,23.3642-23.3643m0-2.2671a25.6309,25.6309,0,1,0,25.6319,25.6314A25.661,25.661,0,0,0,213.9277,46.56Z" transform="translate(-0.0371 -46.56)" fill="#1d4277"></path><path d="M208.5146,75.9927c0,2.4428,2.4239,4.4243,5.4131,4.4243,2.9883,0,5.4131-2.2603,5.4131-4.4243,0-2.1636-1.4853-3.5943-5.0342-3.8013-3.5498-.208-5.792-1.5806-5.792-3.8018,0-2.8838,2.4239-4.4228,5.4131-4.4228,2.9883,0,5.4131,1.9804,5.4131,4.4228" transform="translate(-0.0371 -46.56)" fill="none" stroke="#f1f0ef" stroke-linecap="round" stroke-linejoin="round" stroke-width="1.93308"></path><line x1="213.8906" y1="34.3155" x2="213.8906" y2="37.335" fill="none" stroke="#f1f0ef" stroke-linecap="round" stroke-linejoin="round" stroke-width="1.93308"></line><line x1="213.8906" y1="13.9278" x2="213.8906" y2="17.2398" fill="none" stroke="#f1f0ef" stroke-linecap="round" stroke-linejoin="round" stroke-width="1.93308"></line><path d="M223.4531,58.0019a17.19665,17.19665,0,0,1,2.5586,2.106" transform="translate(-0.0371 -46.56)" fill="#f8be2c" stroke="#1d4277" stroke-linecap="round" stroke-linejoin="round" stroke-width="2.09856"></path><path d="M231.0166,72.1904a17.08935,17.08935,0,1,1-17.0889-17.0869" transform="translate(-0.0371 -46.56)" fill="#f8be2c" stroke="#1d4277" stroke-linecap="round" stroke-linejoin="round" stroke-width="2.09856"></path><path d="M208.5146,75.9927c0,2.4428,2.4239,4.4243,5.4131,4.4243,2.9883,0,5.4131-2.2603,5.4131-4.4243,0-2.1636-1.4853-3.5943-5.0342-3.8013-3.5498-.208-5.792-1.5806-5.792-3.8018,0-2.8838,2.4239-4.4228,5.4131-4.4228,2.9883,0,5.4131,1.9804,5.4131,4.4228" transform="translate(-0.0371 -46.56)" fill="none" stroke="#1d4277" stroke-linecap="round" stroke-linejoin="round" stroke-width="1.93308"></path><line x1="213.8906" y1="34.3155" x2="213.8906" y2="37.335" fill="none" stroke="#1d4277" stroke-linecap="round" stroke-linejoin="round" stroke-width="1.93308"></line><line x1="213.8906" y1="13.9278" x2="213.8906" y2="17.2398" fill="none" stroke="#1d4277" stroke-linecap="round" stroke-linejoin="round" stroke-width="1.93308"></line><path d="M197.7226,71.7915s-1.2714-7.813-1.6953-8.2363c-.3955-.3965-8.1259-1.584-8.1259-1.584s7.8281-1.2876,8.2578-1.7163c.3906-.3911,1.5634-8.105,1.5634-8.105s1.1622,7.7041,1.5489,8.0913c.4326.4326,8.2715,1.73,8.2715,1.73s-7.7969,1.2553-8.2159,1.6738C198.9267,64.0464,197.7226,71.7915,197.7226,71.7915Z" transform="translate(-0.0371 -46.56)" fill="#f1f0ef"></path><g style="mix-blend-mode:multiply"><path d="M213.9277,48.8271c-.0351,0-.0703.0034-.1054.0034V95.5522c.0351,0,.0703.0025.1054.0025a23.3638,23.3638,0,1,0,0-46.7276Z" transform="translate(-0.0371 -46.56)" fill="#e6e7e8"></path></g><path d="M309.9707,169.414a24.49705,24.49705,0,1,1,24.498-24.4965A24.52512,24.52512,0,0,1,309.9707,169.414Z" transform="translate(-0.0371 -46.56)" fill="#f8be2c"></path><path d="M309.9707,121.5532a23.36375,23.36375,0,1,1-23.3652,23.3643,23.36481,23.36481,0,0,1,23.3652-23.3643m0-2.2671a25.63085,25.63085,0,1,0,25.6309,25.6314,25.6602,25.6602,0,0,0-25.6309-25.6314Z" transform="translate(-0.0371 -46.56)" fill="#1d4277"></path><path d="M304.5576,148.7187c0,2.4429,2.4238,4.4243,5.4131,4.4243,2.9883,0,5.4131-2.2602,5.4131-4.4243,0-2.1635-1.4844-3.5942-5.0342-3.8012-3.5498-.208-5.792-1.5806-5.792-3.8018,0-2.8838,2.4238-4.4228,5.4131-4.4228,2.9883,0,5.4131,1.9804,5.4131,4.4228" transform="translate(-0.0371 -46.56)" fill="none" stroke="#f1f0ef" stroke-linecap="round" stroke-linejoin="round" stroke-width="1.93308"></path><line x1="309.9336" y1="107.0415" x2="309.9336" y2="110.0611" fill="none" stroke="#f1f0ef" stroke-linecap="round" stroke-linejoin="round" stroke-width="1.93308"></line><line x1="309.9336" y1="86.6538" x2="309.9336" y2="89.9659" fill="none" stroke="#f1f0ef" stroke-linecap="round" stroke-linejoin="round" stroke-width="1.93308"></line><path d="M319.4961,130.728a17.24156,17.24156,0,0,1,2.5586,2.106" transform="translate(-0.0371 -46.56)" fill="#f8be2c" stroke="#1d4277" stroke-linecap="round" stroke-linejoin="round" stroke-width="2.09856"></path><path d="M327.0596,144.9165a17.0889,17.0889,0,1,1-17.0889-17.0869" transform="translate(-0.0371 -46.56)" fill="#f8be2c" stroke="#1d4277" stroke-linecap="round" stroke-linejoin="round" stroke-width="2.09856"></path><path d="M304.5576,148.7187c0,2.4429,2.4238,4.4243,5.4131,4.4243,2.9883,0,5.4131-2.2602,5.4131-4.4243,0-2.1635-1.4844-3.5942-5.0342-3.8012-3.5498-.208-5.792-1.5806-5.792-3.8018,0-2.8838,2.4238-4.4228,5.4131-4.4228,2.9883,0,5.4131,1.9804,5.4131,4.4228" transform="translate(-0.0371 -46.56)" fill="none" stroke="#1d4277" stroke-linecap="round" stroke-linejoin="round" stroke-width="1.93308"></path><line x1="309.9336" y1="107.0415" x2="309.9336" y2="110.0611" fill="none" stroke="#1d4277" stroke-linecap="round" stroke-linejoin="round" stroke-width="1.93308"></line><line x1="309.9336" y1="86.6538" x2="309.9336" y2="89.9659" fill="none" stroke="#1d4277" stroke-linecap="round" stroke-linejoin="round" stroke-width="1.93308"></line><path d="M293.7656,144.5176s-1.2715-7.813-1.6953-8.2364c-.3955-.3965-8.126-1.584-8.126-1.584s7.8272-1.2876,8.2578-1.7163c.3907-.3911,1.5635-8.1049,1.5635-8.1049s1.1621,7.7041,1.5488,8.0913c.4327.4326,8.2715,1.7299,8.2715,1.7299s-7.7968,1.2554-8.2158,1.6739C294.9697,136.7724,293.7656,144.5176,293.7656,144.5176Z" transform="translate(-0.0371 -46.56)" fill="#f1f0ef"></path><g style="mix-blend-mode:multiply"><path d="M309.9707,121.5532c-.0352,0-.0703.0034-.1055.0034v46.7217c.0352,0,.0703.0024.1055.0024a23.36375,23.36375,0,1,0,0-46.7275Z" transform="translate(-0.0371 -46.56)" fill="#e6e7e8"></path></g><line x1="94.8691" y1="123.6705" x2="140.9844" y2="123.6705" fill="none" stroke="#1d4277" stroke-linecap="round" stroke-linejoin="round" stroke-width="3.46959"></line><line x1="286.876" y1="123.6705" x2="332.9912" y2="123.6705" fill="none" stroke="#1d4277" stroke-linecap="round" stroke-linejoin="round" stroke-width="3.46959"></line></g></g></svg> 