<?xml version="1.0" encoding="UTF-8"?> <svg xmlns="http://www.w3.org/2000/svg" xmlns:xlink="http://www.w3.org/1999/xlink" id="a11ab8df-16d8-46d8-9c05-bcd37cdb9978" data-name="Layer 1" viewBox="0 0 2100.95638 953.30164"><defs><linearGradient id="f4110cc7-e4bb-4aec-8e69-21e6636333ca" x1="38.65522" y1="407.65248" x2="1264.18209" y2="440.33329" gradientUnits="userSpaceOnUse"><stop offset="0" stop-color="aqua"></stop><stop offset="1" stop-color="#4d9cfe"></stop></linearGradient><linearGradient id="b8313e02-1c58-467e-b8bc-e331fe96e0de" x1="73.51245" y1="457.94862" x2="1299.04683" y2="490.62963" xlink:href="#f4110cc7-e4bb-4aec-8e69-21e6636333ca"></linearGradient><linearGradient id="fbd9f97c-e6a2-49c7-b4ae-8a12ba319c8e" x1="38.74827" y1="404.40211" x2="1264.27907" y2="437.08303" xlink:href="#f4110cc7-e4bb-4aec-8e69-21e6636333ca"></linearGradient><linearGradient id="b3b8632d-7222-459a-b27c-0ea5c067e94f" x1="40.80338" y1="327.39028" x2="1266.33069" y2="360.07111" xlink:href="#f4110cc7-e4bb-4aec-8e69-21e6636333ca"></linearGradient><linearGradient id="a161390d-86ae-4494-bfdb-673275995c64" x1="46.71386" y1="156.74982" x2="1272.24011" y2="189.43062" xlink:href="#f4110cc7-e4bb-4aec-8e69-21e6636333ca"></linearGradient><linearGradient id="faa10f5c-857d-49de-b5b4-6d63b8d458bb" x1="72.5233" y1="546.05919" x2="1298.05496" y2="578.74013" xlink:href="#f4110cc7-e4bb-4aec-8e69-21e6636333ca"></linearGradient><linearGradient id="f9c59c07-a706-4c43-9f92-0db35e315f36" x1="40.84319" y1="325.70086" x2="1266.3757" y2="358.38182" xlink:href="#f4110cc7-e4bb-4aec-8e69-21e6636333ca"></linearGradient><linearGradient id="a6b2954c-78b4-4c56-b2f0-a1c66d437da5" x1="36.77466" y1="478.07174" x2="1262.31019" y2="510.75278" xlink:href="#f4110cc7-e4bb-4aec-8e69-21e6636333ca"></linearGradient><linearGradient id="a5f7c248-b87d-4b17-a860-ab2476779d9b" x1="67.82462" y1="671.20818" x2="1293.35537" y2="703.88909" xlink:href="#f4110cc7-e4bb-4aec-8e69-21e6636333ca"></linearGradient><linearGradient id="bb1b5010-2c3e-49dd-a48c-5877f2b4b9f3" x1="67.16689" y1="695.84807" x2="1292.69839" y2="728.52901" xlink:href="#f4110cc7-e4bb-4aec-8e69-21e6636333ca"></linearGradient><linearGradient id="e2606129-4c20-47ea-8775-52a4eed6ac88" x1="698.65428" y1="483.99649" x2="1924.18735" y2="516.67747" xlink:href="#f4110cc7-e4bb-4aec-8e69-21e6636333ca"></linearGradient><linearGradient id="faa44762-bfa0-46be-9f85-6e01e6c28296" x1="666.57854" y1="329.49823" x2="1892.11031" y2="362.17917" xlink:href="#f4110cc7-e4bb-4aec-8e69-21e6636333ca"></linearGradient><linearGradient id="a1e2be1d-1e33-4098-b271-9dc809c13e89" x1="703.6785" y1="295.58469" x2="1929.20906" y2="328.26561" xlink:href="#f4110cc7-e4bb-4aec-8e69-21e6636333ca"></linearGradient><linearGradient id="b18615b7-76a7-4c70-9e9f-ef9468aea925" x1="674.70678" y1="24.7256" x2="1900.23858" y2="57.40654" xlink:href="#f4110cc7-e4bb-4aec-8e69-21e6636333ca"></linearGradient><linearGradient id="b6240bec-c506-47a8-9ee1-b7f0f8790508" x1="699.1436" y1="465.65256" x2="1924.67763" y2="498.33357" xlink:href="#f4110cc7-e4bb-4aec-8e69-21e6636333ca"></linearGradient><linearGradient id="f4cfcdb3-4c2e-425e-a11a-e19227c4cc45" x1="672.03917" y1="124.75267" x2="1897.57074" y2="157.43361" xlink:href="#f4110cc7-e4bb-4aec-8e69-21e6636333ca"></linearGradient><linearGradient id="a5b143f2-2bbc-4d55-aa80-323164ed7ba1" x1="702.4731" y1="340.7719" x2="1928.00562" y2="373.45287" xlink:href="#f4110cc7-e4bb-4aec-8e69-21e6636333ca"></linearGradient><linearGradient id="f57e6135-bf93-451f-b6f1-8fe12ff79960" x1="699.03347" y1="469.78002" x2="1924.5647" y2="502.46095" xlink:href="#f4110cc7-e4bb-4aec-8e69-21e6636333ca"></linearGradient><linearGradient id="ba14464d-554b-45c7-bf71-cd1b8cafa603" x1="694.24268" y1="649.42407" x2="1919.77428" y2="682.10501" xlink:href="#f4110cc7-e4bb-4aec-8e69-21e6636333ca"></linearGradient><linearGradient id="ae68503e-fb63-42f6-aa8b-cd21a344dc86" x1="666.6504" y1="326.80758" x2="1892.18266" y2="359.48854" xlink:href="#f4110cc7-e4bb-4aec-8e69-21e6636333ca"></linearGradient><linearGradient id="ace755ef-71c4-427a-9ca1-73f6112e3a46" x1="670.11399" y1="196.94716" x2="1895.64652" y2="229.62812" xlink:href="#f4110cc7-e4bb-4aec-8e69-21e6636333ca"></linearGradient><linearGradient id="a6f444e4-402c-41f9-ab1a-dcc24fc2d22a" x1="700.44593" y1="416.80832" x2="1925.97951" y2="449.48931" xlink:href="#f4110cc7-e4bb-4aec-8e69-21e6636333ca"></linearGradient><linearGradient id="b82877d1-b08e-4768-a1a6-3029c011d4fa" x1="700.70323" y1="407.15625" x2="1926.23528" y2="439.83721" xlink:href="#f4110cc7-e4bb-4aec-8e69-21e6636333ca"></linearGradient><linearGradient id="b710b6a0-1583-4184-923e-cef0f58b17f5" x1="659.53531" y1="593.64946" x2="1885.06703" y2="626.3304" xlink:href="#f4110cc7-e4bb-4aec-8e69-21e6636333ca"></linearGradient><linearGradient id="fa155708-488b-416a-95e2-5345808ec67a" x1="662.06689" y1="498.71477" x2="1887.59835" y2="531.39571" xlink:href="#f4110cc7-e4bb-4aec-8e69-21e6636333ca"></linearGradient><linearGradient id="aad11628-af5f-4cca-87f5-91366924ee66" x1="662.14943" y1="495.61808" x2="1887.68111" y2="528.29902" xlink:href="#f4110cc7-e4bb-4aec-8e69-21e6636333ca"></linearGradient><linearGradient id="ab7e7e10-7828-4a2a-bb8d-9ec4e033c32e" x1="692.41494" y1="717.97948" x2="1917.94791" y2="750.66046" xlink:href="#f4110cc7-e4bb-4aec-8e69-21e6636333ca"></linearGradient></defs><polygon points="1391.209 430.758 1391.209 457.394 1417.846 457.394 1417.846 445.952 1511.242 445.92 1511.24 442.2 1417.846 442.232 1417.846 430.758 1391.209 430.758" fill="url(#f4110cc7-e4bb-4aec-8e69-21e6636333ca)"></polygon><path d="M1003.38838,362.08351V415.354h53.2727V390.58h215.6621l47.4399,48.1514v11.4053h11.2394l72.1688,73.2464h97.1638v11.4582h26.6338v-26.634h-26.6338v11.4532h-95.6068l-70.8989-71.9581v-2.7348h206.45l51.4049,52.1717.0027,50.9096h53.273v-24.6658h145.3755l-71.5972,73.307-140.9625.0607.0028,3.7229,176.4962-.074h.7827l75.2145-77.0166h113.0403l136.4488,138.8854v50.6672h53.2703l-.0025-53.2729h-50.6093l-138.3591-140.0023h-38.2184l-76.6795-78.4182h-197.521v-11.4555h-26.6364v26.6363h26.6364l-.0025-11.4583h161.2257l73.0384,74.6957h-220.9459v-24.887h-50.3826l-52.7384-53.5261h-208.0069v-5.1745h-11.4606l-48.4859-49.2154h-44.2283l-101.519-102.2725h-46.8951v3.7201h14.3308l97.8278,98.5524h-136.738v-24.774Zm1082.0084,303.2174h41.9938v41.9965h-41.9938Zm-287.2837-220.2912,29.4871-.0421,73.0384,74.6929h-29.5293Zm26.9555,78.3734-71.5816,73.2937-29.5425.0106,71.592-73.3043Zm-227.7462-22.9716h41.9966v42.002h-41.9966Zm-496.5082-212.1064h25.7696l97.8253,98.5524H1198.642Z" transform="translate(-32.075 -154.49811)" fill="url(#b8313e02-1c58-467e-b8bc-e331fe96e0de)"></path><rect x="1518.45973" y="435.3051" width="17.58495" height="17.5811" fill="url(#fbd9f97c-e6a2-49c7-b4ae-8a12ba319c8e)"></rect><rect x="1518.45973" y="358.2385" width="17.58495" height="17.5811" fill="url(#b3b8632d-7222-459a-b27c-0ea5c067e94f)"></rect><rect x="1020.20658" y="174.15355" width="17.58375" height="17.57985" fill="url(#a161390d-86ae-4494-bfdb-673275995c64)"></rect><path d="M1003.38838,490.13711v53.2703h53.2727v-24.7737h40.8887l130.8481,132.8029h144.1452v11.4557h26.6339v-26.6367h-23.8253l-111.7519-113.4224v-14.8517H1246.016v17.5839h15.0491l111.478,113.1432v9.0053h-107.8525l-130.8481-132.8031h-77.1814v-24.7737Zm128.8969,28.4966,127.1781,129.0802h-29.5059l-127.1832-129.0802Zm-81.2622,19.1381h-41.9938v-41.9966h41.9938Z" transform="translate(-32.075 -154.49811)" fill="url(#faa10f5c-857d-49de-b5b4-6d63b8d458bb)"></path><rect x="1577.45648" y="358.1198" width="17.5811" height="17.5839" fill="url(#f9c59c07-a706-4c43-9f92-0db35e315f36)"></rect><rect x="2065.50158" y="523.6151" width="17.58255" height="17.5812" fill="url(#a6b2954c-78b4-4c56-b2f0-a1c66d437da5)"></rect><path d="M931.72568,731.48211h94.1428l62.5206,63.4587v22.163h-66.3116v-11.4581h-26.6369v26.5629l26.6369.0734V820.824h66.3116v24.7765h53.2758V820.824H1383.369l119.5244-121.3107h24.0756l.0027-26.6337h-26.6366v11.4579h-270.3802l-57.4092-58.2708v-14.0243h-13.8216l-59.6171-60.5105H930.84478l.0028,3.7228h166.7022l57.4121,58.2711v16.1003h15.8606l57.5753,58.4316h169.6095l-61.7197,62.642h-138.7467v-11.4582h-26.6364V765.878h26.6364v-11.4582h172.56l65.3819-66.3621h64.8523v8.7499l-118.5203,120.2962h-240.1499v-24.7791h-50.628l-63.6115-64.5627h-95.6997v-6.9316h-17.5834v17.5812h17.5834Zm436.8153,19.2176h-27.0288l61.7171-62.642h27.0315Zm-274.5138,47.2606h41.9991v42.0046h-41.9991Z" transform="translate(-32.075 -154.49811)" fill="url(#a5f7c248-b87d-4b17-a860-ab2476779d9b)"></path><path d="M2016.54048,659.635h-53.2731v24.7764h-442.416v3.7229H1940.791l-107.539,109.1054H1683.924v-24.775h-53.2727v53.2729h53.2727v-24.7764h195.5425l.5482-.5534,86.2404-87.4971h50.2854Zm-338.2546,160.4643-41.9938.0014v-41.9966h41.9938Zm284.9815-109.4598-85.3579,86.6002h-39.4304l107.5364-109.1054h17.2519Z" transform="translate(-32.075 -154.49811)" fill="url(#bb1b5010-2c3e-49dd-a48c-5877f2b4b9f3)"></path><path d="M78.397,465.21876v-21.5423H32.075v46.3243H78.397v-21.5447h63.3292v-3.2349Zm-4.90289,19.8791H36.9777v-36.5188H73.49411Z" transform="translate(-32.075 -154.49811)" fill="url(#e2606129-4c20-47ea-8775-52a4eed6ac88)"></path><rect x="15.5169" y="304.69525" width="15.2903" height="15.2903" fill="url(#faa44762-bfa0-46be-9f85-6e01e6c28296)"></rect><path d="M854.79191,182.17066l-221.1353.0024-.4744.4788-74.99172,76.0845H514.46411v21.5447H419.79879l-113.7786,115.4833H271.9585v-9.9637H248.7942v9.9294H176.379v-21.5447H130.0547v46.3264H176.379v-21.5445h72.4152v9.9956h23.162l.0023-9.9613H307.374l113.7787-115.4832h93.31142v21.5447h46.32428v-21.5447H786.59471v-3.2373H580.33319l93.51222-94.8755h180.9465v21.5448h46.3243V160.626h-46.3243Zm-219.7791,3.2349H669.3l-93.51012,94.8755h-15.0015v-19.5698Zm224.6817-19.8767,36.5188-.0023v36.5211h-36.5188Z" transform="translate(-32.075 -154.49811)" fill="url(#a1e2be1d-1e33-4098-b271-9dc809c13e89)"></path><rect x="838.23381" y="21.64505" width="15.2903" height="15.2903" fill="url(#b18615b7-76a7-4c70-9e9f-ef9468aea925)"></rect><path d="M607.578,328.19086l-.0021,21.5447H456.69211l-103.86322,105.421h-20.5664V465.205l-162.48729.0162v3.2349H332.26479l-.0023,9.8604h23.1644v-9.8858l146.492-.0755,113.77632,115.4785,213.5072-.0044v21.5468h46.3267v-46.3265h-46.3267v21.5469H666.67251L552.89629,465.118H355.42689v-7.9889L458.046,352.97286H607.578l-.0021,21.5447h46.3287l-.0023-46.3267ZM506.46189,468.35516h45.07822l110.5894,112.2413h-45.0779Z" transform="translate(-32.075 -154.49811)" fill="url(#b6240bec-c506-47a8-9ee1-b7f0f8790508)"></path><rect x="765.25981" y="121.28575" width="12.2328" height="12.2318" fill="url(#f4cfcdb3-4c2e-425e-a11a-e19227c4cc45)"></rect><path d="M997.13371,359.90066v-9.9636h94.8464q.09225-1.6194.1998-3.237h-95.0462v-9.9593h-23.1619v23.1599Z" transform="translate(-32.075 -154.49811)" fill="url(#a5b143f2-2bbc-4d55-aa80-323164ed7ba1)"></path><path d="M735.46781,458.42126l-68.7746.2018-50.3885-51.147h-.6783l-146.05592-.0939v-6.0299h-15.2879v15.2879l15.2903-.0023-.0024-6.0208,121.6315.0824,50.40682,51.1585,92.521-.1971,28.0582,28.0558v44.0562h46.3196v-46.3222h-44.0104Zm31.6205,33.9346H803.605v36.5165h-36.5167Zm-104.9381-33.7328h-19.1873l-47.21552-47.9236,19.201.0138Z" transform="translate(-32.075 -154.49811)" fill="url(#f57e6135-bf93-451f-b6f1-8fe12ff79960)"></path><path d="M179.3675,513.12156H133.0478v46.3243h46.3197v-21.5424l90.6412-.0342,113.77859,115.4808,118.6677.0068v21.538h43.7263l75.46612,76.5701,110.7619.007.0023,21.5424h46.322v-46.322h-46.3243v21.5424l-109.408-.0068-74.222-75.308v-19.5631l76.51052.0068v-3.2349l-76.51052-.0044v-21.5539h-43.7125l-85.5535-86.8341v-13.1322H404.223v15.2903h12.8756l85.3564,86.6347v19.5905l-76.3206-.0045L312.35579,534.632l-132.98829.0343Zm557.94681,218.4711h36.5188v36.5188h-36.5188ZM274.554,537.86926h36.45011l110.58938,112.2459-36.4521-.0023Zm-100.0892,16.6739H137.9505v-36.5187h36.5143Z" transform="translate(-32.075 -154.49811)" fill="url(#ba14464d-554b-45c7-bf71-cd1b8cafa603)"></path><rect x="116.4876" y="304.69525" width="15.29135" height="15.2891" fill="url(#ae68503e-fb63-42f6-aa8b-cd21a344dc86)"></rect><rect x="663.08851" y="189.31965" width="15.288" height="15.288" fill="url(#ace755ef-71c4-427a-9ca1-73f6112e3a46)"></rect><path d="M723.32941,374.51516l29.0293,29.0294,70.0645-.0481L941.776,283.516h20.6123v19.5083l-111.6435,112.232.0252,72.2014h-21.5675v46.3244h46.3266v-21.5448h158.7373l-67.3534,68.3592h-58.5262v-4.4971h-12.2295l-.0022,12.2293h12.2317l.0022-4.4994h59.8779l70.5429-71.592h49.0072c.2475-1.0792.4951-2.1575.7204-3.2372H875.52911v-21.5424H854.005l-.023-70.8679,110.9539-111.5382h43.7768v-46.3242h-46.3244l.0022,21.5516-145.0816-.0069v3.2348l81.0708.007-116.1545,116.766-28.5262.0275-28.0581-28.0579v-19.2011l45.6927.032v4.4995h12.2341l.0022-12.2314h-12.2363v4.4949l-45.6927-.0298v-21.6227h-46.3198l-.0022,46.3243Zm179.6162-91.0013h34.2666l-116.1313,116.7454-34.2876.0183ZM684.222,333.09146h36.5161v36.5212H684.222Z" transform="translate(-32.075 -154.49811)" fill="url(#a6f444e4-402c-41f9-ab1a-dcc24fc2d22a)"></path><path d="M1008.71271,437.91446v-21.5471h85.2266q.4695-1.6047.8215-3.2349h-86.0481v-21.5424h-46.3199v46.3244Zm-41.4194-41.4215h36.5188v36.5209h-36.5188Z" transform="translate(-32.075 -154.49811)" fill="url(#b82877d1-b08e-4768-a1a6-3029c011d4fa)"></path><rect x="715.85351" y="587.71115" width="15.2903" height="15.288" fill="url(#b710b6a0-1583-4184-923e-cef0f58b17f5)"></rect><rect x="600.95851" y="491.13135" width="12.2318" height="12.2339" fill="url(#fa155708-488b-416a-95e2-5345808ec67a)"></rect><polygon points="746.482 474.086 746.482 520.413 700.158 520.413 700.158 498.87 620.929 498.879 620.929 495.642 700.158 495.633 700.158 474.086 746.482 474.086" fill="url(#aad11628-af5f-4cca-87f5-91366924ee66)"></polygon><path d="M955.83741,720.20316l-105.7844.0513v-9.9613h-23.1645v23.1623H850.053v-9.9637h105.7844C955.76951,722.41216,955.89231,721.28116,955.83741,720.20316Z" transform="translate(-32.075 -154.49811)" fill="url(#ab7e7e10-7828-4a2a-bb8d-9ec4e033c32e)"></path><path id="a25d6f42-613a-42db-a825-8dba022360fb" data-name="a8f1a281-6ece-438e-a864-2c18f32eb79b" d="M1192.36364,957.58575c-3.26951,21.66048-19.67325,21.66048-35.53363,21.66048h-9.02627l6.33291-40.44433a5.00272,5.00272,0,0,1,4.92768-4.2438h4.13606c10.80155,0,20.99885,0,26.2591,6.20351A20.28061,20.28061,0,0,1,1192.36364,957.58575Zm-6.90437-56.51374h-59.83009a8.33085,8.33085,0,0,0-8.21124,7.07768l-24.19341,154.73359a5.017,5.017,0,0,0,4.15481,5.75091l.76819.06324h30.69963a5.83341,5.83341,0,0,0,5.7474-4.95344l6.86221-43.86783a8.33087,8.33087,0,0,1,8.21124-7.0771h18.93316a61.60624,61.60624,0,0,0,67.85864-54.64361v-.00058h0c.09837-.904.18268-1.81041.23421-2.71913a46.77962,46.77962,0,0,0-7.63041-38.94775,55.22552,55.22552,0,0,0-43.60434-15.4154" transform="translate(-32.075 -154.49811)" fill="#4899d4"></path><path id="a55c4d12-3ca0-466c-b649-318eb7e88978" data-name="ac52468d-bf04-4f2b-813e-ed3922ec2ac4" d="M765.651,957.58575c-3.26951,21.66048-19.67325,21.66048-35.53363,21.66048h-9.02627L727.424,938.8019a4.99593,4.99593,0,0,1,4.92768-4.2438h4.13606c10.79687,0,20.99885,0,26.2591,6.20351A20.28061,20.28061,0,0,1,765.651,957.58575ZM758.74658,901.072H698.91649a8.3319,8.3319,0,0,0-8.21124,7.07768l-24.1934,154.73359a5.017,5.017,0,0,0,4.1548,5.75091l.77287.06324H700.0032a8.33346,8.33346,0,0,0,8.21124-7.07886l6.52964-41.74241a8.33087,8.33087,0,0,1,8.21124-7.0771h18.93316a61.60624,61.60624,0,0,0,67.85864-54.64361v-.00058h0c.10305-.904.178-1.81041.23421-2.71913a46.77962,46.77962,0,0,0-7.63041-38.94775,55.22346,55.22346,0,0,0-43.60434-15.4154" transform="translate(-32.075 -154.49811)" fill="#253c7c"></path><path id="ab040c5a-63c1-4841-8a10-467440d40f5d" data-name="b2647b71-03ae-4c00-9441-c9ff0b63cb9d" d="M897.63969,1013.13515a32.02554,32.02554,0,0,1-32.33439,27.59407,24.07536,24.07536,0,0,1-19.23762-7.80021,24.70858,24.70858,0,0,1-4.48737-20.29506,32.14168,32.14168,0,0,1,32.10486-27.80368,24.03442,24.03442,0,0,1,19.0971,7.87164A25.05037,25.05037,0,0,1,897.63969,1013.13515Zm39.92263-56.24148h-28.648a5.00009,5.00009,0,0,0-4.92768,4.24731l-1.26,8.07892-2.0048-2.92757a40.57448,40.57448,0,0,0-33.838-12.11778,66.08091,66.08091,0,0,0-63.94742,58.12039,54.89794,54.89794,0,0,0,10.66571,44.39361,44.65712,44.65712,0,0,0,36.08167,14.6917A54.65788,54.65788,0,0,0,889.34414,1054.85l-1.27876,8.03207a5.01843,5.01843,0,0,0,4.1548,5.75208l.77287.06441h25.80006a8.32931,8.32931,0,0,0,8.21124-7.07534L942.49,962.70372a5.01345,5.01345,0,0,0-4.15011-5.74623l-.00469-.00058h0l-.77288-.06265" transform="translate(-32.075 -154.49811)" fill="#253c7c"></path><path id="e7103a6f-1bf5-4273-87e3-0a5d51150dcf" data-name="b7cbf4bb-dd4d-496f-bb56-9a3784760be4" d="M1324.34769,1013.13515a32.01917,32.01917,0,0,1-32.33438,27.59407,24.07907,24.07907,0,0,1-19.23762-7.80021,24.70858,24.70858,0,0,1-4.48738-20.29506,32.1417,32.1417,0,0,1,32.10487-27.80368,24.03444,24.03444,0,0,1,19.0971,7.87164A25.05033,25.05033,0,0,1,1324.34769,1013.13515Zm39.92732-56.24148h-28.648a4.99738,4.99738,0,0,0-4.923,4.24731l-1.26,8.07892-2.00011-2.92757a40.57985,40.57985,0,0,0-33.838-12.11778,66.09024,66.09024,0,0,0-63.9521,58.12039,54.8979,54.8979,0,0,0,10.66571,44.39361,44.65164,44.65164,0,0,0,36.08166,14.6917,54.65785,54.65785,0,0,0,39.66033-16.53021l-1.28345,8.03207a5.02165,5.02165,0,0,0,4.15949,5.75325l.76819.06324h25.80006a8.32878,8.32878,0,0,0,8.21124-7.07534l15.48565-98.91954a5.01416,5.01416,0,0,0-4.1548-5.7474h0l-.76819-.06265" transform="translate(-32.075 -154.49811)" fill="#4899d4"></path><path id="f08a5e78-7b75-4453-965d-40c52383dce9" data-name="ff7f888b-5455-493c-b2d7-4479bde8cf91" d="M1090.14708,956.89309h-28.79789a8.29919,8.29919,0,0,0-6.87626,3.67585l-39.72122,59.00451L997.917,962.87235a8.32718,8.32718,0,0,0-7.963-5.98043H961.648a5.02582,5.02582,0,0,0-4.72158,6.65611l31.70671,93.86948-29.8237,42.44386a5.03247,5.03247,0,0,0,4.0658,7.93839H991.645a8.28748,8.28748,0,0,0,6.82943-3.60676l95.76186-139.40134a5.0347,5.0347,0,0,0-4.09859-7.8974" transform="translate(-32.075 -154.49811)" fill="#253c7c"></path><path id="e6682789-5115-4a8a-ab9a-5d4d2b221648" data-name="b2254d3b-92aa-4ec0-b1e6-948012085e3d" d="M1398.04273,905.32166l-24.55408,157.56513a5.01486,5.01486,0,0,0,4.15012,5.748l.00468.00058h.00469l.76819.06265h24.69461a8.33239,8.33239,0,0,0,8.21123-7.07885l24.21215-154.72949a5.019,5.019,0,0,0-4.1548-5.75267l-.77288-.06382H1402.9751a5.00216,5.00216,0,0,0-4.92768,4.24907" transform="translate(-32.075 -154.49811)" fill="#4899d4"></path><path id="fff1eb20-fc36-4fc2-a91a-0223e016c36e" data-name="b8be3589-a405-4da5-ac0e-f64de97e2352" d="M959.96336,841.61679l12.22191-78.295-27.22086-.636H814.97473l90.33582-577.738a7.62994,7.62994,0,0,1,2.52227-4.525,7.32719,7.32719,0,0,1,4.81525-1.7907h219.179c72.76365,0,122.97974,15.27192,149.19606,45.41723A103.87063,103.87063,0,0,1,1304.92828,269.23a164.47671,164.47671,0,0,1,.16379,62.31515l-.28026,1.81527v15.93252l12.29106,7.02359a86.30125,86.30125,0,0,1,24.88421,19.13722,89.44928,89.44928,0,0,1,20.18907,45.67792,194.90838,194.90838,0,0,1-2.87531,66.27463,234.62746,234.62746,0,0,1-26.91877,75.01931,153.7773,153.7773,0,0,1-42.64564,47.137,172.308,172.308,0,0,1-57.43349,26.1376,284.06176,284.06176,0,0,1-71.781,8.36662h-17.059a51.4627,51.4627,0,0,0-33.34273,12.37341,52.21356,52.21356,0,0,0-17.38655,31.29907l-1.28479,7.04725L1069.8586,832.78065l-.9827,5.06866a4.38,4.38,0,0,1-1.35395,2.94537,3.60952,3.60952,0,0,1-2.242.82484Z" transform="translate(-32.075 -154.49811)" fill="#263c7f"></path><path id="b715e58a-fceb-4444-9058-7809fd59b72a" data-name="b7081b89-6d17-46d5-a662-92f7a66168ab" d="M1328.73516,335.19706h0q-.98271,6.32887-2.242,12.96257c-28.906,149.68467-127.79134,201.39393-254.09043,201.39393h-64.30513A31.31562,31.31562,0,0,0,977.22981,576.233h0L944.30564,786.8425l-9.32475,59.69917A16.55606,16.55606,0,0,0,951.221,865.72621h114.05171a27.51865,27.51865,0,0,0,27.10438-23.33282l1.121-5.84389,21.47387-137.4514,1.37942-7.5436a27.4977,27.4977,0,0,1,27.10439-23.38013h17.059c110.50306,0,197.00635-45.25162,222.28727-176.19853,10.56223-54.70285,5.0955-100.37849-22.85329-132.50194A109.18615,109.18615,0,0,0,1328.73516,335.19706Z" transform="translate(-32.075 -154.49811)" fill="#179bd7"></path><path id="e288d943-3b50-47e0-909e-d8a97f589817" data-name="e537e01d-d5f7-481a-8c02-6c4a5cfc76ce" d="M1298.50068,323.03566q-6.62232-1.94493-13.645-3.535-7.04817-1.55595-14.46393-2.75793a354.258,354.258,0,0,0-56.68736-4.17194H1041.91346a27.114,27.114,0,0,0-11.847,2.71062,27.60531,27.60531,0,0,0-15.23553,20.66951l-36.54561,233.471-1.05185,6.81158a31.31563,31.31563,0,0,1,30.86777-26.67946h64.30513c126.29545,0,225.18442-51.73291,254.09043-201.39393.86623-4.43126,1.59052-8.74423,2.242-12.96257a153.0267,153.0267,0,0,0-23.7632-10.11137C1302.86825,324.37914,1300.69538,323.6958,1298.50068,323.03566Z" transform="translate(-32.075 -154.49811)" fill="#253064"></path><path id="f33bef85-45aa-4779-b555-60f224fdf387" data-name="ab54e44e-f05d-4908-bba4-c744ab0980d2" d="M1014.82727,335.95137a27.5304,27.5304,0,0,1,15.23553-20.64585,27.172,27.172,0,0,1,11.847-2.71107h171.79457a354.20593,354.20593,0,0,1,56.68736,4.17193q7.43579,1.20108,14.46393,2.75794,7.00994,1.59142,13.645,3.535c2.19834.65968,4.37121,1.34166,6.49676,2.02728a155.57739,155.57739,0,0,1,23.76319,10.11137,142.26342,142.26342,0,0,0-29.72128-127.08161c-32.69123-37.54469-91.68977-53.61825-167.19043-53.61825H912.6699a31.41085,31.41085,0,0,0-30.9624,26.70312l-91.293,583.67651a18.94763,18.94763,0,0,0,18.57672,21.96613H944.30928l33.976-217.42107Z" transform="translate(-32.075 -154.49811)" fill="#263c7f"></path></svg> 