<?xml version="1.0" encoding="UTF-8"?> <svg xmlns="http://www.w3.org/2000/svg" xmlns:xlink="http://www.w3.org/1999/xlink" viewBox="0 0 839.3665 757.0741"><defs><linearGradient id="a29b9e41-413c-4b4e-90cc-8a8407e4dedf" data-name="New Gradient Swatch 4" x1="374.99995" y1="19.865" x2="374.99995" y2="602.5" gradientUnits="userSpaceOnUse"><stop offset="0" stop-color="#3a1c8a"></stop><stop offset="1" stop-color="#201a4a"></stop></linearGradient><clipPath id="eef9c1ce-b77e-4b6d-afa7-0928b104187f" transform="translate(19.92573 25.81316)"><rect width="750" height="500" fill="none"></rect></clipPath><clipPath id="a6874aa8-65b4-4f45-963b-43837c43952c" transform="translate(19.92573 25.81316)"><rect x="-0.70213" y="-40.85106" width="750" height="500" fill="none"></rect></clipPath><linearGradient id="ba2b0676-3230-4888-8c7d-abd3c67564f5" data-name="New Gradient Swatch copy 8" x1="84.3649" y1="300.35923" x2="109.43428" y2="299.66766" gradientUnits="userSpaceOnUse"><stop offset="0" stop-color="#8fffff"></stop><stop offset="0.94142" stop-color="#3650ae" stop-opacity="0"></stop></linearGradient><linearGradient id="bef9368c-0469-486c-aa95-cf52dd756423" x1="54.65241" y1="281.00279" x2="100.76003" y2="314.97689" xlink:href="#ba2b0676-3230-4888-8c7d-abd3c67564f5"></linearGradient><linearGradient id="af4c5fba-0900-4116-b56a-c9a5ea7b673e" x1="76.43101" y1="263.29413" x2="101.97687" y2="290.66466" xlink:href="#ba2b0676-3230-4888-8c7d-abd3c67564f5"></linearGradient><linearGradient id="bf550e5c-a85b-47fd-854f-7b322813be06" x1="244.42316" y1="78.10529" x2="260.87812" y2="77.65136" xlink:href="#ba2b0676-3230-4888-8c7d-abd3c67564f5"></linearGradient><linearGradient id="fe0668dc-13fb-4fe1-b74f-f200704199d9" x1="224.9204" y1="65.40009" x2="255.18457" y2="87.70004" xlink:href="#ba2b0676-3230-4888-8c7d-abd3c67564f5"></linearGradient><linearGradient id="e8ccc62e-b283-48af-810f-c9a83eadff82" x1="239.21543" y1="53.77651" x2="255.98322" y2="71.74198" xlink:href="#ba2b0676-3230-4888-8c7d-abd3c67564f5"></linearGradient><linearGradient id="b5e35935-01fd-4721-b389-470d50764756" data-name="New Gradient Swatch copy 7" x1="456.8042" y1="293.30894" x2="473.28265" y2="292.85436" gradientUnits="userSpaceOnUse"><stop offset="0" stop-color="#db34a8"></stop><stop offset="1" stop-color="#641e53" stop-opacity="0"></stop></linearGradient><linearGradient id="bda81b8e-5062-4076-941d-425a4bb48a77" x1="442.46704" y1="284.75598" x2="461.90007" y2="299.07508" xlink:href="#b5e35935-01fd-4721-b389-470d50764756"></linearGradient><linearGradient id="afe4ded3-5287-453d-8dbe-c45b4de9cf1a" x1="451.01143" y1="280.58586" x2="468.51264" y2="299.33714" xlink:href="#b5e35935-01fd-4721-b389-470d50764756"></linearGradient><linearGradient id="fe6aca4a-e692-4bd5-a44d-a5a45176f19e" x1="124.00694" y1="97.24052" x2="150.04333" y2="96.52228" xlink:href="#b5e35935-01fd-4721-b389-470d50764756"></linearGradient><linearGradient id="ea7791a1-ae2d-496e-b522-b14b7337fb7a" x1="101.35364" y1="83.72651" x2="132.05858" y2="106.35124" xlink:href="#b5e35935-01fd-4721-b389-470d50764756"></linearGradient><linearGradient id="f92bed8c-a72e-41d6-befd-57fc6af68ff5" x1="114.85406" y1="77.13767" x2="142.50652" y2="106.76527" xlink:href="#b5e35935-01fd-4721-b389-470d50764756"></linearGradient><linearGradient id="a2d18af5-4881-42f3-b718-0e6b38b8eb4b" x1="485.49889" y1="340.71506" x2="513.25293" y2="368.46909" gradientTransform="translate(731.70618 -213.12131) rotate(76.7175)" xlink:href="#b5e35935-01fd-4721-b389-470d50764756"></linearGradient><linearGradient id="f28063b9-ead6-43b9-8854-79fbd421bc76" x1="693.78459" y1="12.85791" x2="721.53863" y2="40.61194" gradientTransform="translate(227.29602 -493.02671) rotate(45)" xlink:href="#b5e35935-01fd-4721-b389-470d50764756"></linearGradient><linearGradient id="bffef573-1a72-4d94-ad3e-103f667a3ff2" x1="-0.41036" y1="119.66293" x2="48.72579" y2="168.79907" gradientTransform="translate(162.44426 87.17863) rotate(76.71746)" xlink:href="#ba2b0676-3230-4888-8c7d-abd3c67564f5"></linearGradient><linearGradient id="b7df6a36-4f76-44c7-bad9-6c640a5988fe" x1="714.21919" y1="334.35595" x2="793.59336" y2="413.73012" gradientTransform="translate(950.32721 -446.28449) rotate(76.71748)" xlink:href="#ba2b0676-3230-4888-8c7d-abd3c67564f5"></linearGradient><linearGradient id="f11505ad-a5be-4796-ab5f-fa9279cd8a85" data-name="New Gradient Swatch" x1="353.3196" y1="124.9514" x2="353.3196" y2="373.5033" gradientUnits="userSpaceOnUse"><stop offset="0" stop-color="#fff"></stop><stop offset="1" stop-color="#fff" stop-opacity="0"></stop></linearGradient><linearGradient id="b04dc86a-e44d-4d36-8856-dc44e9032d22" x1="365.4578" y1="177.8741" x2="365.4578" y2="426.426" xlink:href="#f11505ad-a5be-4796-ab5f-fa9279cd8a85"></linearGradient><linearGradient id="aa0cbaa3-98e0-4e71-945f-9e6ca8493048" x1="140.9521" y1="176.7285" x2="140.9521" y2="301.0045" xlink:href="#f11505ad-a5be-4796-ab5f-fa9279cd8a85"></linearGradient><linearGradient id="ea6069c2-31c6-4bf4-ad04-625afcba7270" x1="147.1117" y1="128.9009" x2="147.1117" y2="283.502" xlink:href="#f11505ad-a5be-4796-ab5f-fa9279cd8a85"></linearGradient><linearGradient id="f9ecf0fd-ac24-43a3-a2d6-df96f9246347" x1="310.4436" y1="20.53539" x2="310.4436" y2="342.23799" xlink:href="#f11505ad-a5be-4796-ab5f-fa9279cd8a85"></linearGradient><linearGradient id="b51b626d-6798-46b2-b1e4-47750b4ffd42" x1="320.54435" y1="103.52577" x2="320.54435" y2="346.40811" xlink:href="#f11505ad-a5be-4796-ab5f-fa9279cd8a85"></linearGradient><linearGradient id="fdfe2afb-0ba7-40c7-9559-f7ddbd6603c7" x1="398.5399" y1="256.8258" x2="398.5399" y2="381.1017" xlink:href="#f11505ad-a5be-4796-ab5f-fa9279cd8a85"></linearGradient><linearGradient id="b8c2b4ba-7d9b-4f67-a091-cfaa4e671d1c" x1="77.01773" y1="174.83527" x2="77.01773" y2="441.85863" xlink:href="#f11505ad-a5be-4796-ab5f-fa9279cd8a85"></linearGradient><linearGradient id="a39ae449-9565-444b-b367-b844d03c1486" x1="90.93625" y1="174.83527" x2="90.93625" y2="441.85863" xlink:href="#f11505ad-a5be-4796-ab5f-fa9279cd8a85"></linearGradient><linearGradient id="aa071ffa-7cf4-4155-9454-8e050b74c431" x1="100.00766" y1="243.71998" x2="100.00766" y2="445.31996" xlink:href="#f11505ad-a5be-4796-ab5f-fa9279cd8a85"></linearGradient><linearGradient id="f54f5ecd-12ea-46ed-9e4d-ce4d69750f4e" data-name="New Gradient Swatch copy 4" x1="238.55061" y1="93.87759" x2="208.16194" y2="309.63696" gradientUnits="userSpaceOnUse"><stop offset="0" stop-color="#8725f9"></stop><stop offset="1" stop-color="#51149f"></stop></linearGradient><linearGradient id="e8a38af9-632a-4113-b8d4-38ce6db5e208" x1="163.96506" y1="233.96861" x2="264.24009" y2="233.96861" xlink:href="#a29b9e41-413c-4b4e-90cc-8a8407e4dedf"></linearGradient><linearGradient id="b8a5f5bf-4300-4e00-923d-d7f44a05a09f" x1="180.91164" y1="192.51088" x2="191.49205" y2="168.90839" xlink:href="#a29b9e41-413c-4b4e-90cc-8a8407e4dedf"></linearGradient><linearGradient id="bd0ebc43-19cd-4e69-a351-bacd2d46810b" data-name="New Gradient Swatch copy 2" x1="390.08499" y1="279.46748" x2="329.95086" y2="251.6611" gradientUnits="userSpaceOnUse"><stop offset="0" stop-color="#8fffff"></stop><stop offset="0.94142" stop-color="#3650ae"></stop></linearGradient><linearGradient id="ecfd5008-86ba-43bb-805d-2501e4c52478" x1="529.24808" y1="596.61331" x2="373.4829" y2="413.54257" xlink:href="#f54f5ecd-12ea-46ed-9e4d-ce4d69750f4e"></linearGradient><linearGradient id="fa2ecf6a-749d-45bd-8b66-d62d4b0f3bdc" x1="284.82127" y1="489.91559" x2="500.73387" y2="489.91559" xlink:href="#a29b9e41-413c-4b4e-90cc-8a8407e4dedf"></linearGradient><linearGradient id="ba0b0faf-8a71-446b-a679-3cbb64ccc6dd" data-name="New Gradient Swatch copy" x1="429.12215" y1="108.0365" x2="320.52066" y2="314.68938" gradientUnits="userSpaceOnUse"><stop offset="0" stop-color="#e9a6a6"></stop><stop offset="1" stop-color="#cc6767"></stop></linearGradient><linearGradient id="b6c1585e-0623-4233-9ec4-c3e1b810c53a" x1="301.47424" y1="211.82205" x2="295.88914" y2="438.95405" xlink:href="#bd0ebc43-19cd-4e69-a351-bacd2d46810b"></linearGradient><linearGradient id="b2e8080f-f2d3-4a90-885e-f2c80eda3bb2" x1="406.24402" y1="679.89605" x2="339.84225" y2="466.41711" xlink:href="#f54f5ecd-12ea-46ed-9e4d-ce4d69750f4e"></linearGradient><linearGradient id="ac05a51f-88b1-4f93-9dbd-156d6316914c" x1="234.50427" y1="530.96479" x2="389.20435" y2="530.96479" xlink:href="#a29b9e41-413c-4b4e-90cc-8a8407e4dedf"></linearGradient><linearGradient id="bd5e1d0f-d6d1-4a23-b1f1-1a5ff796ad49" x1="268.85651" y1="211.01984" x2="263.2714" y2="438.15215" xlink:href="#bd0ebc43-19cd-4e69-a351-bacd2d46810b"></linearGradient><linearGradient id="babe9dc7-339a-493a-bc18-2f51a1315d7c" x1="305.51782" y1="463.09104" x2="123.06728" y2="332.7691" xlink:href="#ba0b0faf-8a71-446b-a679-3cbb64ccc6dd"></linearGradient><linearGradient id="a53ad7be-4e82-4627-a1d8-22fc1f064e7d" x1="168.86792" y1="208.56131" x2="163.28284" y2="435.6928" xlink:href="#bd0ebc43-19cd-4e69-a351-bacd2d46810b"></linearGradient><linearGradient id="a0e1d97c-2df7-4c80-84b1-195dc23ee21b" x1="437.49127" y1="112.43455" x2="328.88981" y2="319.08737" xlink:href="#ba0b0faf-8a71-446b-a679-3cbb64ccc6dd"></linearGradient><linearGradient id="a6d4526f-c3ca-4a65-ad14-b6fb347ff85e" x1="299.93054" y1="470.91328" x2="117.48055" y2="340.59174" xlink:href="#ba0b0faf-8a71-446b-a679-3cbb64ccc6dd"></linearGradient><linearGradient id="bcbc4d14-ba58-4556-b3f1-10c357dedc7b" x1="215.50589" y1="136.32734" x2="221.09121" y2="282.78346" xlink:href="#ba0b0faf-8a71-446b-a679-3cbb64ccc6dd"></linearGradient><linearGradient id="bceae344-92fb-427d-8bff-259ff3d79917" x1="208.98873" y1="136.5759" x2="214.57406" y2="283.03217" xlink:href="#ba0b0faf-8a71-446b-a679-3cbb64ccc6dd"></linearGradient><linearGradient id="e6ef100b-9825-41af-8f32-2509d63a9c56" data-name="New Gradient Swatch 14" x1="231.68384" y1="177.92948" x2="235.25407" y2="177.92948" gradientUnits="userSpaceOnUse"><stop offset="0" stop-color="#cc6767"></stop><stop offset="1" stop-color="#7e2424"></stop></linearGradient><linearGradient id="a278473e-1ec0-4c3a-a072-f96d33c3fe2a" x1="179.3921" y1="185.18131" x2="185.61447" y2="185.18131" xlink:href="#e6ef100b-9825-41af-8f32-2509d63a9c56"></linearGradient><linearGradient id="fa256e91-33cb-4429-9594-a10fe9adb5e6" x1="218.02118" y1="120.70136" x2="214.53417" y2="176.72659" xlink:href="#f54f5ecd-12ea-46ed-9e4d-ce4d69750f4e"></linearGradient><linearGradient id="ed4e929b-42f2-4ecc-aa5b-24229d0cc24c" data-name="New Gradient Swatch copy 3" x1="233.65269" y1="133.80527" x2="219.00291" y2="179.65357" gradientUnits="userSpaceOnUse"><stop offset="0" stop-color="#cdb9ef"></stop><stop offset="1" stop-color="#926ecb"></stop></linearGradient><linearGradient id="aa3dd557-2ea0-4917-a952-5ccde4d7aef4" x1="235.03767" y1="128.25076" x2="221.74434" y2="171.92888" xlink:href="#a29b9e41-413c-4b4e-90cc-8a8407e4dedf"></linearGradient><radialGradient id="b4789204-d858-4c59-b82f-743c9e477179" cx="515.39952" cy="30.21829" r="15.31715" gradientTransform="translate(426.39518 -478.33657) rotate(76.71751)" gradientUnits="userSpaceOnUse"><stop offset="0" stop-color="#fff"></stop><stop offset="0.09343" stop-color="#fff" stop-opacity="0.97649"></stop><stop offset="0.21843" stop-color="#fff" stop-opacity="0.9099"></stop><stop offset="0.36132" stop-color="#fff" stop-opacity="0.80023"></stop><stop offset="0.51752" stop-color="#fff" stop-opacity="0.6473"></stop><stop offset="0.6846" stop-color="#fff" stop-opacity="0.45092"></stop><stop offset="0.85787" stop-color="#fff" stop-opacity="0.21537"></stop><stop offset="1" stop-color="#fff" stop-opacity="0"></stop></radialGradient><radialGradient id="b404f219-a65e-4bc2-9166-a98497e7f3b9" cx="513.25662" cy="120.21829" r="15.31715" gradientTransform="translate(512.33704 -406.9287) rotate(76.71751)" xlink:href="#b4789204-d858-4c59-b82f-743c9e477179"></radialGradient><radialGradient id="b82cf85e-9523-42d7-9dc0-05e3d307d7cf" cx="428.82802" cy="167.78969" r="15.31715" gradientTransform="translate(244.24603 -254.08277) rotate(45)" xlink:href="#b4789204-d858-4c59-b82f-743c9e477179"></radialGradient><radialGradient id="aee8b1c7-2a24-4e18-9e8b-da3b1d963c47" cx="352.11372" cy="157.07539" r="15.31715" gradientTransform="translate(424.08782 -221.70752) rotate(76.71744)" xlink:href="#b4789204-d858-4c59-b82f-743c9e477179"></radialGradient><radialGradient id="ac49a733-fee6-47f6-a81e-a94075981e54" cx="331.97092" cy="73.07539" r="15.31715" gradientTransform="translate(148.90414 -213.33558) rotate(45)" xlink:href="#b4789204-d858-4c59-b82f-743c9e477179"></radialGradient><radialGradient id="ea6f3221-0740-412c-ba2f-f9274585eae9" cx="356.82802" cy="2.36109" r="15.31715" gradientTransform="translate(277.14348 -345.46385) rotate(76.71744)" xlink:href="#b4789204-d858-4c59-b82f-743c9e477179"></radialGradient><radialGradient id="eec6114e-d549-4eb7-8882-e173a211ee66" cx="434.39952" cy="-10.49601" r="15.31715" gradientTransform="translate(324.37996 -430.86349) rotate(76.71751)" xlink:href="#b4789204-d858-4c59-b82f-743c9e477179"></radialGradient><radialGradient id="bac092eb-747f-4d0c-9442-0a062fb84d16" cx="420.32642" cy="80.09894" r="77.77883" gradientTransform="matrix(1, 0, 0, 1, 0, 0)" xlink:href="#b4789204-d858-4c59-b82f-743c9e477179"></radialGradient><radialGradient id="ab73dc9e-6a57-44c6-8893-04edcd5e37ac" cx="400.67338" cy="52.64639" r="82.08584" xlink:href="#bd0ebc43-19cd-4e69-a351-bacd2d46810b"></radialGradient></defs><path d="M500.00038,0H249.99989C111.92872,0,0,111.92871,0,249.99976v.00048a249.6217,249.6217,0,0,0,100.23987,200.195c.05176.0376.10181.07654.15161.11615A248.88934,248.88934,0,0,0,249.99989,500H500.00038q6.81445,0,13.53882-.368a3.86934,3.86934,0,0,1,1.03833-.1c.04516.00086.08984.00421.13476.00794l.08985.01208c131.17846-7.66174,235.19775-116.45135,235.19775-249.5517v-.00048C749.99989,111.92871,638.07118,0,500.00038,0Z" transform="translate(19.92573 25.81316)" opacity="0.79" fill="url(#a29b9e41-413c-4b4e-90cc-8a8407e4dedf)"></path><g clip-path="url(#eef9c1ce-b77e-4b6d-afa7-0928b104187f)"><line x1="0.32053" y1="686.33936" x2="789.53103" y2="686.33936" fill="none" stroke="#fff" stroke-miterlimit="10" stroke-width="2.16839"></line><path d="M-19.6045,624.0389c42.3821-13.1473,746.827-13.1473,789.2091,0" transform="translate(19.92573 25.81316)" fill="none" stroke="#fff" stroke-miterlimit="10" stroke-width="2.16839"></path><path d="M-19.6039,587.5517c84.7644-26.2946,704.4435-26.2946,789.2078,0" transform="translate(19.92573 25.81316)" fill="none" stroke="#fff" stroke-miterlimit="10" stroke-width="2.16839"></path><path d="M689.37434,536.18946C716.4286,540,743.4286,543,769.6033,551.0645" transform="translate(19.92573 25.81316)" fill="none" stroke="#fff" stroke-miterlimit="10" stroke-width="2.16839"></path><path d="M-19.6032,551.0645C-16.5714,551-13.5714,549-10.5714,548c128-27,250-25,375-26,102-1,204,2,306.39082,12.09267" transform="translate(19.92573 25.81316)" fill="none" stroke="#fff" stroke-miterlimit="10" stroke-width="2.16839"></path><path d="M744.495,507.17773c8.28534,1.4576,17.57592,3.60809,25.10759,7.39957" transform="translate(19.92573 25.81316)" fill="none" stroke="#fff" stroke-miterlimit="10" stroke-width="2.16839"></path><path d="M161.88711,484.04829C303.4286,473,446.4286,469,588.59789,484.0213" transform="translate(19.92573 25.81316)" fill="none" stroke="#fff" stroke-miterlimit="10" stroke-width="2.16839"></path><path d="M24.55366,503.37061q8.46978-1.61466,16.95752-3.13316" transform="translate(19.92573 25.81316)" fill="none" stroke="#fff" stroke-miterlimit="10" stroke-width="2.16839"></path><path d="M-3.39854,509.93207q2.6153-.69423,5.23822-1.35926" transform="translate(19.92573 25.81316)" fill="none" stroke="#fff" stroke-miterlimit="10" stroke-width="2.16839"></path><path d="M-19.6025,514.5773q1.851-.57414,3.708-1.12858" transform="translate(19.92573 25.81316)" fill="none" stroke="#fff" stroke-miterlimit="10" stroke-width="2.16839"></path><path d="M765.00589,476.72908q2.29975.6747,4.59611,1.36092" transform="translate(19.92573 25.81316)" fill="none" stroke="#fff" stroke-miterlimit="10" stroke-width="2.16839"></path><path d="M100.99169,450.25235C162.4286,439,224.4286,432,286.4286,431c122-3,244-5,363.80522,18.88547" transform="translate(19.92573 25.81316)" fill="none" stroke="#fff" stroke-miterlimit="10" stroke-width="2.16839"></path><path d="M-19.6019,478.09q6.054-1.878,12.14133-3.64623" transform="translate(19.92573 25.81316)" fill="none" stroke="#fff" stroke-miterlimit="10" stroke-width="2.16839"></path><path d="M756.12771,437.08386q6.76735,2.16706,13.47359,4.51894" transform="translate(19.92573 25.81316)" fill="none" stroke="#fff" stroke-miterlimit="10" stroke-width="2.16839"></path><path d="M65.58906,418.45443C268.4286,371,483.4286,368,686.31415,418.74" transform="translate(19.92573 25.81316)" fill="none" stroke="#fff" stroke-miterlimit="10" stroke-width="2.16839"></path><path d="M-19.6012,441.6028q2.74653-.8519,5.49681-1.69163" transform="translate(19.92573 25.81316)" fill="none" stroke="#fff" stroke-miterlimit="10" stroke-width="2.16839"></path><path d="M21.5143,731.2542C21.4286,660,21.4286,588,21.5143,516.54972" transform="translate(19.92573 25.81316)" fill="none" stroke="#fff" stroke-miterlimit="10" stroke-width="2.16839"></path><path d="M91.2604,443.25878V412.5354" transform="translate(19.92573 25.81316)" fill="none" stroke="#fff" stroke-miterlimit="10" stroke-width="2.16839"></path><path d="M91.2604,731.2542C91.4286,659,91.4286,586,91.34769,514.15244" transform="translate(19.92573 25.81316)" fill="none" stroke="#fff" stroke-miterlimit="10" stroke-width="2.16839"></path><path d="M161.0065,483.86733c.4221-27.86733.4221-56.86733,0-84.42993" transform="translate(19.92573 25.81316)" fill="none" stroke="#fff" stroke-miterlimit="10" stroke-width="2.16839"></path><path d="M161.0065,731.2542c.4221-71.2542.4221-143.2542.116-213.87142" transform="translate(19.92573 25.81316)" fill="none" stroke="#fff" stroke-miterlimit="10" stroke-width="2.16839"></path><polyline points="250.678 757.067 250.678 686.338 250.678 640.672 250.678 595.17 250.678 549.884 250.678 504.866 250.678 460.189 250.678 415.931" fill="none" stroke="#fff" stroke-miterlimit="10" stroke-width="2.16839"></polyline><polyline points="320.424 757.067 320.424 686.338 320.424 640.162 320.424 594.044 320.424 547.965 320.424 501.972 320.424 456.063 320.424 410.293" fill="none" stroke="#fff" stroke-miterlimit="10" stroke-width="2.16839"></polyline><polyline points="390.17 757.067 390.17 686.338 390.17 639.991 390.17 593.651 390.17 547.304 390.17 500.957 390.17 454.603 390.17 408.263" fill="none" stroke="#fff" stroke-miterlimit="10" stroke-width="2.16839"></polyline><polyline points="459.909 757.067 459.909 686.338 459.909 640.129 459.909 593.946 459.909 547.808 459.909 501.723 459.909 455.716 459.909 409.808" fill="none" stroke="#fff" stroke-miterlimit="10" stroke-width="2.16839"></polyline><path d="M509.7289,502.53322c-.3003-37.53322-.3003-75.53322,0-113.39732" transform="translate(19.92573 25.81316)" fill="none" stroke="#fff" stroke-miterlimit="10" stroke-width="2.16839"></path><path d="M509.7289,731.2542c-.3003-75.2542-.3003-149.2542,0-224.57819" transform="translate(19.92573 25.81316)" fill="none" stroke="#fff" stroke-miterlimit="10" stroke-width="2.16839"></path><path d="M579.4683,487.27212C579.4286,457,579.4286,428,579.475,397.9377" transform="translate(19.92573 25.81316)" fill="none" stroke="#fff" stroke-miterlimit="10" stroke-width="2.16839"></path><path d="M579.475,731.2542q-.0696-114.3813,0-228.25811" transform="translate(19.92573 25.81316)" fill="none" stroke="#fff" stroke-miterlimit="10" stroke-width="2.16839"></path><path d="M649.34814,450.7547q.0971-20.11835-.127-40.2364" transform="translate(19.92573 25.81316)" fill="none" stroke="#fff" stroke-miterlimit="10" stroke-width="2.16839"></path><path d="M649.2211,731.2542c.2075-75.2542.2075-149.2542,0-224.43557" transform="translate(19.92573 25.81316)" fill="none" stroke="#fff" stroke-miterlimit="10" stroke-width="2.16839"></path><path d="M718.9672,731.2542c.4614-74.2542.4614-149.2542,0-222.84734" transform="translate(19.92573 25.81316)" fill="none" stroke="#fff" stroke-miterlimit="10" stroke-width="2.16839"></path></g><g clip-path="url(#a6874aa8-65b4-4f45-963b-43837c43952c)"><polygon points="260.636 60.29 260.636 95.873 245.295 102.514 245.295 53.648 260.636 60.29" fill="url(#bf550e5c-a85b-47fd-854f-7b322813be06)"></polygon><polygon points="229.953 60.29 229.953 95.873 245.295 102.514 245.295 53.648 229.953 60.29" fill="url(#fe0668dc-13fb-4fe1-b74f-f200704199d9)"></polygon><polygon points="260.636 60.29 245.295 66.932 229.953 60.289 245.295 53.648 260.636 60.29" fill="url(#e8ccc62e-b283-48af-810f-c9a83eadff82)"></polygon><polygon points="473.369 287.385 473.369 299.204 457.356 306.135 457.356 280.452 473.369 287.385" fill="url(#b5e35935-01fd-4721-b389-470d50764756)"></polygon><polygon points="441.344 287.385 441.344 299.204 457.356 306.135 457.356 280.452 441.344 287.385" fill="url(#bda81b8e-5062-4076-941d-425a4bb48a77)"></polygon><polygon points="473.369 287.385 457.356 294.316 441.344 287.384 457.356 280.452 473.369 287.385" fill="url(#afe4ded3-5287-453d-8dbe-c45b4de9cf1a)"></polygon><polygon points="150.18 87.88 150.18 106.554 124.88 117.507 124.88 76.926 150.18 87.88" fill="url(#fe6aca4a-e692-4bd5-a44d-a5a45176f19e)"></polygon><polygon points="99.579 87.88 99.579 106.554 124.88 117.507 124.88 76.926 99.579 87.88" fill="url(#ea7791a1-ae2d-496e-b522-b14b7337fb7a)"></polygon><polygon points="150.18 87.88 124.88 98.832 99.579 87.878 124.88 76.926 150.18 87.88" fill="url(#f92bed8c-a72e-41d6-befd-57fc6af68ff5)"></polygon><circle cx="500.4982" cy="355.71436" r="21.79258" transform="translate(59.23454 786.91069) rotate(-76.7175)" fill="url(#a2d18af5-4881-42f3-b718-0e6b38b8eb4b)" class="flo"></circle><circle cx="708.7839" cy="27.85721" r="21.79251" transform="translate(207.8257 535.15825) rotate(-45)" fill="url(#f28063b9-ead6-43b9-8854-79fbd421bc76)" class="flo"></circle><rect x="131.9927" y="176.7285" width="17.9188" height="124.276" fill="url(#aa0cbaa3-98e0-4e71-945f-9e6ca8493048)" style="mix-blend-mode: overlay" class="fade-2"></rect><rect x="140.8979" y="128.9009" width="12.4276" height="154.6011" fill="url(#ea6069c2-31c6-4bf4-ad04-625afcba7270)" style="mix-blend-mode: overlay" class="fade-2"></rect><polygon points="330.866 120.944 330.866 359.258 290.021 359.258 290.021 120.944 295.216 120.944 295.216 96.668 302.654 96.668 302.654 77.154 307.11 77.154 307.11 66.221 309.589 66.221 309.589 11.453 311.298 11.453 311.298 66.221 313.77 66.221 313.77 77.154 318.233 77.154 318.233 96.668 325.663 96.668 325.663 120.944 330.866 120.944" fill="url(#f9ecf0fd-ac24-43a3-a2d6-df96f9246347)" style="mix-blend-mode: overlay" class="fade-3"></polygon><polygon points="330.866 120.944 330.866 359.258 310.222 359.258 318.233 96.668 325.663 96.668 325.663 120.944 330.866 120.944" fill="url(#b51b626d-6798-46b2-b1e4-47750b4ffd42)" style="mix-blend-mode: overlay" class="fade-3"></polygon><rect x="392.3261" y="256.8258" width="12.4276" height="124.2759" fill="url(#fdfe2afb-0ba7-40c7-9559-f7ddbd6603c7)" style="mix-blend-mode: overlay"></rect><path d="M73.98465,417.66249v24.16339c.73694,1.37573,1.44434,2.76709,2.13794,4.16552a6.027,6.027,0,0,1,3.92822-1.049c-.73474-2.76727-1.26867-5.56976-1.80493-8.08636-.93811-4.40259-3.25-12.63452-2.9104-19.18659Q74.65982,417.65911,73.98465,417.66249Z" transform="translate(19.92573 25.81316)" fill="url(#b8c2b4ba-7d9b-4f67-a091-cfaa4e671d1c)" style="mix-blend-mode: overlay"></path><path d="M83.20157,407.99189c-.5564-2.81122,1.01465-6.11957,4.71631-6.11957,4.97949,0,6.10168,5.96546,3.38928,8.68036a5.60425,5.60425,0,0,1,1.07544.49475,4.53122,4.53122,0,0,1,4.28-2.57934c6.44519,0,6.43445,10,0,10a5.58662,5.58662,0,0,1-.96375-.08649c2.09156,7.48877,4.38623,15.3667,4.21094,22.97669-.041,1.77624-.20849,3.54547-.22571,5.32306l.00049.03118c1.08069-.00109,2.45569.03833,3.86341.09229a4.2152,4.2152,0,0,1,3.55139-3.86029c.26037-.05585.52649-.08752.78845-.13715V258.1775h-4.3186V238.02821H97.40152V221.83015H93.69718v-9.07422H91.64542V167.2964H90.227v45.45953H88.169v9.07422H84.471v16.19806H78.297V258.1775H73.98465V407.78364C77.24771,407.7422,80.45621,407.90357,83.20157,407.99189Z" transform="translate(19.92573 25.81316)" fill="url(#a39ae449-9565-444b-b367-b844d03c1486)" style="mix-blend-mode: overlay" class="fade-1"></path><path d="M92.12747,410.91658c.08435.04583.17469.08129.25647.13153a4.52778,4.52778,0,0,1,4.27869-2.58c6.44519,0,6.43445,10,0,10a5.62315,5.62315,0,0,1-.96277-.08289c2.09131,7.48774,4.38525,15.36432,4.21,22.97309-.041,1.77624-.20849,3.54547-.22571,5.32306l.00049.03118c1.08069-.00109,2.45569.03833,3.86341.09229a4.2152,4.2152,0,0,1,3.55139-3.86029c.26037-.05585.52649-.08752.78845-.13715V258.1775h-4.3186V238.02821H97.40152L92.31693,404.7057a5.66629,5.66629,0,0,1-.14124,4.63177Z" transform="translate(19.92573 25.81316)" fill="url(#aa071ffa-7cf4-4155-9454-8e050b74c431)" style="mix-blend-mode: overlay" class="fade-1"></path><path d="M247.25737,181.99434s24.3648,18.1881,30.1423,36.965-19.4991,12.9994,2.1665,41.1647,15.8882,70.0522-28.1653,82.3294-88.829.7222-106.8837-36.8316,18.7768-62.8303,8.6662-85.9403-8.4375-48.7639-5.1739-62.8341c4.3157-18.6061,33.8113-63.7537,77.0766-46.8378C284.81107,133.361,247.25737,181.99434,247.25737,181.99434Z" transform="translate(19.92573 25.81316)" fill="url(#f54f5ecd-12ea-46ed-9e4d-ce4d69750f4e)"></path><path d="M148.00947,156.84744c4.3157-18.6061,33.8113-63.7537,77.0766-46.8378,59.725,23.3514,22.1713,71.9847,22.1713,71.9847" transform="translate(19.92573 25.81316)" fill="none" stroke="#fff" stroke-miterlimit="10" style="mix-blend-mode: overlay"></path><path d="M181.22187,192.86654s9.8828,20.2556,3.0004,31.7263-20.6317,18.1183-20.2494,36.8538,11.5137,25.0975,50.5141,19.7445,48.9244-25.9585,49.7065-46.6476c.6212-16.4305-5.051-17.0844-11.9334-21.2903s-.302-23.4455-12.9198-26.5044S194.22207,183.68994,181.22187,192.86654Z" transform="translate(19.92573 25.81316)" opacity="0.3" fill="url(#e8a38af9-632a-4113-b8d4-38ce6db5e208)" style="mix-blend-mode: multiply"></path><path d="M191.46827,153.86064s-10.6014,4.9176-16.5553,30.0861l3.8205,3.3429s11.143-13.2124,24.8329-19.4207C203.56637,167.86894,199.10917,156.56674,191.46827,153.86064Z" transform="translate(19.92573 25.81316)" fill="url(#b8a5f5bf-4300-4e00-923d-d7f44a05a09f)"></path><path d="M336.55777,226.48354s8.158,29.5842.337,56.6211l-9.8412-5.7903-5.892-13.4675,2.5251-16.6662,4.5453-11.1107,4.7137-5.8921Z" transform="translate(19.92573 25.81316)" fill="url(#bd0ebc43-19cd-4e69-a351-bacd2d46810b)"></path><path d="M527.76287,578.83034a96.46744,96.46744,0,0,1-27.029,11.6945,72.76564,72.76564,0,0,1-11.4756,2.0052s-16.3961-49.1881-38.5721-89.2262a292.80958,292.80958,0,0,1-24.3162-59.8043s-79.6043-3.8759-129.2811-11.8801c-11.2901-1.8198-21.047-3.859-27.9558-6.1001,0,0,6.7066-11.3744,15.6882-25.0069,2.7975-4.2802,5.8306-8.7624,8.948-13.2113,10.9363-15.5704,22.9176-30.4329,30.0118-32.4887,0,0,108.6386,15.5031,131.0169,22.1086S527.37527,548.22854,527.76287,578.83034Z" transform="translate(19.92573 25.81316)" fill="url(#ecfd5008-86ba-43bb-805d-2501e4c52478)"></path><path d="M500.73387,590.52484a72.76564,72.76564,0,0,1-11.4756,2.0052s-16.3961-49.1881-38.5721-89.2262a292.80958,292.80958,0,0,1-24.3162-59.8043s-79.6043-3.8759-129.2811-11.8801l-10.6835-24.2822-1.5841-6.8248c2.7975-4.2802,5.8306-8.7624,8.948-13.2113l49.6937,12.1834s55.4231,23.1534,88.923,25.6473c0,0,19.8506,45.4809,38.8755,78.5764C486.62937,530.43394,496.60527,569.05664,500.73387,590.52484Z" transform="translate(19.92573 25.81316)" opacity="0.3" fill="url(#fa2ecf6a-749d-45bd-8b66-d62d4b0f3bdc)" style="mix-blend-mode: multiply"></path><path d="M423.52227,139.77634s-29.7757,105.1168-38.016,121.1757a10.686,10.686,0,0,1-2.2243,2.8816c-14.0031,13.4303-70.7912,15.2838-70.7912,15.2838s3.4714-30.4834,15.4187-47.5367l12.5539.3201,21.3335.5393,41.656-100.4828Z" transform="translate(19.92573 25.81316)" fill="url(#ba0b0faf-8a71-446b-a679-3cbb64ccc6dd)"></path><line x1="381.7226" y1="258.2533" x2="423.3786" y2="157.7705" fill="none" stroke="#fff" stroke-miterlimit="10" style="mix-blend-mode: overlay"></line><path d="M383.282,263.83364c-14.0031,13.4303-70.7912,15.2838-70.7912,15.2838s3.4714-30.4834,15.4187-47.5367l12.5539.3201c-.5054,4.6003-1.5501,17.5085,1.5673,26.8944,3.8756,11.6104,24.7543,3.8756,34.848,3.3702A11.14147,11.14147,0,0,1,383.282,263.83364Z" transform="translate(19.92573 25.81316)" fill="#7e2424" opacity="0.3" style="mix-blend-mode: multiply"></path><path d="M336.90307,283.09914s-38.4372,2.0222-56.6363,1.0112c0,0-13.11-31.7138-15.8063-52.9629a44.67057,44.67057,0,0,1-.2695-10.3635s43.7115-.0337,72.3752,5.6959a115.5567,115.5567,0,0,0-2.5277,43.3914A89.47674,89.47674,0,0,0,336.90307,283.09914Z" transform="translate(19.92573 25.81316)" fill="url(#b6c1585e-0623-4233-9ec4-c3e1b810c53a)"></path><path d="M336.90307,283.09914s-38.4372,2.0222-56.6363,1.0112c0,0-13.11-31.7138-15.8063-52.9629l6.4709-3.6905s25.6809,36.9377,63.1071,42.4143A89.47674,89.47674,0,0,0,336.90307,283.09914Z" transform="translate(19.92573 25.81316)" fill="#82abd1" style="mix-blend-mode: multiply"></path><path d="M412.82187,663.94494a95.629,95.629,0,0,1-32.9774-.3877,69.91566,69.91566,0,0,1-7.8022-2.022s4.078-51.6823-.7076-97.2138a291.6682,291.6682,0,0,1,.9437-64.5396s-108.1669-52.1539-137.7741-77.9024c0,0,16.2948-12.0483,34.3422-23.5071,17.0872-10.8688,35.7243-21.1985,43.5601-20.2718,0,0,93.9783,56.6534,112.0089,71.4653C442.446,464.37794,424.41547,635.61824,412.82187,663.94494Z" transform="translate(19.92573 25.81316)" fill="url(#b2e8080f-f2d3-4a90-885e-f2c80eda3bb2)"></path><path d="M379.84447,663.55724a69.91566,69.91566,0,0,1-7.8022-2.022s4.078-51.6823-.7076-97.2138a291.6682,291.6682,0,0,1,.9437-64.5396s-108.1669-52.1539-137.7741-77.9024c0,0,16.2948-12.0483,34.3422-23.5071l6.3866,3.3028s56.3329,68.6007,112.6661,83.042c0,0-2.1737,51.2778-.7247,74.3974C388.52267,580.58274,393.59477,635.07894,379.84447,663.55724Z" transform="translate(19.92573 25.81316)" opacity="0.3" fill="url(#ac05a51f-88b1-4f93-9dbd-156d6316914c)" style="mix-blend-mode: multiply"></path><path d="M364.99867,361.97414s-5.5272,7.0942-18.5024,15.0985a121.858,121.858,0,0,1-14.61,7.6842c-23.4736,10.4644-49.761,17.3058-64.708,30.4666-14.9636,13.1607-43.0712,16.1434-43.0712,16.1434a614.53036,614.53036,0,0,1-16.75-72.982c-3.5218-22.176-16.5477-53.8558-26.6752-76.2004-7.0944-15.6378-12.773-26.6922-12.773-26.6922s37.7462-25.9673,96.2698-34.7131c0,0,26.6824,16.8342,45.481,75.3918,4.3318,13.4935,16.75,20.3391,25.1252,28.714C343.15977,333.25994,362.016,347.02724,364.99867,361.97414Z" transform="translate(19.92573 25.81316)" fill="url(#bd5e1d0f-d6d1-4a23-b1f1-1a5ff796ad49)"></path><path d="M346.49627,377.07264a121.858,121.858,0,0,1-14.61,7.6842c-23.4736,10.4644-49.761,17.3058-64.708,30.4666-14.9636,13.1607-43.0712,16.1434-43.0712,16.1434a614.53036,614.53036,0,0,1-16.75-72.982c-3.5218-22.176-16.5477-53.8558-26.6752-76.2004l16.5477-.7078c.4044,1.1966,19.9012,36.2129,23.086,64.0846,3.1849,27.8546,17.5083,60.4784,44.9756,53.3167,27.4502-7.1617,49.7441-13.9189,71.2292-21.0806A17.85756,17.85756,0,0,1,346.49627,377.07264Z" transform="translate(19.92573 25.81316)" fill="#82abd1" style="mix-blend-mode: multiply"></path><path d="M265.99877,435.10774l-11.0038,14.3908s-96.7923-49.4242-110.5597-61.1019c-4.3643-3.6905-6.0663-12.571-6.3695-22.985-.6912-22.5297,5.2067-52.2551,5.2067-52.2551s28.9166,10.2793,42.8019,25.7822l-5.8979,22.7995-2.5951,10.0094Z" transform="translate(19.92573 25.81316)" fill="url(#babe9dc7-339a-493a-bc18-2f51a1315d7c)"></path><line x1="197.5071" y1="397.5608" x2="275.9861" y2="453.799" fill="none" stroke="#fff" stroke-miterlimit="10" style="mix-blend-mode: overlay"></line><path d="M186.07437,338.93874l-5.8979,22.7995c-7.836,2.3254-24.4509,6.201-42.1107,3.6734-.6912-22.5297,5.2067-52.2551,5.2067-52.2551S172.18907,323.43584,186.07437,338.93874Z" transform="translate(19.92573 25.81316)" fill="#7e2424" opacity="0.3" style="mix-blend-mode: multiply"></path><path d="M167.91567,255.48544s19.7653-8.7248,30.8322,19.478-9.2819,83.1803-9.2819,83.1803-39.9837-2.142-59.2615-14.9939C130.20447,343.14984,146.36537,282.417,167.91567,255.48544Z" transform="translate(19.92573 25.81316)" fill="url(#a53ad7be-4e82-4627-a1d8-22fc1f064e7d)"></path><path d="M130.20647,343.14894s16.16-60.72,37.6999-87.65v-.01h.01c.8301-.57,38.3902-26.06,96.2601-34.71l.01.01h.02c1.1799,0,44.0901.04,72.3601,5.69" transform="translate(19.92573 25.81316)" fill="none" stroke="#fff" stroke-miterlimit="10" style="mix-blend-mode: overlay"></path><path d="M402.46637,141.34774s.0217-10.6473,2.8804-16.5372,20.429-15.6626,22.1433-14.0037c1.9576,1.8945-6.8847,10.0266-6.8847,10.0266s18.2777-8.6141,24.1593-12.016c6.5036-3.7616,7.499-1.4944,4.1216,1.4539-2.315,2.0209-11.7138,10.2073-11.7138,10.2073s16.7664-11.0494,17.9202-9.1642-9.4611,10.8675-14.5562,14.1496c0,0,13.5132-7.2427,14.4354-4.9328s-9.6927,8.6426-13.2733,10.2383c0,0,13.4658-4.2054,12.583-1.5354s-11.5134,8.223-18.9078,11.155-20.6336,4.6606-20.6336,4.6606l-9.4099,1.172Z" transform="translate(19.92573 25.81316)" fill="url(#a0e1d97c-2df7-4c80-84b1-195dc23ee21b)"></path><path d="M244.70847,437.23774s8.8943-5.853,15.3842-6.7159,24.3311,8.4058,23.8924,10.7507c-.5009,2.6778-12.1607-.2146-12.1607-.2146s17.2647,10.4978,23.3459,13.5286c6.7242,3.3513,5.3817,5.4319,1.0598,4.2401-2.9624-.8169-14.9743-4.1436-14.9743-4.1436s18.4629,7.8942,17.5264,9.8963-14.2829-1.9002-19.8305-4.3409c0,0,13.4935,7.2794,12.075,9.3224s-12.5547-3.3202-15.8603-5.4274c0,0,10.9336,8.9147,8.2194,9.6505s-13.2085-5.0705-19.7319-9.6224-15.2657-14.6434-15.2657-14.6434l-6.1664-7.2037Z" transform="translate(19.92573 25.81316)" fill="url(#a6d4526f-c3ca-4a65-ad14-b6fb347ff85e)"></path><path d="M239.03227,260.04694s-16.5476-2.5782-33.0449-15.4187l-10.7005-48.5478,15.3346-1.9885,9.049-1.1628,21.6367,38.6733s.0674.354.1684,1.0447C241.91377,235.88244,242.82377,246.27984,239.03227,260.04694Z" transform="translate(19.92573 25.81316)" fill="url(#bcbc4d14-ba58-4556-b3f1-10c357dedc7b)"></path><path d="M241.47557,232.64714c-28.3602-2.7636-39.7347-29.6746-39.7347-29.6746l8.8806-8.8806,9.049-1.1628,21.6367,38.6733S241.37457,231.95644,241.47557,232.64714Z" transform="translate(19.92573 25.81316)" fill="#7e2424" opacity="0.3" style="mix-blend-mode: multiply"></path><path d="M242.30147,204.08474c-16.2109,13.1605-39.3136,11.7282-51.6318-7.8189-13.9862,7.7008-23.2375-15.722-17.7946-19.8169,7.2796-5.4597,14.0875,4.9879,14.0875,4.9879.2022.2528.3875.5391.573.8257,10.4813-4.3307,10.8014-17.7609,10.8014-17.7609,10.751-3.5389,16.1434-12.9586,18.8562-21.0975a54.4406,54.4406,0,0,0,2.6964-13.5483c9.0152,2.8983,15.4185,11.0543,15.4185,11.0543S263.49987,186.89654,242.30147,204.08474Z" transform="translate(19.92573 25.81316)" fill="url(#bceae344-92fb-427d-8bff-259ff3d79917)"></path><path d="M221.33367,191.43674l22.3712-4.7454a10.78648,10.78648,0,0,1-8.4739,9.3213C227.18977,197.90654,221.33367,191.43674,221.33367,191.43674Z" transform="translate(19.92573 25.81316)" fill="#fff"></path><path d="M232.43084,174.0969a24.214,24.214,0,0,1,1.65981,4.44021,2.199,2.199,0,0,1-.16993,2.043,2.36144,2.36144,0,0,1-.98674.50835q-.60657.2192-1.21343.4376c-.60081.21668-.34162,1.18336.26584.96428a7.515,7.515,0,0,0,2.55184-1.11579,2.64724,2.64724,0,0,0,.66782-2.37243,14.17531,14.17531,0,0,0-.78059-2.73568,27.4158,27.4158,0,0,0-1.13115-2.6743c-.28089-.57886-1.14353-.07241-.86347.50472Z" transform="translate(19.92573 25.81316)" fill="url(#e6ef100b-9825-41af-8f32-2509d63a9c56)"></path><path d="M179.43461,181.34447a16.1673,16.1673,0,0,1,3.49178,3.34567,10.14007,10.14007,0,0,1,1.18057,2.02607,3.96684,3.96684,0,0,1,.40567,2.62041l.8357-.22064a9.16366,9.16366,0,0,0-4.93564-3.18458.50043.50043,0,0,0-.26584.96428,8.29085,8.29085,0,0,1,4.49437,2.92741.50391.50391,0,0,0,.83569-.22063c.53671-1.78288-.59054-3.89509-1.60763-5.308a17.514,17.514,0,0,0-3.92995-3.81342c-.51918-.38135-1.01856.486-.50472.86347Z" transform="translate(19.92573 25.81316)" fill="url(#a278473e-1ec0-4c3a-a072-f96d33c3fe2a)"></path><path d="M206.56657,175.39234a17.11063,17.11063,0,1,1-6.0306-33.6857l24.5012-4.3864a17.11068,17.11068,0,1,1,6.0306,33.6858Z" transform="translate(19.92573 25.81316)" fill="url(#fa256e91-33cb-4429-9594-a10fe9adb5e6)"></path><path d="M217.85077,173.39254a17.11068,17.11068,0,0,1-6.0306-33.6858l24.5011-4.3863a17.11064,17.11064,0,1,1,6.0307,33.6857Z" transform="translate(19.92573 25.81316)" fill="url(#ed4e929b-42f2-4ecc-aa5b-24229d0cc24c)"></path><path d="M252.176,152.18344a12.82275,12.82275,0,0,1-10.5825,12.6045l-7.5155,1.3482-2.5614.455-2.1736.4044-4.1959.7414-8.0549,1.4493a12.51537,12.51537,0,0,1-3.623.1179,12.15368,12.15368,0,0,1-2.0726-.3877,13.36081,13.36081,0,0,1-1.6345-.5727,12.22631,12.22631,0,0,1-2.8142-1.6851,12.729,12.729,0,0,1-4.7351-7.8529,13.106,13.106,0,0,1-.2024-2.2746,12.80825,12.80825,0,0,1,10.5657-12.6048l7.8695-1.4154,4.1959-.7413,2.1738-.4045,2.5445-.455,7.7177-1.3819a12.73232,12.73232,0,0,1,3.9096-.0843,12.14113,12.14113,0,0,1,3.2859.8763,11.80753,11.80753,0,0,1,1.5333.7584,12.17281,12.17281,0,0,1,1.6515,1.1626,12.78208,12.78208,0,0,1,4.5162,7.6673A12.98423,12.98423,0,0,1,252.176,152.18344Z" transform="translate(19.92573 25.81316)" fill="url(#aa3dd557-2ea0-4917-a952-5ccde4d7aef4)"></path><path d="M224.64147,141.76964l-14.8794,26.5741a12.22631,12.22631,0,0,1-2.8142-1.6851l13.4977-24.1477Z" transform="translate(19.92573 25.81316)" fill="#fff"></path><path d="M229.35977,140.91014l-15.8906,28.394a12.15368,12.15368,0,0,1-2.0726-.3877l15.4187-27.5513Z" transform="translate(19.92573 25.81316)" fill="#fff"></path><path d="M244.273,140.32024l-14.93,26.6753-4.1959.7414,15.84-28.293A12.14113,12.14113,0,0,1,244.273,140.32024Z" transform="translate(19.92573 25.81316)" fill="#fff"></path><path d="M247.45777,142.24124l-13.3798,23.8949-2.5614.455,14.2897-25.5125A12.17281,12.17281,0,0,1,247.45777,142.24124Z" transform="translate(19.92573 25.81316)" fill="#fff"></path><polyline points="454.081 14.962 435.958 98.744 535.665 56.209" fill="none" stroke="#fff" stroke-miterlimit="10"></polyline><polyline points="532.464 146.768 435.958 98.744 449.222 195.25" fill="none" stroke="#fff" stroke-miterlimit="10"></polyline><polyline points="371.469 183.358 435.958 98.744 351.344 99.202" fill="none" stroke="#fff" stroke-miterlimit="10"></polyline><line x1="375.5852" y1="28.7662" x2="435.9583" y2="98.7442" fill="none" stroke="#fff" stroke-miterlimit="10"></line><circle cx="515.3995" cy="30.21826" r="15.31718" transform="translate(387.50111 550.70083) rotate(-76.71751)" fill="url(#b4789204-d858-4c59-b82f-743c9e477179)"></circle><circle cx="535.3252" cy="56.0314" r="6.8606" fill="#fff"></circle><circle cx="513.2566" cy="120.21826" r="15.31718" transform="translate(298.25813 617.93755) rotate(-76.71751)" fill="url(#b404f219-a65e-4bc2-9166-a98497e7f3b9)"></circle><circle cx="533.18232" cy="146.0314" r="6.86056" fill="#fff"></circle><circle cx="428.82805" cy="167.78966" r="15.31719" transform="translate(26.88135 378.18484) rotate(-45)" fill="url(#b82cf85e-9523-42d7-9dc0-05e3d307d7cf)"></circle><path d="M435.68867,167.78964a6.8606,6.8606,0,1,1-6.8606-6.8605A6.86061,6.86061,0,0,1,435.68867,167.78964Z" transform="translate(19.92573 25.81316)" fill="#fff"></path><circle cx="352.11375" cy="157.07541" r="15.31712" transform="translate(138.26663 489.49424) rotate(-76.71744)" fill="url(#aee8b1c7-2a24-4e18-9e8b-da3b1d963c47)"></circle><path d="M358.97437,157.07544a6.8606,6.8606,0,1,1-6.8606-6.8606A6.86058,6.86058,0,0,1,358.97437,157.07544Z" transform="translate(19.92573 25.81316)" fill="#fff"></path><circle cx="331.9709" cy="73.07541" r="15.31711" transform="translate(65.48563 281.95533) rotate(-45)" fill="url(#ac49a733-fee6-47f6-a81e-a94075981e54)"></circle><path d="M338.83147,73.07544a6.86055,6.86055,0,1,1-6.8606-6.8606A6.86058,6.86058,0,0,1,338.83147,73.07544Z" transform="translate(19.92573 25.81316)" fill="#fff"></path><circle cx="356.82805" cy="2.36111" r="15.31712" transform="translate(292.47331 374.91428) rotate(-76.71744)" fill="url(#ea6f3221-0740-412c-ba2f-f9274585eae9)"></circle><path d="M363.68867,2.36114a6.8606,6.8606,0,1,1-6.8606-6.8606A6.86052,6.86052,0,0,1,363.68867,2.36114Z" transform="translate(19.92573 25.81316)" fill="#fff"></path><circle cx="434.3995" cy="-10.49604" r="15.31718" transform="translate(364.73621 440.50755) rotate(-76.71751)" fill="url(#eec6114e-d549-4eb7-8882-e173a211ee66)"></circle><circle cx="454.3252" cy="15.3171" r="6.8606" fill="#fff"></circle><path d="M483.75247,54.26a2.26805,2.26805,0,1,1-2.268-2.268A2.26806,2.26806,0,0,1,483.75247,54.26Z" transform="translate(19.92573 25.81316)" fill="#fff"></path><path d="M487.05147,94.26024a1.031,1.031,0,1,1-1.0309-1.031A1.031,1.031,0,0,1,487.05147,94.26024Z" transform="translate(19.92573 25.81316)" fill="#fff"></path><path d="M468.49467,117.55924a1.64945,1.64945,0,1,1-1.6494-1.6495A1.64947,1.64947,0,0,1,468.49467,117.55924Z" transform="translate(19.92573 25.81316)" fill="#fff"></path><path d="M426.02037,148.07484a.82475.82475,0,1,1-.8248-.8248A.82475.82475,0,0,1,426.02037,148.07484Z" transform="translate(19.92573 25.81316)" fill="#fff"></path><circle cx="404.2964" cy="171.8261" r="1.2371" fill="#fff"></circle><circle cx="375.018" cy="146.6714" r="1.6495" fill="#fff"></circle><path d="M357.15407,54.05384a2.06185,2.06185,0,1,1-2.0618-2.0618A2.06182,2.06182,0,0,1,357.15407,54.05384Z" transform="translate(19.92573 25.81316)" fill="#fff"></path><path d="M366.63867,30.961a.82475.82475,0,1,1-.8247-.8248A.82466.82466,0,0,1,366.63867,30.961Z" transform="translate(19.92573 25.81316)" fill="#fff"></path><path d="M400.04087,14.87844a1.2371,1.2371,0,1,1-1.2371-1.2371A1.23716,1.23716,0,0,1,400.04087,14.87844Z" transform="translate(19.92573 25.81316)" fill="#fff"></path><circle cx="489.2452" cy="43.9906" r="1.6495" fill="#fff"></circle><path d="M349.31907,89.72414a1.8557,1.8557,0,1,1-1.8557-1.8557A1.85571,1.85571,0,0,1,349.31907,89.72414Z" transform="translate(19.92573 25.81316)" fill="#fff"></path><path d="M512.61857,92.19834a2.26805,2.26805,0,1,1-2.268-2.268A2.26806,2.26806,0,0,1,512.61857,92.19834Z" transform="translate(19.92573 25.81316)" fill="#fff"></path><circle cx="497.0803" cy="166.4653" r="1.6495" fill="#fff"></circle><circle cx="353.5746" cy="155.7436" r="0.4124" fill="#fff"></circle><path d="M338.59737,32.19814a1.23715,1.23715,0,1,1-1.2371-1.2371A1.23714,1.23714,0,0,1,338.59737,32.19814Z" transform="translate(19.92573 25.81316)" fill="#fff"></path><circle cx="411.7191" cy="20.4854" r="1.6495" fill="#fff"></circle><path d="M485.81437,9.93a.82475.82475,0,1,1-.8248-.8248A.82475.82475,0,0,1,485.81437,9.93Z" transform="translate(19.92573 25.81316)" fill="#fff"></path><path d="M521.27837,63.33224a2.26805,2.26805,0,1,1-2.268-2.268A2.26806,2.26806,0,0,1,521.27837,63.33224Z" transform="translate(19.92573 25.81316)" fill="#fff"></path><path d="M498.10517,80.09894a77.77946,77.77946,0,0,1-77.7785,77.7789c-1.1703,0-2.3257-.0296-3.4811-.0889a77.783,77.783,0,0,1-36.7047-144.3005,77.26664,77.26664,0,0,1,35.2235-11.0055h.0148c1.6292-.1037,3.2883-.1629,4.9475-.1629a77.76354,77.76354,0,0,1,77.7785,77.7789Z" transform="translate(19.92573 25.81316)" fill="url(#bac092eb-747f-4d0c-9442-0a062fb84d16)" style="mix-blend-mode: overlay"></path><path class="earth" d="M472.83637,80.09894a52.51043,52.51043,0,0,1-52.5098,52.51c-.79,0-1.5701-.02-2.3501-.06a52.50323,52.50323,0,0,1-1-104.85h.01c1.0999-.07,2.22-.11,3.3401-.11a52.49983,52.49983,0,0,1,52.5098,52.51Z" transform="translate(19.92573 25.81316)" fill="url(#ab73dc9e-6a57-44c6-8893-04edcd5e37ac)"></path><path d="M472.83637,80.09894a52.51043,52.51043,0,0,1-52.5098,52.51c-.79,0-1.5701-.02-2.3501-.06a52.46475,52.46475,0,0,1-47.0601-34.65,52.3347,52.3347,0,0,0,36.5101,17.14c.78.04,1.56.06,2.35.06a52.51588,52.51588,0,0,0,49.4-70.32,51.2857,51.2857,0,0,1,5.57,7.31A52.26189,52.26189,0,0,1,472.83637,80.09894Z" transform="translate(19.92573 25.81316)" fill="#4447a6" opacity="0.29" style="mix-blend-mode: multiply"></path><path d="M472.83637,80.09894a52.51043,52.51043,0,0,1-52.5098,52.51c-.79,0-1.5701-.02-2.3501-.06a38.058,38.058,0,0,1,1.9299-5.89c2.93-6.82,5.8501,0,15.1201-5.36,9.2601-5.36,7.8001-14.14,9.2601-22.92,1.4699-8.77,12.6799-2.92,19.51-9.26,6.82-6.34-6.8301-13.65-7.3201-24.87-.21-4.89,3.74-9.03,8.27-12.16A52.26189,52.26189,0,0,1,472.83637,80.09894Z" transform="translate(19.92573 25.81316)" fill="#4447a6" opacity="0.29" style="mix-blend-mode: multiply"></path><path d="M399.42647,51.56894c-4.8699,12.68-18.0401,3.42-17.5501,19.02.4902,15.6,5.3601,14.63,3.9001,20.48s-7.31,5.85-6.34,9.26c.8901,3.1,19.79,17.01,14.25,25.03a52.5286,52.5286,0,0,1-.49-90.23C397.81657,39.27894,401.91637,45.10894,399.42647,51.56894Z" transform="translate(19.92573 25.81316)" fill="#4447a6" opacity="0.29" style="mix-blend-mode: multiply"></path><path d="M451.32657,37.70894c-4.6201,2.64-6.3601,4.68-9.96,10.45-4.8801,7.8.9698,15.11-5.8501,17.07-6.83,1.95-7.81,1.46-10.7299,8.28-2.9302,6.83,2.4399,17.07-3.4102,19.02-5.8599,1.95-13.6599-1.46-9.27-12.68,4.3901-11.21-7.7998-3.41-11.7-7.31-3.8999-3.9-.9799-5.36,5.3601-10.24s12.19-2.44,16.0899-9.75c3.9001-7.32-3.4099-7.8-5.3599-18.53a11.43475,11.43475,0,0,1,.48-6.32h.01c1.0999-.07,2.22-.11,3.3401-.11A52.3203,52.3203,0,0,1,451.32657,37.70894Z" transform="translate(19.92573 25.81316)" fill="#4447a6" opacity="0.29" style="mix-blend-mode: multiply"></path><path d="M405.28027,103.258s4.8762-2.9257,6.8266.9752-.4876,4.8761-2.9257,7.8018S398.94137,108.13414,405.28027,103.258Z" transform="translate(19.92573 25.81316)" fill="#4447a6" opacity="0.29" style="mix-blend-mode: multiply"></path><path d="M444.777,77.90214s3.9009,6.339-1.4629,8.2894-8.777,4.8761-9.7522-.4876S436.97517,72.53834,444.777,77.90214Z" transform="translate(19.92573 25.81316)" fill="#4447a6" opacity="0.29" style="mix-blend-mode: multiply"></path></g><g><g class="txt"><path d="M551.31434,240.87109c-.3125-5.87793-.6875-12.94384-.625-18.19677h-.1875c-1.43847,4.93994-3.18945,10.19287-5.31543,16.00781l-7.4414,20.44775h-4.127l-6.81543-20.07226c-2.001-5.94043-3.68945-11.38086-4.87793-16.3833h-.125c-.125,5.25293-.4375,12.31884-.8125,18.63427l-1.126,18.07129h-5.18946l2.93848-42.1455h6.94141l7.19043,20.38476c1.751,5.18994,3.18945,9.81738,4.25195,14.19434h.18848c1.0625-4.252,2.56347-8.87891,4.43945-14.19434l7.50391-20.38476h6.94043l2.626,42.1455h-5.31445Z" transform="translate(19.92573 25.81316)" fill="#fff"></path><path d="M595.39735,239.62012H579.01454v15.19433h18.25879v4.56543H573.57411v-42.1455h22.76172v4.56445H579.01454v13.31933h16.38281Z" transform="translate(19.92573 25.81316)" fill="#fff"></path><path d="M620.84657,221.86133H608.02821v-4.627h31.20312v4.627H626.3495v37.51855h-5.50293Z" transform="translate(19.92573 25.81316)" fill="#fff"></path><path d="M653.54969,246.12354l-4.377,13.25634h-5.62793l14.31934-42.1455h6.56543l14.38183,42.1455H672.997L668.494,246.12354Zm13.81934-4.25245-4.12695-12.13086c-.93848-2.751-1.56348-5.25244-2.18848-7.69091h-.126c-.625,2.501-1.3125,5.06494-2.126,7.62841l-4.127,12.19336Z" transform="translate(19.92573 25.81316)" fill="#fff"></path><path d="M525.05165,325.52539l-13.75684-42.14551h5.87793l6.56543,20.75977c1.81348,5.69043,3.377,10.81836,4.50293,15.75781h.125c1.1875-4.877,2.93848-10.19238,4.81445-15.69531l7.12891-20.82227h5.81543l-15.07031,42.14551Z" transform="translate(19.92573 25.81316)" fill="#fff"></path><path d="M580.01551,305.76562H563.6327v15.19532h18.25879v4.56445H558.19227V283.37988H580.954v4.56446H563.6327v13.31933h16.38281Z" transform="translate(19.92573 25.81316)" fill="#fff"></path><path d="M596.45985,283.94238a56.70435,56.70435,0,0,1,10.44336-.875c5.81445,0,9.56641,1.0625,12.19336,3.43946a10.49432,10.49432,0,0,1,3.31348,8.0039,11.06544,11.06544,0,0,1-7.94141,10.75488v.1875c3.25195,1.126,5.19043,4.127,6.19043,8.50391,1.376,5.87793,2.37695,9.94238,3.25195,11.56836h-5.62793c-.6875-1.18848-1.626-4.81445-2.81347-10.06738-1.251-5.81543-3.502-8.00391-8.44141-8.19141h-5.12793v18.25879h-5.44043Zm5.44043,19.19727h5.56543c5.81543,0,9.50488-3.18945,9.50488-8.00391,0-5.44043-3.93945-7.8164-9.69238-7.8789a22.39465,22.39465,0,0,0-5.37793.5Z" transform="translate(19.92573 25.81316)" fill="#fff"></path><path d="M636.85536,318.89746a19.28486,19.28486,0,0,0,9.75488,2.751c5.56543,0,8.81641-2.93848,8.81641-7.19141,0-3.93848-2.251-6.19043-7.94141-8.37891-6.87793-2.43847-11.12988-6.00292-11.12988-11.94335,0-6.56543,5.43945-11.44239,13.63183-11.44239a19.14242,19.14242,0,0,1,9.31641,2.06348l-1.501,4.43945a16.77567,16.77567,0,0,0-8.0039-2.001c-5.752,0-7.94043,3.43945-7.94043,6.31543,0,3.93945,2.56347,5.87793,8.3789,8.1289,7.12793,2.751,10.75489,6.19043,10.75489,12.38086,0,6.50293-4.81446,12.13086-14.75684,12.13086-4.06445,0-8.50488-1.1875-10.75586-2.68848Z" transform="translate(19.92573 25.81316)" fill="#fff"></path><path d="M697.75965,305.76562H681.37684v15.19532h18.25879v4.56445H675.93641V283.37988h22.76172v4.56446H681.37684v13.31933h16.38281Z" transform="translate(19.92573 25.81316)" fill="#fff"></path></g></g></svg> 