<?xml version="1.0" encoding="UTF-8"?> <svg xmlns="http://www.w3.org/2000/svg" xmlns:xlink="http://www.w3.org/1999/xlink" class="buildings" viewBox="0 0 915.35593 530.14701"><defs><linearGradient id="b5f2154c-b338-4f20-9a9b-bb39f67ea4f0" x1="630.2582" y1="84.52439" x2="741.47991" y2="84.52439" gradientUnits="userSpaceOnUse"><stop offset="0" stop-color="#032c5f"></stop><stop offset="1" stop-color="#44d6d8"></stop></linearGradient><linearGradient id="ad8ee7c7-e3a6-4485-8b0f-5f5c93040a7e" x1="649.77258" y1="90.87317" x2="756.71405" y2="90.87317" gradientUnits="userSpaceOnUse"><stop offset="0" stop-color="#0054ce"></stop><stop offset="1" stop-color="#00aef3"></stop></linearGradient><linearGradient id="a077f72a-c427-4e93-b7f5-11e5675aaec7" x1="50.17758" y1="190.96942" x2="135.23349" y2="190.96942" xlink:href="#b5f2154c-b338-4f20-9a9b-bb39f67ea4f0"></linearGradient><linearGradient id="b11e49cb-99c8-491b-9789-3d8167969042" x1="65.10384" y1="195.06823" x2="146.88627" y2="195.06823" xlink:href="#ad8ee7c7-e3a6-4485-8b0f-5f5c93040a7e"></linearGradient><linearGradient id="ed129571-82c1-4468-a8ee-124d28287339" x1="284.01549" y1="68.97659" x2="372.76318" y2="68.97659" xlink:href="#b5f2154c-b338-4f20-9a9b-bb39f67ea4f0"></linearGradient><linearGradient id="b8cc2082-f181-4ffa-bb7e-ddfc6600deaa" x1="299.58512" y1="74.0368" x2="384.92187" y2="74.0368" xlink:href="#ad8ee7c7-e3a6-4485-8b0f-5f5c93040a7e"></linearGradient><linearGradient id="e1442df9-35d2-4e92-9ea4-b9fe6dbdc2c0" x1="124.53636" y1="317.08644" x2="124.53636" y2="453.76052" gradientUnits="userSpaceOnUse"><stop offset="0" stop-color="#000027"></stop><stop offset="0.52294" stop-color="#00b"></stop><stop offset="1" stop-color="#0038ca"></stop></linearGradient><linearGradient id="aaf861a3-af63-4708-b2c0-6e840720570d" x1="95.67468" y1="323.62795" x2="95.67468" y2="513.99169" gradientUnits="userSpaceOnUse"><stop offset="0" stop-color="#000aaf"></stop><stop offset="1" stop-color="#00aef3"></stop></linearGradient><linearGradient id="a2442102-cff4-4025-9c0a-5e06f5d32479" x1="842.49169" y1="237.30928" x2="842.49169" y2="474.04438" gradientUnits="userSpaceOnUse"><stop offset="0" stop-color="#5e19df"></stop><stop offset="1" stop-color="#9853eb"></stop></linearGradient><linearGradient id="ffb34a4e-d03b-4abc-99f1-82f472648c60" x1="1030.22829" y1="354.42332" x2="850.36352" y2="281.1445" gradientUnits="userSpaceOnUse"><stop offset="0" stop-color="#0e4ecb"></stop><stop offset="1" stop-color="#ff9eff"></stop></linearGradient><linearGradient id="ab0047d1-ed9e-4c71-b1ca-1bbb7a69a50c" x1="952.61989" y1="263.58881" x2="874.07735" y2="307.41713" xlink:href="#ffb34a4e-d03b-4abc-99f1-82f472648c60"></linearGradient><linearGradient id="f1ac39ec-5ee9-481b-bddf-e29428a7a57f" x1="890.68275" y1="579.87486" x2="890.68275" y2="287.85805" gradientUnits="userSpaceOnUse"><stop offset="0" stop-color="#6a6a6a"></stop><stop offset="0.36616" stop-color="#6a6a6a"></stop><stop offset="0.46824" stop-color="#616161"></stop><stop offset="0.63249" stop-color="#4a4a4a"></stop><stop offset="0.83715" stop-color="#232323"></stop><stop offset="1"></stop></linearGradient><linearGradient id="b2b5aaa9-062d-40fe-b389-a160caffadf8" x1="532.66194" y1="111.09542" x2="532.66194" y2="352.17109" gradientUnits="userSpaceOnUse"><stop offset="0" stop-color="#000071"></stop><stop offset="0.50459" stop-color="#3739bc"></stop><stop offset="1" stop-color="#4e4cfe"></stop></linearGradient><linearGradient id="ae0447ff-5143-4168-8bb5-aaa8325e57d6" x1="509.38159" y1="84.93752" x2="509.38159" y2="194.27645" gradientUnits="userSpaceOnUse"><stop offset="0" stop-color="#4006bf"></stop><stop offset="1" stop-color="#e359ff"></stop></linearGradient><linearGradient id="ad4c0bc5-1c7e-40f7-a34d-e8f33b9786c5" x1="509.38159" y1="136.59268" x2="509.38159" y2="415.46096" xlink:href="#a2442102-cff4-4025-9c0a-5e06f5d32479"></linearGradient><linearGradient id="eb076da4-1234-437c-b768-ef1b17af6bd3" x1="521.02043" y1="372.08389" x2="521.02043" y2="76.62593" xlink:href="#f1ac39ec-5ee9-481b-bddf-e29428a7a57f"></linearGradient><linearGradient id="a1c8ab86-2ca1-4126-8c8a-3c1e2e8eba22" x1="635.22958" y1="217.03561" x2="635.22958" y2="450.56259" gradientUnits="userSpaceOnUse"><stop offset="0.00459" stop-color="#a22d70"></stop><stop offset="0.52752" stop-color="#654993"></stop><stop offset="1" stop-color="#44d4f2"></stop></linearGradient><linearGradient id="a250127e-af79-4524-b8c6-1fb94497ffc8" x1="609.28657" y1="183.68742" x2="609.28657" y2="466.04147" gradientUnits="userSpaceOnUse"><stop offset="0.00459" stop-color="#b925ad"></stop><stop offset="0.50917" stop-color="#ff7742"></stop><stop offset="1" stop-color="#fec540"></stop></linearGradient><linearGradient id="a8e4a402-60b3-4ccc-ba88-94abfe9c1be7" x1="609.19573" y1="183.03245" x2="609.19573" y2="469.48821" gradientUnits="userSpaceOnUse"><stop offset="0" stop-color="#e13a2e"></stop><stop offset="1" stop-color="#ae56c8"></stop></linearGradient><linearGradient id="a6cc46f6-25cc-4dd9-a32f-56781e105725" x1="626.11338" y1="197.85677" x2="626.11338" y2="381.01885" xlink:href="#aaf861a3-af63-4708-b2c0-6e840720570d"></linearGradient><linearGradient id="acdec271-3af0-43be-bfa5-0ecc25ae2e2a" x1="645.43251" y1="197.85677" x2="645.43251" y2="381.01885" xlink:href="#aaf861a3-af63-4708-b2c0-6e840720570d"></linearGradient><linearGradient id="ffacc440-94e7-4f9d-99a3-ba851d7f535d" x1="606.79703" y1="197.85677" x2="606.79703" y2="381.01885" xlink:href="#aaf861a3-af63-4708-b2c0-6e840720570d"></linearGradient><linearGradient id="aeeaf6c2-5325-4923-adca-4b72436cea70" x1="587.47239" y1="197.85677" x2="587.47239" y2="381.01885" xlink:href="#aaf861a3-af63-4708-b2c0-6e840720570d"></linearGradient><linearGradient id="afb5006f-f12d-4f04-82c1-c85cbd0d7ee0" x1="720.3873" y1="230.82979" x2="783.84382" y2="230.82979" gradientUnits="userSpaceOnUse"><stop offset="0.00459" stop-color="#3e1155"></stop><stop offset="0.50917" stop-color="#75316e"></stop><stop offset="1" stop-color="#ab5288"></stop></linearGradient><linearGradient id="ffa77601-b199-4e14-9610-bf89181d0907" x1="702.35828" y1="230.82979" x2="765.80916" y2="230.82979" xlink:href="#a2442102-cff4-4025-9c0a-5e06f5d32479"></linearGradient><linearGradient id="b37b45a6-41b4-413b-92fc-7172d5b5d8fa" x1="726.14764" y1="183.03239" x2="726.14764" y2="415.20885" xlink:href="#afb5006f-f12d-4f04-82c1-c85cbd0d7ee0"></linearGradient><linearGradient id="eae4460a-da65-4b37-9912-bc4d4331afa4" x1="778.97474" y1="160.53322" x2="778.97474" y2="504.92812" xlink:href="#afb5006f-f12d-4f04-82c1-c85cbd0d7ee0"></linearGradient><linearGradient id="ad1f592a-f78a-434b-b411-d52f007345e9" x1="734.08372" y1="128.13961" x2="734.08372" y2="480.24797" gradientUnits="userSpaceOnUse"><stop offset="0" stop-color="#8a1e90"></stop><stop offset="1" stop-color="#fdabf7"></stop></linearGradient><linearGradient id="f9eb6b5f-e417-4224-851f-51f0ffa3499c" x1="739.31322" y1="459.1176" x2="739.31322" y2="145.98964" xlink:href="#f1ac39ec-5ee9-481b-bddf-e29428a7a57f"></linearGradient><linearGradient id="bdaf20bb-23eb-42d9-9eab-d25012192512" x1="209.46847" y1="121.56229" x2="209.46847" y2="203.36882" gradientUnits="userSpaceOnUse"><stop offset="0" stop-color="#44398d"></stop><stop offset="0.54587" stop-color="#6f72ff"></stop><stop offset="1" stop-color="#3db4f8"></stop></linearGradient><linearGradient id="bf18aad6-1e27-418a-a1b6-4d090d940833" x1="160.07456" y1="235.83901" x2="223.06322" y2="235.83901" xlink:href="#bdaf20bb-23eb-42d9-9eab-d25012192512"></linearGradient><linearGradient id="bdd93db2-d988-4420-9651-43ba856717bd" x1="144.3286" y1="337.47707" x2="223.06322" y2="337.47707" xlink:href="#bdaf20bb-23eb-42d9-9eab-d25012192512"></linearGradient><linearGradient id="edf6fa17-01f8-413e-bc9b-1b04f4944282" x1="236.12696" y1="187.7585" x2="236.12696" y2="451.6202" xlink:href="#bdaf20bb-23eb-42d9-9eab-d25012192512"></linearGradient><linearGradient id="b2194915-add7-483d-9205-b99d76925e2e" x1="191.56889" y1="162.10675" x2="191.56889" y2="420.49884" xlink:href="#bdaf20bb-23eb-42d9-9eab-d25012192512"></linearGradient><linearGradient id="b53b5c6a-9f8f-463c-aa95-78837a6c26c3" x1="244.43636" y1="152.8414" x2="248.73883" y2="152.8414" xlink:href="#bdaf20bb-23eb-42d9-9eab-d25012192512"></linearGradient><linearGradient id="b8365621-b29b-4cbe-9ac2-da9444d6ecaf" x1="242.62625" y1="152.61027" x2="246.92309" y2="152.61027" xlink:href="#bdaf20bb-23eb-42d9-9eab-d25012192512"></linearGradient><linearGradient id="bbc95fc0-f525-4c9f-be80-631c02365c36" x1="244.95354" y1="528.09293" x2="244.95354" y2="221.84919" xlink:href="#f1ac39ec-5ee9-481b-bddf-e29428a7a57f"></linearGradient><linearGradient id="be12965b-38b5-45c4-852b-1715d9cb2524" x1="368.62665" y1="71.86554" x2="368.62665" y2="334.84256" xlink:href="#aaf861a3-af63-4708-b2c0-6e840720570d"></linearGradient><linearGradient id="a3fac2ae-9b95-4a74-8e42-6958972cd42c" x1="431.40628" y1="167.99094" x2="431.40628" y2="356.69177" xlink:href="#a1c8ab86-2ca1-4126-8c8a-3c1e2e8eba22"></linearGradient><linearGradient id="a41e0c09-2f51-4481-a1ae-9238990543f4" x1="279.93953" y1="377.07662" x2="342.50451" y2="377.07662" xlink:href="#ae0447ff-5143-4168-8bb5-aaa8325e57d6"></linearGradient><linearGradient id="ac8f26c5-c43c-42fd-a688-5c6b80ad880b" x1="277.79111" y1="252.34822" x2="277.79111" y2="505.58652" xlink:href="#a1c8ab86-2ca1-4126-8c8a-3c1e2e8eba22"></linearGradient><linearGradient id="aabbda19-eff9-4242-b034-6c42ce97c0d9" x1="861.33477" y1="486.04161" x2="915.35593" y2="486.04161" xlink:href="#aaf861a3-af63-4708-b2c0-6e840720570d"></linearGradient><linearGradient id="adc153a3-5c1d-4c2a-8ed7-9865155f2eba" x1="861.33477" y1="512.05207" x2="915.35593" y2="512.05207" gradientUnits="userSpaceOnUse"><stop offset="0" stop-color="#000764"></stop><stop offset="1" stop-color="#084aca"></stop></linearGradient><linearGradient id="a26860d7-f5e5-4dc7-b3e6-676b562d39d8" x1="744.58384" y1="512.05207" x2="886.48848" y2="512.05207" xlink:href="#aaf861a3-af63-4708-b2c0-6e840720570d"></linearGradient><linearGradient id="b9369048-0406-4016-9d32-86d298463385" x1="744.58384" y1="486.04161" x2="886.48848" y2="486.04161" xlink:href="#b2b5aaa9-062d-40fe-b389-a160caffadf8"></linearGradient><linearGradient id="e11071f5-4a8d-478c-bcfd-f288732592f9" x1="526.10658" y1="365.7282" x2="589.14476" y2="365.7282" gradientUnits="userSpaceOnUse"><stop offset="0" stop-color="#6a25c7"></stop><stop offset="1" stop-color="#fdb0e9"></stop></linearGradient><linearGradient id="a7b3e72e-1864-4620-879d-c0f9b8220dac" x1="557.62567" y1="369.39649" x2="557.62567" y2="555.76736" xlink:href="#b5f2154c-b338-4f20-9a9b-bb39f67ea4f0"></linearGradient><linearGradient id="edd93dbf-a0dd-4dc4-933c-a09c8bbcf837" x1="523.94179" y1="368.09523" x2="523.94179" y2="532.88747" xlink:href="#b5f2154c-b338-4f20-9a9b-bb39f67ea4f0"></linearGradient><linearGradient id="bc37ceaa-dfcf-4481-86dc-a93ef973046c" x1="492.41438" y1="365.7282" x2="555.46921" y2="365.7282" gradientUnits="userSpaceOnUse"><stop offset="0" stop-color="#5b458e"></stop><stop offset="1" stop-color="#eeb7ff"></stop></linearGradient><linearGradient id="a92fbeeb-ba20-478a-9c67-de8577de0f39" x1="778.77122" y1="425.5273" x2="841.80408" y2="425.5273" xlink:href="#afb5006f-f12d-4f04-82c1-c85cbd0d7ee0"></linearGradient><linearGradient id="a16d6cd3-1de6-45c8-afd0-903dedbd058f" x1="810.28765" y1="428.83932" x2="810.28765" y2="553.64568" xlink:href="#b5f2154c-b338-4f20-9a9b-bb39f67ea4f0"></linearGradient><linearGradient id="f885c41b-e91d-45f1-b879-322d8ec9ea50" x1="776.60364" y1="433.06465" x2="776.60364" y2="529.91092" gradientUnits="userSpaceOnUse"><stop offset="0" stop-color="#007ca8"></stop><stop offset="1" stop-color="#26daea"></stop></linearGradient><linearGradient id="ad960159-38d6-450e-afc9-c10f5bf09fb4" x1="776.60364" y1="411.23389" x2="776.60364" y2="459.16726" gradientUnits="userSpaceOnUse"><stop offset="0.00459" stop-color="#9c397f"></stop><stop offset="0.53211" stop-color="#c256c8"></stop><stop offset="1" stop-color="#ffe3ff"></stop></linearGradient><linearGradient id="b51b6ca5-c442-4cfd-8e23-ad8a96c00afa" x1="324.9873" y1="425.63998" x2="378.9972" y2="425.63998" xlink:href="#bdaf20bb-23eb-42d9-9eab-d25012192512"></linearGradient><linearGradient id="a4676524-63d1-4a63-b581-c9c748fb7c71" x1="323.12761" y1="302.05038" x2="323.12761" y2="537.47337" gradientUnits="userSpaceOnUse"><stop offset="0.00459" stop-color="#5d0362"></stop><stop offset="1" stop-color="#34dde5"></stop></linearGradient><linearGradient id="e9f2e085-b2f7-4090-8267-01f031c63281" x1="674.07983" y1="462.06239" x2="745.64016" y2="462.06239" xlink:href="#b2b5aaa9-062d-40fe-b389-a160caffadf8"></linearGradient><linearGradient id="b6c77785-d8fe-4cf3-9733-b1677669af62" x1="634.37958" y1="427.60422" x2="634.37958" y2="528.5662" xlink:href="#a1c8ab86-2ca1-4126-8c8a-3c1e2e8eba22"></linearGradient><linearGradient id="b2ee38a3-1487-4204-a7ef-885549174011" x1="583.82484" y1="418.36952" x2="718.28029" y2="418.36952" gradientUnits="userSpaceOnUse"><stop offset="0" stop-color="#9651ff"></stop><stop offset="0.5" stop-color="#5681fc"></stop><stop offset="1" stop-color="#32eee9"></stop></linearGradient><linearGradient id="af747003-90e8-42b9-963e-4cfc4c3f3103" x1="464.99676" y1="319.05057" x2="464.99676" y2="533.73128" xlink:href="#a1c8ab86-2ca1-4126-8c8a-3c1e2e8eba22"></linearGradient><linearGradient id="b2d27a45-ff7c-46a7-bd67-e0921c82e258" x1="408.41197" y1="363.51777" x2="408.41197" y2="539.12329" xlink:href="#ad960159-38d6-450e-afc9-c10f5bf09fb4"></linearGradient><linearGradient id="f527949e-bd21-4011-95a9-c0674f2fa302" x1="112.72147" y1="486.45273" x2="112.72147" y2="533.17791" gradientUnits="userSpaceOnUse"><stop offset="0" stop-color="#d74ef6"></stop><stop offset="1" stop-color="#f34d4d"></stop></linearGradient><linearGradient id="edae9461-3e7a-45a4-85d8-5a76a5348122" x1="129.6174" y1="449.45787" x2="118.49828" y2="499.81009" gradientUnits="userSpaceOnUse"><stop offset="0.00459" stop-color="#a13a96"></stop><stop offset="1" stop-color="#e99ec3"></stop></linearGradient><linearGradient id="bee585ea-61f6-4e3e-8d1b-7a04bddce286" x1="191.20846" y1="467.29584" x2="244.03021" y2="467.29584" xlink:href="#b2b5aaa9-062d-40fe-b389-a160caffadf8"></linearGradient><linearGradient id="f928d554-762b-4238-98d1-3f33692b4c2c" x1="161.89552" y1="440.67872" x2="161.89552" y2="538.12502" xlink:href="#aaf861a3-af63-4708-b2c0-6e840720570d"></linearGradient><linearGradient id="ad11302f-82f2-41bc-91d8-f4db0b067f86" x1="174.19731" y1="383.78587" x2="174.19731" y2="454.42315" xlink:href="#b2ee38a3-1487-4204-a7ef-885549174011"></linearGradient><linearGradient id="a359fcf9-7351-44ad-8455-367f30860e20" x1="278.89701" y1="449.83105" x2="278.89701" y2="511.3324" xlink:href="#b5f2154c-b338-4f20-9a9b-bb39f67ea4f0"></linearGradient><linearGradient id="ef04b113-9ca6-45d3-b4e3-31443d1bc919" x1="241.16659" y1="481.22358" x2="241.16659" y2="546.94209" gradientUnits="userSpaceOnUse"><stop offset="0" stop-color="#151e58"></stop><stop offset="1" stop-color="#85b3c9"></stop></linearGradient><linearGradient id="a4d07f82-a61e-4c10-ad93-4b7dfea7d217" x1="219.07455" y1="474.21855" x2="279.92854" y2="474.21855" gradientUnits="userSpaceOnUse"><stop offset="0" stop-color="#6d519e"></stop><stop offset="1" stop-color="#e3b1e6"></stop></linearGradient></defs><g class="cloud c-1"><g opacity="0.6" style="mix-blend-mode: multiply"><g><g opacity="0" style="mix-blend-mode: multiply"><path d="M709.0311,89.09474c21.32447.04141,42.44275,2.78109,42.352,7.92524l3.12756,8.37367c-.0907,5.13288-25.89088,9.05029-47.20718,9.01705l-36.89973-.42619c-21.37123-.033-38.74815-4.26106-38.64928-9.40239l1.35885-6.62948c.11581-5.14133,17.67439-9.32268,39.02365-9.29507Z" transform="translate(-48.19389 -52.21445)" fill="#fff"></path></g><g opacity="0.03226" style="mix-blend-mode: multiply"><path d="M709.342,89.09155c21.27531.0414,42.15275,2.81756,42.06239,7.94982l2.96314,8.26222c-.32115,5.07884-25.48215,8.85373-46.74921,8.82058l-36.19569-.40392c-21.32216-.03295-39.68824-4.07694-39.58953-9.20628l1.596-6.52708c.11518-5.12935,18.41577-9.27591,39.716-9.24831Z" transform="translate(-48.19389 -52.21445)" fill="#f9f9f9"></path></g><g opacity="0.06452" style="mix-blend-mode: multiply"><path d="M709.653,89.08836c21.22615.04139,41.86276,2.854,41.77274,7.9744l2.79872,8.15076c-.5516,5.0248-25.07343,8.65718-46.29123,8.62412l-35.49167-.38164c-21.27309-.033-40.62832-3.89282-40.52978-9.01018l1.83323-6.42469c.11455-5.11736,19.15716-9.22914,40.40847-9.20153Z" transform="translate(-48.19389 -52.21445)" fill="#f2f2f2"></path></g><g opacity="0.09677" style="mix-blend-mode: multiply"><path d="M709.96391,89.08517c21.177.04138,41.57277,2.89051,41.4831,7.999l2.63429,8.0393c-.782,4.97077-24.6647,8.46063-45.83325,8.42766l-34.78763-.35937c-21.224-.033-41.56841-3.7087-41.47-8.81407l2.07042-6.32229c.11392-5.10538,19.89855-9.18237,41.10088-9.15476Z" transform="translate(-48.19389 -52.21445)" fill="#ececec"></path></g><g opacity="0.12903" style="mix-blend-mode: multiply"><path d="M710.27485,89.082c21.12783.04138,41.28278,2.927,41.19345,8.02356l2.46987,7.92785c-1.01249,4.91672-24.256,8.26407-45.37528,8.2312l-34.08359-.33711c-21.175-.033-42.5085-3.52457-42.41028-8.618l2.30761-6.21989c.11329-5.09339,20.63993-9.1356,41.79328-9.108Z" transform="translate(-48.19389 -52.21445)" fill="#e6e6e6"></path></g><g opacity="0.16129" style="mix-blend-mode: multiply"><path d="M710.58579,89.0788c21.07867.04136,40.99279,2.96345,40.9038,8.04813l2.30545,7.81639c-1.24294,4.86269-23.84725,8.06752-44.9173,8.03474l-33.37957-.31484c-21.12589-.03295-43.44858-3.34045-43.35053-8.42185l2.5448-6.11749c.11267-5.08141,21.38133-9.08884,42.4857-9.06123Z" transform="translate(-48.19389 -52.21445)" fill="#dfdfdf"></path></g><g opacity="0.19355" style="mix-blend-mode: multiply"><path d="M710.89672,89.07561c21.02951.04135,40.7028,2.99992,40.61416,8.07271l2.141,7.70493c-1.47339,4.80865-23.43853,7.871-44.45933,7.83828l-32.67553-.29257c-21.07682-.03295-44.38867-3.15632-44.29078-8.22574l2.782-6.0151c.112-5.06942,22.12271-9.04206,43.17811-9.01446Z" transform="translate(-48.19389 -52.21445)" fill="#d9d9d9"></path></g><g opacity="0.22581" style="mix-blend-mode: multiply"><path d="M711.20766,89.07242c20.98035.04134,40.41281,3.0364,40.32451,8.09729l1.9766,7.59348c-1.70382,4.75461-23.02979,7.67441-44.00135,7.64181l-31.97149-.27029c-21.02776-.033-45.32876-2.97221-45.231-8.02964l3.01917-5.9127c.11141-5.05743,22.8641-8.99529,43.87052-8.96769Z" transform="translate(-48.19389 -52.21445)" fill="#d3d3d3"></path></g><g opacity="0.25806" style="mix-blend-mode: multiply"><path d="M711.5186,89.06923c20.93119.04133,40.12281,3.07287,40.03486,8.12187l1.81218,7.482c-1.93427,4.70057-22.62107,7.47786-43.54337,7.44535l-31.26747-.248c-20.97869-.033-46.26884-2.78808-46.17128-7.83353l3.25637-5.8103c.11078-5.04545,23.60549-8.94853,44.56293-8.92092Z" transform="translate(-48.19389 -52.21445)" fill="#ccc"></path></g><g opacity="0.29032" style="mix-blend-mode: multiply"><path d="M711.82953,89.066c20.882.04132,39.83283,3.10935,39.74522,8.14645l1.64776,7.37056c-2.16472,4.64654-22.21235,7.28131-43.0854,7.24889l-30.56343-.22575c-20.92962-.033-47.20893-2.604-47.11153-7.63742l3.49355-5.7079c.11016-5.03347,24.34688-8.90176,45.25535-8.87416Z" transform="translate(-48.19389 -52.21445)" fill="#c6c6c6"></path></g><g opacity="0.32258" style="mix-blend-mode: multiply"><path d="M712.14047,89.06285c20.83287.04131,39.54283,3.14582,39.45557,8.171l1.48333,7.25911c-2.39516,4.59249-21.80361,7.08475-42.62742,7.05242l-29.8594-.20348c-20.88055-.03295-48.149-2.41983-48.05177-7.44131l3.73074-5.60551c.10952-5.02148,25.08826-8.855,45.94775-8.82738Z" transform="translate(-48.19389 -52.21445)" fill="silver"></path></g><g opacity="0.35484" style="mix-blend-mode: multiply"><path d="M712.45141,89.05966c20.78371.04131,39.25284,3.1823,39.16592,8.19561l1.31891,7.14765c-2.62561,4.53846-21.39489,6.8882-42.16944,6.856l-29.15537-.1812c-20.83148-.033-49.0891-2.23572-48.992-7.24521l3.96792-5.50311c.1089-5.00949,25.82966-8.80822,46.64017-8.78061Z" transform="translate(-48.19389 -52.21445)" fill="#b9b9b9"></path></g><g opacity="0.3871" style="mix-blend-mode: multiply"><path d="M712.76234,89.05647c20.73456.0413,38.96286,3.21877,38.87628,8.22019l1.15449,7.03619c-2.85606,4.48442-20.98617,6.69165-41.71147,6.6595l-28.45133-.15893c-20.78242-.033-50.02919-2.05159-49.93228-7.0491l4.20512-5.40071c.10827-4.99751,26.571-8.76145,47.33257-8.73385Z" transform="translate(-48.19389 -52.21445)" fill="#b3b3b3"></path></g><g opacity="0.41935" style="mix-blend-mode: multiply"><path d="M713.07328,89.05328c20.68539.04129,38.67286,3.25524,38.58663,8.24477l.99007,6.92474c-3.08651,4.43038-20.57744,6.49509-41.2535,6.463l-27.7473-.13666c-20.73335-.033-50.96927-1.86747-50.87252-6.853l4.4423-5.29831c.10764-4.98553,27.31243-8.71469,48.025-8.68708Z" transform="translate(-48.19389 -52.21445)" fill="#adadad"></path></g><g opacity="0.45161" style="mix-blend-mode: multiply"><path d="M713.38422,89.05009c20.63623.04128,38.38287,3.29172,38.297,8.26935l.82564,6.81328c-3.317,4.37634-20.16871,6.29854-40.79552,6.26657l-27.04326-.11439c-20.68428-.03295-51.90936-1.68334-51.81277-6.65688l4.67949-5.19592c.107-4.97353,28.05382-8.66791,48.7174-8.6403Z" transform="translate(-48.19389 -52.21445)" fill="#a6a6a6"></path></g><g opacity="0.48387" style="mix-blend-mode: multiply"><path d="M713.69516,89.0469c20.58707.04127,38.09287,3.32819,38.00733,8.29393l.66122,6.70182c-3.5474,4.32231-19.76,6.102-40.33754,6.07012l-26.33924-.09213c-20.63521-.03295-52.84944-1.49922-52.753-6.46077l4.91668-5.09352c.10639-4.96155,28.79521-8.62114,49.40981-8.59354Z" transform="translate(-48.19389 -52.21445)" fill="#a0a0a0"></path></g><g opacity="0.51613" style="mix-blend-mode: multiply"><path d="M714.00609,89.04371c20.53791.04126,37.80289,3.36467,37.71769,8.31851l.4968,6.59036c-3.77785,4.26827-19.35126,5.90544-39.87957,5.87366l-25.6352-.06985c-20.58614-.033-53.78953-1.3151-53.69327-6.26467l5.15387-4.99112c.10576-4.94957,29.5366-8.57438,50.10222-8.54677Z" transform="translate(-48.19389 -52.21445)" fill="#9a9a9a"></path></g><g opacity="0.54839" style="mix-blend-mode: multiply"><path d="M714.317,89.04052c20.48875.04126,37.5129,3.40114,37.428,8.34309l.33237,6.47891c-4.00829,4.21423-18.94253,5.70888-39.42159,5.67719l-24.93116-.04758c-20.53708-.033-54.72962-1.131-54.63352-6.06856l5.39106-4.88872c.10512-4.93759,30.278-8.52761,50.79463-8.5Z" transform="translate(-48.19389 -52.21445)" fill="#949494"></path></g><g opacity="0.58065" style="mix-blend-mode: multiply"><path d="M714.628,89.03733c20.43959.04125,37.2229,3.43762,37.13839,8.36767l.168,6.36745c-4.23874,4.16019-18.53381,5.51233-38.96361,5.48073l-24.22714-.02531c-20.488-.033-55.6697-.94685-55.57377-5.87245l5.62825-4.78633c.1045-4.92559,31.01937-8.48083,51.487-8.45323Z" transform="translate(-48.19389 -52.21445)" fill="#8d8d8d"></path></g><g opacity="0.6129" style="mix-blend-mode: multiply"><path d="M714.9389,89.03414c20.39044.04124,36.93292,3.47409,36.84875,8.39224l.00353,6.256c-4.46918,4.10616-18.12508,5.31578-38.50564,5.28427l-23.5231-.003c-20.43894-.03295-56.60979-.76273-56.514-5.67634l5.86544-4.68393c.10387-4.91361,31.76076-8.43407,52.17945-8.40646Z" transform="translate(-48.19389 -52.21445)" fill="#878787"></path></g><g opacity="0.64516" style="mix-blend-mode: multiply"><path d="M715.24984,89.031c20.34127.04123,36.64292,3.51056,36.5591,8.41682l-.16089,6.14455c-4.69963,4.05211-17.71636,5.11922-38.04767,5.0878l-22.81906.01924c-20.38988-.033-57.54987-.57861-57.45427-5.48024l6.10262-4.58153c.10325-4.90163,32.50215-8.3873,52.87187-8.35969Z" transform="translate(-48.19389 -52.21445)" fill="#818181"></path></g><g opacity="0.67742" style="mix-blend-mode: multiply"><path d="M715.56078,89.02776c20.29211.04122,36.35293,3.547,36.26945,8.4414l-.32532,6.03309c-4.93007,3.99808-17.30762,4.92267-37.58968,4.89134l-22.115.04151c-20.3408-.033-58.49-.39449-58.39452-5.28413l6.33982-4.47913c.10261-4.88964,33.24353-8.34053,53.56427-8.31293Z" transform="translate(-48.19389 -52.21445)" fill="#7a7a7a"></path></g><g opacity="0.70968" style="mix-blend-mode: multiply"><path d="M715.87171,89.02458c20.243.0412,36.063,3.5835,35.97981,8.466l-.48974,5.92163c-5.16052,3.944-16.8989,4.72612-37.13171,4.69488l-21.411.06378c-20.29174-.033-59.43-.21036-59.33477-5.088l6.577-4.37674c.102-4.87765,33.98493-8.29376,54.25669-8.26615Z" transform="translate(-48.19389 -52.21445)" fill="#747474"></path></g><g opacity="0.74194" style="mix-blend-mode: multiply"><path d="M716.18265,89.02139c20.19379.04119,35.773,3.62,35.69016,8.49055l-.65416,5.81018c-5.391,3.89-16.49018,4.52956-36.67374,4.49841l-20.707.08605c-20.24266-.03295-60.37012-.02624-60.275-4.89191l6.81419-4.27434c.10136-4.86567,34.72631-8.247,54.9491-8.21938Z" transform="translate(-48.19389 -52.21445)" fill="#6e6e6e"></path></g><g opacity="0.77419" style="mix-blend-mode: multiply"><path d="M716.49359,89.0182c20.14463.04119,35.483,3.65645,35.40051,8.51513l-.81858,5.69872c-5.62142,3.836-16.08145,4.333-36.21576,4.302l-20.00294.10833c-20.1936-.033-61.31021.15788-61.21527-4.69581l7.05138-4.17194c.10074-4.85369,35.4677-8.20022,55.64151-8.17262Z" transform="translate(-48.19389 -52.21445)" fill="#676767"></path></g><g opacity="0.80645" style="mix-blend-mode: multiply"><path d="M716.80452,89.015c20.09548.04118,35.193,3.69293,35.11087,8.53971l-.983,5.58726c-5.85186,3.78193-15.67272,4.13646-35.75778,4.10549l-19.2989.1306c-20.14454-.033-62.2503.342-62.15552-4.4997l7.28857-4.06954c.1001-4.8417,36.20909-8.15346,56.33392-8.12585Z" transform="translate(-48.19389 -52.21445)" fill="#616161"></path></g><g opacity="0.83871" style="mix-blend-mode: multiply"><path d="M717.11546,89.01182c20.04632.04117,34.903,3.7294,34.82122,8.56429l-1.14743,5.47581c-6.08231,3.72788-15.264,3.9399-35.29981,3.909l-18.59487.15287c-20.09546-.033-63.19038.52613-63.09576-4.30359l7.52575-3.96715c.09948-4.82971,36.95048-8.10668,57.02634-8.07908Z" transform="translate(-48.19389 -52.21445)" fill="#5b5b5b"></path></g><g opacity="0.87097" style="mix-blend-mode: multiply"><path d="M717.4264,89.00863c19.99715.04116,34.613,3.76588,34.53157,8.58887l-1.31185,5.36435c-6.31276,3.67385-14.85527,3.74335-34.84184,3.71257l-17.89083.17513c-20.0464-.033-64.13047.71025-64.036-4.10748l7.763-3.86475c.09885-4.81773,37.69187-8.05991,57.71874-8.03231Z" transform="translate(-48.19389 -52.21445)" fill="#545454"></path></g><g opacity="0.90323" style="mix-blend-mode: multiply"><path d="M717.73734,89.00544c19.948.04115,34.323,3.80235,34.24192,8.61345l-1.47628,5.25289c-6.5432,3.61981-14.44654,3.5468-34.38385,3.51611l-17.18681.1974c-19.99732-.03295-65.07055.89438-64.97626-3.91137l8.00013-3.76235c.09822-4.80574,38.43326-8.01315,58.41116-7.98554Z" transform="translate(-48.19389 -52.21445)" fill="#4e4e4e"></path></g><g opacity="0.93548" style="mix-blend-mode: multiply"><path d="M718.04827,89.00225c19.89884.04114,34.033,3.83882,33.95228,8.638l-1.6407,5.14144c-6.77365,3.56577-14.03782,3.35024-33.92588,3.31964l-16.48277.21968c-19.94826-.033-66.01064,1.07849-65.91651-3.71527l8.23732-3.66c.09759-4.79376,39.17464-7.96638,59.10357-7.93878Z" transform="translate(-48.19389 -52.21445)" fill="#484848"></path></g><g opacity="0.96774" style="mix-blend-mode: multiply"><path d="M718.35921,88.99906c19.84967.04113,33.743,3.8753,33.66263,8.66261l-1.80512,5.03c-7.00409,3.51173-13.62909,3.15369-33.46791,3.12318l-15.77873.242c-19.8992-.033-66.95073,1.26261-66.85677-3.51916l8.47451-3.55756c.097-4.78177,39.916-7.9196,59.796-7.892Z" transform="translate(-48.19389 -52.21445)" fill="#414141"></path></g><path d="M718.67015,88.99587c19.80051.04113,33.453,3.91177,33.373,8.68719l-1.96954,4.91852c-7.23454,3.4577-13.22037,2.95714-33.00993,2.92672l-15.07471.26422c-19.85012-.033-67.89081,1.44674-67.797-3.323l8.7117-3.45516C643,94.24452,683.56106,91.14147,703.392,91.16908Z" transform="translate(-48.19389 -52.21445)" fill="#3b3b3b"></path></g></g><g><path d="M712.266,63.51766c-10.46942,0-19.62421,7.56749-24.77935,18.898-3.65881-4.54416-8.45621-7.33088-13.71585-7.33088-7.90044,0-14.7609,6.21427-18.249,15.34146-2.66816-3.95571-6.44247-6.43709-10.62381-6.43709-8.08185,0-14.63978,9.188-14.63978,20.53237,0,.33549,0,.67408.022,1.00957H741.44164c.02729-.66028.03827-1.3121.03827-1.98054C741.47991,81.4419,728.40264,63.51766,712.266,63.51766Z" transform="translate(-48.19389 -52.21445)" fill="url(#b5f2154c-b338-4f20-9a9b-bb39f67ea4f0)"></path><path d="M728.617,76.31437a28.12352,28.12352,0,0,0-23.82218,13.09952A19.73945,19.73945,0,0,0,674.068,94.96226a13.93617,13.93617,0,0,0-10.21675-4.46162,14.1582,14.1582,0,0,0-14.07867,14.22457c0,.23915.00564.47042.01659.70675H756.68109c.022-.45915.033-.91041.033-1.37519A27.921,27.921,0,0,0,728.617,76.31437Z" transform="translate(-48.19389 -52.21445)" fill="url(#ad8ee7c7-e3a6-4485-8b0f-5f5c93040a7e)"></path></g></g><g class="cloud c-2"><g opacity="0.5" style="mix-blend-mode: multiply"><g><g opacity="0" style="mix-blend-mode: multiply"><path d="M110.69331,188.62283c17.2479.04141,34.32764,2.78109,34.25637,7.92524l2.52785,8.37367c-.07408,5.13289-20.93938,9.05029-38.18168,9.01705l-29.841-.42619c-17.28622-.033-31.34038-4.26106-31.26066-9.40239l1.10027-6.62948c.091-5.14133,14.29358-9.32268,31.56065-9.29507Z" transform="translate(-48.19389 -52.21445)" fill="#fff"></path></g><g opacity="0.03226" style="mix-blend-mode: multiply"><path d="M110.9448,188.61964c17.20812.0414,34.09311,2.81756,34.02209,7.94982l2.39484,8.26222c-.26043,5.07884-20.60884,8.85373-37.8112,8.82058l-29.27164-.40392c-17.24646-.03295-32.10066-4.07693-32.021-9.20628l1.292-6.52708c.09054-5.12935,14.89327-9.27591,32.12067-9.24831Z" transform="translate(-48.19389 -52.21445)" fill="#f9f9f9"></path></g><g opacity="0.06452" style="mix-blend-mode: multiply"><path d="M111.19628,188.61645c17.16836.04139,33.85858,2.854,33.78782,7.9744l2.26183,8.15076c-.44678,5.0248-20.27829,8.65718-37.44072,8.62412l-28.70231-.38164c-17.20671-.033-32.861-3.8928-32.78142-9.01018l1.48379-6.42469c.09008-5.11736,15.49294-9.22914,32.68068-9.20153Z" transform="translate(-48.19389 -52.21445)" fill="#f2f2f2"></path></g><g opacity="0.09677" style="mix-blend-mode: multiply"><path d="M111.44776,188.61326c17.1286.04138,33.62406,2.89051,33.55355,7.999l2.12882,8.0393c-.63313,4.97077-19.94775,8.46063-37.07024,8.42767l-28.133-.35938c-17.167-.033-33.62124-3.70867-33.5418-8.81407l1.67556-6.32229c.08963-5.10537,16.09261-9.18237,33.24069-9.15476Z" transform="translate(-48.19389 -52.21445)" fill="#ececec"></path></g><g opacity="0.12903" style="mix-blend-mode: multiply"><path d="M111.69924,188.61007c17.08884.04138,33.38953,2.927,33.31928,8.02356l1.99581,7.92785c-.81948,4.91672-19.61721,8.26407-36.69976,8.2312l-27.56366-.33711c-17.12721-.033-34.38153-3.52454-34.30218-8.618l1.86732-6.21989c.08917-5.09339,16.69228-9.1356,33.8007-9.108Z" transform="translate(-48.19389 -52.21445)" fill="#e6e6e6"></path></g><g opacity="0.16129" style="mix-blend-mode: multiply"><path d="M111.95072,188.60689c17.04908.04136,33.155,2.96345,33.085,8.04813l1.8628,7.81639c-1.00583,4.86269-19.28666,8.06752-36.32928,8.03474l-26.99434-.31484c-17.08745-.03295-35.14182-3.3404-35.06256-8.42185l2.05909-6.11749c.08872-5.08141,17.292-9.08884,34.3607-9.06123Z" transform="translate(-48.19389 -52.21445)" fill="#dfdfdf"></path></g><g opacity="0.19355" style="mix-blend-mode: multiply"><path d="M112.2022,188.6037c17.00932.04135,32.92048,2.99992,32.85074,8.07271l1.72979,7.70493c-1.19217,4.80865-18.95612,7.871-35.9588,7.83828l-26.425-.29256c-17.04769-.033-35.9021-3.15628-35.82293-8.22575l2.25085-6.0151c.08826-5.06942,17.89163-9.04206,34.92071-9.01445Z" transform="translate(-48.19389 -52.21445)" fill="#d9d9d9"></path></g><g opacity="0.22581" style="mix-blend-mode: multiply"><path d="M112.45368,188.60051c16.96956.04134,32.686,3.0364,32.61647,8.09729l1.59678,7.59348c-1.37852,4.75461-18.62557,7.67441-35.58832,7.64181l-25.85569-.27029c-17.00794-.033-36.6624-2.97214-36.58332-8.02964l2.44262-5.9127c.08781-5.05743,18.4913-8.99529,35.48072-8.96769Z" transform="translate(-48.19389 -52.21445)" fill="#d3d3d3"></path></g><g opacity="0.25806" style="mix-blend-mode: multiply"><path d="M112.70516,188.59732c16.9298.04133,32.45144,3.07287,32.3822,8.12187l1.46377,7.482c-1.56487,4.70057-18.295,7.47786-35.21784,7.44535l-25.28637-.248c-16.96819-.033-37.42268-2.788-37.34369-7.83353l2.63438-5.8103c.08735-5.04545,19.091-8.94853,36.04073-8.92092Z" transform="translate(-48.19389 -52.21445)" fill="#ccc"></path></g><g opacity="0.29032" style="mix-blend-mode: multiply"><path d="M112.95665,188.59413c16.89.04132,32.2169,3.10935,32.14792,8.14645l1.33076,7.37056c-1.75122,4.64654-17.96449,7.28131-34.84736,7.24889l-24.717-.22575c-16.92844-.033-38.183-2.60388-38.10408-7.63742L51.593,197.789c.0869-5.03347,19.69064-8.90176,36.60074-8.87416Z" transform="translate(-48.19389 -52.21445)" fill="#c6c6c6"></path></g><g opacity="0.32258" style="mix-blend-mode: multiply"><path d="M113.20813,188.59094c16.85026.04132,31.98238,3.14582,31.91365,8.171l1.19775,7.25911c-1.93757,4.59249-17.63394,7.08475-34.47687,7.05242L87.69493,210.87c-16.88868-.03295-38.94326-2.41974-38.86445-7.44131l3.01791-5.60551c.08644-5.02147,20.29032-8.855,37.16075-8.82738Z" transform="translate(-48.19389 -52.21445)" fill="silver"></path></g><g opacity="0.35484" style="mix-blend-mode: multiply"><path d="M113.45961,188.58775c16.8105.04131,31.74785,3.1823,31.67938,8.19561l1.06474,7.14765c-2.12392,4.53846-17.3034,6.8882-34.10639,6.856l-23.57841-.1812c-16.84892-.033-39.70355-2.23562-39.62483-7.24521l3.20968-5.50311c.086-5.00949,20.89-8.80822,37.72076-8.78061Z" transform="translate(-48.19389 -52.21445)" fill="#b9b9b9"></path></g><g opacity="0.3871" style="mix-blend-mode: multiply"><path d="M113.71109,188.58456c16.77074.0413,31.51333,3.21877,31.44511,8.22019l.93173,7.03619c-2.31027,4.48442-16.97285,6.69165-33.73591,6.6595l-23.00908-.15893c-16.80917-.033-40.46384-2.05148-40.38521-7.0491l3.40144-5.40071c.08554-4.99751,21.48966-8.76145,38.28077-8.73385Z" transform="translate(-48.19389 -52.21445)" fill="#b3b3b3"></path></g><g opacity="0.41935" style="mix-blend-mode: multiply"><path d="M113.96257,188.58137c16.731.04129,31.2788,3.25524,31.21085,8.24477l.79871,6.92474c-2.49662,4.43038-16.64231,6.49509-33.36543,6.463l-22.43976-.13666c-16.76942-.033-41.22412-1.86735-41.14559-6.853l3.5932-5.29831c.08509-4.98553,22.08934-8.71468,38.84079-8.68708Z" transform="translate(-48.19389 -52.21445)" fill="#adadad"></path></g><g opacity="0.45161" style="mix-blend-mode: multiply"><path d="M114.21405,188.57818c16.69122.04128,31.04428,3.29172,30.97658,8.26935l.6657,6.81328c-2.683,4.37634-16.31177,6.29854-32.995,6.26657L90.991,209.813c-16.72967-.03295-41.98442-1.68322-41.906-6.65688l3.785-5.19592c.08464-4.97353,22.689-8.66791,39.4008-8.6403Z" transform="translate(-48.19389 -52.21445)" fill="#a6a6a6"></path></g><g opacity="0.48387" style="mix-blend-mode: multiply"><path d="M114.46553,188.575c16.65146.04127,30.80976,3.32819,30.74231,8.29393l.53269,6.70182c-2.86932,4.32231-15.98122,6.102-32.62447,6.07012L91.815,209.54874c-16.68991-.033-42.7447-1.49909-42.66635-6.46078l3.97673-5.09352c.08418-4.96155,23.28869-8.62114,39.9608-8.59354Z" transform="translate(-48.19389 -52.21445)" fill="#a0a0a0"></path></g><g opacity="0.51613" style="mix-blend-mode: multiply"><path d="M114.717,188.5718c16.6117.04126,30.57523,3.36467,30.508,8.31851l.39968,6.59037c-3.05566,4.26826-15.65068,5.90543-32.254,5.87365l-20.73179-.06985c-16.65015-.033-43.505-1.315-43.42672-6.26467l4.16849-4.99112c.08373-4.94957,23.88836-8.57438,40.52081-8.54677Z" transform="translate(-48.19389 -52.21445)" fill="#9a9a9a"></path></g><g opacity="0.54839" style="mix-blend-mode: multiply"><path d="M114.9685,188.56861c16.57193.04126,30.3407,3.40114,30.27376,8.34309l.26667,6.47891c-3.242,4.21423-15.32013,5.70888-31.88351,5.67719L93.463,209.02022c-16.6104-.033-44.26528-1.13082-44.18711-6.06856l4.36026-4.88872c.08327-4.93758,24.488-8.52761,41.08082-8.5Z" transform="translate(-48.19389 -52.21445)" fill="#949494"></path></g><g opacity="0.58065" style="mix-blend-mode: multiply"><path d="M115.22,188.56542c16.53216.04125,30.10617,3.43762,30.03949,8.36767l.13366,6.36745c-3.42836,4.16019-14.98959,5.51233-31.513,5.48073L94.287,208.756c-16.57065-.033-45.02557-.94669-44.94749-5.87245l4.552-4.78633c.08282-4.92559,25.0877-8.48083,41.64083-8.45323Z" transform="translate(-48.19389 -52.21445)" fill="#8d8d8d"></path></g><g opacity="0.6129" style="mix-blend-mode: multiply"><path d="M115.47146,188.56223c16.4924.04124,29.87165,3.47409,29.80522,8.39225l.00065,6.256c-3.61471,4.10616-14.65905,5.31578-31.14255,5.28427l-19.02381-.003c-16.5309-.03295-45.78586-.76256-45.70787-5.67634l4.74379-4.68393c.08236-4.91361,25.68738-8.43407,42.20084-8.40646Z" transform="translate(-48.19389 -52.21445)" fill="#878787"></path></g><g opacity="0.64516" style="mix-blend-mode: multiply"><path d="M115.72294,188.559c16.45264.04123,29.63712,3.51057,29.571,8.41683l-.13236,6.14454c-3.80106,4.05211-14.3285,5.11922-30.77207,5.0878l-18.45449.01924c-16.49114-.033-46.54615-.57843-46.46825-5.48024l4.93556-4.58153c.08191-4.90163,26.28705-8.3873,42.76085-8.35969Z" transform="translate(-48.19389 -52.21445)" fill="#818181"></path></g><g opacity="0.67742" style="mix-blend-mode: multiply"><path d="M115.97442,188.55585c16.41288.04122,29.4026,3.547,29.33668,8.44141l-.26537,6.03308c-3.98741,3.99808-13.998,4.92267-30.40159,4.89134l-17.88517.04151c-16.45138-.033-47.30643-.3943-47.22862-5.28413l5.12732-4.47913c.08145-4.88964,26.88672-8.34053,43.32086-8.31293Z" transform="translate(-48.19389 -52.21445)" fill="#7a7a7a"></path></g><g opacity="0.70968" style="mix-blend-mode: multiply"><path d="M116.2259,188.55267c16.37312.0412,29.16808,3.5835,29.10241,8.466l-.39838,5.92162c-4.17376,3.944-13.66741,4.72612-30.03111,4.69488l-17.31584.06378c-16.41163-.033-48.06672-.21016-47.989-5.088l5.31909-4.37674c.081-4.87765,27.48639-8.29376,43.88087-8.26615Z" transform="translate(-48.19389 -52.21445)" fill="#747474"></path></g><g opacity="0.74194" style="mix-blend-mode: multiply"><path d="M116.47738,188.54948c16.33336.04119,28.93355,3.62,28.86814,8.49056l-.53139,5.81017c-4.36011,3.89-13.33687,4.52956-29.66063,4.49841l-16.74652.08605c-16.37187-.03295-48.827-.026-48.74938-4.89191l5.51085-4.27434c.08054-4.86567,28.08606-8.247,44.44088-8.21938Z" transform="translate(-48.19389 -52.21445)" fill="#6e6e6e"></path></g><g opacity="0.77419" style="mix-blend-mode: multiply"><path d="M116.72887,188.54629c16.29359.04119,28.699,3.65645,28.63386,8.51514l-.6644,5.69871c-4.54646,3.836-13.00633,4.333-29.29015,4.302l-16.17719.10833c-16.33213-.033-49.5873.15809-49.50977-4.69581l5.70262-4.17194c.08009-4.85369,28.68574-8.20022,45.00089-8.17262Z" transform="translate(-48.19389 -52.21445)" fill="#676767"></path></g><g opacity="0.80645" style="mix-blend-mode: multiply"><path d="M116.98035,188.5431c16.25383.04118,28.46449,3.69293,28.39959,8.53972l-.79741,5.58725c-4.73281,3.78193-12.67578,4.13646-28.91967,4.10549l-15.60787.1306c-16.29237-.033-50.34759.34223-50.27014-4.4997l5.89438-4.06954c.07964-4.8417,29.28541-8.15346,45.56089-8.12585Z" transform="translate(-48.19389 -52.21445)" fill="#616161"></path></g><g opacity="0.83871" style="mix-blend-mode: multiply"><path d="M117.23183,188.53991c16.21406.04117,28.23,3.7294,28.16532,8.5643l-.93042,5.4758c-4.91916,3.72788-12.34524,3.9399-28.54919,3.909l-15.03855.15286c-16.25261-.033-51.10787.52636-51.03052-4.30359l6.08614-3.96715c.07919-4.82971,29.88509-8.10668,46.12091-8.07907Z" transform="translate(-48.19389 -52.21445)" fill="#5b5b5b"></path></g><g opacity="0.87097" style="mix-blend-mode: multiply"><path d="M117.48331,188.53672c16.1743.04116,27.99544,3.76588,27.931,8.58888l-1.06343,5.36434c-5.1055,3.67385-12.01469,3.74335-28.17871,3.71257l-14.46922.17513c-16.21286-.03295-51.86817.7105-51.7909-4.10748l6.2779-3.86475c.07874-4.81773,30.48476-8.05991,46.68092-8.03231Z" transform="translate(-48.19389 -52.21445)" fill="#545454"></path></g><g opacity="0.90323" style="mix-blend-mode: multiply"><path d="M117.73479,188.53353c16.13454.04115,27.76092,3.80235,27.69678,8.61346l-1.19644,5.25288c-5.29185,3.61981-11.68415,3.5468-27.80823,3.51611l-13.8999.1974c-16.1731-.03295-52.62845.89463-52.55128-3.91137l6.46967-3.76235c.07828-4.80574,31.08444-8.01315,47.24093-7.98554Z" transform="translate(-48.19389 -52.21445)" fill="#4e4e4e"></path></g><g opacity="0.93548" style="mix-blend-mode: multiply"><path d="M117.98627,188.53034c16.09478.04114,27.52639,3.83882,27.46251,8.638l-1.32945,5.14143c-5.4782,3.56577-11.35361,3.35024-27.43775,3.31964l-13.33057.21968c-16.13336-.033-53.38875,1.07875-53.31166-3.71527l6.66143-3.66c.07783-4.79376,31.68411-7.96638,47.80094-7.93878Z" transform="translate(-48.19389 -52.21445)" fill="#484848"></path></g><g opacity="0.96774" style="mix-blend-mode: multiply"><path d="M118.23775,188.52715c16.055.04114,27.29187,3.8753,27.22824,8.66262l-1.46246,5.03c-5.66455,3.51173-11.02306,3.15369-27.06727,3.12318l-12.76125.242c-16.0936-.033-54.149,1.26289-54.072-3.51916l6.8532-3.55755c.07737-4.78178,32.28378-7.91961,48.361-7.892Z" transform="translate(-48.19389 -52.21445)" fill="#414141"></path></g><path d="M118.48923,188.524c16.01526.04113,27.05735,3.91177,26.994,8.68719l-1.59547,4.91852c-5.8509,3.4577-10.69252,2.95714-26.69679,2.92672l-12.19193.26422c-16.05384-.033-54.90932,1.447-54.83241-3.323l7.045-3.45516c.07692-4.76979,32.88345-7.87284,48.921-7.84523Z" transform="translate(-48.19389 -52.21445)" fill="#3b3b3b"></path></g></g><g><path d="M112.88566,177.40216c-8.005,0-15.00851,4.88556-18.94761,12.20291a14.46107,14.46107,0,0,0-10.48632-4.73148c-6.04639,0-11.29476,4.01346-13.9578,9.90577A10.43707,10.43707,0,0,0,61.37347,190.62c-6.18385,0-11.19589,5.93906-11.19589,13.26459,0,.21746,0,.43464.01662.6521h85.012c.01636-.42366.02732-.84731.02732-1.27378C135.23349,188.97776,125.23167,177.40216,112.88566,177.40216Z" transform="translate(-48.19389 -52.21445)" fill="url(#a077f72a-c427-4e93-b7f5-11e5675aaec7)"></path><path d="M125.39674,185.66316c-7.69144,0-14.42542,3.39178-18.216,8.4641a16.72507,16.72507,0,0,0-10.09029-3.28164c-5.79879,0-10.84378,2.77826-13.413,6.86327a11.64044,11.64044,0,0,0-7.81228-2.88277c-5.94188,0-10.76124,4.1236-10.76124,9.19338,0,.15127,0,.29972.00535.4538h81.74948c.01662-.29436.0276-.58872.0276-.8859C146.88627,193.69262,137.26924,185.66316,125.39674,185.66316Z" transform="translate(-48.19389 -52.21445)" fill="url(#b11e49cb-99c8-491b-9789-3d8167969042)"></path></g></g><g class="cloud c-1"><g opacity="0.6" style="mix-blend-mode: multiply"><g><g opacity="0" style="mix-blend-mode: multiply"><path d="M347.77991,68.43618c17.24789.04112,34.32763,2.78108,34.25608,7.925l2.52814,8.37368c-.07437,5.13316-20.93938,9.05028-38.18169,9.01733l-29.841-.42648c-17.28622-.03295-31.34037-4.26106-31.26066-9.40239l1.10027-6.62948c.091-5.14133,14.29359-9.32268,31.56037-9.29507Z" transform="translate(-48.19389 -52.21445)" fill="#fff"></path></g><g opacity="0.03226" style="mix-blend-mode: multiply"><path d="M348.03139,68.433c17.20813.04113,34.09311,2.81756,34.02182,7.94954l2.39512,8.26222c-.26072,5.07912-20.60884,8.85373-37.81121,8.82086l-29.27163-.40419c-17.24647-.033-32.10067-4.07693-32.021-9.20629l1.292-6.52708c.09053-5.12935,14.89326-9.27591,32.12039-9.2483Z" transform="translate(-48.19389 -52.21445)" fill="#f9f9f9"></path></g><g opacity="0.06452" style="mix-blend-mode: multiply"><path d="M348.28288,68.42978c17.16836.04113,33.85857,2.854,33.78755,7.97413l2.2621,8.15076c-.44707,5.02507-20.2783,8.65718-37.44073,8.62439l-28.70231-.38191c-17.20671-.033-32.86095-3.8928-32.78142-9.01018l1.4838-6.42468c.09007-5.11736,15.49293-9.22914,32.68041-9.20154Z" transform="translate(-48.19389 -52.21445)" fill="#f2f2f2"></path></g><g opacity="0.09677" style="mix-blend-mode: multiply"><path d="M348.53436,68.42658c17.12859.04113,33.62405,2.89051,33.55329,7.99872l2.12908,8.03931c-.63341,4.971-19.94775,8.46062-37.07024,8.42791l-28.133-.35963c-17.16695-.033-33.62124-3.70867-33.54179-8.81407l1.67556-6.32229c.08962-5.10537,16.0926-9.18237,33.24043-9.15476Z" transform="translate(-48.19389 -52.21445)" fill="#ececec"></path></g><g opacity="0.12903" style="mix-blend-mode: multiply"><path d="M348.78584,68.42338c17.08883.04113,33.38953,2.927,33.319,8.02331l1.99606,7.92785c-.81976,4.917-19.61721,8.26407-36.69976,8.23144l-27.56367-.33735c-17.12721-.03295-34.38153-3.52453-34.30218-8.618l1.86732-6.21989c.08918-5.09339,16.69229-9.1356,33.80045-9.108Z" transform="translate(-48.19389 -52.21445)" fill="#e6e6e6"></path></g><g opacity="0.16129" style="mix-blend-mode: multiply"><path d="M349.03732,68.42018c17.04907.04113,33.155,2.96346,33.08477,8.0479l1.863,7.81639c-1.00611,4.86293-19.28666,8.06752-36.32928,8.035l-26.99435-.31507c-17.08745-.033-35.14182-3.34041-35.06255-8.42186L287.658,77.465c.08872-5.08141,17.292-9.08883,34.36047-9.06123Z" transform="translate(-48.19389 -52.21445)" fill="#dfdfdf"></path></g><g opacity="0.19355" style="mix-blend-mode: multiply"><path d="M349.2888,68.417c17.00931.04112,32.92048,2.99992,32.85051,8.07248l1.73,7.70494c-1.19245,4.80888-18.95611,7.871-35.95879,7.8385l-26.425-.29279c-17.0477-.033-35.90211-3.15627-35.82294-8.22575l2.25085-6.01509c.08827-5.06942,17.89163-9.04207,34.92049-9.01446Z" transform="translate(-48.19389 -52.21445)" fill="#d9d9d9"></path></g><g opacity="0.22581" style="mix-blend-mode: multiply"><path d="M349.54028,68.41379c16.96955.04112,32.68595,3.0364,32.61625,8.09707l1.597,7.59348c-1.3788,4.75483-18.62557,7.67441-35.58831,7.642l-25.8557-.27051c-17.00794-.033-36.6624-2.97214-36.58331-8.02964l2.44261-5.9127c.08781-5.05743,18.4913-8.99529,35.48051-8.96769Z" transform="translate(-48.19389 -52.21445)" fill="#d3d3d3"></path></g><g opacity="0.25806" style="mix-blend-mode: multiply"><path d="M349.79176,68.41059c16.92979.04113,32.45143,3.07287,32.382,8.12166l1.464,7.482c-1.56514,4.70079-18.295,7.47786-35.21783,7.44556l-25.28638-.24823c-16.96818-.03295-37.42268-2.788-37.34369-7.83353l2.63438-5.8103c.08736-5.04545,19.091-8.94852,36.04053-8.92092Z" transform="translate(-48.19389 -52.21445)" fill="#ccc"></path></g><g opacity="0.29032" style="mix-blend-mode: multiply"><path d="M350.04324,68.40739c16.89.04113,32.2169,3.10935,32.14773,8.14625l1.331,7.37057c-1.75149,4.64673-17.96448,7.2813-34.84735,7.24908l-24.71705-.22594c-16.92844-.033-38.183-2.60388-38.10407-7.63743l2.82614-5.7079c.0869-5.03346,19.69065-8.90176,36.60054-8.87415Z" transform="translate(-48.19389 -52.21445)" fill="#c6c6c6"></path></g><g opacity="0.32258" style="mix-blend-mode: multiply"><path d="M350.29472,68.40419C367.145,68.44532,382.2771,71.55,382.20819,76.575l1.19793,7.25911c-1.93784,4.59269-17.63394,7.08475-34.47687,7.05262l-24.14773-.20367c-16.88868-.033-38.94326-2.41975-38.86445-7.44132l3.01791-5.6055c.08645-5.02148,20.29032-8.855,37.16056-8.82739Z" transform="translate(-48.19389 -52.21445)" fill="silver"></path></g><g opacity="0.35484" style="mix-blend-mode: multiply"><path d="M350.54621,68.401c16.8105.04113,31.74785,3.1823,31.6792,8.19543l1.06491,7.14765c-2.12419,4.53864-17.30339,6.8882-34.10639,6.85615l-23.5784-.18139c-16.84893-.033-39.70355-2.23561-39.62484-7.24521l3.20968-5.50311c.086-5.00949,20.89-8.80821,37.72058-8.78061Z" transform="translate(-48.19389 -52.21445)" fill="#b9b9b9"></path></g><g opacity="0.3871" style="mix-blend-mode: multiply"><path d="M350.79769,68.3978c16.77073.04112,31.51332,3.21877,31.44494,8.22l.93189,7.0362c-2.31054,4.48459-16.97285,6.69164-33.73591,6.65967l-23.00908-.15911c-16.80917-.033-40.46384-2.05148-40.38521-7.0491l3.40144-5.40071c.08554-4.99751,21.48966-8.76145,38.2806-8.73384Z" transform="translate(-48.19389 -52.21445)" fill="#b3b3b3"></path></g><g opacity="0.41935" style="mix-blend-mode: multiply"><path d="M351.04917,68.3946c16.731.04112,31.2788,3.25524,31.21067,8.2446l.79888,6.92474c-2.49689,4.43055-16.6423,6.49509-33.36543,6.4632l-22.43976-.13683c-16.76941-.03295-41.22412-1.86735-41.14559-6.853l3.59321-5.29831c.08509-4.98552,22.08934-8.71468,38.84062-8.68708Z" transform="translate(-48.19389 -52.21445)" fill="#adadad"></path></g><g opacity="0.45161" style="mix-blend-mode: multiply"><path d="M351.30065,68.3914c16.69121.04112,31.04427,3.29172,30.97641,8.26919l.66586,6.81328c-2.68323,4.3765-16.31176,6.29854-32.995,6.26673l-21.87043-.11454c-16.72966-.033-41.98442-1.68322-41.906-6.65689l3.785-5.19591c.08463-4.97354,22.689-8.66791,39.40063-8.64031Z" transform="translate(-48.19389 -52.21445)" fill="#a6a6a6"></path></g><g opacity="0.48387" style="mix-blend-mode: multiply"><path d="M351.55213,68.3882c16.65145.04113,30.80975,3.32819,30.74215,8.29378l.53284,6.70183c-2.86958,4.32245-15.98122,6.102-32.62447,6.07025l-21.30111-.09226c-16.68991-.033-42.7447-1.49909-42.66635-6.46078l3.97674-5.09352c.08418-4.96155,23.28868-8.62114,39.96065-8.59353Z" transform="translate(-48.19389 -52.21445)" fill="#a0a0a0"></path></g><g opacity="0.51613" style="mix-blend-mode: multiply"><path d="M351.80361,68.385c16.61169.04113,30.57522,3.36467,30.50789,8.31837l.39982,6.59037c-3.05593,4.2684-15.65067,5.90543-32.254,5.87379l-20.73178-.07c-16.65016-.033-43.505-1.31495-43.42673-6.26467l4.1685-4.99112c.08372-4.94956,23.88835-8.57437,40.52067-8.54677Z" transform="translate(-48.19389 -52.21445)" fill="#9a9a9a"></path></g><g opacity="0.54839" style="mix-blend-mode: multiply"><path d="M352.05509,68.3818c16.57193.04113,30.3407,3.40114,30.27363,8.343l.2668,6.47891C379.35324,87.418,367.27539,88.91255,350.712,88.881l-20.16246-.04771c-16.6104-.03295-44.26528-1.13082-44.18711-6.06856L290.7227,77.876c.08328-4.93758,24.488-8.52761,41.0807-8.5Z" transform="translate(-48.19389 -52.21445)" fill="#949494"></path></g><g opacity="0.58065" style="mix-blend-mode: multiply"><path d="M352.30657,68.3786c16.53217.04113,30.10618,3.43762,30.03937,8.36755l.13378,6.36745c-3.42863,4.16032-14.98958,5.51233-31.513,5.48085L331.37355,88.569c-16.57064-.033-45.02556-.9467-44.94748-5.87246l4.552-4.78632c.08282-4.9256,25.08771-8.48084,41.64072-8.45323Z" transform="translate(-48.19389 -52.21445)" fill="#8d8d8d"></path></g><g opacity="0.6129" style="mix-blend-mode: multiply"><path d="M352.55805,68.37541c16.49241.04112,29.87165,3.47408,29.80511,8.39213l.00076,6.256c-3.615,4.10626-14.659,5.31577-31.14255,5.28437l-19.02381-.00314c-16.53089-.033-45.78586-.76256-45.70787-5.67635l4.74379-4.68392c.08237-4.91362,25.68738-8.43407,42.20073-8.40647Z" transform="translate(-48.19389 -52.21445)" fill="#878787"></path></g><g opacity="0.64516" style="mix-blend-mode: multiply"><path d="M352.80954,68.37221c16.45263.04112,29.63712,3.51056,29.57084,8.41672l-.13226,6.14454c-3.80132,4.05222-14.3285,5.11922-30.77207,5.0879l-18.45449.01914c-16.49114-.033-46.54614-.57843-46.46824-5.48024l4.93555-4.58153c.08192-4.90162,26.287-8.3873,42.76075-8.35969Z" transform="translate(-48.19389 -52.21445)" fill="#818181"></path></g><g opacity="0.67742" style="mix-blend-mode: multiply"><path d="M353.061,68.369c16.41287.04113,29.40259,3.547,29.33658,8.44131l-.26528,6.03308c-3.98767,3.99817-13.998,4.92267-30.40159,4.89144l-17.88516.04141c-16.45139-.033-47.30644-.39429-47.22863-5.28413l5.12732-4.47913c.08146-4.88964,26.88672-8.34053,43.32077-8.31292Z" transform="translate(-48.19389 -52.21445)" fill="#7a7a7a"></path></g><g opacity="0.70968" style="mix-blend-mode: multiply"><path d="M353.3125,68.36581c16.37311.04113,29.16807,3.58351,29.10232,8.4659l-.3983,5.92163c-4.174,3.94412-13.66741,4.72611-30.03111,4.695l-17.31584.06369c-16.41163-.03295-48.06672-.21016-47.989-5.088l5.31908-4.37673c.081-4.87766,27.48639-8.29376,43.88079-8.26616Z" transform="translate(-48.19389 -52.21445)" fill="#747474"></path></g><g opacity="0.74194" style="mix-blend-mode: multiply"><path d="M353.564,68.36261c16.33335.04113,28.93354,3.62,28.86806,8.49049l-.53132,5.81017c-4.36037,3.89007-13.33687,4.52956-29.66063,4.49849l-16.74652.086c-16.37187-.033-48.827-.026-48.74938-4.89192l5.51085-4.27433c.08055-4.86567,28.08607-8.247,44.44081-8.21939Z" transform="translate(-48.19389 -52.21445)" fill="#6e6e6e"></path></g><g opacity="0.77419" style="mix-blend-mode: multiply"><path d="M353.81546,68.35941c16.29359.04113,28.699,3.65646,28.6338,8.51508l-.66434,5.69871c-4.54672,3.836-13.00632,4.333-29.29015,4.302l-16.17719.10826c-16.33212-.033-49.5873.1581-49.50976-4.69581l5.70261-4.17194c.0801-4.85368,28.68574-8.20022,45.00082-8.17261Z" transform="translate(-48.19389 -52.21445)" fill="#676767"></path></g><g opacity="0.80645" style="mix-blend-mode: multiply"><path d="M354.06694,68.35622c16.25383.04112,28.46449,3.69292,28.39953,8.53966l-.79735,5.58726c-4.73306,3.782-12.67578,4.13646-28.91967,4.10554l-15.60787.13054c-16.29237-.033-50.34759.34223-50.27014-4.4997L292.76582,78.15c.07964-4.8417,29.28541-8.15345,45.56084-8.12585Z" transform="translate(-48.19389 -52.21445)" fill="#616161"></path></g><g opacity="0.83871" style="mix-blend-mode: multiply"><path d="M354.31842,68.353c16.21407.04112,28.23,3.7294,28.16527,8.56425l-.93037,5.4758c-4.91941,3.72793-12.34523,3.93991-28.54919,3.90907l-15.03854.15282c-16.25262-.03295-51.10788.52637-51.03053-4.30359l6.08615-3.96714c.07919-4.82972,29.88508-8.10669,46.12086-8.07908Z" transform="translate(-48.19389 -52.21445)" fill="#5b5b5b"></path></g><g opacity="0.87097" style="mix-blend-mode: multiply"><path d="M354.5699,68.34982c16.17431.04112,27.99545,3.76588,27.931,8.58884L381.43752,82.303c-5.10576,3.67389-12.01469,3.74336-28.1787,3.71261l-14.46923.1751c-16.21286-.033-51.86816.71049-51.7909-4.10749l6.27791-3.86474c.07873-4.81773,30.48476-8.05992,46.68088-8.03232Z" transform="translate(-48.19389 -52.21445)" fill="#545454"></path></g><g opacity="0.90323" style="mix-blend-mode: multiply"><path d="M354.82138,68.34662c16.13454.04113,27.76092,3.80235,27.69675,8.61343l-1.19641,5.25289c-5.29211,3.61983-11.68415,3.5468-27.80822,3.51613l-13.89991.19738c-16.1731-.033-52.62845.89462-52.55128-3.91138l6.46968-3.76235c.07828-4.80574,31.08443-8.01314,47.2409-7.98554Z" transform="translate(-48.19389 -52.21445)" fill="#4e4e4e"></path></g><g opacity="0.93548" style="mix-blend-mode: multiply"><path d="M355.07287,68.34342c16.09477.04113,27.52639,3.83883,27.46248,8.638l-1.32943,5.14143c-5.47846,3.56579-11.3536,3.35025-27.43774,3.31966l-13.33058.21966c-16.13335-.033-53.38874,1.07876-53.31166-3.71526l6.66143-3.66c.07784-4.79376,31.68411-7.96638,47.80092-7.93877Z" transform="translate(-48.19389 -52.21445)" fill="#484848"></path></g><g opacity="0.96774" style="mix-blend-mode: multiply"><path d="M355.32435,68.34022c16.055.04113,27.29186,3.8753,27.22822,8.66261l-1.46245,5.03c-5.66481,3.51175-11.02306,3.1537-27.06726,3.12319l-12.76126.24194c-16.0936-.033-54.149,1.26289-54.072-3.51915l6.8532-3.55756c.07738-4.78177,32.28378-7.91961,48.36094-7.892Z" transform="translate(-48.19389 -52.21445)" fill="#414141"></path></g><path d="M355.57583,68.337c16.01525.04113,27.05734,3.91178,26.994,8.6872l-1.59547,4.91852c-5.85115,3.45769-10.69252,2.95714-26.69678,2.92671l-12.19193.26422c-16.05385-.03295-54.90932,1.447-54.83242-3.323l7.045-3.45516c.07693-4.76979,32.88345-7.87284,48.921-7.84524Z" transform="translate(-48.19389 -52.21445)" fill="#3b3b3b"></path></g></g><g><path d="M349.45254,52.21445c-8.357,0-15.6578,6.03794-19.77858,15.07724-2.91038-3.62558-6.73962-5.84273-10.94293-5.84273-6.305,0-11.779,4.95147-14.55753,12.23841-2.129-3.16334-5.13852-5.13852-8.4779-5.13852-6.45343,0-11.68011,7.3337-11.68011,16.384,0,.26141,0,.53915.011.80591h88.70909c.022-.52817.02761-1.05069.02761-1.58167C372.76318,66.51592,362.33181,52.21445,349.45254,52.21445Z" transform="translate(-48.19389 -52.21445)" fill="url(#ed129571-82c1-4468-a8ee-124d28287339)"></path><path d="M362.50248,62.41993a22.46462,22.46462,0,0,0-19.0138,10.4559,15.75921,15.75921,0,0,0-24.5154,4.42331,11.15636,11.15636,0,0,0-8.15368-3.55684,11.29318,11.29318,0,0,0-11.23448,11.35q0,.289.01662.5614h85.29252c.022-.35774.02761-.72084.02761-1.08956A22.28128,22.28128,0,0,0,362.50248,62.41993Z" transform="translate(-48.19389 -52.21445)" fill="url(#b8cc2082-f181-4ffa-bb7e-ddfc6600deaa)"></path></g></g><g class="building b-16"><polygon points="151.552 321.133 142.046 305.428 107.038 305.428 97.531 321.133 151.552 321.133" fill="#0041c6"></polygon><rect x="97.53127" y="321.13295" width="54.01018" height="209.01406" fill="url(#e1442df9-35d2-4e92-9ea4-b9fe6dbdc2c0)"></rect><rect x="68.66973" y="321.13295" width="54.0099" height="209.01406" fill="url(#aaf861a3-af63-4708-b2c0-6e840720570d)"></rect><polygon points="122.68 321.133 113.184 305.428 78.165 305.428 68.67 321.133 122.68 321.133" fill="#008de5"></polygon><g><g><rect x="78.8862" y="332.86798" width="12.79136" height="16.43074" fill="#ece8e1"></rect><rect x="99.66054" y="332.86798" width="12.79699" height="16.43074" fill="#ece8e1"></rect></g><g><rect x="78.8862" y="360.24983" width="12.79136" height="16.43609" fill="#ece8e1"></rect><rect x="99.66054" y="360.24983" width="12.79699" height="16.43609" fill="#2d2d25"></rect></g><g><rect x="78.8862" y="387.65928" width="12.79136" height="16.43074" fill="#2d2d25"></rect><rect x="99.66054" y="387.65928" width="12.79699" height="16.43074" fill="#ece8e1"></rect></g><g><rect x="78.8862" y="415.03549" width="12.79136" height="16.43356" fill="#ece8e1"></rect><rect x="99.66054" y="415.03549" width="12.79699" height="16.43356" fill="#2d2d25"></rect><rect x="130.53585" y="332.86798" width="12.79164" height="16.43074" fill="#ece8e1"></rect><rect x="130.53585" y="360.24983" width="12.79164" height="16.43609" fill="#ece8e1"></rect><rect x="130.53585" y="387.65928" width="12.79164" height="16.43074" fill="#ece8e1"></rect><rect x="130.53585" y="415.03549" width="12.79164" height="16.43356" fill="#ece8e1"></rect><rect x="78.8862" y="441.2289" width="12.79136" height="16.44173" fill="#2d2d25"></rect><rect x="99.66054" y="441.2289" width="12.79699" height="16.44173" fill="#2d2d25"></rect><rect x="130.53585" y="441.2289" width="12.79164" height="16.44173" fill="#ece8e1"></rect><rect x="78.8862" y="467.42795" width="12.79136" height="16.43356" fill="#2d2d25"></rect><rect x="99.66054" y="467.42795" width="12.79699" height="16.43356" fill="#2d2d25"></rect><rect x="130.53585" y="467.42795" width="12.79164" height="16.43356" fill="#ece8e1"></rect><rect x="78.8862" y="493.62136" width="12.79136" height="16.43919" fill="#2d2d25"></rect><rect x="99.66054" y="493.62136" width="12.79699" height="16.43919" fill="#2d2d25"></rect><rect x="130.53585" y="493.62136" width="12.79164" height="16.43919" fill="#ece8e1"></rect></g></g></g><g class="building b-15"><g><rect x="798.20304" y="259.04909" width="88.57163" height="10.77223" fill="#2d2d25"></rect><rect x="802.16443" y="269.77738" width="80.65453" height="260.36963" fill="url(#a2442102-cff4-4025-9c0a-5e06f5d32479)"></rect><rect x="798.20304" y="264.92506" width="88.57163" height="7.83988" fill="#ece8e1"></rect><g><rect x="812.08931" y="283.57013" width="8.92916" height="19.80618" fill="#ece8e1"></rect><rect x="826.57533" y="283.57013" width="8.94011" height="19.80618" fill="#ece8e1"></rect><rect x="849.46231" y="283.57013" width="8.92381" height="19.80618" fill="#2d2d25"></rect><rect x="863.95924" y="283.57013" width="8.91818" height="19.80618" fill="#2d2d25"></rect></g><g><rect x="812.08931" y="313.44151" width="8.92916" height="19.80337" fill="#2d2d25"></rect><rect x="826.57533" y="313.44151" width="8.94011" height="19.80337" fill="#2d2d25"></rect><rect x="849.46231" y="313.44151" width="8.92381" height="19.80337" fill="#ece8e1"></rect><rect x="863.95924" y="313.44151" width="8.91818" height="19.80337" fill="#ece8e1"></rect></g><g><rect x="812.08931" y="344.95513" width="8.92916" height="19.80618" fill="#2d2d25"></rect><rect x="826.57533" y="344.95513" width="8.94011" height="19.80618" fill="#ece8e1"></rect><rect x="849.46231" y="344.95513" width="8.92381" height="19.80618" fill="#ece8e1"></rect><rect x="863.95924" y="344.95513" width="8.91818" height="19.80618" fill="#2d2d25"></rect></g><g><rect x="812.08931" y="374.82088" width="8.92916" height="19.81154" fill="#2d2d25"></rect><rect x="826.57533" y="374.82088" width="8.94011" height="19.81154" fill="#2d2d25"></rect><rect x="849.46231" y="374.82088" width="8.92381" height="19.81154" fill="#ece8e1"></rect><rect x="863.95924" y="374.82088" width="8.91818" height="19.81154" fill="#2d2d25"></rect></g><g><rect x="812.08931" y="405.88351" width="8.92916" height="19.80337" fill="#2d2d25"></rect><rect x="826.57533" y="405.88351" width="8.94011" height="19.80337" fill="#2d2d25"></rect><rect x="849.46231" y="405.88351" width="8.92381" height="19.80337" fill="#2d2d25"></rect><rect x="863.95924" y="405.88351" width="8.91818" height="19.80337" fill="#ece8e1"></rect></g><g><rect x="812.08931" y="435.74391" width="8.92916" height="19.81407" fill="#2d2d25"></rect><rect x="826.57533" y="435.74391" width="8.94011" height="19.81407" fill="#2d2d25"></rect><rect x="849.46231" y="435.74391" width="8.92381" height="19.81407" fill="#2d2d25"></rect><rect x="863.95924" y="435.74391" width="8.91818" height="19.81407" fill="#2d2d25"></rect></g><g><rect x="812.08931" y="467.26006" width="8.92916" height="19.80618" fill="#2d2d25"></rect><rect x="826.57533" y="467.26006" width="8.94011" height="19.80618" fill="#2d2d25"></rect><rect x="849.46231" y="467.26006" width="8.92381" height="19.80618" fill="#2d2d25"></rect><rect x="863.95924" y="467.26006" width="8.91818" height="19.80618" fill="#2d2d25"></rect></g><g><rect x="812.08931" y="497.13145" width="8.92916" height="19.81154" fill="#2d2d25"></rect><rect x="826.57533" y="497.13145" width="8.94011" height="19.81154" fill="#2d2d25"></rect><rect x="849.46231" y="497.13145" width="8.92381" height="19.81154" fill="#2d2d25"></rect><rect x="863.95924" y="497.13145" width="8.91818" height="19.81154" fill="#2d2d25"></rect></g></g><g><path d="M885.73944,264.66705c-19.45379,2.88587-34.51751,22.414-34.51751,46.1179,0,.553.0662,1.10027.07159,1.62843h64.03393C918.49642,289.75484,902.91581,274.31423,885.73944,264.66705Z" transform="translate(-48.19389 -52.21445)" fill="url(#ffb34a4e-d03b-4abc-99f1-82f472648c60)"></path><path d="M930.13821,310.785c0-25.69-17.644-46.52494-39.45264-46.52494a33.787,33.787,0,0,0-4.94613.407c17.17637,9.64718,32.61416,24.96667,29.588,47.74633H930.072C930.083,311.88522,930.13821,311.3379,930.13821,310.785Z" transform="translate(-48.19389 -52.21445)" fill="url(#ab0047d1-ed9e-4c71-b1ca-1bbb7a69a50c)"></path></g><path d="M930.11878,311.26354c.00817-.16226.01943-.31634.01943-.47859,0-25.69-17.644-46.52494-39.45264-46.52494a33.787,33.787,0,0,0-4.94613.407,83.66364,83.66364,0,0,1,12.30742,8.34072,83.71709,83.71709,0,0,0-12.30742-8.34072c-19.45379,2.88587-34.51751,22.414-34.51751,46.1179,0,.16225.011.31633.022.47859h-4.847v13.71585h3.96139V582.36146h80.65453V324.97939h3.95572V311.26354Z" transform="translate(-48.19389 -52.21445)" opacity="0.9" fill="url(#f1ac39ec-5ee9-481b-bddf-e29428a7a57f)" style="mix-blend-mode: color-dodge"></path></g><g class="building b-14"><g><polygon points="573.625 418.05 573.625 145.649 516.38 87.202 491.699 146.325 491.699 418.05 573.625 418.05" fill="url(#b2b5aaa9-062d-40fe-b389-a160caffadf8)"></polygon><polygon points="550.347 418.05 550.347 146.68 516.38 87.202 468.416 146.325 468.416 418.05 550.347 418.05" fill="url(#ae0447ff-5143-4168-8bb5-aaa8325e57d6)"></polygon><rect x="468.41614" y="146.68006" width="81.93089" height="271.37031" fill="url(#ad4c0bc5-1c7e-40f7-a34d-e8f33b9786c5)"></rect><g><rect x="481.23483" y="160.50324" width="7.74101" height="223.37356" fill="#30333d"></rect><rect x="496.90361" y="160.50324" width="7.74636" height="223.37356" fill="#30333d"></rect><rect x="512.58365" y="160.50324" width="7.74636" height="223.37356" fill="#30333d"></rect><rect x="528.26342" y="160.50324" width="7.74636" height="223.37356" fill="#30333d"></rect><rect x="558.53367" y="160.50324" width="7.74636" height="248.67037" fill="#30333d"></rect></g></g><polygon points="516.38 87.202 468.416 146.325 468.416 146.68 468.416 418.05 491.699 418.05 550.347 418.05 573.625 418.05 573.625 145.649 516.38 87.202" fill="url(#eb076da4-1234-437c-b768-ef1b17af6bd3)" style="mix-blend-mode: color-dodge"></polygon></g><g class="building b-13"><rect x="597.73308" y="207.19324" width="75.21887" height="252.41961" fill="#9c3074"></rect><rect x="597.58438" y="224.25383" width="75.29039" height="235.35902" fill="url(#a1c8ab86-2ca1-4126-8c8a-3c1e2e8eba22)"></rect><rect x="571.67713" y="207.19324" width="75.21887" height="252.41961" fill="url(#a250127e-af79-4524-b8c6-1fb94497ffc8)"></rect><rect x="571.67713" y="224.25383" width="75.03719" height="235.06184" fill="url(#a8e4a402-60b3-4ccc-ba88-94abfe9c1be7)"></rect><g><rect x="624.71324" y="224.25383" width="2.80027" height="234.67396" fill="url(#a6cc46f6-25cc-4dd9-a32f-56781e105725)"></rect><rect x="644.02957" y="224.25383" width="2.80587" height="234.67396" fill="url(#acdec271-3af0-43be-bfa5-0ecc25ae2e2a)"></rect><rect x="605.40226" y="224.25383" width="2.78954" height="234.67396" fill="url(#ffacc440-94e7-4f9d-99a3-ba851d7f535d)"></rect><rect x="586.07495" y="224.25383" width="2.79489" height="234.67396" fill="url(#aeeaf6c2-5325-4923-adca-4b72436cea70)"></rect></g><g><rect x="575.5613" y="236.54999" width="6.80553" height="7.21285" fill="#ece8e1"></rect><rect x="594.04694" y="236.54999" width="6.81088" height="7.21285" fill="#ece8e1"></rect><rect x="612.53258" y="236.54999" width="6.80553" height="7.21285" fill="#2d2d25"></rect><rect x="631.02357" y="236.54999" width="6.80553" height="7.21285" fill="#2d2d25"></rect></g><g><rect x="575.5613" y="260.98314" width="6.80553" height="7.22074" fill="#2d2d25"></rect><rect x="594.04694" y="260.98314" width="6.81088" height="7.22074" fill="#ece8e1"></rect><rect x="612.53258" y="260.98314" width="6.80553" height="7.22074" fill="#2d2d25"></rect><rect x="631.02357" y="260.98314" width="6.80553" height="7.22074" fill="#2d2d25"></rect></g><g><rect x="575.5613" y="285.41602" width="6.80553" height="7.21003" fill="#2d2d25"></rect><rect x="594.04694" y="285.41602" width="6.81088" height="7.21003" fill="#ece8e1"></rect><rect x="612.53258" y="285.41602" width="6.80553" height="7.21003" fill="#ece8e1"></rect><rect x="631.02357" y="285.41602" width="6.80553" height="7.21003" fill="#ece8e1"></rect></g><g><rect x="575.5613" y="309.84072" width="6.80553" height="7.2182" fill="#2d2d25"></rect><rect x="594.04694" y="309.84072" width="6.81088" height="7.2182" fill="#2d2d25"></rect><rect x="612.53258" y="309.84072" width="6.80553" height="7.2182" fill="#2d2d25"></rect><rect x="631.02357" y="309.84072" width="6.80553" height="7.2182" fill="#2d2d25"></rect></g><g><rect x="575.5613" y="334.27078" width="6.80553" height="7.2182" fill="#2d2d25"></rect><rect x="594.04694" y="334.27078" width="6.81088" height="7.2182" fill="#2d2d25"></rect><rect x="612.53258" y="334.27078" width="6.80553" height="7.2182" fill="#ece8e1"></rect><rect x="631.02357" y="334.27078" width="6.80553" height="7.2182" fill="#2d2d25"></rect></g><g><rect x="575.5613" y="358.70394" width="6.80553" height="7.21257" fill="#2d2d25"></rect><rect x="594.04694" y="358.70394" width="6.81088" height="7.21257" fill="#2d2d25"></rect><rect x="612.53258" y="358.70394" width="6.80553" height="7.21257" fill="#2d2d25"></rect><rect x="631.02357" y="358.70394" width="6.80553" height="7.21257" fill="#2d2d25"></rect></g><g><rect x="575.5613" y="383.13399" width="6.80553" height="7.21285" fill="#2d2d25"></rect><rect x="594.04694" y="383.13399" width="6.81088" height="7.21285" fill="#2d2d25"></rect><rect x="612.53258" y="383.13399" width="6.80553" height="7.21285" fill="#2d2d25"></rect><rect x="631.02357" y="383.13399" width="6.80553" height="7.21285" fill="#2d2d25"></rect></g><g><rect x="575.5613" y="407.56152" width="6.80553" height="7.2182" fill="#2d2d25"></rect><rect x="594.04694" y="407.56152" width="6.81088" height="7.2182" fill="#2d2d25"></rect><rect x="612.53258" y="407.56152" width="6.80553" height="7.2182" fill="#2d2d25"></rect><rect x="631.02357" y="407.56152" width="6.80553" height="7.2182" fill="#2d2d25"></rect></g><g><rect x="575.5613" y="431.99721" width="6.80553" height="7.21257" fill="#2d2d25"></rect><rect x="594.04694" y="431.99721" width="6.81088" height="7.21257" fill="#2d2d25"></rect><rect x="612.53258" y="431.99721" width="6.80553" height="7.21257" fill="#2d2d25"></rect><rect x="631.02357" y="431.99721" width="6.80553" height="7.21257" fill="#2d2d25"></rect></g><g><rect x="656.85392" y="236.54999" width="6.17846" height="7.21285" fill="#ece8e1"></rect><rect x="656.85392" y="261.04906" width="6.17846" height="7.21003" fill="#ece8e1"></rect><rect x="656.85392" y="285.53714" width="6.17846" height="7.22074" fill="#ece8e1"></rect><rect x="656.85392" y="310.03593" width="6.17846" height="7.2182" fill="#ece8e1"></rect><rect x="656.85392" y="334.535" width="6.17846" height="7.21003" fill="#ece8e1"></rect><rect x="656.85392" y="359.03126" width="6.17846" height="7.21257" fill="#ece8e1"></rect><rect x="656.85392" y="383.52751" width="6.17846" height="7.20722" fill="#ece8e1"></rect><rect x="656.85392" y="408.02095" width="6.17846" height="7.21539" fill="#ece8e1"></rect><rect x="656.85392" y="432.51157" width="6.17846" height="7.21539" fill="#ece8e1"></rect></g></g><g class="building b-12"><polygon points="783.844 159.997 783.844 346.93 720.387 346.93 720.387 160.517 739.5 114.729 783.844 159.997" fill="url(#afb5006f-f12d-4f04-82c1-c85cbd0d7ee0)"></polygon><polygon points="765.809 160.792 765.809 346.93 702.358 346.93 702.358 160.517 739.5 114.729 765.809 160.792" fill="url(#ffa77601-b199-4e14-9610-bf89181d0907)"></polygon><rect x="686.48612" y="190.80898" width="79.32304" height="284.83574" fill="url(#b37b45a6-41b4-413b-92fc-7172d5b5d8fa)"></rect><rect x="765.80916" y="190.80898" width="26.33116" height="284.83574" fill="url(#eae4460a-da65-4b37-9912-bc4d4331afa4)"></rect><rect x="702.35828" y="160.79196" width="63.45088" height="301.99267" fill="url(#ad1f592a-f78a-434b-b411-d52f007345e9)"></rect><g><g><rect x="696.94484" y="209.19856" width="5.77118" height="7.93594" fill="#ece8e1"></rect><rect x="713.89532" y="209.19856" width="5.77143" height="7.93594" fill="#ece8e1"></rect><rect x="730.83503" y="209.19856" width="5.7878" height="7.93594" fill="#ece8e1"></rect><rect x="747.78013" y="209.19856" width="5.76583" height="7.93594" fill="#ece8e1"></rect></g><g><rect x="696.94484" y="228.30588" width="5.77118" height="7.93622" fill="#ece8e1"></rect><rect x="713.89532" y="228.30588" width="5.77143" height="7.93622" fill="#ece8e1"></rect><rect x="730.83503" y="228.30588" width="5.7878" height="7.93622" fill="#ece8e1"></rect><rect x="747.78013" y="228.30588" width="5.76583" height="7.93622" fill="#ece8e1"></rect></g><g><rect x="696.94484" y="247.41321" width="5.77118" height="7.92777" fill="#ece8e1"></rect><rect x="713.89532" y="247.41321" width="5.77143" height="7.92777" fill="#2d2d25"></rect><rect x="730.83503" y="247.41321" width="5.7878" height="7.92777" fill="#ece8e1"></rect><rect x="747.78013" y="247.41321" width="5.76583" height="7.92777" fill="#2d2d25"></rect></g><g><rect x="696.94484" y="266.53686" width="5.77118" height="7.90608" fill="#ece8e1"></rect><rect x="713.89532" y="266.53686" width="5.77143" height="7.90608" fill="#ece8e1"></rect><rect x="730.83503" y="266.53686" width="5.7878" height="7.90608" fill="#ece8e1"></rect><rect x="747.78013" y="266.53686" width="5.76583" height="7.90608" fill="#2d2d25"></rect></g><g><rect x="696.94484" y="285.63601" width="5.77118" height="7.92805" fill="#ece8e1"></rect><rect x="713.89532" y="285.63601" width="5.77143" height="7.92805" fill="#ece8e1"></rect><rect x="730.83503" y="285.63601" width="5.7878" height="7.92805" fill="#ece8e1"></rect><rect x="747.78013" y="285.63601" width="5.76583" height="7.92805" fill="#2d2d25"></rect></g><g><rect x="696.94484" y="304.73798" width="5.77118" height="7.94157" fill="#ece8e1"></rect><rect x="713.89532" y="304.73798" width="5.77143" height="7.94157" fill="#2d2d25"></rect><rect x="730.83503" y="304.73798" width="5.7878" height="7.94157" fill="#ece8e1"></rect><rect x="747.78013" y="304.73798" width="5.76583" height="7.94157" fill="#ece8e1"></rect></g><g><rect x="696.94484" y="323.85629" width="5.77118" height="7.9334" fill="#ece8e1"></rect><rect x="713.89532" y="323.85629" width="5.77143" height="7.9334" fill="#ece8e1"></rect><rect x="730.83503" y="323.85629" width="5.7878" height="7.9334" fill="#2d2d25"></rect><rect x="747.78013" y="323.85629" width="5.76583" height="7.9334" fill="#ece8e1"></rect></g><g><rect x="696.94484" y="342.95516" width="5.77118" height="7.94185" fill="#ece8e1"></rect><rect x="713.89532" y="342.95516" width="5.77143" height="7.94185" fill="#2d2d25"></rect><rect x="730.83503" y="342.95516" width="5.7878" height="7.94185" fill="#ece8e1"></rect><rect x="747.78013" y="342.95516" width="5.76583" height="7.94185" fill="#ece8e1"></rect></g><g><rect x="696.94484" y="362.06529" width="5.77118" height="7.9334" fill="#ece8e1"></rect><rect x="713.89532" y="362.06529" width="5.77143" height="7.9334" fill="#ece8e1"></rect><rect x="730.83503" y="362.06529" width="5.7878" height="7.9334" fill="#2d2d25"></rect><rect x="747.78013" y="362.06529" width="5.76583" height="7.9334" fill="#2d2d25"></rect></g><g><rect x="696.94484" y="381.18107" width="5.77118" height="7.93059" fill="#ece8e1"></rect><rect x="713.89532" y="381.18107" width="5.77143" height="7.93059" fill="#ece8e1"></rect><rect x="730.83503" y="381.18107" width="5.7878" height="7.93059" fill="#ece8e1"></rect><rect x="747.78013" y="381.18107" width="5.76583" height="7.93059" fill="#2d2d25"></rect></g><g><rect x="696.94484" y="400.29092" width="5.77118" height="7.9334" fill="#ece8e1"></rect><rect x="713.89532" y="400.29092" width="5.77143" height="7.9334" fill="#ece8e1"></rect><rect x="730.83503" y="400.29092" width="5.7878" height="7.9334" fill="#ece8e1"></rect><rect x="747.78013" y="400.29092" width="5.76583" height="7.9334" fill="#ece8e1"></rect></g><g><rect x="696.94484" y="419.40669" width="5.77118" height="7.91397" fill="#ece8e1"></rect><rect x="713.89532" y="419.40669" width="5.77143" height="7.91397" fill="#ece8e1"></rect><rect x="730.83503" y="419.40669" width="5.7878" height="7.91397" fill="#ece8e1"></rect><rect x="747.78013" y="419.40669" width="5.76583" height="7.91397" fill="#ece8e1"></rect></g></g><g><rect x="777.34082" y="209.19856" width="5.77118" height="7.93594" fill="#2d2d25"></rect><rect x="777.34082" y="228.30588" width="5.77118" height="7.93622" fill="#ece8e1"></rect><rect x="777.34082" y="247.41321" width="5.77118" height="7.92777" fill="#ece8e1"></rect><rect x="777.34082" y="266.53686" width="5.77118" height="7.90608" fill="#ece8e1"></rect><rect x="777.34082" y="285.63601" width="5.77118" height="7.92805" fill="#2d2d25"></rect><rect x="777.34082" y="304.73798" width="5.77118" height="7.94157" fill="#2d2d25"></rect><rect x="777.34082" y="323.85629" width="5.77118" height="7.9334" fill="#2d2d25"></rect><rect x="777.34082" y="342.95516" width="5.77118" height="7.94185" fill="#2d2d25"></rect><rect x="777.34082" y="362.06529" width="5.77118" height="7.9334" fill="#2d2d25"></rect><rect x="777.34082" y="381.18107" width="5.77118" height="7.93059" fill="#2d2d25"></rect><rect x="777.34082" y="400.29092" width="5.77118" height="7.9334" fill="#2d2d25"></rect><rect x="777.34082" y="419.40669" width="5.77118" height="7.91397" fill="#2d2d25"></rect></g><g><rect x="713.89532" y="171.69067" width="5.77143" height="7.93904" fill="#ece8e1"></rect><rect x="730.83503" y="171.69067" width="5.7878" height="7.93904" fill="#ece8e1"></rect><rect x="747.78013" y="171.69067" width="5.76583" height="7.93904" fill="#ece8e1"></rect></g><rect x="771.59161" y="171.69067" width="5.74921" height="7.93904" fill="#30333d"></rect></g><g class="building b-11"><path d="M289.154,248.32729V217.74324l-40.41517-41.25966V131.2927a2.13237,2.13237,0,0,0-3.0591-1.9256,2.12761,2.12761,0,0,0-3.05348,1.9256v44.61849l-34.3578,42.363v30.05307h-15.746V531.05574h104.8621V248.32729Z" transform="translate(-48.19389 -52.21445)" opacity="0.6" fill="url(#bbc95fc0-f525-4c9f-be80-631c02365c36)" style="mix-blend-mode: color-dodge"></path><g><polygon points="240.96 165.529 240.96 351.081 177.977 351.081 177.977 166.06 196.947 120.597 240.96 165.529" fill="url(#bdaf20bb-23eb-42d9-9eab-d25012192512)"></polygon><polygon points="223.063 166.318 223.063 351.081 160.075 351.081 160.075 166.06 196.947 120.597 223.063 166.318" fill="url(#bf18aad6-1e27-418a-a1b6-4d090d940833)"></polygon><rect x="144.3286" y="196.11284" width="78.73462" height="282.72845" fill="url(#bdd93db2-d988-4420-9651-43ba856717bd)"></rect><rect x="223.06322" y="196.11284" width="26.12747" height="282.72845" fill="url(#edf6fa17-01f8-413e-bc9b-1b04f4944282)"></rect><rect x="160.07456" y="166.31836" width="62.98866" height="311.76351" fill="url(#b2194915-add7-483d-9205-b99d76925e2e)"></rect><g><g><rect x="171.53441" y="214.36722" width="5.72722" height="7.87847" fill="#ece8e1"></rect><rect x="188.34766" y="214.36722" width="5.73822" height="7.87847" fill="#2d2d25"></rect><rect x="205.16628" y="214.36722" width="5.72724" height="7.87847" fill="#2d2d25"></rect></g><g><rect x="171.53441" y="233.33708" width="5.72722" height="7.87566" fill="#2d2d25"></rect><rect x="188.34766" y="233.33708" width="5.73822" height="7.87566" fill="#2d2d25"></rect><rect x="205.16628" y="233.33708" width="5.72724" height="7.87566" fill="#2d2d25"></rect></g><g><rect x="171.53441" y="252.29848" width="5.72722" height="7.87312" fill="#2d2d25"></rect><rect x="188.34766" y="252.29848" width="5.73822" height="7.87312" fill="#2d2d25"></rect><rect x="205.16628" y="252.29848" width="5.72724" height="7.87312" fill="#2d2d25"></rect></g><g><rect x="171.53441" y="271.27679" width="5.72722" height="7.85622" fill="#2d2d25"></rect><rect x="188.34766" y="271.27679" width="5.73822" height="7.85622" fill="#2d2d25"></rect><rect x="205.16628" y="271.27679" width="5.72724" height="7.85622" fill="#2d2d25"></rect></g><g><rect x="171.53441" y="290.2382" width="5.72722" height="7.87002" fill="#2d2d25"></rect><rect x="188.34766" y="290.2382" width="5.73822" height="7.87002" fill="#2d2d25"></rect><rect x="205.16628" y="290.2382" width="5.72724" height="7.87002" fill="#ece8e1"></rect></g><g><rect x="171.53441" y="309.19961" width="5.72722" height="7.88411" fill="#2d2d25"></rect><rect x="188.34766" y="309.19961" width="5.73822" height="7.88411" fill="#2d2d25"></rect><rect x="205.16628" y="309.19961" width="5.72724" height="7.88411" fill="#2d2d25"></rect></g><g><rect x="171.53441" y="328.1751" width="5.72722" height="7.87284" fill="#2d2d25"></rect><rect x="188.34766" y="328.1751" width="5.73822" height="7.87284" fill="#ece8e1"></rect><rect x="205.16628" y="328.1751" width="5.72724" height="7.87284" fill="#2d2d25"></rect></g><g><rect x="171.53441" y="347.13369" width="5.72722" height="7.87847" fill="#2d2d25"></rect><rect x="188.34766" y="347.13369" width="5.73822" height="7.87847" fill="#2d2d25"></rect><rect x="205.16628" y="347.13369" width="5.72724" height="7.87847" fill="#2d2d25"></rect></g><g><rect x="171.53441" y="366.10636" width="5.72722" height="7.87566" fill="#ece8e1"></rect><rect x="188.34766" y="366.10636" width="5.73822" height="7.87566" fill="#2d2d25"></rect><rect x="205.16628" y="366.10636" width="5.72724" height="7.87566" fill="#2d2d25"></rect></g><g><rect x="171.53441" y="385.07875" width="5.72722" height="7.86749" fill="#2d2d25"></rect><rect x="188.34766" y="385.07875" width="5.73822" height="7.86749" fill="#2d2d25"></rect><rect x="205.16628" y="385.07875" width="5.72724" height="7.86749" fill="#2d2d25"></rect></g><g><rect x="171.53441" y="404.04326" width="5.72722" height="7.87566" fill="#2d2d25"></rect><rect x="188.34766" y="404.04326" width="5.73822" height="7.87566" fill="#2d2d25"></rect><rect x="205.16628" y="404.04326" width="5.72724" height="7.87566" fill="#2d2d25"></rect></g><g><rect x="171.53441" y="423.02664" width="5.72722" height="7.84833" fill="#2d2d25"></rect><rect x="188.34766" y="423.02664" width="5.73822" height="7.84833" fill="#2d2d25"></rect><rect x="205.16628" y="423.02664" width="5.72724" height="7.84833" fill="#2d2d25"></rect></g></g><g><rect x="234.50669" y="214.36722" width="5.73287" height="7.87847" fill="#dde6d9"></rect><rect x="234.50669" y="233.33708" width="5.73287" height="7.87566" fill="#dde6d9"></rect><rect x="234.50669" y="252.29848" width="5.73287" height="7.87312" fill="#dde6d9"></rect><rect x="234.50669" y="271.27679" width="5.73287" height="7.85622" fill="#2d2d25"></rect><rect x="234.50669" y="290.2382" width="5.73287" height="7.87002" fill="#dde6d9"></rect><rect x="234.50669" y="309.19961" width="5.73287" height="7.88411" fill="#dde6d9"></rect><rect x="234.50669" y="328.1751" width="5.73287" height="7.87284" fill="#dde6d9"></rect><rect x="234.50669" y="347.13369" width="5.73287" height="7.87847" fill="#dde6d9"></rect><rect x="234.50669" y="366.10636" width="5.73287" height="7.87566" fill="#dde6d9"></rect><rect x="234.50669" y="385.07875" width="5.73287" height="7.86749" fill="#dde6d9"></rect><rect x="234.50669" y="404.04326" width="5.73287" height="7.87566" fill="#dde6d9"></rect><rect x="234.50669" y="423.02664" width="5.73287" height="7.84833" fill="#dde6d9"></rect></g><rect x="171.53441" y="177.14017" width="5.72722" height="7.87284" fill="#ece8e1"></rect><rect x="188.34766" y="177.14017" width="5.73822" height="7.87284" fill="#ece8e1"></rect><rect x="205.16628" y="177.14017" width="5.72724" height="7.87284" fill="#2d2d25"></rect><rect x="228.79607" y="177.14017" width="5.71062" height="7.87284" fill="#dde6d9"></rect><path d="M247.00027,176.06527l1.73856.46225V131.2927a2.15128,2.15128,0,0,0-4.30247,0v44.77257Z" transform="translate(-48.19389 -52.21445)" fill="url(#b53b5c6a-9f8f-463c-aa95-78837a6c26c3)"></path><path d="M246.92309,176.06527V131.2927a2.14845,2.14845,0,0,0-4.29684,0v44.77257Z" transform="translate(-48.19389 -52.21445)" fill="url(#b8365621-b29b-4cbe-9ac2-da9444d6ecaf)"></path></g></g><g class="building b-10"><polygon points="414.978 495.789 322.275 495.789 322.275 190.047 414.978 166.968 414.978 495.789" fill="url(#be12965b-38b5-45c4-852b-1715d9cb2524)"></polygon><polygon points="447.834 175.151 414.978 166.968 414.978 495.789 447.834 495.789 447.834 175.151" fill="url(#a3fac2ae-9b95-4a74-8e42-6958972cd42c)"></polygon><g><rect x="330.2799" y="205.19046" width="74.47638" height="10.08182" fill="#30333d"></rect><rect x="330.2799" y="229.44728" width="74.47638" height="10.09281" fill="#30333d"></rect><rect x="330.2799" y="253.69874" width="74.47638" height="10.09562" fill="#30333d"></rect><rect x="330.2799" y="277.96402" width="74.47638" height="10.08182" fill="#30333d"></rect><rect x="330.2799" y="302.21267" width="74.47638" height="10.09816" fill="#30333d"></rect><rect x="330.2799" y="326.47766" width="74.47638" height="10.09027" fill="#30333d"></rect><rect x="330.2799" y="350.71251" width="74.47638" height="10.09562" fill="#30333d"></rect><rect x="330.2799" y="374.96679" width="74.47638" height="10.10661" fill="#30333d"></rect><rect x="330.2799" y="399.22361" width="74.47638" height="10.09562" fill="#30333d"></rect><rect x="330.2799" y="423.48888" width="74.47638" height="10.08717" fill="#30333d"></rect><rect x="330.2799" y="447.74571" width="74.47638" height="10.09562" fill="#30333d"></rect><rect x="330.2799" y="471.989" width="74.47638" height="10.10914" fill="#30333d"></rect></g><g><rect x="425.92664" y="205.19046" width="11.68549" height="10.08182" fill="#ece8e1"></rect><rect x="425.92664" y="229.44728" width="11.68549" height="10.09281" fill="#ece8e1"></rect><rect x="425.92664" y="253.69874" width="11.68549" height="10.09562" fill="#ece8e1"></rect><rect x="425.92664" y="277.96402" width="11.68549" height="10.08182" fill="#ece8e1"></rect><rect x="425.92664" y="302.21267" width="11.68549" height="10.09816" fill="#ece8e1"></rect><rect x="425.92664" y="326.47766" width="11.68549" height="10.09027" fill="#ece8e1"></rect><rect x="425.92664" y="350.71251" width="11.68549" height="10.09562" fill="#ece8e1"></rect><rect x="425.92664" y="374.96679" width="11.68549" height="10.10661" fill="#ece8e1"></rect><rect x="425.92664" y="399.22361" width="11.68549" height="10.09562" fill="#ece8e1"></rect><rect x="425.92664" y="423.48888" width="11.68549" height="10.08717" fill="#ece8e1"></rect><rect x="425.92664" y="447.74571" width="11.68549" height="10.09562" fill="#ece8e1"></rect><rect x="425.92664" y="471.989" width="11.68549" height="10.10914" fill="#ece8e1"></rect></g></g><g class="building b-9"><polygon points="342.51 254.651 331.507 236.261 290.948 236.261 279.94 254.651 342.51 254.651" fill="#9b34e3"></polygon><rect x="279.93953" y="254.65056" width="62.56498" height="244.85212" fill="url(#a41e0c09-2f51-4481-a1ae-9238990543f4)"></rect><rect x="246.5113" y="254.65056" width="62.55963" height="244.85212" fill="url(#ac8f26c5-c43c-42fd-a688-5c6b80ad880b)"></rect><polygon points="309.071 254.651 298.068 236.261 257.509 236.261 246.511 254.651 309.071 254.651" fill="#a02e71"></polygon><g><g><rect x="258.34549" y="268.40472" width="14.81612" height="19.23943" fill="#ece8e1"></rect><rect x="282.39893" y="268.40472" width="14.83245" height="19.23943" fill="#2d2d25"></rect></g><g><rect x="258.34549" y="300.47945" width="14.81612" height="19.25323" fill="#2d2d25"></rect><rect x="282.39893" y="300.47945" width="14.83245" height="19.25323" fill="#2d2d25"></rect></g><g><rect x="258.34549" y="332.58461" width="14.81612" height="19.2476" fill="#2d2d25"></rect><rect x="282.39893" y="332.58461" width="14.83245" height="19.2476" fill="#2d2d25"></rect></g><g><rect x="258.34549" y="364.65117" width="14.81612" height="19.25295" fill="#ece8e1"></rect><rect x="282.39893" y="364.65117" width="14.83245" height="19.25295" fill="#2d2d25"></rect><rect x="318.17079" y="268.40472" width="14.81583" height="19.23943" fill="#ece8e1"></rect><rect x="318.17079" y="300.47945" width="14.81583" height="19.25323" fill="#ece8e1"></rect><rect x="318.17079" y="332.58461" width="14.81583" height="19.2476" fill="#ece8e1"></rect><rect x="318.17079" y="364.65117" width="14.81583" height="19.25295" fill="#ece8e1"></rect><rect x="258.34549" y="395.33945" width="14.81612" height="19.25605" fill="#2d2d25"></rect><rect x="282.39893" y="395.33945" width="14.83245" height="19.25605" fill="#2d2d25"></rect><rect x="318.17079" y="395.33945" width="14.81583" height="19.25605" fill="#ece8e1"></rect><rect x="258.34549" y="426.03054" width="14.81612" height="19.25323" fill="#2d2d25"></rect><rect x="282.39893" y="426.03054" width="14.83245" height="19.25323" fill="#ece8e1"></rect><rect x="318.17079" y="426.03054" width="14.81583" height="19.25323" fill="#ece8e1"></rect><rect x="258.34549" y="456.71346" width="14.81612" height="19.2614" fill="#2d2d25"></rect><rect x="282.39893" y="456.71346" width="14.83245" height="19.2614" fill="#2d2d25"></rect><rect x="318.17079" y="456.71346" width="14.81583" height="19.2614" fill="#ece8e1"></rect></g></g></g><g class="building b-8"><polygon points="915.356 493.957 905.854 478.126 870.836 478.126 861.335 493.957 915.356 493.957" fill="url(#aabbda19-eff9-4242-b034-6c42ce97c0d9)"></polygon><rect x="861.33477" y="493.95713" width="54.02116" height="36.18988" fill="url(#adc153a3-5c1d-4c2a-8ed7-9865155f2eba)"></rect><rect x="832.45661" y="493.95713" width="54.03187" height="36.18988" fill="#e22d30"></rect><polygon points="886.488 493.957 876.993 478.126 841.958 478.126 832.457 493.957 886.488 493.957" fill="#ece8e1"></polygon><rect x="744.58384" y="493.95713" width="141.90464" height="36.18988" fill="url(#a26860d7-f5e5-4dc7-b3e6-676b562d39d8)"></rect><polygon points="876.993 478.126 754.091 478.126 744.584 493.957 886.488 493.957 876.993 478.126" fill="url(#b9369048-0406-4016-9d32-86d298463385)"></polygon><g><rect x="842.45308" y="505.79667" width="12.79136" height="16.57384" fill="#2d2d25"></rect><rect x="820.79312" y="505.79667" width="12.79136" height="16.57384" fill="#2d2d25"></rect><rect x="799.13852" y="505.79667" width="12.78572" height="16.57384" fill="#2d2d25"></rect><rect x="777.47293" y="505.79667" width="12.79136" height="16.57384" fill="#2d2d25"></rect><rect x="755.81269" y="505.79667" width="12.78604" height="16.57384" fill="#2d2d25"></rect><rect x="864.10234" y="505.79667" width="12.80234" height="16.57384" fill="#2d2d25"></rect></g><rect x="894.34498" y="505.79667" width="12.80234" height="16.57384" fill="#ece8e1"></rect></g><g class="building b-7"><polygon points="589.145 374.994 578.059 356.462 537.198 356.462 526.107 374.994 589.145 374.994" fill="url(#e11071f5-4a8d-478c-bcfd-f288732592f9)"></polygon><rect x="526.10658" y="374.9944" width="63.03818" height="155.15261" fill="url(#a7b3e72e-1864-4620-879d-c0f9b8220dac)"></rect><rect x="492.41438" y="374.9944" width="63.05483" height="155.15261" fill="url(#edd93dbf-a0dd-4dc4-933c-a09c8bbcf837)"></rect><polygon points="555.469 374.994 544.372 356.462 503.506 356.462 492.414 374.994 555.469 374.994" fill="url(#bc37ceaa-dfcf-4481-86dc-a93ef973046c)"></polygon><g><g><rect x="504.35307" y="388.83644" width="14.92597" height="19.39351" fill="#2d2d25"></rect><rect x="528.59891" y="388.83644" width="14.94795" height="19.39351" fill="#2d2d25"></rect></g><g><rect x="504.35307" y="421.1616" width="14.92597" height="19.39351" fill="#ece8e1"></rect><rect x="528.59891" y="421.1616" width="14.94795" height="19.39351" fill="#ece8e1"></rect></g><g><rect x="504.35307" y="453.49773" width="14.92597" height="19.40732" fill="#2d2d25"></rect><rect x="528.59891" y="453.49773" width="14.94795" height="19.40732" fill="#2d2d25"></rect></g><g><rect x="504.35307" y="485.8119" width="14.92597" height="19.39605" fill="#ece8e1"></rect><rect x="528.59891" y="485.8119" width="14.94795" height="19.39605" fill="#ece8e1"></rect><rect x="564.624" y="388.83644" width="14.94795" height="19.39351" fill="#ece8e1"></rect><rect x="564.624" y="421.1616" width="14.94795" height="19.39351" fill="#ece8e1"></rect><rect x="564.624" y="453.49773" width="14.94795" height="19.40732" fill="#2d2d25"></rect><rect x="564.624" y="485.8119" width="14.94795" height="19.39605" fill="#ece8e1"></rect></g></g></g><g class="building b-6"><polygon points="841.804 434.795 830.718 416.26 789.857 416.26 778.771 434.795 841.804 434.795" fill="url(#a92fbeeb-ba20-478a-9c67-de8577de0f39)"></polygon><rect x="778.77122" y="434.79491" width="63.03286" height="95.3521" fill="url(#a16d6cd3-1de6-45c8-afd0-903dedbd058f)"></rect><rect x="745.07905" y="434.79491" width="63.0492" height="95.3521" fill="url(#f885c41b-e91d-45f1-b879-322d8ec9ea50)"></rect><polygon points="808.128 434.795 797.037 416.26 756.159 416.26 745.079 434.795 808.128 434.795" fill="url(#ad960159-38d6-450e-afc9-c10f5bf09fb4)"></polygon><g><g><rect x="757.01211" y="448.64513" width="14.92597" height="19.38816" fill="#2d2d25"></rect><rect x="781.26358" y="448.64513" width="14.93696" height="19.38816" fill="#2d2d25"></rect></g><g><rect x="757.01211" y="480.96493" width="14.92597" height="19.39323" fill="#ece8e1"></rect><rect x="781.26358" y="480.96493" width="14.93696" height="19.39323" fill="#ece8e1"></rect></g><g><rect x="817.28304" y="448.64513" width="14.94795" height="19.38816" fill="#ece8e1"></rect><rect x="817.28304" y="480.96493" width="14.94795" height="19.39323" fill="#ece8e1"></rect></g></g></g><g class="building b-5"><polygon points="378.997 321.133 369.501 305.428 334.489 305.428 324.987 321.133 378.997 321.133" fill="#598ffc"></polygon><rect x="324.9873" y="321.13295" width="54.0099" height="209.01406" fill="url(#b51b6ca5-c442-4cfd-8e23-ad8a96c00afa)"></rect><rect x="296.11985" y="321.13295" width="54.01553" height="209.01406" fill="url(#a4676524-63d1-4a63-b581-c9c748fb7c71)"></rect><polygon points="350.135 321.133 340.628 305.428 305.621 305.428 296.12 321.133 350.135 321.133" fill="#514187"></polygon><g><g><rect x="306.3366" y="332.86798" width="12.79136" height="16.43074" fill="#ece8e1"></rect><rect x="327.11094" y="332.86798" width="12.79699" height="16.43074" fill="#2d2d25"></rect></g><g><rect x="306.3366" y="360.24983" width="12.79136" height="16.43609" fill="#2d2d25"></rect><rect x="327.11094" y="360.24983" width="12.79699" height="16.43609" fill="#ece8e1"></rect></g><g><rect x="306.3366" y="387.65928" width="12.79136" height="16.43074" fill="#ece8e1"></rect><rect x="327.11094" y="387.65928" width="12.79699" height="16.43074" fill="#ece8e1"></rect></g><g><rect x="306.3366" y="415.03549" width="12.79136" height="16.43356" fill="#2d2d25"></rect><rect x="327.11094" y="415.03549" width="12.79699" height="16.43356" fill="#2d2d25"></rect><rect x="357.98625" y="332.86798" width="12.78601" height="16.43074" fill="#2d2d25"></rect><rect x="357.98625" y="360.24983" width="12.78601" height="16.43609" fill="#ece8e1"></rect><rect x="357.98625" y="387.65928" width="12.78601" height="16.43074" fill="#2d2d25"></rect><rect x="357.98625" y="415.03549" width="12.78601" height="16.43356" fill="#ece8e1"></rect><rect x="306.3366" y="441.2289" width="12.79136" height="16.44173" fill="#ece8e1"></rect><rect x="327.11094" y="441.2289" width="12.79699" height="16.44173" fill="#ece8e1"></rect><rect x="357.98625" y="441.2289" width="12.78601" height="16.44173" fill="#ece8e1"></rect><rect x="306.3366" y="467.42795" width="12.79136" height="16.43356" fill="#ece8e1"></rect><rect x="327.11094" y="467.42795" width="12.79699" height="16.43356" fill="#ece8e1"></rect><rect x="357.98625" y="467.42795" width="12.78601" height="16.43356" fill="#ece8e1"></rect><rect x="306.3366" y="493.62136" width="12.79136" height="16.43919" fill="#2d2d25"></rect><rect x="327.11094" y="493.62136" width="12.79699" height="16.43919" fill="#2d2d25"></rect><rect x="357.98625" y="493.62136" width="12.78601" height="16.43919" fill="#2d2d25"></rect></g></g></g><g class="building b-4"><polygon points="658.422 445.3 755.637 445.3 718.379 391.439 621.181 391.439 658.422 445.3" fill="#2d2d25"></polygon><polygon points="745.64 530.147 745.64 441.95 711.915 393.978 674.08 444.315 676.484 530.147 745.64 530.147" fill="url(#e9f2e085-b2f7-4090-8267-01f031c63281)"></polygon><rect x="590.44868" y="442.76127" width="87.86178" height="87.38574" fill="url(#b6c77785-d8fe-4cf3-9733-b1677669af62)"></rect><polygon points="681.023 445.3 583.825 445.3 621.071 391.439 718.28 391.439 681.023 445.3" fill="url(#b2ee38a3-1487-4204-a7ef-885549174011)"></polygon><rect x="705.1588" y="480.54409" width="17.95184" height="13.40487" fill="#ece8e1"></rect><rect x="705.1588" y="505.90399" width="17.95184" height="13.40205" fill="#ece8e1"></rect><rect x="705.1588" y="454.41377" width="17.95184" height="13.3967" fill="#ece8e1"></rect><rect x="646.48897" y="480.21114" width="17.95748" height="13.3967" fill="#ece8e1"></rect><rect x="646.48897" y="506.01413" width="17.95748" height="13.41022" fill="#2d2d25"></rect><rect x="646.48897" y="454.41377" width="17.95748" height="13.3967" fill="#ece8e1"></rect><rect x="609.49544" y="480.21114" width="17.96311" height="13.3967" fill="#ece8e1"></rect><rect x="609.49544" y="506.01413" width="17.96311" height="13.41022" fill="#2d2d25"></rect><rect x="609.49544" y="454.41377" width="17.96311" height="13.3967" fill="#2d2d25"></rect></g><g class="building b-3"><polygon points="491.82 530.147 491.82 384.727 466.54 324.791 438.173 387.673 440.561 530.147 491.82 530.147" fill="url(#af747003-90e8-42b9-963e-4cfc4c3f3103)"></polygon><rect x="375.48176" y="385.70607" width="65.86042" height="144.44094" fill="url(#b2d27a45-ff7c-46a7-bd67-e0921c82e258)"></rect><g><rect x="384.60895" y="400.45064" width="6.85511" height="21.8746" fill="#ece8e1"></rect><rect x="395.76089" y="400.45064" width="6.85511" height="21.8746" fill="#2d2d25"></rect><rect x="413.34964" y="400.45064" width="6.86609" height="21.8746" fill="#2d2d25"></rect><rect x="424.49624" y="400.45064" width="6.86046" height="21.8746" fill="#2d2d25"></rect></g><g><rect x="456.21323" y="400.45064" width="6.86074" height="21.8746" fill="#ece8e1"></rect><rect x="467.37081" y="400.45064" width="6.84947" height="21.8746" fill="#ece8e1"></rect></g><g><rect x="456.21323" y="428.93556" width="6.86074" height="21.8746" fill="#ece8e1"></rect><rect x="467.37081" y="428.93556" width="6.84947" height="21.8746" fill="#2d2d25"></rect></g><g><rect x="456.21323" y="457.43683" width="6.86074" height="21.85545" fill="#2d2d25"></rect><rect x="467.37081" y="457.43683" width="6.84947" height="21.85545" fill="#2d2d25"></rect></g><g><rect x="456.21323" y="485.91922" width="6.86074" height="21.85798" fill="#ece8e1"></rect><rect x="467.37081" y="485.91922" width="6.84947" height="21.85798" fill="#ece8e1"></rect></g><g><rect x="384.60895" y="429.27922" width="6.85511" height="21.8639" fill="#2d2d25"></rect><rect x="395.76089" y="429.27922" width="6.85511" height="21.8639" fill="#ece8e1"></rect><rect x="413.34964" y="429.27922" width="6.86609" height="21.8639" fill="#2d2d25"></rect><rect x="424.49624" y="429.27922" width="6.86046" height="21.8639" fill="#ece8e1"></rect></g><g><rect x="384.60895" y="458.10809" width="6.85511" height="21.86925" fill="#2d2d25"></rect><rect x="395.76089" y="458.10809" width="6.85511" height="21.86925" fill="#ece8e1"></rect><rect x="413.34964" y="458.10809" width="6.86609" height="21.86925" fill="#ece8e1"></rect><rect x="424.49624" y="458.10809" width="6.86046" height="21.86925" fill="#ece8e1"></rect></g><g><rect x="384.60895" y="486.94794" width="6.85511" height="21.86925" fill="#ece8e1"></rect><rect x="395.76089" y="486.94794" width="6.85511" height="21.86925" fill="#ece8e1"></rect><rect x="413.34964" y="486.94794" width="6.86609" height="21.86925" fill="#2d2d25"></rect><rect x="424.49624" y="486.94794" width="6.86046" height="21.86925" fill="#ece8e1"></rect></g><polygon points="441.254 385.706 375.267 385.706 400.553 324.791 466.54 324.791 441.254 385.706" fill="#803d83"></polygon></g><g class="building b-2"><polygon points="244.03 530.147 244.03 441.135 219.129 404.445 191.208 442.937 193.563 530.147 244.03 530.147" fill="url(#bee585ea-61f6-4e3e-8d1b-7a04bddce286)"></polygon><rect x="129.46319" y="441.73227" width="64.86466" height="88.41474" fill="url(#f928d554-762b-4238-98d1-3f33692b4c2c)"></rect><rect x="168.10684" y="450.75777" width="10.32125" height="16.83524" fill="#2d2d25"></rect><rect x="168.10684" y="479.02552" width="10.32125" height="16.84341" fill="#ece8e1"></rect><rect x="168.10684" y="507.29327" width="10.32125" height="16.84341" fill="#ece8e1"></rect><rect x="214.09544" y="450.75777" width="10.31562" height="16.83524" fill="#ece8e1"></rect><rect x="214.09544" y="479.02552" width="10.31562" height="16.84341" fill="#ece8e1"></rect><rect x="214.09544" y="507.29327" width="10.31562" height="16.84341" fill="#ece8e1"></rect><polygon points="194.24 441.732 129.265 441.732 154.166 404.445 219.129 404.445 194.24 441.732" fill="url(#ad11302f-82f2-41bc-91d8-f4db0b067f86)"></polygon></g><g class="building b-1"><polygon points="296.78 530.147 296.78 486.557 279.929 461.473 261.014 487.784 262.147 530.147 296.78 530.147" fill="url(#a359fcf9-7351-44ad-8455-367f30860e20)"></polygon><rect x="219.20663" y="486.96456" width="43.91991" height="43.18245" fill="url(#ef04b113-9ca6-45d3-b4e3-31443d1bc919)"></rect><rect x="245.37244" y="493.13742" width="6.99257" height="11.50405" fill="#2d2d25"></rect><rect x="245.37244" y="512.45375" width="6.99257" height="11.51504" fill="#ece8e1"></rect><rect x="229.2031" y="493.13742" width="6.99257" height="11.50405" fill="#2d2d25"></rect><rect x="229.2031" y="512.45375" width="6.99257" height="11.51504" fill="#ece8e1"></rect><rect x="276.51761" y="493.13742" width="6.98696" height="11.50405" fill="#ece8e1"></rect><rect x="276.51761" y="512.45375" width="6.98696" height="11.51504" fill="#ece8e1"></rect><polygon points="263.071 486.965 219.075 486.965 235.937 461.473 279.929 461.473 263.071 486.965" fill="url(#a4d07f82-a61e-4c10-ad93-4b7dfea7d217)"></polygon></g></svg> 