<?xml version="1.0" encoding="UTF-8"?> <svg xmlns="http://www.w3.org/2000/svg" xmlns:xlink="http://www.w3.org/1999/xlink" id="adb561b5-1116-4cd1-b752-5cdcf92e53be" data-name="Layer 1" viewBox="0 0 55.71223 44"><defs><linearGradient id="a6bcb5e9-46e0-479a-ba0d-7baa9bd9e526" x1="39.10987" y1="-0.212" x2="39.10987" y2="-35.94055" gradientTransform="matrix(1, 0, -0.00031, -0.92545, -4.46331, 4.90718)" gradientUnits="userSpaceOnUse"><stop offset="0"></stop><stop offset="0.01195" stop-color="#121212"></stop><stop offset="0.04717" stop-color="#444"></stop><stop offset="0.08517" stop-color="#707070"></stop><stop offset="0.12508" stop-color="#979797"></stop><stop offset="0.16739" stop-color="#b7b7b7"></stop><stop offset="0.21282" stop-color="#d1d1d1"></stop><stop offset="0.26252" stop-color="#e6e6e6"></stop><stop offset="0.31869" stop-color="#f4f4f4"></stop><stop offset="0.3868" stop-color="#fcfcfc"></stop><stop offset="0.5" stop-color="#fff"></stop><stop offset="0.6132" stop-color="#fcfcfc"></stop><stop offset="0.68131" stop-color="#f4f4f4"></stop><stop offset="0.73748" stop-color="#e6e6e6"></stop><stop offset="0.78718" stop-color="#d1d1d1"></stop><stop offset="0.83261" stop-color="#b7b7b7"></stop><stop offset="0.87492" stop-color="#979797"></stop><stop offset="0.91483" stop-color="#707070"></stop><stop offset="0.95283" stop-color="#444"></stop><stop offset="0.98805" stop-color="#121212"></stop><stop offset="1"></stop></linearGradient><radialGradient id="e17da529-bcea-48bd-82cb-a55603a5b7a5" cx="213.13394" cy="-275.67674" r="16.27857" gradientTransform="matrix(0.83887, 0, -0.00023, -0.6451, -153.87495, -153.907)" gradientUnits="userSpaceOnUse"><stop offset="0"></stop><stop offset="0.37264" stop-color="#020202"></stop><stop offset="0.50689" stop-color="#090909"></stop><stop offset="0.60258" stop-color="#141414"></stop><stop offset="0.67999" stop-color="#252525"></stop><stop offset="0.74626" stop-color="#3b3b3b"></stop><stop offset="0.80498" stop-color="#575757"></stop><stop offset="0.8581" stop-color="#777"></stop><stop offset="0.90691" stop-color="#9d9d9d"></stop><stop offset="0.95232" stop-color="#c8c8c8"></stop><stop offset="0.99262" stop-color="#f6f6f6"></stop><stop offset="1" stop-color="#fff"></stop></radialGradient><radialGradient id="a276af83-57c5-4db3-bb3f-90d80afbd275" cx="571.53278" cy="-2349.59855" r="47.07389" gradientTransform="matrix(0.66, 0, 0, -0.72971, -321.15121, -1714.68305)" gradientUnits="userSpaceOnUse"><stop offset="0" stop-color="#550017"></stop><stop offset="1"></stop></radialGradient><mask id="a72e9a29-78ee-4ffe-af04-d4ba1284906a" x="7.34059" y="5.03799" width="54.62315" height="33.14047" maskUnits="userSpaceOnUse"><g id="ac9f6551-c54c-407a-b38c-bdd7345cf00e" data-name="b991d21b-8f14-44b1-9779-498d8ef40b4d"><g><rect x="7.34059" y="5.10337" width="54.62315" height="33.06499" fill="url(#a6bcb5e9-46e0-479a-ba0d-7baa9bd9e526)"></rect><ellipse cx="24.98012" cy="23.93206" rx="13.65579" ry="10.50116" fill="url(#e17da529-bcea-48bd-82cb-a55603a5b7a5)"></ellipse></g></g></mask><radialGradient id="eca56269-e783-4e9e-8827-8a5143e07155" cx="41.66709" cy="-2087.14133" r="12.92179" gradientTransform="matrix(1.00971, 0.04975, 0.03806, -0.84181, 67.09918, -1731.99651)" gradientUnits="userSpaceOnUse"><stop offset="0"></stop><stop offset="0.37264" stop-color="#000202"></stop><stop offset="0.50689" stop-color="#000709"></stop><stop offset="0.60258" stop-color="#001114"></stop><stop offset="0.67999" stop-color="#001e25"></stop><stop offset="0.74626" stop-color="#00303b"></stop><stop offset="0.80498" stop-color="#004657"></stop><stop offset="0.8581" stop-color="#006177"></stop><stop offset="0.90691" stop-color="#007f9d"></stop><stop offset="0.95232" stop-color="#00a2c8"></stop><stop offset="0.99262" stop-color="#00c8f6"></stop><stop offset="1" stop-color="#00cfff"></stop></radialGradient><linearGradient id="a90462d1-4e76-4a2d-b8bb-c236d7566340" x1="10.237" y1="10.3155" x2="17.079" y2="10.3155" gradientTransform="matrix(1, 0, 0, -1, 0, 46)" gradientUnits="userSpaceOnUse"><stop offset="0" stop-color="#00bdff"></stop><stop offset="0.08801" stop-color="#049ad4"></stop><stop offset="0.18592" stop-color="#087aab"></stop><stop offset="0.29017" stop-color="#0b5e88"></stop><stop offset="0.39986" stop-color="#0d476c"></stop><stop offset="0.51687" stop-color="#0f3556"></stop><stop offset="0.64476" stop-color="#112946"></stop><stop offset="0.79151" stop-color="#12213d"></stop><stop offset="1" stop-color="#121f3a"></stop></linearGradient><linearGradient id="ea427fed-839d-42c2-a2d1-0de9cd76eec1" x1="6.186" y1="10.265" x2="11.824" y2="10.265" xlink:href="#a90462d1-4e76-4a2d-b8bb-c236d7566340"></linearGradient><linearGradient id="aa0bfbfa-e4a8-43c0-9d70-7e7f74e3ed88" x1="6.186" y1="14.26" x2="15.492" y2="14.26" xlink:href="#a90462d1-4e76-4a2d-b8bb-c236d7566340"></linearGradient><linearGradient id="b8b93a8b-0c6f-49f9-b35a-c4e0723fe4d9" x1="14.83931" y1="7.59091" x2="21.72215" y2="7.59091" gradientTransform="matrix(1, 0, 0, -1, -4.62279, 43.27529)" gradientUnits="userSpaceOnUse"><stop offset="0.19553" stop-color="#00cfff"></stop><stop offset="0.5" stop-color="#70f8ff"></stop><stop offset="0.8324" stop-color="#00cfff"></stop></linearGradient><linearGradient id="a69d6611-faf7-4fff-8b3b-40e32e980ad0" x1="10.78819" y1="7.54025" x2="16.46745" y2="7.54025" xlink:href="#b8b93a8b-0c6f-49f9-b35a-c4e0723fe4d9"></linearGradient><linearGradient id="ac374990-3a30-40eb-be5e-1ff2a29e6d33" x1="10.79268" y1="11.53581" x2="20.13058" y2="11.53581" xlink:href="#b8b93a8b-0c6f-49f9-b35a-c4e0723fe4d9"></linearGradient><linearGradient id="b0440ed4-9cfa-45c3-b1c1-70d87c8f0466" x1="15.299" y1="40.1565" x2="18.049" y2="40.1565" xlink:href="#a90462d1-4e76-4a2d-b8bb-c236d7566340"></linearGradient><linearGradient id="e79e147a-1770-446e-b831-93f2aaeab21b" x1="15.299" y1="41.491" x2="16.634" y2="41.491" xlink:href="#a90462d1-4e76-4a2d-b8bb-c236d7566340"></linearGradient><linearGradient id="fbe92168-1e4b-4bd7-a8e1-4bc9a36636c9" x1="16.207" y1="41.2795" x2="18.476" y2="41.2795" xlink:href="#a90462d1-4e76-4a2d-b8bb-c236d7566340"></linearGradient><linearGradient id="ba304ddc-15b7-4b55-a635-a04c60f12f18" x1="19.91917" y1="37.4318" x2="22.67441" y2="37.4318" xlink:href="#b8b93a8b-0c6f-49f9-b35a-c4e0723fe4d9"></linearGradient><linearGradient id="b48b346b-8ccc-4394-97bd-f6ffa738aef7" x1="19.913" y1="38.76627" x2="21.26508" y2="38.76627" xlink:href="#b8b93a8b-0c6f-49f9-b35a-c4e0723fe4d9"></linearGradient><linearGradient id="bc6c401e-505f-4336-bfee-91cc0f93e6fa" x1="20.821" y1="38.55524" x2="23.10734" y2="38.55524" xlink:href="#b8b93a8b-0c6f-49f9-b35a-c4e0723fe4d9"></linearGradient><linearGradient id="ba0becae-ab5e-425c-a01f-5e31ede8df27" x1="46.84133" y1="30.96394" x2="49.95658" y2="30.96394" xlink:href="#a90462d1-4e76-4a2d-b8bb-c236d7566340"></linearGradient><linearGradient id="ffa26166-d568-4cdf-9029-d44076c3e887" x1="44.99686" y1="30.94095" x2="47.56391" y2="30.94095" xlink:href="#a90462d1-4e76-4a2d-b8bb-c236d7566340"></linearGradient><linearGradient id="a3f0ad5e-5dea-476d-bf34-02b32b935b99" x1="44.99686" y1="32.75992" x2="49.234" y2="32.75992" xlink:href="#a90462d1-4e76-4a2d-b8bb-c236d7566340"></linearGradient><linearGradient id="f52ea037-37d5-43a0-86da-ae3d65ff7347" x1="51.45479" y1="28.23928" x2="54.58864" y2="28.23928" xlink:href="#b8b93a8b-0c6f-49f9-b35a-c4e0723fe4d9"></linearGradient><linearGradient id="bdd79731-4adb-4430-8943-35d9540cda61" x1="49.61026" y1="28.21622" x2="52.19611" y2="28.21622" xlink:href="#b8b93a8b-0c6f-49f9-b35a-c4e0723fe4d9"></linearGradient><linearGradient id="b4fa0086-c380-4909-90f8-f40090477777" x1="49.61231" y1="30.03545" x2="53.86398" y2="30.03545" xlink:href="#b8b93a8b-0c6f-49f9-b35a-c4e0723fe4d9"></linearGradient></defs><g id="e42bd1d2-b465-47aa-81e4-b9adca377a35" data-name="a96b0b3e-0be5-4817-a52f-9c298e63a1e8"><rect id="b6891376-041d-422f-abb5-0d0524700c75" data-name="bc6256cc-6aee-4556-bec5-3da02b665c6a" width="55.71223" height="44" rx="21.99998" fill="#17162d" opacity="0.7" style="isolation: isolate"></rect></g><rect id="b6e182dd-4ecd-4098-8f08-9dac2126a12c" data-name="a0ea641f-b5d7-4bcd-8a35-3fe64d043bc5" width="55.71223" height="44" rx="21.99998" opacity="0.84" fill="url(#a276af83-57c5-4db3-bb3f-90d80afbd275)" style="isolation: isolate"></rect><g mask="url(#a72e9a29-78ee-4ffe-af04-d4ba1284906a)"><g class="curved-highlight"><path d="M23.5226,5.10337S6.00144,15.84952,9.162,23.50343c2.986,7.23121,32.82929-4.31685,34.45392,4.19435.79206,4.14973-8.38925,9.67455-14.2782,10.07256" fill="none" stroke="#00cfff" stroke-miterlimit="10" stroke-width="0.15339"></path><path d="M22.1428,5.10476S5.9066,16.3602,9.57708,23.46864c3.48043,6.74038,32.88-4.615,34.7681,4.01483.93961,4.29465-7.84607,9.836-13.382,10.32167" fill="none" stroke="#16c2fb" stroke-miterlimit="10" stroke-width="0.14503" opacity="0.90909" style="isolation: isolate"></path><path d="M20.763,5.10615S5.81579,16.87215,9.99221,23.43384c3.97856,6.2509,32.93562-4.91335,35.08227,3.83532,1.08932,4.43952-7.30288,9.99742-12.4857,10.57077" fill="none" stroke="#2cb6f7" stroke-miterlimit="10" stroke-width="0.13666" opacity="0.81818" style="isolation: isolate"></path><path d="M19.38321,5.10754S5.72953,17.38429,10.40727,23.39905c4.48093,5.7617,32.99561-5.21231,35.39644,3.6558,1.241,4.58416-6.7597,10.15885-11.58945,10.81988" fill="none" stroke="#42a9f3" stroke-miterlimit="10" stroke-width="0.12829" opacity="0.72727" style="isolation: isolate"></path><path d="M18.0034,5.10892s-12.35547,12.78642-7.181,18.25537c4.98769,5.27155,33.05949-5.512,35.71062,3.47628,1.39468,4.72846-6.21651,10.32028-10.6932,11.069" fill="none" stroke="#589cef" stroke-miterlimit="10" stroke-width="0.11993" opacity="0.63636" style="isolation: isolate"></path><path d="M16.6236,5.11029S5.5706,18.404,11.23745,23.32944c5.4985,4.77914,33.12677-5.81262,36.0248,3.29677,1.55,4.87229-5.67333,10.48171-9.797,11.31808" fill="none" stroke="#6e90eb" stroke-miterlimit="10" stroke-width="0.11156" opacity="0.54545" style="isolation: isolate"></path><path d="M15.2438,5.1117s-9.74721,13.79745-3.59125,18.183c6.01255,4.28336,33.197-6.11422,36.339,3.11725,1.707,5.01558-5.13015,10.64315-8.90071,11.56719" fill="none" stroke="#8483e6" stroke-miterlimit="10" stroke-width="0.10319" opacity="0.45455" style="isolation: isolate"></path><path d="M13.864,5.11309s-8.43927,14.2971-1.79637,18.14679c6.52873,3.78352,33.27-6.41689,36.65315,2.93773,1.86553,5.15828-4.587,10.80458-8.00446,11.81629" fill="none" stroke="#9a77e2" stroke-miterlimit="10" stroke-width="0.09482" opacity="0.36364" style="isolation: isolate"></path><path d="M12.48421,5.11448s-7.13047,14.79246-.00147,18.1106c7.04579,3.27941,33.34518-6.72064,36.96731,2.75822,2.02541,5.30034-4.04377,10.966-7.1082,12.06539" fill="none" stroke="#b06ade" stroke-miterlimit="10" stroke-width="0.08646" opacity="0.27273" style="isolation: isolate"></path><path d="M11.10441,5.11587s-5.822,15.28383,1.79342,18.07442c7.56262,2.77125,33.42244-7.02552,37.28149,2.5787,2.18653,5.44174-3.50059,11.12744-6.212,12.3145" fill="none" stroke="#c65dda" stroke-miterlimit="10" stroke-width="0.07809" opacity="0.18182" style="isolation: isolate"></path><path d="M9.72461,5.11729s-4.51027,15.756,3.58831,18.0382c8.08273,2.24387,33.51362-7.33659,37.59567,2.3992,2.35578,5.57952-2.95738,11.28887-5.31571,12.5636" fill="none" stroke="#dc51d6" stroke-miterlimit="10" stroke-width="0.06972" opacity="0.09091" style="isolation: isolate"></path><path d="M8.34481,5.11865S5.13563,21.37565,13.728,23.1207s33.582-7.63857,37.90984,2.21968c2.51215,5.7225-2.41423,11.4503-4.41946,12.8127" fill="none" stroke="#f244d2" stroke-miterlimit="10" stroke-opacity="0" stroke-width="0.06136"></path></g></g><g id="f94d1e18-d3fd-413b-8b7f-1d288a73aecd" data-name="bedd2176-e456-439a-80c2-2da7b7746792"><path d="M34.88312,22.62021a8.60657,8.60657,0,0,1-5.5967,6.88967c-2.9298,1.038-4.052-.49335-4.69845-1.59295a26.55852,26.55852,0,0,1-2.78876-5.11738l-.35076-.971s2.76715-3.51371,8.86567-3.28483c0,0,1.15383-.21761,1.21333-.9015a9.89334,9.89334,0,0,1,.82413,2.90074h0a6.39812,6.39812,0,0,0,.8872-.64727A4.4004,4.4004,0,0,0,34.88312,22.62021Z" fill="url(#eca56269-e783-4e9e-8827-8a5143e07155)"></path><g><g><path d="M22.363,21.71672" fill="none" stroke="#2a63b5" stroke-miterlimit="10" stroke-width="0.05254"></path><path d="M23.71921,20.56538s-.13414,2.96705,1.47662,2.25822" fill="none" stroke="#2a63b5" stroke-miterlimit="10" stroke-width="0.05254"></path><path d="M25.013,22.313s.10077-.71158,1.58647-.1726c0,0,1.34194-.07717.62581-.93648" fill="none" stroke="#2a63b5" stroke-miterlimit="10" stroke-width="0.05254"></path><path d="M20.11883,12.5239A3.57321,3.57321,0,0,1,21.379,7.80305c3.36579-2.17259,1.25731.27691,1.25731.27691" fill="none" stroke="#2a63b5" stroke-miterlimit="10" stroke-width="0.05254"></path><path d="M23.92081,6.99679s2.6363-1.78926,8.38959.41337c5.26281,2.01484,4.29381,5.22739,4.29381,5.22739" fill="none" stroke="#2a63b5" stroke-miterlimit="10" stroke-width="0.05254"></path><path d="M21.84464,22.17482a9.00708,9.00708,0,0,1,2.50578-2.0898,13.59243,13.59243,0,0,1,6.66115-1.549c.58178-.00914,1.72475-.61456,1.07925-2.12594" fill="none" stroke="#2a63b5" stroke-miterlimit="10" stroke-width="0.05254"></path><path d="M25.03221,25.68174a2.25739,2.25739,0,0,1,1.19464-1.37424,9.91919,9.91919,0,0,1,3.25449-.62782" fill="none" stroke="#2a63b5" stroke-miterlimit="10" stroke-width="0.05254"></path><path d="M28.81455,24.0051s-3.28028,1.19978-3.29806,1.593.96236.72814,2.074-.32775" fill="none" stroke="#2a63b5" stroke-miterlimit="10" stroke-width="0.05254"></path><line x1="31.11872" y1="12.13437" x2="34.50603" y2="13.50153" fill="none" stroke="#2a63b5" stroke-miterlimit="10" stroke-width="0.05254"></line><line x1="32.64503" y1="16.32971" x2="33.21747" y2="16.57288" fill="none" stroke="#2a63b5" stroke-miterlimit="10" stroke-width="0.05254"></line><line x1="20.09935" y1="22.41078" x2="21.96996" y2="23.16571" fill="none" stroke="#2a63b5" stroke-miterlimit="10" stroke-width="0.05254"></line><path d="M39.13314,17.62967c.21516,2.56536-.84283,4.75761-2.36315,4.89661s-2.92723-1.828-3.14239-4.39329.84283-4.75761,2.36314-4.89662S38.918,15.06429,39.13314,17.62967Z" fill="none" stroke="#2a63b5" stroke-miterlimit="10" stroke-width="0.05254"></path><path d="M39.07646,17.48c.15988,1.90613-.62628,3.535-1.75588,3.63829s-2.175-1.35823-2.33485-3.26429.62622-3.535,1.75583-3.6383S38.91659,15.574,39.07646,17.48Z" fill="none" stroke="#2a63b5" stroke-miterlimit="10" stroke-width="0.05254"></path><path d="M22.48409,22.83329a26.56037,26.56037,0,0,0,2.78874,5.11745c.64648,1.09952,1.76865,2.63084,4.69845,1.59288a8.60657,8.60657,0,0,0,5.5967-6.88967" fill="none" stroke="#2a63b5" stroke-miterlimit="10" stroke-width="0.05254"></path><path d="M36.79928,23.12662c.92666,6.225,7.74349,6.94721,12.46008,8.33669" fill="none" stroke="#2a63b5" stroke-miterlimit="10" stroke-width="0.05254"></path><path d="M26.85721,30.48291a12.14755,12.14755,0,0,1-5.38187,5.933" fill="none" stroke="#2a63b5" stroke-miterlimit="10" stroke-width="0.05254"></path><path d="M36.06237,23.4844s-2.46189,8.90718-1.37809,11.50435" fill="none" stroke="#2a63b5" stroke-miterlimit="10" stroke-width="0.05254"></path><path d="M27.74754,30.52681a17.66465,17.66465,0,0,1,5.82635,4.72964" fill="none" stroke="#2a63b5" stroke-miterlimit="10" stroke-width="0.05254"></path><path d="M35.61234,35.71517s.508-2.12463,4.51758-1.99869,5.44057-1.9174,5.44057-1.9174" fill="none" stroke="#2a63b5" stroke-miterlimit="10" stroke-width="0.05254"></path><path d="M33.196,36.026a4.24171,4.24171,0,0,0-4.74043-.66348,12.19012,12.19012,0,0,1-4.92561,1.15456" fill="none" stroke="#2a63b5" stroke-miterlimit="10" stroke-width="0.05254"></path></g><g><path d="M30.73953,12.06422l.97487,2.56529A1.67776,1.67776,0,0,1,30.24529,17.008a11.963,11.963,0,0,0-5.87261,1.17826,10.93807,10.93807,0,0,0-4.22278,3.40577c-.5301.73982-1.56027.4357-1.934-.54771l-.948-2.59325a1.79817,1.79817,0,0,1-.00671-1.29762c.7857-1.89624,2.59352-3.34441,4.94075-4.67942a10.76353,10.76353,0,0,1,7.46894-1.40233A1.54026,1.54026,0,0,1,30.73953,12.06422Z" fill="#00cfff" stroke="#0e48af" stroke-miterlimit="10" stroke-width="0.07162"></path><path d="M37.65376,17.53529c.10261,1.22362-.402,2.26935-1.12724,2.33565s-1.39625-.872-1.49884-2.09557.402-2.26935,1.12715-2.33565S37.55108,16.31171,37.65376,17.53529Z" fill="#00cfff" stroke="#0e48af" stroke-miterlimit="10" stroke-width="0.07005"></path></g></g><g><path d="M31.87121,18.26209a15.85781,15.85781,0,0,1,.48035,2.28083l.63576-.3986" fill="none" stroke="#00cfff" stroke-miterlimit="10" stroke-width="0.07005"></path><path d="M33.39209,21.0599s1.67269,3.23523-2.63209,7.35822" fill="none" stroke="#2a63b5" stroke-miterlimit="10" stroke-width="0.05254"></path><path d="M24.57221,21.05529A14.132,14.132,0,0,1,31.16247,19.517" fill="none" stroke="#2a63b5" stroke-miterlimit="10" stroke-width="0.05254"></path><path d="M28.47021,6.95229s6.16927,1.70124,5.388,5.31713" fill="none" stroke="#2a63b5" stroke-miterlimit="10" stroke-width="0.05254"></path><path d="M24.149,10.68036s-2.50006-.87559.24333-3.105" fill="none" stroke="#2a63b5" stroke-miterlimit="10" stroke-width="0.05254"></path><line x1="27.69205" y1="10.86513" x2="29.85833" y2="16.94901" fill="none" stroke="#0e48af" stroke-miterlimit="10" stroke-width="0.0849"></line></g><g><path d="M20.76341,9.65367s1.04905-2.707,7.15888-2.72841" fill="none" stroke="#f244d2" stroke-miterlimit="10" stroke-width="0.07005"></path><path d="M23.2661,21.09838a2.73027,2.73027,0,0,0,.45225,1.38372" fill="none" stroke="#f244d2" stroke-miterlimit="10" stroke-width="0.07005"></path><path d="M22.58887,36.07667a10.08305,10.08305,0,0,0,3.91842-3.92709" fill="none" stroke="#f244d2" stroke-miterlimit="10" stroke-width="0.07005"></path><path d="M36.94454,27.50473a36.65488,36.65488,0,0,0,7.95887,3.86738" fill="none" stroke="#f244d2" stroke-miterlimit="10" stroke-width="0.07005"></path><path d="M36.22875,35.74554a3.02387,3.02387,0,0,1,2.9866-1.53674" fill="none" stroke="#f244d2" stroke-miterlimit="10" stroke-width="0.07005"></path></g><g><path d="M21.03808,20.53419a9.25494,9.25494,0,0,0-.88825,1.05789.99442.99442,0,0,1-.37774.32562l-.541-7.98878c.4025-.30886.83683-.60734,1.29856-.89861Z" fill="#ebfcff"></path><path d="M23.3096,18.75448a11.60806,11.60806,0,0,0-1.299.8993l-.48885-7.21611a13.10568,13.10568,0,0,1,1.31536-.65318Z" fill="#ebfcff"></path></g></g><g id="e435dabc-a085-4b16-9260-53dd0ed141ca" data-name="b67665a5-1920-4294-9f8c-f14c91bed036"><g class="polygon-bot"><polygon points="15.492 31.689 17.079 35.281 11.824 39.68 10.237 36.088 15.492 31.689" fill="url(#a90462d1-4e76-4a2d-b8bb-c236d7566340)"></polygon><polygon points="10.237 36.088 11.824 39.68 7.773 35.382 6.186 31.79 10.237 36.088" fill="url(#ea427fed-839d-42c2-a2d1-0de9cd76eec1)"></polygon><polygon points="11.44 27.392 15.492 31.689 10.237 36.088 6.186 31.79 11.44 27.392" fill="url(#aa0bfbfa-e4a8-43c0-9d70-7e7f74e3ed88)"></polygon></g></g><g id="f87d3b1c-330c-410d-b3ee-07577e9b459b" data-name="be08570a-40a9-4b14-91f3-40c0fe48de48"><g class="polygon-top"><polygon points="18.049 6.055 17.141 6.187 15.299 5.632 16.207 5.5 18.049 6.055" fill="url(#b0440ed4-9cfa-45c3-b1c1-70d87c8f0466)"></polygon><polygon points="16.207 5.5 15.299 5.632 15.726 3.518 16.634 3.386 16.207 5.5" fill="url(#e79e147a-1770-446e-b831-93f2aaeab21b)"></polygon><polygon points="18.476 3.941 18.049 6.055 16.207 5.5 16.634 3.386 18.476 3.941" fill="url(#fbe92168-1e4b-4bd7-a8e1-4bc9a36636c9)"></polygon></g></g><g id="acd6fabe-e7d1-4474-a8fb-33644eafa3cb" data-name="b67665a5-1920-4294-9f8c-f14c91bed036"><g class="polygon-right"><polygon points="49.234 13.217 49.957 14.852 47.564 16.855 46.841 15.22 49.234 13.217" fill="url(#ba0becae-ab5e-425c-a01f-5e31ede8df27)"></polygon><polygon points="46.841 15.22 47.564 16.855 45.719 14.898 44.997 13.263 46.841 15.22" fill="url(#ffa26166-d568-4cdf-9029-d44076c3e887)"></polygon><polygon points="47.389 11.26 49.234 13.217 46.841 15.22 44.997 13.263 47.389 11.26" fill="url(#a3f0ad5e-5dea-476d-bf34-02b32b935b99)"></polygon></g></g></svg> 