<?xml version="1.0" encoding="utf-8"?>
<!-- Generator: Adobe Illustrator 24.3.0, SVG Export Plug-In . SVG Version: 6.00 Build 0)  -->
<svg version="1.1" xmlns="http://www.w3.org/2000/svg" xmlns:xlink="http://www.w3.org/1999/xlink" x="0px" y="0px"
	 viewBox="0 0 749.1 516.3" style="enable-background:new 0 0 749.1 516.3;" xml:space="preserve">
<style type="text/css">
	.st0{opacity:0.67;}
	.st1{opacity:0.19;fill:#666666;}
	.st2{opacity:0.62;}
	.st3{opacity:0.19;fill:#808080;}
	.st4{fill:#1A1A1A;}
	.st5{fill-rule:evenodd;clip-rule:evenodd;fill:#FF9900;}
	.st6{fill-rule:evenodd;clip-rule:evenodd;fill:#FFFFFF;}
</style>
<g id="Layer_7" class="st0">
	<path class="st1" d="M657.9,463.5H97.2c-20.7,0-37.5-16.8-37.5-37.5V102.7c0-20.7,16.8-37.5,37.5-37.5h560.7
		c20.7,0,37.5,16.8,37.5,37.5V426C695.5,446.7,678.6,463.5,657.9,463.5z"/>
</g>
<g id="Layer_8" class="st2">
	<path class="st3" d="M640.9,480H80.2c-20.7,0-37.5-16.8-37.5-37.5V119.2c0-20.7,16.8-37.5,37.5-37.5h560.7
		c20.7,0,37.5,16.8,37.5,37.5v323.2C678.4,463.2,661.6,480,640.9,480z"/>
</g>
<g id="Layer_2">
	<g id="Layer_5">
	</g>
	<g id="Layer_4">
	</g>
	<path class="st4" d="M674.4,448H113.7c-20.7,0-37.5-16.8-37.5-37.5V87.2c0-20.7,16.8-37.5,37.5-37.5h560.7
		c20.7,0,37.5,16.8,37.5,37.5v323.2C712,431.2,695.1,448,674.4,448z"/>
</g>
<g id="Layer_3">
	<path id="path8" class="st5" d="M452.8,299.6c-29.9,22-73.3,33.8-110.6,33.8c-52.3,0-99.5-19.4-135.1-51.6c-2.8-2.5-0.3-6,3.1-4
		c38.5,22.4,86,35.8,135.2,35.8c33.1,0,69.6-6.9,103.1-21.1C453.5,290.5,457.8,296,452.8,299.6"/>
	<path id="path10" class="st5" d="M465.3,285.4c-3.8-4.9-25.3-2.3-34.9-1.2c-2.9,0.4-3.4-2.2-0.7-4c17.1-12,45.1-8.6,48.4-4.5
		c3.3,4.1-0.9,32.2-16.9,45.6c-2.5,2.1-4.8,1-3.7-1.8C461,310.5,469.1,290.3,465.3,285.4"/>
	<path id="path12" class="st6" d="M431,195.3v-11.7c0-1.8,1.3-3,3-3h52.4c1.7,0,3,1.2,3,3v10c0,1.7-1.4,3.9-3.9,7.3l-27.1,38.7
		c10.1-0.2,20.7,1.3,29.9,6.4c2.1,1.2,2.6,2.9,2.8,4.5v12.5c0,1.7-1.9,3.7-3.9,2.7c-16.1-8.4-37.5-9.4-55.3,0.1
		c-1.8,1-3.7-1-3.7-2.7v-11.9c0-1.9,0-5.2,1.9-8l31.4-45.1H434C432.4,198.2,431,197,431,195.3"/>
	<path id="path14" class="st6" d="M240,268.2h-15.9c-1.5-0.1-2.7-1.3-2.8-2.7v-81.8c0-1.6,1.4-2.9,3.1-2.9h14.9
		c1.5,0.1,2.8,1.3,2.9,2.7v10.7h0.3c3.9-10.3,11.2-15.1,21-15.1c10,0,16.2,4.8,20.7,15.1c3.9-10.3,12.6-15.1,22-15.1
		c6.7,0,14,2.8,18.4,8.9c5,6.9,4,16.9,4,25.6l0,51.6c0,1.6-1.4,3-3.1,3h-15.9c-1.6-0.1-2.9-1.4-2.9-3v-43.3c0-3.5,0.3-12.1-0.4-15.3
		c-1.2-5.5-4.7-7-9.4-7c-3.9,0-7.9,2.6-9.5,6.7c-1.6,4.1-1.5,11-1.5,15.7v43.3c0,1.6-1.4,3-3.1,3h-15.9c-1.6-0.1-2.9-1.4-2.9-3
		l0-43.3c0-9.1,1.5-22.5-9.8-22.5c-11.4,0-11,13.1-11,22.5v43.3C243.1,266.9,241.7,268.2,240,268.2"/>
	<path id="path16" class="st6" d="M534.4,179.1c23.6,0,36.4,20.3,36.4,46.1c0,24.9-14.1,44.7-36.4,44.7c-23.2,0-35.8-20.3-35.8-45.6
		C498.6,198.9,511.4,179.1,534.4,179.1 M534.6,195.8c-11.7,0-12.5,16-12.5,26c0,10-0.2,31.3,12.3,31.3c12.3,0,12.9-17.2,12.9-27.7
		c0-6.9-0.3-15.1-2.4-21.7C543.2,198,539.6,195.8,534.6,195.8"/>
	<path id="path18" class="st6" d="M601.5,268.2h-15.9c-1.6-0.1-2.9-1.4-2.9-3l0-81.8c0.1-1.5,1.5-2.7,3.1-2.7h14.8
		c1.4,0.1,2.5,1,2.8,2.3v12.5h0.3c4.5-11.2,10.7-16.5,21.7-16.5c7.1,0,14.1,2.6,18.6,9.6c4.2,6.5,4.2,17.5,4.2,25.5v51.5
		c-0.2,1.4-1.5,2.6-3.1,2.6h-16c-1.5-0.1-2.7-1.2-2.8-2.6v-44.4c0-8.9,1-22-10-22c-3.9,0-7.4,2.6-9.2,6.5c-2.2,5-2.5,10-2.5,15.5v44
		C604.6,266.9,603.2,268.2,601.5,268.2"/>
	<path id="path28" class="st6" d="M389.3,229.2c0,6.2,0.2,11.4-3,16.9c-2.5,4.5-6.6,7.2-11,7.2c-6.1,0-9.7-4.7-9.7-11.5
		c0-13.6,12.2-16,23.7-16L389.3,229.2 M405.3,268c-1.1,0.9-2.6,1-3.8,0.4c-5.3-4.4-6.3-6.4-9.1-10.6c-8.7,8.9-14.9,11.6-26.3,11.6
		c-13.4,0-23.8-8.3-23.8-24.8c0-12.9,7-21.7,17-26c8.6-3.8,20.7-4.5,30-5.5v-2.1c0-3.8,0.3-8.3-1.9-11.5c-1.9-2.9-5.6-4.1-8.9-4.1
		c-6.1,0-11.5,3.1-12.8,9.6c-0.3,1.4-1.3,2.8-2.8,2.9l-15.4-1.7c-1.3-0.3-2.8-1.3-2.4-3.3c3.5-18.7,20.5-24.4,35.6-24.4
		c7.8,0,17.9,2.1,24,7.9c7.8,7.2,7,16.9,7,27.4v24.8c0,7.5,3.1,10.7,6,14.8c1,1.4,1.2,3.2-0.1,4.2
		C414.3,260.2,408.6,265.2,405.3,268L405.3,268"/>
	<path id="path30" class="st6" d="M180.5,229.2c0,6.2,0.2,11.4-3,16.9c-2.5,4.5-6.5,7.2-11,7.2c-6.1,0-9.7-4.7-9.7-11.5
		c0-13.6,12.2-16,23.7-16V229.2 M196.5,268c-1.1,0.9-2.6,1-3.8,0.4c-5.3-4.4-6.2-6.4-9.1-10.6c-8.7,8.9-14.9,11.6-26.3,11.6
		c-13.4,0-23.8-8.3-23.8-24.8c0-12.9,7-21.7,17-26c8.6-3.8,20.7-4.5,30-5.5v-2.1c0-3.8,0.3-8.3-1.9-11.5c-1.9-2.9-5.7-4.1-8.9-4.1
		c-6.1,0-11.5,3.1-12.8,9.6c-0.3,1.4-1.3,2.8-2.8,2.9l-15.5-1.7c-1.3-0.3-2.7-1.3-2.4-3.3c3.6-18.7,20.5-24.4,35.6-24.4
		c7.8,0,17.9,2.1,24,7.9c7.8,7.2,7,16.9,7,27.4v24.8c0,7.5,3.1,10.7,6,14.8c1,1.4,1.3,3.2,0,4.2C205.5,260.2,199.7,265.2,196.5,268
		L196.5,268"/>
	<g id="Layer_6">
	</g>
</g>
</svg>
