<svg id="Layer_1" data-name="Layer 1" xmlns="http://www.w3.org/2000/svg" xmlns:xlink="http://www.w3.org/1999/xlink" viewBox="0 0 669.2 430.3"><defs><clipPath id="clip-path" transform="translate(-42.7 -49.7)"><rect x="162.22" y="129.33" width="472.56" height="668.34" fill="none"/></clipPath></defs><title>skype</title><g id="Layer_7" data-name="Layer 7" opacity="0.67"><path d="M657.9,463.5H97.2A37.51,37.51,0,0,1,59.7,426V102.7A37.51,37.51,0,0,1,97.2,65.2H657.9a37.51,37.51,0,0,1,37.5,37.5V426A37.45,37.45,0,0,1,657.9,463.5Z" transform="translate(-42.7 -49.7)" fill="#61c6e5" opacity="0.19" style="isolation:isolate"/></g><g id="Layer_8" data-name="Layer 8" opacity="0.62"><path d="M640.9,480H80.2a37.51,37.51,0,0,1-37.5-37.5V119.2A37.51,37.51,0,0,1,80.2,81.7H640.9a37.51,37.51,0,0,1,37.5,37.5V442.4A37.54,37.54,0,0,1,640.9,480Z" transform="translate(-42.7 -49.7)" fill="#669dad" opacity="0.19" style="isolation:isolate"/></g><g id="Layer_2" data-name="Layer 2"><path d="M674.4,448H113.7a37.51,37.51,0,0,1-37.5-37.5V87.2a37.51,37.51,0,0,1,37.5-37.5H674.4a37.51,37.51,0,0,1,37.5,37.5V410.4A37.47,37.47,0,0,1,674.4,448Z" transform="translate(-42.7 -49.7)" fill="#e9fcff"/></g><path transform="translate(-42.7 -49.7)" fill="none" style="isolation:isolate"/><rect id="_Slice_" data-name="&lt;Slice&gt;" x="209.3" y="48.6" width="285" height="301" fill="none"/><g id="g2993"><g id="g2995"><g clip-path="url(#clip-path)"><g id="g2997"><path id="path3003" d="M515.46,245.57h39.71c-1.23-10.38-9-18-19.07-18-11.35,0-18.17,7-20.63,18m-60.85,33.69c14.41-.16,18-14.61,18-25.16,0-13.35-5.89-24.5-18-24.67-13.22-.17-18.18,11.78-18.18,24.67,0,11.65,4.36,25.16,18.18,25.16M609,221.14a23.75,23.75,0,0,0-41-16.38,62.09,62.09,0,0,0-71.14.23,25.42,25.42,0,0,0-30.82-2.9A54.32,54.32,0,0,0,374,197.87a45,45,0,0,0-55.26-7.36,29.21,29.21,0,0,0-58.41.27l.07,1.13a65.37,65.37,0,0,0-9.59-.73,63.27,63.27,0,0,0-26.6,5.83,32.16,32.16,0,0,0-36.91,52.09C187.09,251,187,253,187,255A63.77,63.77,0,0,0,287.52,307,51.32,51.32,0,0,0,329,328.18c.43,0,.83,0,1.23-.07a35.76,35.76,0,0,0,67.67-.53,32.3,32.3,0,0,0,60.18-8.25,52.22,52.22,0,0,0,6.83.5,49.14,49.14,0,0,0,32.88-12.62,62.09,62.09,0,0,0,97-51.43,60.79,60.79,0,0,0-1.23-12.38A23.76,23.76,0,0,0,609,221.14m-32.42,27.69c0,7.76-2.33,9.75-10,9.75H515.46c0,12,7.75,20.67,20.93,20.67,17.08,0,17.08-11.18,26.23-11.18a9.37,9.37,0,0,1,9.32,8.85c0,13.65-21.9,20-35.55,20-25.76,0-38.48-14.18-42.31-30.09-3.43,16.68-14.35,30.09-33.75,30.09-10.38,0-18.14-4.19-22.33-11.48h-.33v30.26c0,7.45-4.5,11.35-11.32,11.35S415,323.16,415,315.71V231.29l-25.47,72.17c-5.42,15.51-11.65,23.6-25.93,23.6-10.08,0-14.28-5-14.28-10.42,0-6.06,4.36-9.16,10.42-9.16h2.33c2.93,0,6.19-.13,7.89-7.12l-23.57-67.2c-.83-2.43-1.46-4.26-1.93-5.79a25,25,0,0,1-1.84,2.07L325.93,247l23.6,31.65a12.37,12.37,0,0,1,2.33,7.29,11,11,0,0,1-10.72,11,11.65,11.65,0,0,1-10.25-5.26l-21.41-30.29-7.92,7v17.24c0,7.43-4.49,11.31-11.32,11.31S278.9,293,278.9,285.61v-8.36c-4.06,13.38-19.2,19.67-33.82,19.67-20.47,0-37.54-9.15-37.54-20.33,0-5,2.79-9.45,9.15-9.45,9.78,0,10.72,14,27.46,14,8.06,0,13.18-3.59,13.18-8.22,0-5.76-5-6.69-13-8.72L231,260.95c-13.18-3.26-23.43-8.72-23.43-23.93,0-18.44,18.31-25.29,34-25.29,17.21,0,34.62,6.86,34.62,17.24,0,5.29-3.59,9.92-9.48,9.92-8.86,0-9.16-10.39-23.43-10.39-7.92,0-13,2.16-13,7,0,5.26,5.13,6.53,12.11,8.06l9.45,2.19c10.89,2.46,23.5,6.76,27.16,17.54v-70.8c0-7.42,4.49-11.31,11.35-11.31s11.32,3.89,11.32,11.31V244l25.13-27.92c2.33-2.49,5.29-4.36,8.69-4.36a11.43,11.43,0,0,1,9.52,5.86,10.89,10.89,0,0,1,9.75-5.86c6.06,0,10.25,3.43,11.61,8.55l14.61,52.93h.3L395,221.84c1.56-5.76,4.66-10.12,10.88-10.12,5.36,0,8.45,2.66,10.09,5.39,1.36-3.49,4.39-5.39,9.28-5.39,6.69,0,10.25,3.76,10.25,10.71V226h.33c3.73-9.62,12.88-14.28,23.87-14.28,16.18,0,30.62,10.15,34.52,31.35,4.39-19.17,19.14-31.35,41.41-31.35,26.07,0,41,18.47,41,37.11m7-35.48h4.43s0,0,3.39,9.82l3.16-9.82H599v14.28h-2.93s0,0,0-10.12l-3.5,10.12h-2.43s0,0-3.53-10v10h-3V213.35ZM570.31,216v-2.63H582V216h-4.26v11.65h-3.16V216Z" transform="translate(-42.7 -49.7)" fill="#00adef"/></g></g></g></g></svg>