<svg id="Layer_1" data-name="Layer 1" xmlns="http://www.w3.org/2000/svg" viewBox="0 0 669.2 430.3"><title>ligoflegend</title><g id="Layer_7" data-name="Layer 7" opacity="0.67"><path d="M657.9,463.5H97.2A37.51,37.51,0,0,1,59.7,426V102.7A37.51,37.51,0,0,1,97.2,65.2H657.9a37.51,37.51,0,0,1,37.5,37.5V426A37.45,37.45,0,0,1,657.9,463.5Z" transform="translate(-42.7 -49.7)" fill="#5e5e5e" opacity="0.19" style="isolation:isolate"/></g><g id="Layer_8" data-name="Layer 8" opacity="0.62"><path d="M640.9,480H80.2a37.51,37.51,0,0,1-37.5-37.5V119.2A37.51,37.51,0,0,1,80.2,81.7H640.9a37.51,37.51,0,0,1,37.5,37.5V442.4A37.54,37.54,0,0,1,640.9,480Z" transform="translate(-42.7 -49.7)" fill="#b2b2b2" opacity="0.19" style="isolation:isolate"/></g><g id="Layer_2" data-name="Layer 2"><path d="M674.4,448H113.7a37.51,37.51,0,0,1-37.5-37.5V87.2a37.51,37.51,0,0,1,37.5-37.5H674.4a37.51,37.51,0,0,1,37.5,37.5V410.4A37.47,37.47,0,0,1,674.4,448Z" transform="translate(-42.7 -49.7)" fill="#474747"/></g><path transform="translate(-42.7 -49.7)" fill="none" style="isolation:isolate"/><rect id="_Slice_" data-name="&lt;Slice&gt;" x="209.3" y="48.6" width="285" height="301" fill="none"/><path d="M610.51,288.54c-8.08-2.06-15-3.8-15-10.45,0-5.23,4-8.55,10.3-8.55a11.85,11.85,0,0,1,12.36,9.5l15.84-7.6c-4.28-10.45-14.57-16.79-27.72-16.79-17.11,0-29,10.45-29,25.34,0,18.22,13.15,21.7,24.87,24.71,8.24,2.06,15.21,4,15.21,10.77,0,5.7-4.59,9.35-11.56,9.35s-12.83-3.8-14.41-9.5l-15.84,7.6c4.44,10.45,15.68,16.79,29.62,16.79,18.53,0,30.41-10.3,30.41-26.45,0-18.37-13.94-21.86-25-24.71Z" transform="translate(-42.7 -49.7)" fill="#c79b3b"/><path d="M636.8,181v8.4H623.34v7.92h11.72l-2.22,8.08h-9.5v12.51h-9.19V181Z" transform="translate(-42.7 -49.7)" fill="#c79b3b"/><path d="M591,189.54a10.3,10.3,0,1,1-10.3,10.3A10.28,10.28,0,0,1,591,189.54ZM591,219a19.25,19.25,0,1,0-19.32-19.32A19.27,19.27,0,0,0,591,219Z" transform="translate(-42.7 -49.7)" fill="#c79b3b"/><path d="M422.17,337.32h17.11v-54l38.81,54H496V255.11H478.72v54.81l-38.33-54.81H418.21l4,8.08Z" transform="translate(-42.7 -49.7)" fill="#c79b3b"/><path d="M554,306a24.5,24.5,0,0,1-12.83,13,24.24,24.24,0,0,1-9.5,1.9H521.8v-49.1h9.82a24.24,24.24,0,0,1,9.5,1.9,23.47,23.47,0,0,1,12.83,13A25.51,25.51,0,0,1,554,306Zm-5.7-47.52A52.74,52.74,0,0,0,531.94,255h-28v82.21h28a43.28,43.28,0,0,0,29.78-11.72,39.13,39.13,0,0,0,9-13,40.33,40.33,0,0,0-9-45.3A44.73,44.73,0,0,0,548.25,258.44Z" transform="translate(-42.7 -49.7)" fill="#c79b3b"/><path d="M271.21,337.32H222.27V255.11h48.95v16h-31v16.63h28.35l-4.28,15.52H240.17v18.06l31,.16Z" transform="translate(-42.7 -49.7)" fill="#c79b3b"/><path d="M383,271.11h31v-16H365.3v82.21h48.79V321.48l-31-.16V303.27h24.08l4.28-15.52H383Z" transform="translate(-42.7 -49.7)" fill="#c79b3b"/><path d="M445.14,223a39.21,39.21,0,0,1-2.22-14.1l.32-50.69H461l-.16,49.9c0,5.54,1.27,10,3.8,13.15a15.64,15.64,0,0,0,22.33.32l.32-.32c2.69-3.17,4-7.6,4-13.15l.16-50.05h18.06l-.32,51.16a43,43,0,0,1-2.22,14.1A33.1,33.1,0,0,1,500.26,234a28.46,28.46,0,0,1-10.45,6.81,41.11,41.11,0,0,1-27.88-.16,27,27,0,0,1-10.3-7A29.74,29.74,0,0,1,445.14,223Z" transform="translate(-42.7 -49.7)" fill="#c79b3b"/><path d="M356.12,216.62a41.55,41.55,0,0,1,.16-32.95,43.05,43.05,0,0,1,23.13-22.49A40.14,40.14,0,0,1,396.19,158a44.26,44.26,0,0,1,22.33,5.7,37.43,37.43,0,0,1,14.89,15.68L417.26,187a22.75,22.75,0,0,0-8.55-9.19A25.1,25.1,0,0,0,396,174.65a25.82,25.82,0,0,0-9.82,1.9,23.12,23.12,0,0,0-7.92,5.54,25.56,25.56,0,0,0-5.39,8.24,26.79,26.79,0,0,0-.16,20.12,25.5,25.5,0,0,0,13.31,13.94,21.73,21.73,0,0,0,10,2.06,24,24,0,0,0,14.26-4.28,19.62,19.62,0,0,0,7.6-11.4h-29.3l7.29-14.89h40.87c.16,3.17,0,10-.16,11.4a46.91,46.91,0,0,1-2.85,11.25,38.61,38.61,0,0,1-21.54,21.38,43.33,43.33,0,0,1-46.89-9.66,44,44,0,0,1-9.19-13.62Z" transform="translate(-42.7 -49.7)" fill="#c79b3b"/><path d="M165.72,232.15V166.73l-4.12-8.55h21.86v66.37h32.79l-4.59,16.16H161.6Z" transform="translate(-42.7 -49.7)" fill="#c79b3b"/><path d="M165.72,328.77V263.35l-4.12-8.55h21.86v66.37h32.79l-4.59,16.16H161.6Z" transform="translate(-42.7 -49.7)" fill="#c79b3b"/><path d="M271.21,240.7H222.27V158.49h48.95v16h-31v16.63h28.35l-4.28,15.52H240.17v17.9l31,.16Z" transform="translate(-42.7 -49.7)" fill="#c79b3b"/><path d="M566.15,240.7H517.37V158.49h48.95v16h-31v16.63h28.35l-4.28,15.52H535.27v17.9l31,.16v16Z" transform="translate(-42.7 -49.7)" fill="#c79b3b"/><path d="M318.1,181.3,328.4,209H307.33Zm-23,59.4,6.18-16h32.95l6.34,16h18.53L326,158.17H300.68l5.39,10.77L276.92,240.7Z" transform="translate(-42.7 -49.7)" fill="#c79b3b"/><path d="M308.28,338.59a44.1,44.1,0,0,0,9.19,1,41.41,41.41,0,0,0,16.32-3,38.61,38.61,0,0,0,21.54-21.38,46.91,46.91,0,0,0,2.85-11.25,93.47,93.47,0,0,0,.16-11.56H317.47v.16l-7.29,14.89h29.15a19.62,19.62,0,0,1-7.6,11.4,24.63,24.63,0,0,1-18.69,3.8l-3.64-1c-.63-.16-1.11-.48-1.74-.63a25,25,0,0,1-13.31-13.94,27.2,27.2,0,0,1,.16-20.28,28.48,28.48,0,0,1,5.39-8.24,23.33,23.33,0,0,1,8.08-5.39,26.41,26.41,0,0,1,9.82-1.9,23.59,23.59,0,0,1,12.67,3.17,22.75,22.75,0,0,1,8.55,9.19l16.16-7.6a36.49,36.49,0,0,0-14.89-15.68,45.49,45.49,0,0,0-22.33-5.7A42.73,42.73,0,0,0,287.37,267a41.83,41.83,0,0,0-9.5,46.41,42.54,42.54,0,0,0,21.07,22.18,36.23,36.23,0,0,0,9.35,3Z" transform="translate(-42.7 -49.7)" fill="#c79b3b"/></svg>