<svg id="Layer_1" data-name="Layer 1" xmlns="http://www.w3.org/2000/svg" xmlns:xlink="http://www.w3.org/1999/xlink" viewBox="0 0 669.2 430.3"><defs><clipPath id="clip-path" transform="translate(-42.7 -49.7)"><rect x="154.58" y="185.14" width="494.14" height="122.46" fill="none"/></clipPath></defs><title>game-stop</title><g id="Layer_7" data-name="Layer 7" opacity="0.67"><path d="M657.9,463.5H97.2A37.51,37.51,0,0,1,59.7,426V102.7A37.51,37.51,0,0,1,97.2,65.2H657.9a37.51,37.51,0,0,1,37.5,37.5V426A37.45,37.45,0,0,1,657.9,463.5Z" transform="translate(-42.7 -49.7)" fill="#5e5e5e" opacity="0.19" style="isolation:isolate"/></g><g id="Layer_8" data-name="Layer 8" opacity="0.62"><path d="M640.9,480H80.2a37.51,37.51,0,0,1-37.5-37.5V119.2A37.51,37.51,0,0,1,80.2,81.7H640.9a37.51,37.51,0,0,1,37.5,37.5V442.4A37.54,37.54,0,0,1,640.9,480Z" transform="translate(-42.7 -49.7)" fill="#b2b2b2" opacity="0.19" style="isolation:isolate"/></g><g id="Layer_2" data-name="Layer 2"><path d="M674.4,448H113.7a37.51,37.51,0,0,1-37.5-37.5V87.2a37.51,37.51,0,0,1,37.5-37.5H674.4a37.51,37.51,0,0,1,37.5,37.5V410.4A37.47,37.47,0,0,1,674.4,448Z" transform="translate(-42.7 -49.7)" fill="#161212"/></g><path transform="translate(-42.7 -49.7)" fill="none" style="isolation:isolate"/><rect id="_Slice_" data-name="&lt;Slice&gt;" x="209.3" y="48.6" width="285" height="301" fill="none"/><g id="g11"><path id="path457" d="M96.51,139.12V358.58H695V139.12Z" transform="translate(-42.7 -49.7)" fill="#171110"/><g clip-path="url(#clip-path)"><g id="g605"><g id="g611"><path id="path613" d="M239.27,220.85q0-5.67.57-7c.39-.9,1.36-1.35,2.93-1.35a3.1,3.1,0,0,1,2.95,1.61q.89,1.61.89,6.87,0,4.21-.81,5.58t-12.38,5.33q-10.82,3.67-13.55,6.4t-2.73,10.25V254q0,10.19,5.14,13.19a22,22,0,0,0,11.3,3,17.12,17.12,0,0,0,8.1-1.8,13.93,13.93,0,0,0,5.55-5.43v6h22.91V235.26q0-16.68-1.22-22t-7.27-9q-6.05-3.67-18-3.67-10,0-16.18,3.24t-8.3,7.48q-2.07,4.24-2.06,12.06v3h22.15Zm7.33,30c0,3.36-.22,5.45-.66,6.24s-1.38,1.19-2.83,1.19a3.1,3.1,0,0,1-3.07-1.51q-.77-1.5-.78-6.73a20.92,20.92,0,0,1,.89-6.93q.88-2.41,6.44-6" transform="translate(-42.7 -49.7)" fill="#fff"/></g><g id="g615"><path id="path617" d="M299.23,201.79l-.46,6.41a18,18,0,0,1,6.54-5.72,19,19,0,0,1,8.65-1.9,17.32,17.32,0,0,1,14.9,7.62,20.2,20.2,0,0,1,6.69-5.72,19.86,19.86,0,0,1,18.19.63,11.33,11.33,0,0,1,5,6.21q1.09,3.67,1.1,11.95V269H337V225.19q0-8.56-.66-10.63a2.88,2.88,0,0,0-3.08-2.07,3,3,0,0,0-3.19,2q-.71,2-.72,10.66V269H306.41V226.3q0-9.85-.56-11.83c-.37-1.32-1.39-2-3.06-2a3.91,3.91,0,0,0-3.91,3.59q-.12,1.48-.12,6.38V269H275.85V201.79" transform="translate(-42.7 -49.7)" fill="#fff"/></g><g id="g619"><path id="path621" d="M419.63,227.7q0-9.79-2.6-15.2a19.15,19.15,0,0,0-9-8.66q-6.45-3.26-16.36-3.26a35.66,35.66,0,0,0-14.35,2.71,17.73,17.73,0,0,0-9,7.81q-2.75,5.09-2.74,13.9v19.59q0,7.53,1.22,11.45a17.87,17.87,0,0,0,4.4,7.2,21.34,21.34,0,0,0,8.89,5.13,42.45,42.45,0,0,0,13.19,1.87,37.48,37.48,0,0,0,12.8-1.89,20.52,20.52,0,0,0,8.43-5.67,18.55,18.55,0,0,0,4.23-7.12,38.87,38.87,0,0,0,.91-9.56v-4.95H397.33v8.81q0,5-.91,6.72t-3.62,1.74a3.13,3.13,0,0,1-2.95-1.31c-.51-.87-.77-2.82-.77-5.85V236.62h30.56Zm-30.56-2.07v-4.89q0-5.68.59-7c.4-.86,1.43-1.28,3.11-1.28a2.62,2.62,0,0,1,2.68,1.51q.65,1.51.65,6.74v4.89" transform="translate(-42.7 -49.7)" fill="#fff"/></g><g id="g623"><path id="path625" d="M512,192.78v8.29h6.42v10.69H512V250c0,4.44.27,6.9.8,7.41s2.77.75,6.69.75V269h-9.52a81.81,81.81,0,0,1-11.51-.56,12.7,12.7,0,0,1-6.08-2.68,8.85,8.85,0,0,1-3.26-4.84q-.65-2.71-.65-12.74V211.76h-5V201.07h5v-8.29" transform="translate(-42.7 -49.7)" fill="#ee2622"/></g><g id="g627"><path id="path629" d="M575.94,214.74a18.29,18.29,0,0,0-4.23-6.79,22,22,0,0,0-8.79-5.34,40.69,40.69,0,0,0-13.63-2q-9.47,0-15.54,3.18a17.69,17.69,0,0,0-8.41,8.45Q523,217.48,523,226.86v17.25q0,8.57,1.29,12.86a17.05,17.05,0,0,0,4.29,7.29,18.77,18.77,0,0,0,8.45,4.48,50.89,50.89,0,0,0,13.25,1.49,40.34,40.34,0,0,0,12.42-1.75,20.55,20.55,0,0,0,8.84-5.42,17.81,17.81,0,0,0,4.5-7.9q1.06-4.23,1.06-13.31V225.4q0-7.17-1.14-10.66m-22.38,36.59c0,2.91-.22,4.81-.68,5.68a2.89,2.89,0,0,1-2.83,1.31,2.81,2.81,0,0,1-2.8-1.45q-.71-1.46-.72-6.18V220.35q0-5.19.72-6.52a2.93,2.93,0,0,1,2.86-1.34c1.43,0,2.36.44,2.79,1.34s.66,3.06.66,6.52" transform="translate(-42.7 -49.7)" fill="#ee2622"/></g><g id="g631"><path id="path633" d="M476,230.52q-4.26-5.47-20.62-14-5.7-2.94-7-5c-.88-1.35-1.32-3.4-1.32-6.14a8.14,8.14,0,0,1,1.13-4.74,3.87,3.87,0,0,1,3.34-1.56,3.38,3.38,0,0,1,2.9,1.17c.59.78.87,2.58.87,5.41v6.11h22.76v-3.27q0-9.79-2.18-13.87t-8.9-6.76a43.93,43.93,0,0,0-16.26-2.68,40.27,40.27,0,0,0-14.89,2.45q-6.16,2.45-8.93,6.82t-2.76,13.82A25.58,25.58,0,0,0,426.17,219a18,18,0,0,0,4.92,6.59,110.65,110.65,0,0,0,12.1,7.64q9.13,5.26,11.46,7.47t2.27,9.49a8.58,8.58,0,0,1-1.19,4.95,4.12,4.12,0,0,1-3.63,1.69,3.93,3.93,0,0,1-3.4-1.31q-1-1.3-1-6V241H425v3.87q0,9.28,2.16,14.3t9.13,8.26q7,3.24,16.81,3.24a41,41,0,0,0,15.73-2.8q6.76-2.8,9.12-7T480.29,248q0-12.07-4.26-17.49" transform="translate(-42.7 -49.7)" fill="#ee2622"/></g><g id="g635"><path id="path637" d="M582.54,201.84v76.53h23.78V263a21.25,21.25,0,0,0,6.84,5.23A19,19,0,0,0,621.3,270a18.3,18.3,0,0,0,9.39-2.28,11,11,0,0,0,5.15-6.15q1.26-3.86,1.26-13V220.34q0-8-1-11.28c-.66-2.2-2.33-4.16-5-5.86a17.34,17.34,0,0,0-9.5-2.55,19.55,19.55,0,0,0-8.31,1.76,21.11,21.11,0,0,0-7,5.34l.4-5.9ZM613.31,250q0,5.41-.54,6.78T610,258.19c-1.53,0-2.52-.51-3-1.53s-.68-3.54-.68-7.58V221.3c0-3.88.21-6.32.66-7.34s1.42-1.53,3-1.53,2.52.44,2.86,1.33.52,3.39.52,7.54" transform="translate(-42.7 -49.7)" fill="#ee2622"/></g><g id="g639"><path id="path641" d="M211.71,217.07h-24.6v-7.44q0-7-.7-8.81T183.09,199a3.19,3.19,0,0,0-3.1,1.54c-.54,1-.81,3.62-.81,7.78v39.39q0,5.53.82,7.29a3.26,3.26,0,0,0,3.28,1.75,3.66,3.66,0,0,0,3.65-2q1-2,1-7.69v-9.73H183V226.24h28.72V269H196.2l-2.28-5.83a15.84,15.84,0,0,1-6.34,5.65,20.36,20.36,0,0,1-9,1.86A26.33,26.33,0,0,1,167,268.09a21.08,21.08,0,0,1-8.2-6.47,19.06,19.06,0,0,1-3.5-8.1,84.19,84.19,0,0,1-.7-12.69V216.46q0-11.78,1.46-17.11t8.39-9.78q6.92-4.43,17.9-4.42,10.8,0,17.93,3.85t9.29,9.14q2.16,5.3,2.16,15.39" transform="translate(-42.7 -49.7)" fill="#fff"/></g><g id="g643"><path id="path645" d="M641.28,295.36v-4.07h-1.52v-.55h3.66v.55h-1.52v4.07" transform="translate(-42.7 -49.7)" fill="#fff"/></g><g id="g647"><path id="path649" d="M644,295.36v-4.62h.92L646,294l.22.68c.05-.17.13-.41.25-.74l1.11-3.21h.82v4.62h-.59v-3.86l-1.35,3.86h-.55l-1.33-3.93v3.93" transform="translate(-42.7 -49.7)" fill="#fff"/></g><g id="g651"><path id="path653" d="M178.38,299.46v-5.21s0-3.1-6-3.1H157.25v16.45c2.76,0,6.13-.09,6.13-2.63v-2.41h9c3.42,0,6-.74,6-3.11m-6.08-6v6.87h-8.92v-6.87Zm34.46,5.73v-4.77c0-2.62-2.67-3.32-5.91-3.32h-9.23c-3.24,0-6,.65-6,3.28v4.81c0,2.67,2.76,3.33,6,3.33h9.23c3.15,0,5.91-.61,5.91-3.33m-6-5.73v6.87h-8.92v-6.87Zm38.21,5.78v-8.1H232.8v9.19h-3.32v-9.23c-3.24,0-6.12,1-6.12,2.62v6.61H220.2v-7.18c0-1.49-2.89-2.06-6.13-2.06v8.14c0,2.36,3.06,3.19,6.52,3.28,1.4,0,5-.17,6.08-.92,1.18.65,4.81.92,6.26.92,3.46,0,6-.92,6-3.28m28.45,1.09H252.33v-2.23h9.05c3.63,0,6-.75,6-2.32v-2.27c0-1.27-2.89-2.41-6-2.41h-9c-1.71,0-6.08.48-6.08,2.62v6c0,1.71,3,2.76,6,2.76h8.92c2.71,0,6.13-1.14,6.13-2.19m-6.13-6.87v2.41h-8.92v-2.41Zm32.67,2.32v-1.36c0-2.58-4.64-3.32-8.27-3.32a12.07,12.07,0,0,0-5.42,1.22,9.5,9.5,0,0,0-3.15-1.05,9.81,9.81,0,0,0-1.53-.17h-.87v11.42h6.12v-9.06h7.09c0,1.92,1.88,2.32,4.73,2.32Zm31.43,4.55h-4.42v-6.83c3.54,0,4.42-1.27,4.42-2.36h-4.42v-2.45c0-1.71-1.58-2.23-6-2.23v4.64H311.3v2.36h3.59v6.65c0,2,2.23,2.4,5,2.4,3.24,0,5.42-.57,5.42-2.19m27.86-1.14v-4.77c0-2.62-2.67-3.32-5.91-3.32h-9.23c-3.24,0-6,.65-6,3.28v4.81c0,2.67,2.75,3.33,6,3.33h9.23c3.15,0,5.91-.61,5.91-3.33m-6-5.73v6.87h-8.92v-6.87Zm38.13,6.87h-4.42v-6.83c3.55,0,4.42-1.27,4.42-2.36h-4.42v-2.45c0-1.71-1.57-2.23-6-2.23v4.64h-3.59v2.36h3.59v6.65c0,2,2.23,2.4,5,2.4,3.24,0,5.43-.57,5.43-2.19m27.9,2.19V294c0-2-3.15-2.84-5.91-2.84h-9.1v-4.64c-4.46,0-6.08.66-6.08,2.36v13.7h6v-9.06h8.93v6.7c0,1.22,2.32,2.36,5.51,2.36Zm28.23-2.19H426.37v-2.23h9.06c3.63,0,6-.75,6-2.32v-2.27c0-1.27-2.89-2.41-6-2.41h-9c-1.71,0-6.08.48-6.08,2.62v6c0,1.71,3,2.76,6,2.76h8.93c2.71,0,6.13-1.14,6.13-2.19m-6.13-6.87v2.41h-8.92v-2.41Zm46.39,5.95v-5.21s0-3.1-6-3.1H460.56v16.45c2.75,0,6.12-.09,6.12-2.63v-2.41h9c3.41,0,6-.74,6-3.11m-6.08-6v6.87h-8.92v-6.87Zm19.31,6.7v-13.7h-6v16.06c4.46,0,6-.66,6-2.36m27.9,2.36v-9c0-1.18-2.15-2.41-5.39-2.41H503.25v.22c.17,1.18,1.45,2.15,4.51,2.15h9v2.32h-9.54c-2.49,0-5.47,0-5.47,2.93v.87c0,2.14,2.1,2.93,5.78,2.93Zm-6.09-4.46v2.27h-8.88v-2.27Zm34.36,7V291.15h-6v9.23h-8.93v-6.83c0-2.67-4.33-2.32-6.13-2.41v8.31c0,2.76,2.23,3.11,5.86,3.11h9.19v2.58h-2.49a12.4,12.4,0,0,0-4.2.39c-1.18.48-1.66,1-1.58,1.62v.44h8.31c3.15,0,6-.75,6-2.54m28.25-4.68H564.3v-2.23h9.06c3.63,0,6-.75,6-2.32v-2.27c0-1.27-2.89-2.41-6-2.41h-9c-1.71,0-6.08.48-6.08,2.62v6c0,1.71,3,2.76,6,2.76h8.92c2.71,0,6.13-1.14,6.13-2.19m-6.13-6.87v2.41H564.3v-2.41Zm32.45,2.32v-1.36c0-2.58-4.64-3.32-8.27-3.32a12.08,12.08,0,0,0-5.43,1.22,9.48,9.48,0,0,0-3.15-1.05,9.88,9.88,0,0,0-1.53-.17h-.87v11.42h6.12v-9.06h7.09c0,1.92,1.88,2.32,4.72,2.32Zm22.17-1.8c.79.61,2.45.83,5.42.74v-1.22c0-1.31-2.06-2.54-6.13-2.54h-8.66c-3.15,0-6,.74-6,2.75v1.84c0,2.23,2.62,2.49,6.12,2.49h8.53v2.27H618.6a3.07,3.07,0,0,0-.43-.61c-1-.87-1.93-.74-5.69-.74v.65c0,2.41,2.84,2.89,6.12,2.89h8.66c3.06,0,6-.66,6-2.67v-1.62c0-2-2.71-2.45-5.9-2.45H618.6v-2.32h8.79a1,1,0,0,0,.44.52" transform="translate(-42.7 -49.7)" fill="#fff"/></g><g id="g655"><path id="path657" d="M643.64,204.65h.56c.63,0,1.17-.23,1.17-.83,0-.42-.31-.85-1.17-.85a3.82,3.82,0,0,0-.56,0Zm0,2.67h-.77V202.5a8.7,8.7,0,0,1,1.36-.12,2.53,2.53,0,0,1,1.5.37,1.16,1.16,0,0,1,.44,1,1.2,1.2,0,0,1-.94,1.17v0c.42.08.71.46.81,1.17a4,4,0,0,0,.3,1.19h-.8a3.54,3.54,0,0,1-.33-1.23.9.9,0,0,0-1-.85h-.54Zm.81-6.17a3.67,3.67,0,0,0,0,7.32,3.67,3.67,0,0,0,0-7.32Zm0-.67a4.33,4.33,0,1,1-4.31,4.33,4.27,4.27,0,0,1,4.31-4.33" transform="translate(-42.7 -49.7)" fill="#ee2622"/></g></g></g></g></svg>