<?xml version="1.0" encoding="utf-8"?>
<!-- Generator: Adobe Illustrator 24.3.0, SVG Export Plug-In . SVG Version: 6.00 Build 0)  -->
<svg version="1.1" xmlns="http://www.w3.org/2000/svg" xmlns:xlink="http://www.w3.org/1999/xlink" x="0px" y="0px"
	 viewBox="0 0 749.1 516.3" style="enable-background:new 0 0 749.1 516.3;" xml:space="preserve">
<style type="text/css">
	.st0{opacity:0.67;}
	.st1{opacity:0.19;fill:#666666;enable-background:new    ;}
	.st2{opacity:0.62;}
	.st3{opacity:0.19;fill:#808080;enable-background:new    ;}
	.st4{fill:#48A0FF;}
	.st5{display:none;}
	.st6{display:inline;fill-rule:evenodd;clip-rule:evenodd;fill:#FF9900;}
	.st7{display:inline;fill-rule:evenodd;clip-rule:evenodd;fill:#FFFFFF;}
	.st8{display:inline;}
	.st9{fill:#F48256;}
	.st10{fill:url(#SVGID_1_);}
	.st11{fill:#FFFFFF;}
	.st12{display:none;fill:#FFFFFF;}
</style>
<g id="Layer_1">
	<g id="Layer_7" class="st0">
		<path class="st1" d="M657.9,463.5H97.2c-20.7,0-37.5-16.8-37.5-37.5V102.7c0-20.7,16.8-37.5,37.5-37.5h560.7
			c20.7,0,37.5,16.8,37.5,37.5V426C695.5,446.7,678.6,463.5,657.9,463.5z"/>
	</g>
	<g id="Layer_8" class="st2">
		<path class="st3" d="M640.9,480H80.2c-20.7,0-37.5-16.8-37.5-37.5V119.2c0-20.7,16.8-37.5,37.5-37.5h560.7
			c20.7,0,37.5,16.8,37.5,37.5v323.2C678.4,463.2,661.6,480,640.9,480z"/>
	</g>
	<g id="Layer_2_1_">
		<g id="Layer_5">
		</g>
		<g id="Layer_4">
		</g>
		<path class="st4" d="M674.4,448H113.7c-20.7,0-37.5-16.8-37.5-37.5V87.2c0-20.7,16.8-37.5,37.5-37.5h560.7
			c20.7,0,37.5,16.8,37.5,37.5v323.2C712,431.2,695.1,448,674.4,448z"/>
	</g>
	<g id="Layer_3" class="st5">
		<path id="path8" class="st6" d="M452.8,299.6c-29.9,22-73.3,33.8-110.6,33.8c-52.3,0-99.5-19.4-135.1-51.6c-2.8-2.5-0.3-6,3.1-4
			c38.5,22.4,86,35.8,135.2,35.8c33.1,0,69.6-6.9,103.1-21.1C453.5,290.5,457.8,296,452.8,299.6"/>
		<path id="path10" class="st6" d="M465.3,285.4c-3.8-4.9-25.3-2.3-34.9-1.2c-2.9,0.4-3.4-2.2-0.7-4c17.1-12,45.1-8.6,48.4-4.5
			s-0.9,32.2-16.9,45.6c-2.5,2.1-4.8,1-3.7-1.8C461,310.5,469.1,290.3,465.3,285.4"/>
		<path id="path12" class="st7" d="M431,195.3v-11.7c0-1.8,1.3-3,3-3h52.4c1.7,0,3,1.2,3,3v10c0,1.7-1.4,3.9-3.9,7.3l-27.1,38.7
			c10.1-0.2,20.7,1.3,29.9,6.4c2.1,1.2,2.6,2.9,2.8,4.5V263c0,1.7-1.9,3.7-3.9,2.7c-16.1-8.4-37.5-9.4-55.3,0.1
			c-1.8,1-3.7-1-3.7-2.7v-11.9c0-1.9,0-5.2,1.9-8l31.4-45.1H434C432.4,198.2,431,197,431,195.3"/>
		<path id="path14" class="st7" d="M240,268.2h-15.9c-1.5-0.1-2.7-1.3-2.8-2.7v-81.8c0-1.6,1.4-2.9,3.1-2.9h14.9
			c1.5,0.1,2.8,1.3,2.9,2.7v10.7h0.3c3.9-10.3,11.2-15.1,21-15.1c10,0,16.2,4.8,20.7,15.1c3.9-10.3,12.6-15.1,22-15.1
			c6.7,0,14,2.8,18.4,8.9c5,6.9,4,16.9,4,25.6v51.6c0,1.6-1.4,3-3.1,3h-15.9c-1.6-0.1-2.9-1.4-2.9-3v-43.3c0-3.5,0.3-12.1-0.4-15.3
			c-1.2-5.5-4.7-7-9.4-7c-3.9,0-7.9,2.6-9.5,6.7c-1.6,4.1-1.5,11-1.5,15.7v43.3c0,1.6-1.4,3-3.1,3h-15.9c-1.6-0.1-2.9-1.4-2.9-3V222
			c0-9.1,1.5-22.5-9.8-22.5c-11.4,0-11,13.1-11,22.5v43.3C243.1,266.9,241.7,268.2,240,268.2"/>
		<path id="path16" class="st7" d="M534.4,179.1c23.6,0,36.4,20.3,36.4,46.1c0,24.9-14.1,44.7-36.4,44.7
			c-23.2,0-35.8-20.3-35.8-45.6C498.6,198.9,511.4,179.1,534.4,179.1 M534.6,195.8c-11.7,0-12.5,16-12.5,26s-0.2,31.3,12.3,31.3
			c12.3,0,12.9-17.2,12.9-27.7c0-6.9-0.3-15.1-2.4-21.7C543.2,198,539.6,195.8,534.6,195.8"/>
		<path id="path18" class="st7" d="M601.5,268.2h-15.9c-1.6-0.1-2.9-1.4-2.9-3v-81.8c0.1-1.5,1.5-2.7,3.1-2.7h14.8
			c1.4,0.1,2.5,1,2.8,2.3v12.5h0.3c4.5-11.2,10.7-16.5,21.7-16.5c7.1,0,14.1,2.6,18.6,9.6c4.2,6.5,4.2,17.5,4.2,25.5v51.5
			c-0.2,1.4-1.5,2.6-3.1,2.6h-16c-1.5-0.1-2.7-1.2-2.8-2.6v-44.4c0-8.9,1-22-10-22c-3.9,0-7.4,2.6-9.2,6.5c-2.2,5-2.5,10-2.5,15.5
			v44C604.6,266.9,603.2,268.2,601.5,268.2"/>
		<path id="path28" class="st7" d="M389.3,229.2c0,6.2,0.2,11.4-3,16.9c-2.5,4.5-6.6,7.2-11,7.2c-6.1,0-9.7-4.7-9.7-11.5
			c0-13.6,12.2-16,23.7-16V229.2 M405.3,268c-1.1,0.9-2.6,1-3.8,0.4c-5.3-4.4-6.3-6.4-9.1-10.6c-8.7,8.9-14.9,11.6-26.3,11.6
			c-13.4,0-23.8-8.3-23.8-24.8c0-12.9,7-21.7,17-26c8.6-3.8,20.7-4.5,30-5.5V211c0-3.8,0.3-8.3-1.9-11.5c-1.9-2.9-5.6-4.1-8.9-4.1
			c-6.1,0-11.5,3.1-12.8,9.6c-0.3,1.4-1.3,2.8-2.8,2.9l-15.4-1.7c-1.3-0.3-2.8-1.3-2.4-3.3c3.5-18.7,20.5-24.4,35.6-24.4
			c7.8,0,17.9,2.1,24,7.9c7.8,7.2,7,16.9,7,27.4v24.8c0,7.5,3.1,10.7,6,14.8c1,1.4,1.2,3.2-0.1,4.2
			C414.3,260.2,408.6,265.2,405.3,268L405.3,268"/>
		<path id="path30" class="st7" d="M180.5,229.2c0,6.2,0.2,11.4-3,16.9c-2.5,4.5-6.5,7.2-11,7.2c-6.1,0-9.7-4.7-9.7-11.5
			c0-13.6,12.2-16,23.7-16V229.2 M196.5,268c-1.1,0.9-2.6,1-3.8,0.4c-5.3-4.4-6.2-6.4-9.1-10.6c-8.7,8.9-14.9,11.6-26.3,11.6
			c-13.4,0-23.8-8.3-23.8-24.8c0-12.9,7-21.7,17-26c8.6-3.8,20.7-4.5,30-5.5V211c0-3.8,0.3-8.3-1.9-11.5c-1.9-2.9-5.7-4.1-8.9-4.1
			c-6.1,0-11.5,3.1-12.8,9.6c-0.3,1.4-1.3,2.8-2.8,2.9l-15.5-1.7c-1.3-0.3-2.7-1.3-2.4-3.3c3.6-18.7,20.5-24.4,35.6-24.4
			c7.8,0,17.9,2.1,24,7.9c7.8,7.2,7,16.9,7,27.4v24.8c0,7.5,3.1,10.7,6,14.8c1,1.4,1.3,3.2,0,4.2C205.5,260.2,199.7,265.2,196.5,268
			L196.5,268"/>
		<g id="Layer_6" class="st8">
		</g>
	</g>
	<g id="Layer_2" class="st5">
		<g class="st8">
			<g>
				<path class="st9" d="M197.4,167.2c1.1-0.1,2.2,0.1,3.4,0.5c-7.3,10-8.7,28.8-8.9,35.9h5.1c0.3-9.3,2.1-25.4,7.9-33
					c6.8,7,11.1,22.4,12.5,33h5.1c-1.4-11.6-6.1-28.2-13.8-36.4c1.1-0.6,2.3-0.9,3.7-0.9c2.4,0,4.6,1.1,6.7,3.4
					c7.4,8.1,10.7,26.9,11.4,33.9h5.1c-0.6-7.8-3.9-25.6-11.1-35.3c-3.5-4.7-7.6-7.1-12.1-7.1c-3,0-5.6,1-7.8,2.6
					c-2.4-1.4-5-2-7.6-1.7c-13.5,1.4-17.1,22.3-17.6,41.5h5.1C185,181.2,189.6,168,197.4,167.2z"/>
				
					<linearGradient id="SVGID_1_" gradientUnits="userSpaceOnUse" x1="290.3873" y1="-609.5574" x2="313.1876" y2="-582.3851" gradientTransform="matrix(4.7622 0 0 4.7622 -1231.6007 3098.6082)">
					<stop  offset="0" style="stop-color:#00BFF2"/>
					<stop  offset="1" style="stop-color:#007DC4"/>
				</linearGradient>
				<path class="st10" d="M269.2,203.4c0-0.6-0.6-1.1-1.3-1.1l-13.5-1.9c-0.1,0-0.2-0.1-0.4-0.1c-5.2,0-24.3-0.1-53.9-0.1
					c-29.8,0-48.9,0.4-54,0.5c-0.8,0-1.5,0.6-1.5,1.3c-0.3,5.1-1.5,25.1-3.2,55.9c-1.8,32.6-2.8,50.3-3,55c0,0.7,0.5,1.3,1.2,1.4
					l53.7,8.1l53.1,8c0.4,0.1,0.9,0,1.2-0.3v0l26.2-16.8c0.7-0.5,1.1-1.2,1-2L269.2,203.4z"/>
				<g>
					<g>
						<g>
							<g>
								<path class="st11" d="M215.2,290.9h-1.9v-0.7h4.5v0.7h-1.9v5.1h-0.7L215.2,290.9L215.2,290.9z"/>
								<path class="st11" d="M220.8,296l-1.6-4.7v4.7h-0.7v-5.8h1l1.6,4.9l1.6-4.9h1v5.8h-0.7v-4.7l-1.6,4.7L220.8,296L220.8,296z"
									/>
							</g>
						</g>
					</g>
					<g>
						<path class="st11" d="M184.6,225.6V288l14.1,4.5v-52.3c0-2.5,1.1-4.1,2.9-3.5c2.3,0.6,2.8,2.9,2.8,5.3v20.9
							c8.8,4.3,15.7,0,15.7-11.2c0-11.5-4.1-16.6-16-20.7C199.3,229.4,190.6,226.8,184.6,225.6"/>
						<path class="st11" d="M201.4,283.4l22.7-8.1c2.6-0.9,3-2.2,0.9-2.9c-2.1-0.7-5.9-0.5-8.5,0.4l-15.1,5.3v-8.5l0.9-0.3
							c0,0,4.4-1.5,10.5-2.2c6.1-0.7,13.7,0.1,19.6,2.3c6.7,2.1,7.4,5.2,5.7,7.3c-1.7,2.1-5.9,3.7-5.9,3.7l-30.8,11.1L201.4,283.4
							L201.4,283.4L201.4,283.4z"/>
						<path class="st11" d="M158.7,282.5c-6.8-1.9-8-5.9-4.9-8.2c2.9-2.1,7.8-3.7,7.8-3.7l20.2-7.2v8.2l-14.5,5.2
							c-2.6,0.9-3,2.2-0.9,2.9c2.1,0.7,5.9,0.5,8.4-0.4l7-2.5v7.3c-0.5,0.1-1,0.2-1.4,0.2C173.5,285.4,166,284.9,158.7,282.5"/>
					</g>
				</g>
			</g>
			<g>
				<g>
					<path class="st11" d="M344.1,196.5l-20.1,0c-0.1,0-0.2,0.1-0.2,0.1v47c0,0.1,0.1,0.1,0.2,0.1h8.1c0.1,0,0.2-0.1,0.2-0.1v-41.9
						c0,0,0-0.1,0.1-0.1l9.3,0c3.4,0,5.3,3.4,5.3,9.6c0,6.2-1.9,9.6-5.3,9.6h-5.6c-0.1,0-0.1,0.1-0.1,0.1v4.9c0,0.1,0.1,0.1,0.1,0.1
						h8c2.8,0,5.6-1.3,7.6-3.6c2.4-2.7,3.6-6.5,3.6-11.2C355.4,202.4,350.9,196.5,344.1,196.5"/>
					<path class="st11" d="M368.7,196.5h-8.1c-0.1,0-0.1,0.1-0.1,0.1v47c0,0.1,0.1,0.1,0.1,0.1h8.1c0.1,0,0.1-0.1,0.1-0.1v-47
						C368.8,196.6,368.7,196.5,368.7,196.5"/>
					<path class="st11" d="M404.2,208c0-0.1-0.1-0.1-0.1-0.1h-14.5c-13,0-14.7,9.6-14.7,18l0,7.3c0,6.2,3.9,10.8,9.2,10.8h7.9
						c0.1,0,0.1-0.1,0.1-0.1v-4.9c0-0.1-0.1-0.2-0.1-0.2l-5.7,0c-1.3,0-3.1-0.6-3.1-5v-7.8c0-5.2,0.5-8.5,1.5-10.4
						c1.2-2.1,3-2.4,4.7-2.4l6.2,0c0,0,0,0,0,0.1l0,30.6c0,0.1,0.1,0.1,0.1,0.1h8.1c0.1,0,0.1-0.1,0.1-0.1l0-35.5L404.2,208
						L404.2,208L404.2,208z"/>
					<path class="st11" d="M462.8,216.2l-4-0.3c-3-0.3-5.2-1.9-5.2-6.9c0-5.8,2.6-7.3,6-7.3h11.1c0.1,0,0.1-0.1,0.1-0.1v-4.9
						c0-0.1-0.1-0.1-0.1-0.1h-0.2h0l-12,0c-7.6,0-13,4.4-13,13.3v0.4c0,7,4.3,12.1,10.7,12.6l4,0.3c3,0.2,4.9,2.9,4.9,7.1v1.2
						c0,2.6-0.6,7.3-6.2,7.3h-11.3h-0.2c-0.1,0-0.1,0.1-0.1,0.2v4.9c0,0.1,0.1,0.1,0.1,0.1h14.3c4.4,0,11.8-1.8,11.8-13.8
						c0-4.3-1-7.8-3-10.2C468.8,217.6,466.3,216.5,462.8,216.2"/>
					<path class="st11" d="M529.6,208c0-0.1-0.1-0.1-0.1-0.1h-14.5c-13,0-14.7,9.6-14.7,18l0,7.3c0,6.2,3.9,10.8,9.2,10.8h7.9
						c0.1,0,0.2-0.1,0.2-0.1v-4.9c0-0.1-0.1-0.2-0.2-0.2l-5.7,0c-1.3,0-3.1-0.6-3.1-5v-7.8c0-5.2,0.5-8.5,1.6-10.4
						c1.2-2.1,3-2.4,4.7-2.4l6.2,0c0,0,0.1,0,0.1,0.1l0,30.6c0,0.1,0.1,0.1,0.1,0.1h8.1c0.1,0,0.1-0.1,0.1-0.1L529.6,208L529.6,208z
						"/>
					<path class="st11" d="M496.8,207.8H488c0,0-0.1,0-0.1-0.1l0,0l0-5.9c0-0.1-0.1-0.1-0.1-0.1h-8.1c-0.1,0-0.1,0.1-0.1,0.1v31.2
						c0,6.2,3.9,10.8,9.2,10.8h5.8c0.1,0,0.1-0.1,0.1-0.1v-4.9c0-0.1-0.1-0.2-0.1-0.2H491c-0.9,0-3.1-0.1-3.1-4.7v-21c0,0,0,0,0.1,0
						c2.7,0,8.8,0,8.8,0c0.1,0,0.1-0.1,0.1-0.1V208C497,207.9,496.9,207.8,496.8,207.8"/>
					<path class="st11" d="M553.7,207.8h-8.8c0,0-0.1,0-0.1-0.1l0,0l0-5.9c0-0.1-0.1-0.1-0.1-0.1h-8.1c-0.1,0-0.2,0.1-0.2,0.1v31.2
						c0,6.2,3.9,10.8,9.2,10.8h5.8c0.1,0,0.1-0.1,0.1-0.1v-4.9c0-0.1-0.1-0.2-0.1-0.2h-3.6c-0.9,0-3.1-0.1-3.1-4.7v-21
						c0,0,0,0,0.1,0c2.7,0,8.8,0,8.8,0c0.1,0,0.1-0.1,0.1-0.1V208C553.9,207.9,553.8,207.8,553.7,207.8"/>
					<path class="st11" d="M567.2,207.8h-8.1c-0.1,0-0.2,0.1-0.2,0.1v35.7c0,0.1,0.1,0.1,0.2,0.1h8.1c0.1,0,0.1-0.1,0.1-0.1V208
						C567.3,207.9,567.3,207.8,567.2,207.8"/>
					<path class="st11" d="M567.2,196.5h-8.1c-0.1,0-0.2,0.1-0.2,0.1v6.8c0,0.1,0.1,0.1,0.2,0.1h8.1c0.1,0,0.1-0.1,0.1-0.1v-6.8
						C567.3,196.6,567.3,196.5,567.2,196.5"/>
					<path class="st11" d="M623.5,207.8H609c-0.1,0-0.1,0.1-0.1,0.1l0,35.7c0,0.1,0.1,0.1,0.1,0.1h8.1c0.1,0,0.1-0.1,0.1-0.1l0-30.6
						c0,0,0-0.1,0.1-0.1l6.2,0c1.7,0,3.5,0.3,4.7,2.2c1.1,1.8,1.6,4.8,1.6,9.7c0,0.2,0,18.8,0,18.8c0,0.1,0.1,0.1,0.2,0.1h8.1
						c0.1,0,0.1-0.1,0.1-0.1v-17.9C638.2,217.4,636.5,207.8,623.5,207.8"/>
					<path class="st11" d="M588.1,207.8c-13.6,0-15.4,9.6-15.4,18c0,8.4,1.7,18,15.3,18c13.6,0,15.4-9.6,15.4-18
						C603.4,217.5,601.7,207.8,588.1,207.8 M593.3,236.3c-1.3,2.1-3.3,2.4-5.2,2.4c-1.8,0-3.9-0.3-5.2-2.4
						c-1.2-1.9-1.7-5.2-1.7-10.5v0c0-6.2,0.8-9.7,2.5-11.4c1-1,2.3-1.4,4.4-1.4c2.1,0,3.4,0.4,4.4,1.4c1.7,1.7,2.5,5.2,2.5,11.4
						C595,231.1,594.4,234.4,593.3,236.3"/>
					<path class="st11" d="M408.8,207.8c-0.1,0-0.1,0.1-0.1,0.1l12.1,35.4c0,0.1,0,0.2,0,0.3l-6.8,17.5c0,0.1,0,0.1,0.1,0.1h7.1
						c0.1,0,0.2-0.1,0.2-0.1l21.2-53.2c0-0.1,0-0.1-0.1-0.1h-7.7c-0.1,0-0.2,0.1-0.2,0.1l-9,23.3c0,0.1-0.1,0.1-0.1,0l-7.9-23.3
						c0-0.1-0.1-0.1-0.2-0.1L408.8,207.8L408.8,207.8z"/>
					<path class="st11" d="M349.6,272c-3.3-1.3-6.9-2-10.4-2c-4.5,0-9.5,1.7-9.5,7.2c0,4.2,2.5,6.6,9.9,9.4
						c8.9,3.4,13.6,7,13.6,14.4c0,9.3-8.1,13.1-15.9,13.1c-4.2,0-9.5-0.9-14-2.9l1.5-5c4.3,2.1,8.9,3.1,12.7,3.1
						c5.7,0,10-2.5,10-7.8c0-4.8-4.2-7.3-11.3-10.2c-8.1-3.2-12.1-7.3-12.1-13.6c0-8.7,8.2-12.5,15.4-12.5c4.2,0,8.3,0.7,11.7,2
						L349.6,272z"/>
					<path class="st11" d="M354.7,278.3h6.2v-8.8h5.6v8.8h8.1v4.4h-8.1v20.9c0,4.8,0.5,5.6,4.4,5.6c1.5,0,2.5-0.1,3.7-0.3v4.2
						c-1.3,0.2-3.4,0.5-5.3,0.5c-7.3,0-8.5-3.5-8.5-9.7v-21.3h-6.2L354.7,278.3L354.7,278.3z"/>
					<path class="st11" d="M392.9,314.1c-10,0-16.2-7-16.2-18.4c0-11.4,6.2-18.2,16.2-18.2c10,0,16.2,6.8,16.2,18.2
						C409.2,307.1,402.9,314.1,392.9,314.1 M392.9,281.9c-7.3,0-10.6,5.7-10.6,13.8c0,8.1,3.4,13.9,10.6,13.9
						c7.3,0,10.6-5.8,10.6-13.9C403.5,287.6,400.2,281.9,392.9,281.9"/>
					<path class="st11" d="M430.6,282.1c-0.8-0.1-1.8-0.2-2.9-0.2c-4.6,0-8.3,2.7-8.3,10.9v20.5h-5.6v-35h5.4v4.7h0.1
						c1.7-3.7,4.6-5.5,9.1-5.5c0.6,0,1.5,0,2.5,0.1L430.6,282.1z"/>
					<path class="st11" d="M436,297.3c0.4,7.5,5,12.3,12.4,12.3c3.2,0,6.7-0.6,9.4-1.7l0.9,4.3c-2.9,1.3-6.8,1.9-10.5,1.9
						c-11.6,0-17.7-7.8-17.7-18.2c0-10.6,6-18.4,15.8-18.4c9.8,0,14.5,6.8,14.5,17.1v2.7L436,297.3L436,297.3L436,297.3z M436,292.9
						h19.7v-0.3c0-6.7-3.8-10.7-9.3-10.7C440.2,281.9,436.6,286.5,436,292.9"/>
					<g>
						<path class="st11" d="M643.8,238.2h-2.1v-0.7h5v0.7h-2.1v5.6h-0.8L643.8,238.2L643.8,238.2z"/>
						<path class="st11" d="M650.1,243.8l-1.7-5.1v5.1h-0.8v-6.3h1.2l1.8,5.4l1.8-5.4h1.1v6.3h-0.8v-5.1l-1.7,5.1H650.1z"/>
					</g>
				</g>
			</g>
		</g>
	</g>
	<path class="st12" d="M695.4,217.4h-2.8v-6.9l-2.8,4.5h-1.4l-1.4-4.5v6.9h-2.8v-11.7h2.8l2.8,6.3l2.8-6.3h2.8V217.4z M683,207.7
		h-2.8v9.6h-2.8v-9.6h-2.8v-2.1h8.3V207.7z M667.8,251.1h-8.3v-26.5l-9.6,17.2h-5.5l-8.3-17.2v26.5h-9.6v-45.5h9.6l11,24.5
		l12.4-24.5h8.3V251.1z M614.1,251.1h-9.6l-2.8-8h-15.2l-2.8,8h-9.6l16.5-45.5h6.9L614.1,251.1z M600.3,235.6l-5.5-16.5l-5.5,16.5
		H600.3z M560.4,251.1h-30.3v-45.5h30.3v7.9h-20.7v10.7h17.9v7.9h-17.9v11.2h20.7V251.1L560.4,251.1z M516.3,213.5h-11v37.6h-9.6
		v-37.6h-12.4v-7.9h33.1V213.5z M472.2,237.8c0,9.4-8.3,13.6-16.5,13.8c-8.3,0-13.8-1.9-16.5-6.1l5.5-5.6c2.8,2.5,5.5,3.9,11,3.9
		c5.5,0,8.3-1.9,8.3-5.6c0-3.4-2.8-5-5.5-5.5l-5.5-0.7c-8.3-1.1-12.4-5.4-12.4-12.8c0-4.1,1.4-7.4,4.1-10.1c2.8-2.5,6.9-3.7,11-3.7
		c6.9,0,11,1.8,15.2,5.2l-5.5,5.6c-2.8-2.1-5.5-3.2-9.6-3.2c-4.1,0.3-6.9,1.8-6.9,5.8c0,3.2,2.8,4.7,5.5,5l5.5,0.8
		C466.7,225.4,472.2,230,472.2,237.8z M401.9,229.5c0,12.4-11,22.5-23.4,22.5c-12.4,0-22-10.1-22-22.5c0-12.3,9.6-22.3,22-22.3
		C390.9,207.2,401.9,217.2,401.9,229.5z M378.5,187.9c-22,0-41.3,18.5-41.3,41.5L311,266.7c-1.4-0.1-1.4-0.3-2.8-0.3
		c-5.5,0-11,1.7-16.5,4.4l-117.7-47.4c-3.2-14.1-15.7-24.5-30.6-24.5c-17.1,0-31.2,14.1-31.2,31.3c0,17.1,14.1,31.1,31.2,31.1
		c5.9,0,11.3-1.5,16-4.4l118.5,47.4c2.8,14.5,15.2,24.1,30.3,24.1s28.9-12.4,30.3-27.7l40-29.2c23.4,0,42.7-18.7,42.7-41.9
		C421.2,206.6,401.9,187.9,378.5,187.9z M378.5,201.7c16.5,0,28.9,12.5,28.9,28c0,15.6-12.4,28.1-28.9,28.1
		c-15.2,0-27.6-12.5-27.6-28.1C351,214.2,363.4,201.7,378.5,201.7L378.5,201.7z M143.5,207.2c8.8,0,16.5,4.8,20.4,12.1l-11.4-4.5
		c-9.2-3.3-19.4,1.2-23.1,10.3c-3.6,9.2,0.6,19.6,9.5,23.6l9.6,3.9c-1.5,0.4-3.2,0.6-5,0.6c-12.7,0-22.9-10.2-22.9-22.9
		C120.6,217.4,130.8,207.2,143.5,207.2z M308.2,274.7c12.4,0,22,10.3,22,23c0,12.8-9.6,22.5-22,22.5c-9.6,0-16.5-4.1-20.7-11.7
		c4.1,2.1,6.9,3.4,11,4.8c9.6,4.1,19.3-1.4,23.4-10.2c2.8-8.5,0-20.3-9.6-24l-9.6-3.9C304.1,275,306.9,274.7,308.2,274.7
		L308.2,274.7z"/>
</g>
<g id="Layer_3_1_">
	<path class="st11" d="M258.5,269.2c-3.7,8.1-5.4,11.7-10.1,18.9c-6.6,10-15.8,22.5-27.3,22.6c-10.2,0.1-12.8-6.6-26.7-6.6
		c-13.9,0.1-16.7,6.7-26.9,6.6c-11.5-0.1-20.3-11.4-26.9-21.4c-18.4-28-20.3-60.8-9-78.3c8.1-12.4,20.8-19.7,32.7-19.7
		c12.2,0,19.8,6.7,29.9,6.7c9.8,0,15.7-6.7,29.8-6.7c10.6,0,21.9,5.8,29.9,15.8C227.7,221.6,231.9,259.1,258.5,269.2L258.5,269.2z"
		/>
	<path class="st11" d="M213.4,180.2c5.1-6.6,9-15.8,7.6-25.3c-8.4,0.6-18.1,5.9-23.8,12.8c-5.2,6.3-9.5,15.6-7.8,24.7
		C198.4,192.6,207.9,187.2,213.4,180.2z"/>
	<g>
		<path class="st11" d="M305.2,224.7c0,5.7-4.3,10.3-11.1,10.3c-6.5,0-10.8-4.6-10.7-10.3c-0.1-5.9,4.2-10.4,10.8-10.4
			C300.9,214.3,305.1,218.7,305.2,224.7z M284,309.2v-66.1h20.6v66.1H284z M339.3,235.4h-24.5v-17.3h70v17.3H360v73.8h-20.7
			L339.3,235.4z M450.2,288c0,8.6,0.3,15.7,0.5,21.2h-17.8l-0.9-9.3h-0.4c-2.6,4.1-8.8,10.8-20.7,10.8c-13.4,0-23.3-8.4-23.3-28.8
			v-38.8h20.7v35.6c0,9.6,3.1,15.4,10.3,15.4c5.7,0,8.9-3.9,10.3-7.2c0.5-1.2,0.7-2.8,0.7-4.5v-39.3h20.7L450.2,288L450.2,288
			L450.2,288z M466.7,264.2c0-8.3-0.3-15.3-0.5-21.1H484l0.9,9.1h0.4c2.7-4.2,9.5-10.5,20.4-10.5c13.5,0,23.7,8.9,23.7,28.4v39.2
			h-20.5v-36.6c0-8.5-3-14.3-10.4-14.3c-5.7,0-9.1,3.9-10.4,7.7c-0.5,1.4-0.8,3.2-0.8,5.1v38.1h-20.6L466.7,264.2L466.7,264.2
			L466.7,264.2z M561.7,282.7c0.7,8.5,9.1,12.6,18.7,12.6c7,0,12.7-0.9,18.3-2.7l2.7,13.9c-6.8,2.7-15,4.2-23.9,4.2
			c-22.5,0-35.3-13.1-35.3-33.8c0-16.8,10.4-35.3,33.4-35.3c21.4,0,29.5,16.6,29.5,33c0,3.5-0.4,6.6-0.7,8.1L561.7,282.7
			L561.7,282.7z M585.9,268.6c0-5-2.2-13.4-11.6-13.4c-8.7,0-12.2,7.8-12.7,13.4H585.9z M617.1,291.2c3.8,2.3,11.6,5,17.7,5
			c6.2,0,8.8-2.2,8.8-5.5c0-3.4-2-5-9.7-7.6c-13.7-4.6-18.9-12-18.8-19.7c0-12.4,10.5-21.8,26.9-21.8c7.7,0,14.6,1.8,18.7,3.8
			l-3.7,14.2c-3-1.6-8.6-3.8-14.3-3.8c-5,0-7.8,2-7.8,5.4c0,3.1,2.6,4.7,10.7,7.6c12.6,4.3,17.8,10.7,18,20.4
			c0,12.3-9.7,21.5-28.7,21.5c-8.6,0-16.4-2-21.4-4.7L617.1,291.2L617.1,291.2z"/>
	</g>
</g>
</svg>
