<?xml version="1.0" encoding="utf-8"?>
<!-- Generator: Adobe Illustrator 21.0.0, SVG Export Plug-In . SVG Version: 6.00 Build 0)  -->
<svg version="1.1" id="Layer_1" xmlns="http://www.w3.org/2000/svg" xmlns:xlink="http://www.w3.org/1999/xlink" x="0px" y="0px"
	 viewBox="0 0 749.1 516.3" style="enable-background:new 0 0 749.1 516.3;" xml:space="preserve">
<style type="text/css">
	.st0{opacity:0.67;}
	.st1{opacity:0.19;fill:#666666;enable-background:new    ;}
	.st2{opacity:0.62;}
	.st3{opacity:0.19;fill:#808080;enable-background:new    ;}
	.st4{fill:#F7F7F7;}
	.st5{display:none;}
	.st6{display:inline;fill:#FF9900;}
	.st7{display:inline;fill:#FFFFFF;}
	.st8{display:inline;}
	.st9{fill:#F48256;}
	.st10{fill:url(#SVGID_1_);}
	.st11{fill:#FFFFFF;}
	.st12{display:none;fill:#FFFFFF;}
	.st13{fill:url(#path1192_2_);}
	.st14{fill:url(#path1203_2_);}
	.st15{fill:url(#path1210_2_);}
	.st16{fill:url(#path1223_2_);}
	.st17{opacity:0.2;enable-background:new    ;}
	.st18{opacity:0.12;enable-background:new    ;}
	.st19{opacity:0.25;fill:#FFFFFF;enable-background:new    ;}
	.st20{fill:#808285;}
	.st21{fill:url(#path1192_3_);}
	.st22{fill:url(#path1203_3_);}
	.st23{fill:url(#path1210_3_);}
	.st24{fill:url(#path1223_3_);}
</style>
<g id="Layer_1_1_">
	<g id="Layer_7" class="st0">
		<path class="st1" d="M657.9,463.5H97.2c-20.7,0-37.5-16.8-37.5-37.5V102.7c0-20.7,16.8-37.5,37.5-37.5h560.7
			c20.7,0,37.5,16.8,37.5,37.5V426C695.5,446.7,678.6,463.5,657.9,463.5z"/>
	</g>
	<g id="Layer_8" class="st2">
		<path class="st3" d="M640.9,480H80.2c-20.7,0-37.5-16.8-37.5-37.5V119.2c0-20.7,16.8-37.5,37.5-37.5h560.7
			c20.7,0,37.5,16.8,37.5,37.5v323.2C678.4,463.2,661.6,480,640.9,480z"/>
	</g>
	<g id="Layer_2_1_">
		<g id="Layer_5">
		</g>
		<g id="Layer_4">
		</g>
		<path class="st4" d="M674.4,448H113.7c-20.7,0-37.5-16.8-37.5-37.5V87.2c0-20.7,16.8-37.5,37.5-37.5h560.7
			c20.7,0,37.5,16.8,37.5,37.5v323.2C712,431.2,695.1,448,674.4,448z"/>
	</g>
	<g id="Layer_3" class="st5">
		<path id="path8" class="st6" d="M452.8,299.6c-29.9,22-73.3,33.8-110.6,33.8c-52.3,0-99.5-19.4-135.1-51.6c-2.8-2.5-0.3-6,3.1-4
			c38.5,22.4,86,35.8,135.2,35.8c33.1,0,69.6-6.9,103.1-21.1C453.5,290.5,457.8,296,452.8,299.6"/>
		<path id="path10" class="st6" d="M465.3,285.4c-3.8-4.9-25.3-2.3-34.9-1.2c-2.9,0.4-3.4-2.2-0.7-4c17.1-12,45.1-8.6,48.4-4.5
			s-0.9,32.2-16.9,45.6c-2.5,2.1-4.8,1-3.7-1.8C461,310.5,469.1,290.3,465.3,285.4"/>
		<path id="path12" class="st7" d="M431,195.3v-11.7c0-1.8,1.3-3,3-3h52.4c1.7,0,3,1.2,3,3v10c0,1.7-1.4,3.9-3.9,7.3l-27.1,38.7
			c10.1-0.2,20.7,1.3,29.9,6.4c2.1,1.2,2.6,2.9,2.8,4.5V263c0,1.7-1.9,3.7-3.9,2.7c-16.1-8.4-37.5-9.4-55.3,0.1
			c-1.8,1-3.7-1-3.7-2.7v-11.9c0-1.9,0-5.2,1.9-8l31.4-45.1H434C432.4,198.2,431,197,431,195.3"/>
		<path id="path14" class="st7" d="M240,268.2h-15.9c-1.5-0.1-2.7-1.3-2.8-2.7v-81.8c0-1.6,1.4-2.9,3.1-2.9h14.9
			c1.5,0.1,2.8,1.3,2.9,2.7v10.7h0.3c3.9-10.3,11.2-15.1,21-15.1c10,0,16.2,4.8,20.7,15.1c3.9-10.3,12.6-15.1,22-15.1
			c6.7,0,14,2.8,18.4,8.9c5,6.9,4,16.9,4,25.6v51.6c0,1.6-1.4,3-3.1,3h-15.9c-1.6-0.1-2.9-1.4-2.9-3v-43.3c0-3.5,0.3-12.1-0.4-15.3
			c-1.2-5.5-4.7-7-9.4-7c-3.9,0-7.9,2.6-9.5,6.7c-1.6,4.1-1.5,11-1.5,15.7v43.3c0,1.6-1.4,3-3.1,3h-15.9c-1.6-0.1-2.9-1.4-2.9-3V222
			c0-9.1,1.5-22.5-9.8-22.5c-11.4,0-11,13.1-11,22.5v43.3C243.1,266.9,241.7,268.2,240,268.2"/>
		<path id="path16" class="st7" d="M534.4,179.1c23.6,0,36.4,20.3,36.4,46.1c0,24.9-14.1,44.7-36.4,44.7
			c-23.2,0-35.8-20.3-35.8-45.6C498.6,198.9,511.4,179.1,534.4,179.1 M534.6,195.8c-11.7,0-12.5,16-12.5,26s-0.2,31.3,12.3,31.3
			c12.3,0,12.9-17.2,12.9-27.7c0-6.9-0.3-15.1-2.4-21.7C543.2,198,539.6,195.8,534.6,195.8"/>
		<path id="path18" class="st7" d="M601.5,268.2h-15.9c-1.6-0.1-2.9-1.4-2.9-3v-81.8c0.1-1.5,1.5-2.7,3.1-2.7h14.8
			c1.4,0.1,2.5,1,2.8,2.3v12.5h0.3c4.5-11.2,10.7-16.5,21.7-16.5c7.1,0,14.1,2.6,18.6,9.6c4.2,6.5,4.2,17.5,4.2,25.5v51.5
			c-0.2,1.4-1.5,2.6-3.1,2.6h-16c-1.5-0.1-2.7-1.2-2.8-2.6v-44.4c0-8.9,1-22-10-22c-3.9,0-7.4,2.6-9.2,6.5c-2.2,5-2.5,10-2.5,15.5
			v44C604.6,266.9,603.2,268.2,601.5,268.2"/>
		<path id="path28" class="st7" d="M389.3,229.2c0,6.2,0.2,11.4-3,16.9c-2.5,4.5-6.6,7.2-11,7.2c-6.1,0-9.7-4.7-9.7-11.5
			c0-13.6,12.2-16,23.7-16V229.2 M405.3,268c-1.1,0.9-2.6,1-3.8,0.4c-5.3-4.4-6.3-6.4-9.1-10.6c-8.7,8.9-14.9,11.6-26.3,11.6
			c-13.4,0-23.8-8.3-23.8-24.8c0-12.9,7-21.7,17-26c8.6-3.8,20.7-4.5,30-5.5V211c0-3.8,0.3-8.3-1.9-11.5c-1.9-2.9-5.6-4.1-8.9-4.1
			c-6.1,0-11.5,3.1-12.8,9.6c-0.3,1.4-1.3,2.8-2.8,2.9l-15.4-1.7c-1.3-0.3-2.8-1.3-2.4-3.3c3.5-18.7,20.5-24.4,35.6-24.4
			c7.8,0,17.9,2.1,24,7.9c7.8,7.2,7,16.9,7,27.4v24.8c0,7.5,3.1,10.7,6,14.8c1,1.4,1.2,3.2-0.1,4.2
			C414.3,260.2,408.6,265.2,405.3,268L405.3,268"/>
		<path id="path30" class="st7" d="M180.5,229.2c0,6.2,0.2,11.4-3,16.9c-2.5,4.5-6.5,7.2-11,7.2c-6.1,0-9.7-4.7-9.7-11.5
			c0-13.6,12.2-16,23.7-16V229.2 M196.5,268c-1.1,0.9-2.6,1-3.8,0.4c-5.3-4.4-6.2-6.4-9.1-10.6c-8.7,8.9-14.9,11.6-26.3,11.6
			c-13.4,0-23.8-8.3-23.8-24.8c0-12.9,7-21.7,17-26c8.6-3.8,20.7-4.5,30-5.5V211c0-3.8,0.3-8.3-1.9-11.5c-1.9-2.9-5.7-4.1-8.9-4.1
			c-6.1,0-11.5,3.1-12.8,9.6c-0.3,1.4-1.3,2.8-2.8,2.9l-15.5-1.7c-1.3-0.3-2.7-1.3-2.4-3.3c3.6-18.7,20.5-24.4,35.6-24.4
			c7.8,0,17.9,2.1,24,7.9c7.8,7.2,7,16.9,7,27.4v24.8c0,7.5,3.1,10.7,6,14.8c1,1.4,1.3,3.2,0,4.2C205.5,260.2,199.7,265.2,196.5,268
			L196.5,268"/>
		<g id="Layer_6" class="st8">
		</g>
	</g>
	<g id="Layer_2" class="st5">
		<g class="st8">
			<g>
				<path class="st9" d="M197.4,167.2c1.1-0.1,2.2,0.1,3.4,0.5c-7.3,10-8.7,28.8-8.9,35.9h5.1c0.3-9.3,2.1-25.4,7.9-33
					c6.8,7,11.1,22.4,12.5,33h5.1c-1.4-11.6-6.1-28.2-13.8-36.4c1.1-0.6,2.3-0.9,3.7-0.9c2.4,0,4.6,1.1,6.7,3.4
					c7.4,8.1,10.7,26.9,11.4,33.9h5.1c-0.6-7.8-3.9-25.6-11.1-35.3c-3.5-4.7-7.6-7.1-12.1-7.1c-3,0-5.6,1-7.8,2.6
					c-2.4-1.4-5-2-7.6-1.7c-13.5,1.4-17.1,22.3-17.6,41.5h5.1C185,181.2,189.6,168,197.4,167.2z"/>
				
					<linearGradient id="SVGID_1_" gradientUnits="userSpaceOnUse" x1="547.1629" y1="961.2349" x2="569.9632" y2="934.0626" gradientTransform="matrix(4.7622 0 0 -4.7622 -2454.3157 4773.3657)">
					<stop  offset="0" style="stop-color:#00BFF2"/>
					<stop  offset="1" style="stop-color:#007DC4"/>
				</linearGradient>
				<path class="st10" d="M269.2,203.4c0-0.6-0.6-1.1-1.3-1.1l-13.5-1.9c-0.1,0-0.2-0.1-0.4-0.1c-5.2,0-24.3-0.1-53.9-0.1
					c-29.8,0-48.9,0.4-54,0.5c-0.8,0-1.5,0.6-1.5,1.3c-0.3,5.1-1.5,25.1-3.2,55.9c-1.8,32.6-2.8,50.3-3,55c0,0.7,0.5,1.3,1.2,1.4
					l53.7,8.1l53.1,8c0.4,0.1,0.9,0,1.2-0.3l0,0l26.2-16.8c0.7-0.5,1.1-1.2,1-2L269.2,203.4z"/>
				<g>
					<g>
						<g>
							<g>
								<path class="st11" d="M215.2,290.9h-1.9v-0.7h4.5v0.7h-1.9v5.1h-0.7L215.2,290.9L215.2,290.9z"/>
								<path class="st11" d="M220.8,296l-1.6-4.7v4.7h-0.7v-5.8h1l1.6,4.9l1.6-4.9h1v5.8H223v-4.7l-1.6,4.7H220.8L220.8,296z"/>
							</g>
						</g>
					</g>
					<g>
						<path class="st11" d="M184.6,225.6V288l14.1,4.5v-52.3c0-2.5,1.1-4.1,2.9-3.5c2.3,0.6,2.8,2.9,2.8,5.3v20.9
							c8.8,4.3,15.7,0,15.7-11.2c0-11.5-4.1-16.6-16-20.7C199.3,229.4,190.6,226.8,184.6,225.6"/>
						<path class="st11" d="M201.4,283.4l22.7-8.1c2.6-0.9,3-2.2,0.9-2.9c-2.1-0.7-5.9-0.5-8.5,0.4l-15.1,5.3v-8.5l0.9-0.3
							c0,0,4.4-1.5,10.5-2.2s13.7,0.1,19.6,2.3c6.7,2.1,7.4,5.2,5.7,7.3c-1.7,2.1-5.9,3.7-5.9,3.7l-30.8,11.1L201.4,283.4
							L201.4,283.4L201.4,283.4z"/>
						<path class="st11" d="M158.7,282.5c-6.8-1.9-8-5.9-4.9-8.2c2.9-2.1,7.8-3.7,7.8-3.7l20.2-7.2v8.2l-14.5,5.2
							c-2.6,0.9-3,2.2-0.9,2.9c2.1,0.7,5.9,0.5,8.4-0.4l7-2.5v7.3c-0.5,0.1-1,0.2-1.4,0.2C173.5,285.4,166,284.9,158.7,282.5"/>
					</g>
				</g>
			</g>
			<g>
				<g>
					<path class="st11" d="M344.1,196.5H324c-0.1,0-0.2,0.1-0.2,0.1v47c0,0.1,0.1,0.1,0.2,0.1h8.1c0.1,0,0.2-0.1,0.2-0.1v-41.9
						c0,0,0-0.1,0.1-0.1h9.3c3.4,0,5.3,3.4,5.3,9.6c0,6.2-1.9,9.6-5.3,9.6h-5.6c-0.1,0-0.1,0.1-0.1,0.1v4.9c0,0.1,0.1,0.1,0.1,0.1h8
						c2.8,0,5.6-1.3,7.6-3.6c2.4-2.7,3.6-6.5,3.6-11.2C355.4,202.4,350.9,196.5,344.1,196.5"/>
					<path class="st11" d="M368.7,196.5h-8.1c-0.1,0-0.1,0.1-0.1,0.1v47c0,0.1,0.1,0.1,0.1,0.1h8.1c0.1,0,0.1-0.1,0.1-0.1v-47
						C368.8,196.6,368.7,196.5,368.7,196.5"/>
					<path class="st11" d="M404.2,208c0-0.1-0.1-0.1-0.1-0.1h-14.5c-13,0-14.7,9.6-14.7,18v7.3c0,6.2,3.9,10.8,9.2,10.8h7.9
						c0.1,0,0.1-0.1,0.1-0.1V239c0-0.1-0.1-0.2-0.1-0.2h-5.7c-1.3,0-3.1-0.6-3.1-5V226c0-5.2,0.5-8.5,1.5-10.4
						c1.2-2.1,3-2.4,4.7-2.4h6.2c0,0,0,0,0,0.1v30.6c0,0.1,0.1,0.1,0.1,0.1h8.1c0.1,0,0.1-0.1,0.1-0.1v-35.5L404.2,208L404.2,208
						L404.2,208z"/>
					<path class="st11" d="M462.8,216.2l-4-0.3c-3-0.3-5.2-1.9-5.2-6.9c0-5.8,2.6-7.3,6-7.3h11.1c0.1,0,0.1-0.1,0.1-0.1v-4.9
						c0-0.1-0.1-0.1-0.1-0.1h-0.2l0,0h-12c-7.6,0-13,4.4-13,13.3v0.4c0,7,4.3,12.1,10.7,12.6l4,0.3c3,0.2,4.9,2.9,4.9,7.1v1.2
						c0,2.6-0.6,7.3-6.2,7.3h-11.3h-0.2c-0.1,0-0.1,0.1-0.1,0.2v4.9c0,0.1,0.1,0.1,0.1,0.1h14.3c4.4,0,11.8-1.8,11.8-13.8
						c0-4.3-1-7.8-3-10.2C468.8,217.6,466.3,216.5,462.8,216.2"/>
					<path class="st11" d="M529.6,208c0-0.1-0.1-0.1-0.1-0.1H515c-13,0-14.7,9.6-14.7,18v7.3c0,6.2,3.9,10.8,9.2,10.8h7.9
						c0.1,0,0.2-0.1,0.2-0.1V239c0-0.1-0.1-0.2-0.2-0.2h-5.7c-1.3,0-3.1-0.6-3.1-5V226c0-5.2,0.5-8.5,1.6-10.4
						c1.2-2.1,3-2.4,4.7-2.4h6.2c0,0,0.1,0,0.1,0.1v30.6c0,0.1,0.1,0.1,0.1,0.1h8.1c0.1,0,0.1-0.1,0.1-0.1L529.6,208L529.6,208z"/>
					<path class="st11" d="M496.8,207.8H488c0,0-0.1,0-0.1-0.1l0,0v-5.9c0-0.1-0.1-0.1-0.1-0.1h-8.1c-0.1,0-0.1,0.1-0.1,0.1V233
						c0,6.2,3.9,10.8,9.2,10.8h5.8c0.1,0,0.1-0.1,0.1-0.1v-4.9c0-0.1-0.1-0.2-0.1-0.2H491c-0.9,0-3.1-0.1-3.1-4.7v-21c0,0,0,0,0.1,0
						c2.7,0,8.8,0,8.8,0c0.1,0,0.1-0.1,0.1-0.1V208C497,207.9,496.9,207.8,496.8,207.8"/>
					<path class="st11" d="M553.7,207.8h-8.8c0,0-0.1,0-0.1-0.1l0,0v-5.9c0-0.1-0.1-0.1-0.1-0.1h-8.1c-0.1,0-0.2,0.1-0.2,0.1V233
						c0,6.2,3.9,10.8,9.2,10.8h5.8c0.1,0,0.1-0.1,0.1-0.1v-4.9c0-0.1-0.1-0.2-0.1-0.2h-3.6c-0.9,0-3.1-0.1-3.1-4.7v-21
						c0,0,0,0,0.1,0c2.7,0,8.8,0,8.8,0c0.1,0,0.1-0.1,0.1-0.1V208C553.9,207.9,553.8,207.8,553.7,207.8"/>
					<path class="st11" d="M567.2,207.8h-8.1c-0.1,0-0.2,0.1-0.2,0.1v35.7c0,0.1,0.1,0.1,0.2,0.1h8.1c0.1,0,0.1-0.1,0.1-0.1V208
						C567.3,207.9,567.3,207.8,567.2,207.8"/>
					<path class="st11" d="M567.2,196.5h-8.1c-0.1,0-0.2,0.1-0.2,0.1v6.8c0,0.1,0.1,0.1,0.2,0.1h8.1c0.1,0,0.1-0.1,0.1-0.1v-6.8
						C567.3,196.6,567.3,196.5,567.2,196.5"/>
					<path class="st11" d="M623.5,207.8H609c-0.1,0-0.1,0.1-0.1,0.1v35.7c0,0.1,0.1,0.1,0.1,0.1h8.1c0.1,0,0.1-0.1,0.1-0.1V213
						c0,0,0-0.1,0.1-0.1h6.2c1.7,0,3.5,0.3,4.7,2.2c1.1,1.8,1.6,4.8,1.6,9.7c0,0.2,0,18.8,0,18.8c0,0.1,0.1,0.1,0.2,0.1h8.1
						c0.1,0,0.1-0.1,0.1-0.1v-17.9C638.2,217.4,636.5,207.8,623.5,207.8"/>
					<path class="st11" d="M588.1,207.8c-13.6,0-15.4,9.6-15.4,18s1.7,18,15.3,18s15.4-9.6,15.4-18
						C603.4,217.5,601.7,207.8,588.1,207.8 M593.3,236.3c-1.3,2.1-3.3,2.4-5.2,2.4c-1.8,0-3.9-0.3-5.2-2.4
						c-1.2-1.9-1.7-5.2-1.7-10.5l0,0c0-6.2,0.8-9.7,2.5-11.4c1-1,2.3-1.4,4.4-1.4c2.1,0,3.4,0.4,4.4,1.4c1.7,1.7,2.5,5.2,2.5,11.4
						C595,231.1,594.4,234.4,593.3,236.3"/>
					<path class="st11" d="M408.8,207.8c-0.1,0-0.1,0.1-0.1,0.1l12.1,35.4c0,0.1,0,0.2,0,0.3l-6.8,17.5c0,0.1,0,0.1,0.1,0.1h7.1
						c0.1,0,0.2-0.1,0.2-0.1l21.2-53.2c0-0.1,0-0.1-0.1-0.1h-7.7c-0.1,0-0.2,0.1-0.2,0.1l-9,23.3c0,0.1-0.1,0.1-0.1,0l-7.9-23.3
						c0-0.1-0.1-0.1-0.2-0.1L408.8,207.8L408.8,207.8z"/>
					<path class="st11" d="M349.6,272c-3.3-1.3-6.9-2-10.4-2c-4.5,0-9.5,1.7-9.5,7.2c0,4.2,2.5,6.6,9.9,9.4
						c8.9,3.4,13.6,7,13.6,14.4c0,9.3-8.1,13.1-15.9,13.1c-4.2,0-9.5-0.9-14-2.9l1.5-5c4.3,2.1,8.9,3.1,12.7,3.1
						c5.7,0,10-2.5,10-7.8c0-4.8-4.2-7.3-11.3-10.2c-8.1-3.2-12.1-7.3-12.1-13.6c0-8.7,8.2-12.5,15.4-12.5c4.2,0,8.3,0.7,11.7,2
						L349.6,272z"/>
					<path class="st11" d="M354.7,278.3h6.2v-8.8h5.6v8.8h8.1v4.4h-8.1v20.9c0,4.8,0.5,5.6,4.4,5.6c1.5,0,2.5-0.1,3.7-0.3v4.2
						c-1.3,0.2-3.4,0.5-5.3,0.5c-7.3,0-8.5-3.5-8.5-9.7v-21.3h-6.2L354.7,278.3L354.7,278.3z"/>
					<path class="st11" d="M392.9,314.1c-10,0-16.2-7-16.2-18.4s6.2-18.2,16.2-18.2s16.2,6.8,16.2,18.2
						C409.2,307.1,402.9,314.1,392.9,314.1 M392.9,281.9c-7.3,0-10.6,5.7-10.6,13.8c0,8.1,3.4,13.9,10.6,13.9
						c7.3,0,10.6-5.8,10.6-13.9C403.5,287.6,400.2,281.9,392.9,281.9"/>
					<path class="st11" d="M430.6,282.1c-0.8-0.1-1.8-0.2-2.9-0.2c-4.6,0-8.3,2.7-8.3,10.9v20.5h-5.6v-35h5.4v4.7h0.1
						c1.7-3.7,4.6-5.5,9.1-5.5c0.6,0,1.5,0,2.5,0.1L430.6,282.1z"/>
					<path class="st11" d="M436,297.3c0.4,7.5,5,12.3,12.4,12.3c3.2,0,6.7-0.6,9.4-1.7l0.9,4.3c-2.9,1.3-6.8,1.9-10.5,1.9
						c-11.6,0-17.7-7.8-17.7-18.2c0-10.6,6-18.4,15.8-18.4s14.5,6.8,14.5,17.1v2.7L436,297.3L436,297.3L436,297.3z M436,292.9h19.7
						v-0.3c0-6.7-3.8-10.7-9.3-10.7C440.2,281.9,436.6,286.5,436,292.9"/>
					<g>
						<path class="st11" d="M643.8,238.2h-2.1v-0.7h5v0.7h-2.1v5.6h-0.8L643.8,238.2L643.8,238.2z"/>
						<path class="st11" d="M650.1,243.8l-1.7-5.1v5.1h-0.8v-6.3h1.2l1.8,5.4l1.8-5.4h1.1v6.3h-0.8v-5.1l-1.7,5.1H650.1z"/>
					</g>
				</g>
			</g>
		</g>
	</g>
	<path class="st12" d="M695.4,217.4h-2.8v-6.9l-2.8,4.5h-1.4l-1.4-4.5v6.9h-2.8v-11.7h2.8l2.8,6.3l2.8-6.3h2.8L695.4,217.4
		L695.4,217.4z M683,207.7h-2.8v9.6h-2.8v-9.6h-2.8v-2.1h8.3L683,207.7L683,207.7z M667.8,251.1h-8.3v-26.5l-9.6,17.2h-5.5
		l-8.3-17.2v26.5h-9.6v-45.5h9.6l11,24.5l12.4-24.5h8.3L667.8,251.1L667.8,251.1z M614.1,251.1h-9.6l-2.8-8h-15.2l-2.8,8h-9.6
		l16.5-45.5h6.9L614.1,251.1z M600.3,235.6l-5.5-16.5l-5.5,16.5H600.3z M560.4,251.1h-30.3v-45.5h30.3v7.9h-20.7v10.7h17.9v7.9
		h-17.9v11.2h20.7V251.1L560.4,251.1z M516.3,213.5h-11v37.6h-9.6v-37.6h-12.4v-7.9h33.1L516.3,213.5L516.3,213.5z M472.2,237.8
		c0,9.4-8.3,13.6-16.5,13.8c-8.3,0-13.8-1.9-16.5-6.1l5.5-5.6c2.8,2.5,5.5,3.9,11,3.9s8.3-1.9,8.3-5.6c0-3.4-2.8-5-5.5-5.5L453,232
		c-8.3-1.1-12.4-5.4-12.4-12.8c0-4.1,1.4-7.4,4.1-10.1c2.8-2.5,6.9-3.7,11-3.7c6.9,0,11,1.8,15.2,5.2l-5.5,5.6
		c-2.8-2.1-5.5-3.2-9.6-3.2c-4.1,0.3-6.9,1.8-6.9,5.8c0,3.2,2.8,4.7,5.5,5l5.5,0.8C466.7,225.4,472.2,230,472.2,237.8z M401.9,229.5
		c0,12.4-11,22.5-23.4,22.5s-22-10.1-22-22.5c0-12.3,9.6-22.3,22-22.3S401.9,217.2,401.9,229.5z M378.5,187.9
		c-22,0-41.3,18.5-41.3,41.5L311,266.7c-1.4-0.1-1.4-0.3-2.8-0.3c-5.5,0-11,1.7-16.5,4.4L174,223.4c-3.2-14.1-15.7-24.5-30.6-24.5
		c-17.1,0-31.2,14.1-31.2,31.3c0,17.1,14.1,31.1,31.2,31.1c5.9,0,11.3-1.5,16-4.4l118.5,47.4c2.8,14.5,15.2,24.1,30.3,24.1
		s28.9-12.4,30.3-27.7l40-29.2c23.4,0,42.7-18.7,42.7-41.9C421.2,206.6,401.9,187.9,378.5,187.9z M378.5,201.7
		c16.5,0,28.9,12.5,28.9,28c0,15.6-12.4,28.1-28.9,28.1c-15.2,0-27.6-12.5-27.6-28.1C351,214.2,363.4,201.7,378.5,201.7L378.5,201.7
		z M143.5,207.2c8.8,0,16.5,4.8,20.4,12.1l-11.4-4.5c-9.2-3.3-19.4,1.2-23.1,10.3c-3.6,9.2,0.6,19.6,9.5,23.6l9.6,3.9
		c-1.5,0.4-3.2,0.6-5,0.6c-12.7,0-22.9-10.2-22.9-22.9C120.6,217.4,130.8,207.2,143.5,207.2z M308.2,274.7c12.4,0,22,10.3,22,23
		c0,12.8-9.6,22.5-22,22.5c-9.6,0-16.5-4.1-20.7-11.7c4.1,2.1,6.9,3.4,11,4.8c9.6,4.1,19.3-1.4,23.4-10.2c2.8-8.5,0-20.3-9.6-24
		l-9.6-3.9C304.1,275,306.9,274.7,308.2,274.7L308.2,274.7z"/>
</g>
<g id="Layer_4_1_" class="st5">
	<g id="g1231" transform="translate(0 -.008)" class="st8">
		
			<linearGradient id="path1192_2_" gradientUnits="userSpaceOnUse" x1="3927.1006" y1="1527.3951" x2="3862.1958" y2="1493.8918" gradientTransform="matrix(1.3204 0 0 -2.558 -5008.5107 4093.844)">
			<stop  offset="0" style="stop-color:#00A0FF"/>
			<stop  offset="7.000001e-03" style="stop-color:#00A1FF"/>
			<stop  offset="0.26" style="stop-color:#00BEFF"/>
			<stop  offset="0.512" style="stop-color:#00D2FF"/>
			<stop  offset="0.76" style="stop-color:#00DFFF"/>
			<stop  offset="1" style="stop-color:#00E3FF"/>
		</linearGradient>
		<path id="path1192" class="st13" d="M118.8,180.8c-1.5,1.6-2.3,4-2.3,7.2v112.9c0,3.2,0.8,5.6,2.4,7.1l0.4,0.3l63.3-63.3v-1.4
			l-63.3-63.3C119.2,180.4,118.8,180.8,118.8,180.8z"/>
		
			<linearGradient id="path1203_2_" gradientUnits="userSpaceOnUse" x1="4038.4753" y1="1532.1918" x2="3919.3638" y2="1532.1918" gradientTransform="matrix(1.0374 0 0 -0.8735 -3951.1279 1582.8196)">
			<stop  offset="0" style="stop-color:#FFE000"/>
			<stop  offset="0.409" style="stop-color:#FFBD00"/>
			<stop  offset="0.775" style="stop-color:#FFA500"/>
			<stop  offset="1" style="stop-color:#FF9C00"/>
		</linearGradient>
		<path id="path1203" class="st14" d="M203.6,266.3l-21.1-21.1v-1.5l21.1-21.1l0.5,0.3l25,14.2c7.1,4,7.1,10.7,0,14.8L204,266
			L203.6,266.3L203.6,266.3z"/>
		
			<linearGradient id="path1210_2_" gradientUnits="userSpaceOnUse" x1="3892.0969" y1="1509.901" x2="3823.8862" y2="1421.4104" gradientTransform="matrix(1.7038 0 0 -1.3133 -6439.1294 2239.1279)">
			<stop  offset="0" style="stop-color:#FF3A44"/>
			<stop  offset="1" style="stop-color:#C31162"/>
		</linearGradient>
		<path id="path1210" class="st15" d="M204,266l-21.6-21.6l-63.7,63.7c2.3,2.5,6.2,2.8,10.6,0.3L204,266"/>
		
			<linearGradient id="path1223_2_" gradientUnits="userSpaceOnUse" x1="3839.5933" y1="1594.9816" x2="3870.0513" y2="1555.4453" gradientTransform="matrix(1.7038 0 0 -1.3126 -6439.1294 2236.7913)">
			<stop  offset="0" style="stop-color:#32A071"/>
			<stop  offset="6.900000e-02" style="stop-color:#2DA771"/>
			<stop  offset="0.476" style="stop-color:#15CF74"/>
			<stop  offset="0.801" style="stop-color:#06E775"/>
			<stop  offset="1" style="stop-color:#00F076"/>
		</linearGradient>
		<path id="path1223" class="st16" d="M204,222.9l-74.6-42.4c-4.4-2.5-8.3-2.2-10.6,0.3l63.7,63.6L204,222.9z"/>
		<path id="path1225" class="st17" d="M203.6,265.5l-74.1,42.1c-4.1,2.4-7.8,2.2-10.2,0.1l-0.4,0.4l0.4,0.3
			c2.4,2.2,6.1,2.3,10.2-0.1l74.6-42.4L203.6,265.5z"/>
		<path id="path1227" class="st18" d="M229,251.1l-25.5,14.5l0.5,0.5l25-14.2c3.6-2,5.3-4.7,5.3-7.4
			C234,246.9,232.2,249.2,229,251.1L229,251.1z"/>
		<path id="path1229" class="st19" d="M129.4,181.2l99.6,56.6c3.2,1.8,5.1,4.2,5.3,6.6c0-2.7-1.8-5.3-5.3-7.4l-99.6-56.6
			c-7.1-4.1-12.9-0.7-12.9,7.5v0.7C116.5,180.6,122.3,177.2,129.4,181.2z"/>
	</g>
	<g id="g1237" transform="translate(0 -.008)" class="st8">
		<path id="path1233" class="st20" d="M258.6,240.9c0-18.1,15.2-32.8,33.3-32.8c10,0,17.1,3.9,22.5,9l-6.3,6.3
			c-3.8-3.6-9-6.4-16.2-6.4c-13.2,0-23.5,10.6-23.5,23.8s10.3,23.9,23.5,23.9c8.6,0,13.4-3.4,16.6-6.6c2.6-2.6,4.2-6.2,4.9-11.3H292
			v-8.9h30.2c0.3,1.6,0.5,3.5,0.5,5.6c0,6.7-1.8,15-7.8,21c-5.8,6-13.1,9.2-22.9,9.2C273.8,273.7,258.6,259,258.6,240.9L258.6,240.9
			z M346.9,231.4c-11.7,0-21.2,8.9-21.2,21.1s9.5,21.1,21.2,21.1s21.2-9,21.2-21.1C368.2,240.3,358.6,231.4,346.9,231.4z
			 M346.9,265.4c-6.4,0-11.9-5.3-11.9-12.8c0-7.6,5.5-12.8,11.9-12.8s11.9,5.2,11.9,12.8C358.9,260.1,353.3,265.4,346.9,265.4z
			 M393.2,231.4c-11.7,0-21.2,8.9-21.2,21.1s9.5,21.1,21.2,21.1s21.2-9,21.2-21.1C414.4,240.3,404.9,231.4,393.2,231.4L393.2,231.4z
			 M393.2,265.4c-6.4,0-11.9-5.3-11.9-12.8c0-7.6,5.5-12.8,11.9-12.8s11.9,5.2,11.9,12.8C405.1,260.1,399.6,265.4,393.2,265.4
			L393.2,265.4z M450,232.7v3.4h-0.3c-2.1-2.5-6.1-4.7-11.1-4.7c-10.6,0-20.3,9.3-20.3,21.2c0,11.8,9.7,21,20.3,21
			c5,0,9-2.2,11.1-4.8h0.3v3c0,8.1-4.3,12.4-11.3,12.4c-5.7,0-9.2-4.1-10.6-7.5l-8.1,3.4c2.3,5.6,8.5,12.5,18.7,12.5
			c10.9,0,20.1-6.4,20.1-22v-37.9L450,232.7z M439.4,265.4c-6.4,0-11.8-5.4-11.8-12.7c0-7.4,5.4-12.9,11.8-12.9
			c6.3,0,11.3,5.4,11.3,12.9C450.6,260,445.7,265.4,439.4,265.4z M465.2,210.3h9.3v62.1h-9.3V210.3z M499.9,265.4
			c-4.7,0-8.1-2.2-10.2-6.4l28.3-11.7l-1-2.4c-1.8-4.7-7.1-13.4-18.1-13.4c-10.9,0-19.9,8.6-19.9,21.1c0,11.8,9,21.1,21,21.1
			c9.7,0,15.3-5.9,17.6-9.4l-7.2-4.8C507.9,263,504.7,265.4,499.9,265.4L499.9,265.4z M499.2,239.6c3.7,0,6.8,1.8,7.8,4.5l-18.9,7.8
			C487.9,243.7,494.5,239.6,499.2,239.6L499.2,239.6z"/>
		<path id="path1235" class="st20" d="M558.7,210.3h-22.2v62.1h9.3v-23.5h12.9c10.3,0,20.4-7.4,20.4-19.3
			C579.1,217.7,569,210.3,558.7,210.3L558.7,210.3z M559,240.2h-13.2v-21.3H559c6.9,0,10.9,5.7,10.9,10.6
			C569.8,234.4,565.9,240.2,559,240.2z M593.5,272.4v-62.1h-9.3v62.1H593.5z M635.1,272.3v-23.8c0-11-8.2-17.2-18.9-17.2
			c-6.7,0-13.6,3-16.5,9.5l8.2,3.4c1.8-3.4,5-4.6,8.5-4.6c4.8,0,9.7,2.9,9.7,8v0.6c-1.7-1-5.3-2.4-9.7-2.4c-8.9,0-17.9,4.9-17.9,14
			c0,8.3,7.3,13.7,15.4,13.7c6.2,0,9.7-2.8,11.8-6.1h0.3v4.8L635.1,272.3L635.1,272.3z M615.1,265.3c-3,0-7.3-1.5-7.3-5.3
			c0-4.8,5.3-6.6,9.8-6.6c4.1,0,6,0.9,8.5,2.1C625.5,261.1,620.7,265.3,615.1,265.3L615.1,265.3z M667.7,232.7l-10.6,26.9h-0.3
			l-11-26.9h-10l16.5,37.6l-9.4,20.9h9.7l25.5-58.6L667.7,232.7L667.7,232.7z"/>
	</g>
</g>
<g id="Layer_3_1_" class="st5">
	<path class="st7" d="M258.5,269.2c-3.7,8.1-5.4,11.7-10.1,18.9c-6.6,10-15.8,22.5-27.3,22.6c-10.2,0.1-12.8-6.6-26.7-6.6
		c-13.9,0.1-16.7,6.7-26.9,6.6c-11.5-0.1-20.3-11.4-26.9-21.4c-18.4-28-20.3-60.8-9-78.3c8.1-12.4,20.8-19.7,32.7-19.7
		c12.2,0,19.8,6.7,29.9,6.7c9.8,0,15.7-6.7,29.8-6.7c10.6,0,21.9,5.8,29.9,15.8C227.7,221.6,231.9,259.1,258.5,269.2L258.5,269.2z"
		/>
	<path class="st7" d="M213.4,180.2c5.1-6.6,9-15.8,7.6-25.3c-8.4,0.6-18.1,5.9-23.8,12.8c-5.2,6.3-9.5,15.6-7.8,24.7
		C198.4,192.6,207.9,187.2,213.4,180.2z"/>
	<g class="st8">
		<path class="st11" d="M305.2,224.7c0,5.7-4.3,10.3-11.1,10.3c-6.5,0-10.8-4.6-10.7-10.3c-0.1-5.9,4.2-10.4,10.8-10.4
			C300.9,214.3,305.1,218.7,305.2,224.7z M284,309.2v-66.1h20.6v66.1H284z M339.3,235.4h-24.5v-17.3h70v17.3H360v73.8h-20.7V235.4z
			 M450.2,288c0,8.6,0.3,15.7,0.5,21.2h-17.8l-0.9-9.3h-0.4c-2.6,4.1-8.8,10.8-20.7,10.8c-13.4,0-23.3-8.4-23.3-28.8v-38.8h20.7
			v35.6c0,9.6,3.1,15.4,10.3,15.4c5.7,0,8.9-3.9,10.3-7.2c0.5-1.2,0.7-2.8,0.7-4.5v-39.3h20.7L450.2,288L450.2,288L450.2,288z
			 M466.7,264.2c0-8.3-0.3-15.3-0.5-21.1H484l0.9,9.1h0.4c2.7-4.2,9.5-10.5,20.4-10.5c13.5,0,23.7,8.9,23.7,28.4v39.2h-20.5v-36.6
			c0-8.5-3-14.3-10.4-14.3c-5.7,0-9.1,3.9-10.4,7.7c-0.5,1.4-0.8,3.2-0.8,5.1v38.1h-20.6L466.7,264.2L466.7,264.2L466.7,264.2z
			 M561.7,282.7c0.7,8.5,9.1,12.6,18.7,12.6c7,0,12.7-0.9,18.3-2.7l2.7,13.9c-6.8,2.7-15,4.2-23.9,4.2c-22.5,0-35.3-13.1-35.3-33.8
			c0-16.8,10.4-35.3,33.4-35.3c21.4,0,29.5,16.6,29.5,33c0,3.5-0.4,6.6-0.7,8.1L561.7,282.7L561.7,282.7z M585.9,268.6
			c0-5-2.2-13.4-11.6-13.4c-8.7,0-12.2,7.8-12.7,13.4H585.9z M617.1,291.2c3.8,2.3,11.6,5,17.7,5c6.2,0,8.8-2.2,8.8-5.5
			c0-3.4-2-5-9.7-7.6c-13.7-4.6-18.9-12-18.8-19.7c0-12.4,10.5-21.8,26.9-21.8c7.7,0,14.6,1.8,18.7,3.8l-3.7,14.2
			c-3-1.6-8.6-3.8-14.3-3.8c-5,0-7.8,2-7.8,5.4c0,3.1,2.6,4.7,10.7,7.6c12.6,4.3,17.8,10.7,18,20.4c0,12.3-9.7,21.5-28.7,21.5
			c-8.6,0-16.4-2-21.4-4.7L617.1,291.2L617.1,291.2z"/>
	</g>
</g>
<g id="g1231_1_" transform="translate(0 -.008)">
	
		<linearGradient id="path1192_3_" gradientUnits="userSpaceOnUse" x1="3871.0352" y1="-1133.5621" x2="3814.1677" y2="-1104.2076" gradientTransform="matrix(1.3204 0 0 2.558 -4904.3809 3097.9595)">
		<stop  offset="0" style="stop-color:#00A0FF"/>
		<stop  offset="7.000001e-03" style="stop-color:#00A1FF"/>
		<stop  offset="0.26" style="stop-color:#00BEFF"/>
		<stop  offset="0.512" style="stop-color:#00D2FF"/>
		<stop  offset="0.76" style="stop-color:#00DFFF"/>
		<stop  offset="1" style="stop-color:#00E3FF"/>
	</linearGradient>
	<path id="path1192_1_" class="st21" d="M156.1,193.1c-1.3,1.4-2,3.5-2,6.3v98.9c0,2.8,0.7,4.9,2.1,6.3l0.4,0.3l55.4-55.4v-1.2
		l-55.5-55.4C156.4,192.8,156.1,193.1,156.1,193.1z"/>
	
		<linearGradient id="path1203_3_" gradientUnits="userSpaceOnUse" x1="4048.4407" y1="-981.0709" x2="3944.0793" y2="-981.0709" gradientTransform="matrix(1.0374 0 0 0.8735 -3938.9729 1105.7745)">
		<stop  offset="0" style="stop-color:#FFE000"/>
		<stop  offset="0.409" style="stop-color:#FFBD00"/>
		<stop  offset="0.775" style="stop-color:#FFA500"/>
		<stop  offset="1" style="stop-color:#FF9C00"/>
	</linearGradient>
	<path id="path1203_1_" class="st22" d="M230.3,268l-18.5-18.5v-1.3l18.5-18.5l0.4,0.2l21.9,12.4c6.3,3.5,6.3,9.3,0,12.9l-21.9,12.4
		C230.7,267.7,230.3,268,230.3,268L230.3,268z"/>
	
		<linearGradient id="path1210_3_" gradientUnits="userSpaceOnUse" x1="3774.3962" y1="-1041.2594" x2="3714.6326" y2="-963.7271" gradientTransform="matrix(1.7038 0 0 1.3133 -6210.3945 1626.621)">
		<stop  offset="0" style="stop-color:#FF3A44"/>
		<stop  offset="1" style="stop-color:#C31162"/>
	</linearGradient>
	<path id="path1210_1_" class="st23" d="M230.7,267.7l-18.9-18.9l-55.8,55.8c2,2.2,5.5,2.4,9.3,0.3L230.7,267.7"/>
	
		<linearGradient id="path1223_3_" gradientUnits="userSpaceOnUse" x1="3728.3604" y1="-1115.5752" x2="3755.0464" y2="-1080.9351" gradientTransform="matrix(1.7038 0 0 1.3126 -6210.3945 1624.4999)">
		<stop  offset="0" style="stop-color:#32A071"/>
		<stop  offset="6.900000e-02" style="stop-color:#2DA771"/>
		<stop  offset="0.476" style="stop-color:#15CF74"/>
		<stop  offset="0.801" style="stop-color:#06E775"/>
		<stop  offset="1" style="stop-color:#00F076"/>
	</linearGradient>
	<path id="path1223_1_" class="st24" d="M230.7,230l-65.4-37.1c-3.8-2.2-7.3-1.9-9.3,0.3l55.8,55.7L230.7,230z"/>
	<path id="path1225_1_" class="st17" d="M230.3,267.3l-64.9,36.9c-3.6,2.1-6.9,1.9-8.9,0l-0.4,0.4l0.4,0.3c2.1,1.9,5.3,2,8.9,0
		l65.4-37.1L230.3,267.3z"/>
	<path id="path1227_1_" class="st18" d="M252.6,254.7l-22.3,12.7l0.4,0.4l21.9-12.4c3.1-1.8,4.7-4.1,4.7-6.5
		C257,251,255.5,253,252.6,254.7L252.6,254.7z"/>
	<path id="path1229_1_" class="st19" d="M165.4,193.5l87.2,49.6c2.8,1.6,4.4,3.7,4.7,5.8c0-2.3-1.5-4.7-4.7-6.5l-87.2-49.6
		c-6.3-3.6-11.3-0.6-11.3,6.6v0.6C154,192.9,159.1,189.9,165.4,193.5z"/>
</g>
<g id="g1237_1_" transform="translate(0 -.008)">
	<path id="path1233_1_" class="st20" d="M278.6,245.7c0-15.8,13.3-28.7,29.2-28.7c8.8,0,15,3.4,19.7,7.9l-5.5,5.5
		c-3.4-3.2-7.9-5.6-14.2-5.6c-11.6,0-20.6,9.3-20.6,20.9c0,11.6,9,20.9,20.6,20.9c7.5,0,11.8-3,14.5-5.8c2.2-2.2,3.7-5.5,4.3-9.9
		h-18.8v-7.8h26.4c0.3,1.4,0.4,3.1,0.4,4.9c0,5.9-1.6,13.2-6.8,18.4c-5.1,5.3-11.5,8.1-20.1,8.1
		C291.9,274.5,278.6,261.6,278.6,245.7L278.6,245.7z M356,237.4c-10.2,0-18.6,7.8-18.6,18.5c0,10.7,8.3,18.5,18.6,18.5
		s18.6-7.9,18.6-18.5C374.6,245.2,366.2,237.4,356,237.4z M356,267.2c-5.6,0-10.4-4.6-10.4-11.2c0-6.7,4.8-11.2,10.4-11.2
		c5.6,0,10.4,4.6,10.4,11.2C366.4,262.5,361.6,267.2,356,267.2z M396.5,237.4c-10.2,0-18.6,7.8-18.6,18.5c0,10.7,8.3,18.5,18.6,18.5
		c10.2,0,18.6-7.9,18.6-18.5C415.1,245.2,406.8,237.4,396.5,237.4L396.5,237.4z M396.5,267.2c-5.6,0-10.4-4.6-10.4-11.2
		c0-6.7,4.8-11.2,10.4-11.2c5.6,0,10.4,4.6,10.4,11.2C407,262.5,402.1,267.2,396.5,267.2L396.5,267.2z M446.3,238.6v3H446
		c-1.8-2.2-5.3-4.1-9.7-4.1c-9.3,0-17.8,8.1-17.8,18.6c0,10.4,8.5,18.4,17.8,18.4c4.4,0,7.9-2,9.7-4.2h0.3v2.7
		c0,7.1-3.8,10.9-9.9,10.9c-5,0-8.1-3.6-9.3-6.6l-7.1,2.9c2,4.9,7.4,10.9,16.4,10.9c9.5,0,17.6-5.6,17.6-19.3v-33.2L446.3,238.6z
		 M437,267.2c-5.6,0-10.3-4.7-10.3-11.1c0-6.5,4.7-11.3,10.3-11.3c5.5,0,9.9,4.8,9.9,11.3C446.8,262.5,442.5,267.2,437,267.2z
		 M459.6,218.9h8.1v54.4h-8.1V218.9z M490,267.2c-4.1,0-7.1-1.9-9-5.6l24.8-10.2l-0.9-2.1c-1.5-4.1-6.2-11.8-15.8-11.8
		c-9.5,0-17.5,7.5-17.5,18.5c0,10.4,7.9,18.5,18.4,18.5c8.5,0,13.4-5.2,15.4-8.2l-6.3-4.2C497,265.1,494.2,267.2,490,267.2
		L490,267.2z M489.4,244.6c3.2,0,6,1.6,6.9,3.9l-16.6,6.9C479.5,248.2,485.3,244.6,489.4,244.6L489.4,244.6z"/>
	<path id="path1235_1_" class="st20" d="M541.5,218.9h-19.5v54.4h8.1v-20.6h11.3c9,0,17.9-6.5,17.9-16.9
		C559.4,225.5,550.5,218.9,541.5,218.9L541.5,218.9z M541.7,245.2h-11.5v-18.7h11.5c6.1,0,9.5,5,9.5,9.3
		C551.3,240,547.8,245.2,541.7,245.2z M572,273.3v-54.4h-8.1v54.4H572z M608.5,273.2v-20.9c0-9.7-7.2-15-16.5-15
		c-5.9,0-12,2.6-14.5,8.3l7.2,3c1.5-3,4.4-4,7.4-4c4.2,0,8.5,2.5,8.5,7v0.6c-1.5-0.8-4.6-2.1-8.5-2.1c-7.8,0-15.7,4.3-15.7,12.2
		c0,7.3,6.4,12,13.5,12c5.5,0,8.5-2.4,10.4-5.3h0.3v4.2L608.5,273.2L608.5,273.2z M591,267.2c-2.7,0-6.4-1.3-6.4-4.6
		c0-4.2,4.6-5.8,8.6-5.8c3.6,0,5.2,0.8,7.4,1.8C600,263.4,595.9,267.1,591,267.2L591,267.2z M637,238.5l-9.3,23.6h-0.3l-9.7-23.6
		H609l14.5,33l-8.3,18.3h8.5l22.3-51.3H637z"/>
</g>
</svg>
