<?xml version="1.0" encoding="utf-8"?>
<!-- Generator: Adobe Illustrator 24.3.0, SVG Export Plug-In . SVG Version: 6.00 Build 0)  -->
<svg version="1.1" xmlns="http://www.w3.org/2000/svg" xmlns:xlink="http://www.w3.org/1999/xlink" x="0px" y="0px"
	 viewBox="0 0 749.1 516.3" style="enable-background:new 0 0 749.1 516.3;" xml:space="preserve">
<style type="text/css">
	.st0{opacity:0.67;}
	.st1{opacity:0.19;fill:#666666;enable-background:new    ;}
	.st2{opacity:0.62;}
	.st3{opacity:0.19;fill:#808080;enable-background:new    ;}
	.st4{fill:#1ED760;}
	.st5{display:none;}
	.st6{display:inline;fill-rule:evenodd;clip-rule:evenodd;fill:#FF9900;}
	.st7{display:inline;fill-rule:evenodd;clip-rule:evenodd;fill:#FFFFFF;}
	.st8{display:inline;}
	.st9{fill:#F48256;}
	.st10{fill:url(#SVGID_1_);}
	.st11{fill:#FFFFFF;}
	.st12{display:none;fill:#FFFFFF;}
	.st13{display:inline;fill:#FFFFFF;}
	.st14{fill-rule:evenodd;clip-rule:evenodd;fill:url(#path1192_1_);}
	.st15{fill-rule:evenodd;clip-rule:evenodd;fill:url(#path1203_1_);}
	.st16{fill-rule:evenodd;clip-rule:evenodd;fill:url(#path1210_1_);}
	.st17{fill-rule:evenodd;clip-rule:evenodd;fill:url(#path1223_1_);}
	.st18{opacity:0.2;fill-rule:evenodd;clip-rule:evenodd;enable-background:new    ;}
	.st19{opacity:0.12;fill-rule:evenodd;clip-rule:evenodd;enable-background:new    ;}
	.st20{opacity:0.25;fill-rule:evenodd;clip-rule:evenodd;fill:#FFFFFF;enable-background:new    ;}
	.st21{fill-rule:evenodd;clip-rule:evenodd;fill:#808285;}
</style>
<g id="Layer_1">
	<g id="Layer_7" class="st0">
		<path class="st1" d="M657.9,463.5H97.2c-20.7,0-37.5-16.8-37.5-37.5V102.7c0-20.7,16.8-37.5,37.5-37.5h560.7
			c20.7,0,37.5,16.8,37.5,37.5V426C695.5,446.7,678.6,463.5,657.9,463.5z"/>
	</g>
	<g id="Layer_8" class="st2">
		<path class="st3" d="M640.9,480H80.2c-20.7,0-37.5-16.8-37.5-37.5V119.2c0-20.7,16.8-37.5,37.5-37.5h560.7
			c20.7,0,37.5,16.8,37.5,37.5v323.2C678.4,463.2,661.6,480,640.9,480z"/>
	</g>
	<g id="Layer_2_1_">
		<g id="Layer_5">
		</g>
		<g id="Layer_4">
		</g>
		<path class="st4" d="M674.4,448H113.7c-20.7,0-37.5-16.8-37.5-37.5V87.2c0-20.7,16.8-37.5,37.5-37.5h560.7
			c20.7,0,37.5,16.8,37.5,37.5v323.2C712,431.2,695.1,448,674.4,448z"/>
	</g>
	<g id="Layer_3" class="st5">
		<path id="path8" class="st6" d="M452.8,299.6c-29.9,22-73.3,33.8-110.6,33.8c-52.3,0-99.5-19.4-135.1-51.6c-2.8-2.5-0.3-6,3.1-4
			c38.5,22.4,86,35.8,135.2,35.8c33.1,0,69.6-6.9,103.1-21.1C453.5,290.5,457.8,296,452.8,299.6"/>
		<path id="path10" class="st6" d="M465.3,285.4c-3.8-4.9-25.3-2.3-34.9-1.2c-2.9,0.4-3.4-2.2-0.7-4c17.1-12,45.1-8.6,48.4-4.5
			s-0.9,32.2-16.9,45.6c-2.5,2.1-4.8,1-3.7-1.8C461,310.5,469.1,290.3,465.3,285.4"/>
		<path id="path12" class="st7" d="M431,195.3v-11.7c0-1.8,1.3-3,3-3h52.4c1.7,0,3,1.2,3,3v10c0,1.7-1.4,3.9-3.9,7.3l-27.1,38.7
			c10.1-0.2,20.7,1.3,29.9,6.4c2.1,1.2,2.6,2.9,2.8,4.5V263c0,1.7-1.9,3.7-3.9,2.7c-16.1-8.4-37.5-9.4-55.3,0.1
			c-1.8,1-3.7-1-3.7-2.7v-11.9c0-1.9,0-5.2,1.9-8l31.4-45.1H434C432.4,198.2,431,197,431,195.3"/>
		<path id="path14" class="st7" d="M240,268.2h-15.9c-1.5-0.1-2.7-1.3-2.8-2.7v-81.8c0-1.6,1.4-2.9,3.1-2.9h14.9
			c1.5,0.1,2.8,1.3,2.9,2.7v10.7h0.3c3.9-10.3,11.2-15.1,21-15.1c10,0,16.2,4.8,20.7,15.1c3.9-10.3,12.6-15.1,22-15.1
			c6.7,0,14,2.8,18.4,8.9c5,6.9,4,16.9,4,25.6v51.6c0,1.6-1.4,3-3.1,3h-15.9c-1.6-0.1-2.9-1.4-2.9-3v-43.3c0-3.5,0.3-12.1-0.4-15.3
			c-1.2-5.5-4.7-7-9.4-7c-3.9,0-7.9,2.6-9.5,6.7c-1.6,4.1-1.5,11-1.5,15.7v43.3c0,1.6-1.4,3-3.1,3h-15.9c-1.6-0.1-2.9-1.4-2.9-3V222
			c0-9.1,1.5-22.5-9.8-22.5c-11.4,0-11,13.1-11,22.5v43.3C243.1,266.9,241.7,268.2,240,268.2"/>
		<path id="path16" class="st7" d="M534.4,179.1c23.6,0,36.4,20.3,36.4,46.1c0,24.9-14.1,44.7-36.4,44.7
			c-23.2,0-35.8-20.3-35.8-45.6C498.6,198.9,511.4,179.1,534.4,179.1 M534.6,195.8c-11.7,0-12.5,16-12.5,26s-0.2,31.3,12.3,31.3
			c12.3,0,12.9-17.2,12.9-27.7c0-6.9-0.3-15.1-2.4-21.7C543.2,198,539.6,195.8,534.6,195.8"/>
		<path id="path18" class="st7" d="M601.5,268.2h-15.9c-1.6-0.1-2.9-1.4-2.9-3v-81.8c0.1-1.5,1.5-2.7,3.1-2.7h14.8
			c1.4,0.1,2.5,1,2.8,2.3v12.5h0.3c4.5-11.2,10.7-16.5,21.7-16.5c7.1,0,14.1,2.6,18.6,9.6c4.2,6.5,4.2,17.5,4.2,25.5v51.5
			c-0.2,1.4-1.5,2.6-3.1,2.6h-16c-1.5-0.1-2.7-1.2-2.8-2.6v-44.4c0-8.9,1-22-10-22c-3.9,0-7.4,2.6-9.2,6.5c-2.2,5-2.5,10-2.5,15.5
			v44C604.6,266.9,603.2,268.2,601.5,268.2"/>
		<path id="path28" class="st7" d="M389.3,229.2c0,6.2,0.2,11.4-3,16.9c-2.5,4.5-6.6,7.2-11,7.2c-6.1,0-9.7-4.7-9.7-11.5
			c0-13.6,12.2-16,23.7-16V229.2 M405.3,268c-1.1,0.9-2.6,1-3.8,0.4c-5.3-4.4-6.3-6.4-9.1-10.6c-8.7,8.9-14.9,11.6-26.3,11.6
			c-13.4,0-23.8-8.3-23.8-24.8c0-12.9,7-21.7,17-26c8.6-3.8,20.7-4.5,30-5.5V211c0-3.8,0.3-8.3-1.9-11.5c-1.9-2.9-5.6-4.1-8.9-4.1
			c-6.1,0-11.5,3.1-12.8,9.6c-0.3,1.4-1.3,2.8-2.8,2.9l-15.4-1.7c-1.3-0.3-2.8-1.3-2.4-3.3c3.5-18.7,20.5-24.4,35.6-24.4
			c7.8,0,17.9,2.1,24,7.9c7.8,7.2,7,16.9,7,27.4v24.8c0,7.5,3.1,10.7,6,14.8c1,1.4,1.2,3.2-0.1,4.2
			C414.3,260.2,408.6,265.2,405.3,268L405.3,268"/>
		<path id="path30" class="st7" d="M180.5,229.2c0,6.2,0.2,11.4-3,16.9c-2.5,4.5-6.5,7.2-11,7.2c-6.1,0-9.7-4.7-9.7-11.5
			c0-13.6,12.2-16,23.7-16V229.2 M196.5,268c-1.1,0.9-2.6,1-3.8,0.4c-5.3-4.4-6.2-6.4-9.1-10.6c-8.7,8.9-14.9,11.6-26.3,11.6
			c-13.4,0-23.8-8.3-23.8-24.8c0-12.9,7-21.7,17-26c8.6-3.8,20.7-4.5,30-5.5V211c0-3.8,0.3-8.3-1.9-11.5c-1.9-2.9-5.7-4.1-8.9-4.1
			c-6.1,0-11.5,3.1-12.8,9.6c-0.3,1.4-1.3,2.8-2.8,2.9l-15.5-1.7c-1.3-0.3-2.7-1.3-2.4-3.3c3.6-18.7,20.5-24.4,35.6-24.4
			c7.8,0,17.9,2.1,24,7.9c7.8,7.2,7,16.9,7,27.4v24.8c0,7.5,3.1,10.7,6,14.8c1,1.4,1.3,3.2,0,4.2C205.5,260.2,199.7,265.2,196.5,268
			L196.5,268"/>
		<g id="Layer_6" class="st8">
		</g>
	</g>
	<g id="Layer_2" class="st5">
		<g class="st8">
			<g>
				<path class="st9" d="M197.4,167.2c1.1-0.1,2.2,0.1,3.4,0.5c-7.3,10-8.7,28.8-8.9,35.9h5.1c0.3-9.3,2.1-25.4,7.9-33
					c6.8,7,11.1,22.4,12.5,33h5.1c-1.4-11.6-6.1-28.2-13.8-36.4c1.1-0.6,2.3-0.9,3.7-0.9c2.4,0,4.6,1.1,6.7,3.4
					c7.4,8.1,10.7,26.9,11.4,33.9h5.1c-0.6-7.8-3.9-25.6-11.1-35.3c-3.5-4.7-7.6-7.1-12.1-7.1c-3,0-5.6,1-7.8,2.6
					c-2.4-1.4-5-2-7.6-1.7c-13.5,1.4-17.1,22.3-17.6,41.5h5.1C185,181.2,189.6,168,197.4,167.2z"/>
				
					<linearGradient id="SVGID_1_" gradientUnits="userSpaceOnUse" x1="290.3873" y1="-609.5574" x2="313.1876" y2="-582.3851" gradientTransform="matrix(4.7622 0 0 4.7622 -1231.6007 3098.6082)">
					<stop  offset="0" style="stop-color:#00BFF2"/>
					<stop  offset="1" style="stop-color:#007DC4"/>
				</linearGradient>
				<path class="st10" d="M269.2,203.4c0-0.6-0.6-1.1-1.3-1.1l-13.5-1.9c-0.1,0-0.2-0.1-0.4-0.1c-5.2,0-24.3-0.1-53.9-0.1
					c-29.8,0-48.9,0.4-54,0.5c-0.8,0-1.5,0.6-1.5,1.3c-0.3,5.1-1.5,25.1-3.2,55.9c-1.8,32.6-2.8,50.3-3,55c0,0.7,0.5,1.3,1.2,1.4
					l53.7,8.1l53.1,8c0.4,0.1,0.9,0,1.2-0.3v0l26.2-16.8c0.7-0.5,1.1-1.2,1-2L269.2,203.4z"/>
				<g>
					<g>
						<g>
							<g>
								<path class="st11" d="M215.2,290.9h-1.9v-0.7h4.5v0.7h-1.9v5.1h-0.7L215.2,290.9L215.2,290.9z"/>
								<path class="st11" d="M220.8,296l-1.6-4.7v4.7h-0.7v-5.8h1l1.6,4.9l1.6-4.9h1v5.8h-0.7v-4.7l-1.6,4.7L220.8,296L220.8,296z"
									/>
							</g>
						</g>
					</g>
					<g>
						<path class="st11" d="M184.6,225.6V288l14.1,4.5v-52.3c0-2.5,1.1-4.1,2.9-3.5c2.3,0.6,2.8,2.9,2.8,5.3v20.9
							c8.8,4.3,15.7,0,15.7-11.2c0-11.5-4.1-16.6-16-20.7C199.3,229.4,190.6,226.8,184.6,225.6"/>
						<path class="st11" d="M201.4,283.4l22.7-8.1c2.6-0.9,3-2.2,0.9-2.9c-2.1-0.7-5.9-0.5-8.5,0.4l-15.1,5.3v-8.5l0.9-0.3
							c0,0,4.4-1.5,10.5-2.2c6.1-0.7,13.7,0.1,19.6,2.3c6.7,2.1,7.4,5.2,5.7,7.3c-1.7,2.1-5.9,3.7-5.9,3.7l-30.8,11.1L201.4,283.4
							L201.4,283.4L201.4,283.4z"/>
						<path class="st11" d="M158.7,282.5c-6.8-1.9-8-5.9-4.9-8.2c2.9-2.1,7.8-3.7,7.8-3.7l20.2-7.2v8.2l-14.5,5.2
							c-2.6,0.9-3,2.2-0.9,2.9c2.1,0.7,5.9,0.5,8.4-0.4l7-2.5v7.3c-0.5,0.1-1,0.2-1.4,0.2C173.5,285.4,166,284.9,158.7,282.5"/>
					</g>
				</g>
			</g>
			<g>
				<g>
					<path class="st11" d="M344.1,196.5l-20.1,0c-0.1,0-0.2,0.1-0.2,0.1v47c0,0.1,0.1,0.1,0.2,0.1h8.1c0.1,0,0.2-0.1,0.2-0.1v-41.9
						c0,0,0-0.1,0.1-0.1l9.3,0c3.4,0,5.3,3.4,5.3,9.6c0,6.2-1.9,9.6-5.3,9.6h-5.6c-0.1,0-0.1,0.1-0.1,0.1v4.9c0,0.1,0.1,0.1,0.1,0.1
						h8c2.8,0,5.6-1.3,7.6-3.6c2.4-2.7,3.6-6.5,3.6-11.2C355.4,202.4,350.9,196.5,344.1,196.5"/>
					<path class="st11" d="M368.7,196.5h-8.1c-0.1,0-0.1,0.1-0.1,0.1v47c0,0.1,0.1,0.1,0.1,0.1h8.1c0.1,0,0.1-0.1,0.1-0.1v-47
						C368.8,196.6,368.7,196.5,368.7,196.5"/>
					<path class="st11" d="M404.2,208c0-0.1-0.1-0.1-0.1-0.1h-14.5c-13,0-14.7,9.6-14.7,18l0,7.3c0,6.2,3.9,10.8,9.2,10.8h7.9
						c0.1,0,0.1-0.1,0.1-0.1v-4.9c0-0.1-0.1-0.2-0.1-0.2l-5.7,0c-1.3,0-3.1-0.6-3.1-5v-7.8c0-5.2,0.5-8.5,1.5-10.4
						c1.2-2.1,3-2.4,4.7-2.4l6.2,0c0,0,0,0,0,0.1l0,30.6c0,0.1,0.1,0.1,0.1,0.1h8.1c0.1,0,0.1-0.1,0.1-0.1l0-35.5L404.2,208
						L404.2,208L404.2,208z"/>
					<path class="st11" d="M462.8,216.2l-4-0.3c-3-0.3-5.2-1.9-5.2-6.9c0-5.8,2.6-7.3,6-7.3h11.1c0.1,0,0.1-0.1,0.1-0.1v-4.9
						c0-0.1-0.1-0.1-0.1-0.1h-0.2h0l-12,0c-7.6,0-13,4.4-13,13.3v0.4c0,7,4.3,12.1,10.7,12.6l4,0.3c3,0.2,4.9,2.9,4.9,7.1v1.2
						c0,2.6-0.6,7.3-6.2,7.3h-11.3h-0.2c-0.1,0-0.1,0.1-0.1,0.2v4.9c0,0.1,0.1,0.1,0.1,0.1h14.3c4.4,0,11.8-1.8,11.8-13.8
						c0-4.3-1-7.8-3-10.2C468.8,217.6,466.3,216.5,462.8,216.2"/>
					<path class="st11" d="M529.6,208c0-0.1-0.1-0.1-0.1-0.1h-14.5c-13,0-14.7,9.6-14.7,18l0,7.3c0,6.2,3.9,10.8,9.2,10.8h7.9
						c0.1,0,0.2-0.1,0.2-0.1v-4.9c0-0.1-0.1-0.2-0.2-0.2l-5.7,0c-1.3,0-3.1-0.6-3.1-5v-7.8c0-5.2,0.5-8.5,1.6-10.4
						c1.2-2.1,3-2.4,4.7-2.4l6.2,0c0,0,0.1,0,0.1,0.1l0,30.6c0,0.1,0.1,0.1,0.1,0.1h8.1c0.1,0,0.1-0.1,0.1-0.1L529.6,208L529.6,208z
						"/>
					<path class="st11" d="M496.8,207.8H488c0,0-0.1,0-0.1-0.1l0,0l0-5.9c0-0.1-0.1-0.1-0.1-0.1h-8.1c-0.1,0-0.1,0.1-0.1,0.1v31.2
						c0,6.2,3.9,10.8,9.2,10.8h5.8c0.1,0,0.1-0.1,0.1-0.1v-4.9c0-0.1-0.1-0.2-0.1-0.2H491c-0.9,0-3.1-0.1-3.1-4.7v-21c0,0,0,0,0.1,0
						c2.7,0,8.8,0,8.8,0c0.1,0,0.1-0.1,0.1-0.1V208C497,207.9,496.9,207.8,496.8,207.8"/>
					<path class="st11" d="M553.7,207.8h-8.8c0,0-0.1,0-0.1-0.1l0,0l0-5.9c0-0.1-0.1-0.1-0.1-0.1h-8.1c-0.1,0-0.2,0.1-0.2,0.1v31.2
						c0,6.2,3.9,10.8,9.2,10.8h5.8c0.1,0,0.1-0.1,0.1-0.1v-4.9c0-0.1-0.1-0.2-0.1-0.2h-3.6c-0.9,0-3.1-0.1-3.1-4.7v-21
						c0,0,0,0,0.1,0c2.7,0,8.8,0,8.8,0c0.1,0,0.1-0.1,0.1-0.1V208C553.9,207.9,553.8,207.8,553.7,207.8"/>
					<path class="st11" d="M567.2,207.8h-8.1c-0.1,0-0.2,0.1-0.2,0.1v35.7c0,0.1,0.1,0.1,0.2,0.1h8.1c0.1,0,0.1-0.1,0.1-0.1V208
						C567.3,207.9,567.3,207.8,567.2,207.8"/>
					<path class="st11" d="M567.2,196.5h-8.1c-0.1,0-0.2,0.1-0.2,0.1v6.8c0,0.1,0.1,0.1,0.2,0.1h8.1c0.1,0,0.1-0.1,0.1-0.1v-6.8
						C567.3,196.6,567.3,196.5,567.2,196.5"/>
					<path class="st11" d="M623.5,207.8H609c-0.1,0-0.1,0.1-0.1,0.1l0,35.7c0,0.1,0.1,0.1,0.1,0.1h8.1c0.1,0,0.1-0.1,0.1-0.1l0-30.6
						c0,0,0-0.1,0.1-0.1l6.2,0c1.7,0,3.5,0.3,4.7,2.2c1.1,1.8,1.6,4.8,1.6,9.7c0,0.2,0,18.8,0,18.8c0,0.1,0.1,0.1,0.2,0.1h8.1
						c0.1,0,0.1-0.1,0.1-0.1v-17.9C638.2,217.4,636.5,207.8,623.5,207.8"/>
					<path class="st11" d="M588.1,207.8c-13.6,0-15.4,9.6-15.4,18c0,8.4,1.7,18,15.3,18c13.6,0,15.4-9.6,15.4-18
						C603.4,217.5,601.7,207.8,588.1,207.8 M593.3,236.3c-1.3,2.1-3.3,2.4-5.2,2.4c-1.8,0-3.9-0.3-5.2-2.4
						c-1.2-1.9-1.7-5.2-1.7-10.5v0c0-6.2,0.8-9.7,2.5-11.4c1-1,2.3-1.4,4.4-1.4c2.1,0,3.4,0.4,4.4,1.4c1.7,1.7,2.5,5.2,2.5,11.4
						C595,231.1,594.4,234.4,593.3,236.3"/>
					<path class="st11" d="M408.8,207.8c-0.1,0-0.1,0.1-0.1,0.1l12.1,35.4c0,0.1,0,0.2,0,0.3l-6.8,17.5c0,0.1,0,0.1,0.1,0.1h7.1
						c0.1,0,0.2-0.1,0.2-0.1l21.2-53.2c0-0.1,0-0.1-0.1-0.1h-7.7c-0.1,0-0.2,0.1-0.2,0.1l-9,23.3c0,0.1-0.1,0.1-0.1,0l-7.9-23.3
						c0-0.1-0.1-0.1-0.2-0.1L408.8,207.8L408.8,207.8z"/>
					<path class="st11" d="M349.6,272c-3.3-1.3-6.9-2-10.4-2c-4.5,0-9.5,1.7-9.5,7.2c0,4.2,2.5,6.6,9.9,9.4
						c8.9,3.4,13.6,7,13.6,14.4c0,9.3-8.1,13.1-15.9,13.1c-4.2,0-9.5-0.9-14-2.9l1.5-5c4.3,2.1,8.9,3.1,12.7,3.1
						c5.7,0,10-2.5,10-7.8c0-4.8-4.2-7.3-11.3-10.2c-8.1-3.2-12.1-7.3-12.1-13.6c0-8.7,8.2-12.5,15.4-12.5c4.2,0,8.3,0.7,11.7,2
						L349.6,272z"/>
					<path class="st11" d="M354.7,278.3h6.2v-8.8h5.6v8.8h8.1v4.4h-8.1v20.9c0,4.8,0.5,5.6,4.4,5.6c1.5,0,2.5-0.1,3.7-0.3v4.2
						c-1.3,0.2-3.4,0.5-5.3,0.5c-7.3,0-8.5-3.5-8.5-9.7v-21.3h-6.2L354.7,278.3L354.7,278.3z"/>
					<path class="st11" d="M392.9,314.1c-10,0-16.2-7-16.2-18.4c0-11.4,6.2-18.2,16.2-18.2c10,0,16.2,6.8,16.2,18.2
						C409.2,307.1,402.9,314.1,392.9,314.1 M392.9,281.9c-7.3,0-10.6,5.7-10.6,13.8c0,8.1,3.4,13.9,10.6,13.9
						c7.3,0,10.6-5.8,10.6-13.9C403.5,287.6,400.2,281.9,392.9,281.9"/>
					<path class="st11" d="M430.6,282.1c-0.8-0.1-1.8-0.2-2.9-0.2c-4.6,0-8.3,2.7-8.3,10.9v20.5h-5.6v-35h5.4v4.7h0.1
						c1.7-3.7,4.6-5.5,9.1-5.5c0.6,0,1.5,0,2.5,0.1L430.6,282.1z"/>
					<path class="st11" d="M436,297.3c0.4,7.5,5,12.3,12.4,12.3c3.2,0,6.7-0.6,9.4-1.7l0.9,4.3c-2.9,1.3-6.8,1.9-10.5,1.9
						c-11.6,0-17.7-7.8-17.7-18.2c0-10.6,6-18.4,15.8-18.4c9.8,0,14.5,6.8,14.5,17.1v2.7L436,297.3L436,297.3L436,297.3z M436,292.9
						h19.7v-0.3c0-6.7-3.8-10.7-9.3-10.7C440.2,281.9,436.6,286.5,436,292.9"/>
					<g>
						<path class="st11" d="M643.8,238.2h-2.1v-0.7h5v0.7h-2.1v5.6h-0.8L643.8,238.2L643.8,238.2z"/>
						<path class="st11" d="M650.1,243.8l-1.7-5.1v5.1h-0.8v-6.3h1.2l1.8,5.4l1.8-5.4h1.1v6.3h-0.8v-5.1l-1.7,5.1H650.1z"/>
					</g>
				</g>
			</g>
		</g>
	</g>
	<path class="st12" d="M695.4,217.4h-2.8v-6.9l-2.8,4.5h-1.4l-1.4-4.5v6.9h-2.8v-11.7h2.8l2.8,6.3l2.8-6.3h2.8V217.4z M683,207.7
		h-2.8v9.6h-2.8v-9.6h-2.8v-2.1h8.3V207.7z M667.8,251.1h-8.3v-26.5l-9.6,17.2h-5.5l-8.3-17.2v26.5h-9.6v-45.5h9.6l11,24.5
		l12.4-24.5h8.3V251.1z M614.1,251.1h-9.6l-2.8-8h-15.2l-2.8,8h-9.6l16.5-45.5h6.9L614.1,251.1z M600.3,235.6l-5.5-16.5l-5.5,16.5
		H600.3z M560.4,251.1h-30.3v-45.5h30.3v7.9h-20.7v10.7h17.9v7.9h-17.9v11.2h20.7V251.1L560.4,251.1z M516.3,213.5h-11v37.6h-9.6
		v-37.6h-12.4v-7.9h33.1V213.5z M472.2,237.8c0,9.4-8.3,13.6-16.5,13.8c-8.3,0-13.8-1.9-16.5-6.1l5.5-5.6c2.8,2.5,5.5,3.9,11,3.9
		c5.5,0,8.3-1.9,8.3-5.6c0-3.4-2.8-5-5.5-5.5l-5.5-0.7c-8.3-1.1-12.4-5.4-12.4-12.8c0-4.1,1.4-7.4,4.1-10.1c2.8-2.5,6.9-3.7,11-3.7
		c6.9,0,11,1.8,15.2,5.2l-5.5,5.6c-2.8-2.1-5.5-3.2-9.6-3.2c-4.1,0.3-6.9,1.8-6.9,5.8c0,3.2,2.8,4.7,5.5,5l5.5,0.8
		C466.7,225.4,472.2,230,472.2,237.8z M401.9,229.5c0,12.4-11,22.5-23.4,22.5c-12.4,0-22-10.1-22-22.5c0-12.3,9.6-22.3,22-22.3
		C390.9,207.2,401.9,217.2,401.9,229.5z M378.5,187.9c-22,0-41.3,18.5-41.3,41.5L311,266.7c-1.4-0.1-1.4-0.3-2.8-0.3
		c-5.5,0-11,1.7-16.5,4.4l-117.7-47.4c-3.2-14.1-15.7-24.5-30.6-24.5c-17.1,0-31.2,14.1-31.2,31.3c0,17.1,14.1,31.1,31.2,31.1
		c5.9,0,11.3-1.5,16-4.4l118.5,47.4c2.8,14.5,15.2,24.1,30.3,24.1s28.9-12.4,30.3-27.7l40-29.2c23.4,0,42.7-18.7,42.7-41.9
		C421.2,206.6,401.9,187.9,378.5,187.9z M378.5,201.7c16.5,0,28.9,12.5,28.9,28c0,15.6-12.4,28.1-28.9,28.1
		c-15.2,0-27.6-12.5-27.6-28.1C351,214.2,363.4,201.7,378.5,201.7L378.5,201.7z M143.5,207.2c8.8,0,16.5,4.8,20.4,12.1l-11.4-4.5
		c-9.2-3.3-19.4,1.2-23.1,10.3c-3.6,9.2,0.6,19.6,9.5,23.6l9.6,3.9c-1.5,0.4-3.2,0.6-5,0.6c-12.7,0-22.9-10.2-22.9-22.9
		C120.6,217.4,130.8,207.2,143.5,207.2z M308.2,274.7c12.4,0,22,10.3,22,23c0,12.8-9.6,22.5-22,22.5c-9.6,0-16.5-4.1-20.7-11.7
		c4.1,2.1,6.9,3.4,11,4.8c9.6,4.1,19.3-1.4,23.4-10.2c2.8-8.5,0-20.3-9.6-24l-9.6-3.9C304.1,275,306.9,274.7,308.2,274.7
		L308.2,274.7z"/>
</g>
<g id="Layer_6_1_">
	<path class="st11" d="M203.7,158.4c-46.2,0-83.7,37.5-83.7,83.7c0,46.3,37.5,83.7,83.7,83.7c46.3,0,83.7-37.5,83.7-83.7
		C287.5,195.9,250,158.4,203.7,158.4C203.7,158.4,203.7,158.4,203.7,158.4z M242.1,279.2c-1.5,2.5-4.7,3.2-7.2,1.7
		c-19.7-12-44.4-14.7-73.6-8.1c-2.8,0.6-5.6-1.1-6.2-3.9c-0.6-2.8,1.1-5.6,3.9-6.2c31.9-7.3,59.3-4.1,81.3,9.3
		C242.9,273.5,243.6,276.7,242.1,279.2z M252.4,256.4c-1.9,3.1-5.9,4-9,2.2c-22.5-13.8-56.8-17.8-83.4-9.8c-3.5,1-7.1-0.9-8.1-4.4
		c-1-3.5,0.9-7.1,4.4-8.1c30.4-9.2,68.2-4.8,94.1,11.1C253.3,249.3,254.3,253.3,252.4,256.4L252.4,256.4z M253.3,232.6
		c-27-16-71.5-17.5-97.3-9.7c-4.1,1.3-8.5-1.1-9.8-5.2c-1.3-4.1,1.1-8.5,5.2-9.8c29.6-9,78.8-7.2,109.8,11.2c3.7,2.2,5,7,2.7,10.7
		C261.8,233.6,257,234.8,253.3,232.6L253.3,232.6z M347.8,235.7c-14.5-3.4-17-5.9-17-11c0-4.8,4.5-8,11.2-8c6.5,0,13,2.5,19.8,7.5
		c0.2,0.2,0.5,0.2,0.7,0.2c0.3,0,0.5-0.2,0.6-0.4l7.1-10c0.3-0.4,0.2-1-0.2-1.3c-8.1-6.5-17.1-9.6-27.8-9.6
		c-15.6,0-26.5,9.4-26.5,22.8c0,14.4,9.4,19.5,25.7,23.4c13.8,3.2,16.2,5.9,16.2,10.6c0,5.3-4.7,8.6-12.3,8.6
		c-8.4,0-15.3-2.8-23-9.5c-0.2-0.2-0.5-0.2-0.7-0.2c-0.3,0-0.5,0.1-0.6,0.3l-7.9,9.4c-0.3,0.4-0.3,1,0.1,1.3c9,8,20,12.2,31.9,12.2
		c16.8,0,27.7-9.2,27.7-23.4C372.6,246.6,365.5,240,347.8,235.7C347.8,235.7,347.8,235.7,347.8,235.7z M410.7,221.4
		c-7.3,0-13.3,2.9-18.2,8.8v-6.6c0-0.5-0.4-0.9-0.9-0.9h-13c-0.5,0-0.9,0.4-0.9,0.9v73.6c0,0.5,0.4,0.9,0.9,0.9h13
		c0.5,0,0.9-0.4,0.9-0.9v-23.2c4.9,5.5,10.9,8.2,18.2,8.2c13.5,0,27.3-10.4,27.3-30.4C438,231.9,424.2,221.4,410.7,221.4
		L410.7,221.4L410.7,221.4z M422.9,251.8c0,10.1-6.2,17.2-15.2,17.2c-8.9,0-15.5-7.4-15.5-17.2c0-9.8,6.7-17.2,15.5-17.2
		C416.5,234.6,422.9,241.8,422.9,251.8L422.9,251.8z M473.1,221.4c-17.5,0-31.1,13.4-31.1,30.6c0,17,13.6,30.3,30.9,30.3
		c17.5,0,31.2-13.4,31.2-30.5C504.1,234.8,490.5,221.4,473.1,221.4L473.1,221.4z M473.1,269.2c-9.3,0-16.3-7.5-16.3-17.3
		c0-9.9,6.8-17.1,16.1-17.1c9.3,0,16.4,7.5,16.4,17.4C489.3,262,482.5,269.2,473.1,269.2z M541.4,222.6h-14.2v-14.6
		c0-0.5-0.4-0.9-0.9-0.9h-12.9c-0.5,0-1,0.4-1,0.9v14.6h-6.2c-0.5,0-0.9,0.4-0.9,0.9v11.1c0,0.5,0.4,0.9,0.9,0.9h6.2v28.8
		c0,11.6,5.8,17.5,17.2,17.5c4.6,0,8.5-1,12.1-3c0.3-0.2,0.5-0.5,0.5-0.8v-10.6c0-0.3-0.2-0.6-0.5-0.8c-0.3-0.2-0.6-0.2-0.9,0
		c-2.5,1.2-4.9,1.8-7.6,1.8c-4.1,0-6-1.9-6-6.1v-26.8h14.2c0.5,0,0.9-0.4,0.9-0.9v-11.1C542.3,223.1,541.9,222.6,541.4,222.6
		L541.4,222.6L541.4,222.6z M591,222.7v-1.8c0-5.3,2-7.6,6.5-7.6c2.7,0,4.9,0.5,7.3,1.3c0.3,0.1,0.6,0,0.8-0.1
		c0.2-0.2,0.4-0.5,0.4-0.8v-10.9c0-0.4-0.3-0.8-0.7-0.9c-2.6-0.8-5.8-1.5-10.8-1.5c-11.9,0-18.3,6.7-18.3,19.5v2.7h-6.2
		c-0.5,0-0.9,0.4-0.9,0.9v11.2c0,0.5,0.4,0.9,0.9,0.9h6.2v44.4c0,0.5,0.4,1,1,1h12.9c0.5,0,1-0.4,1-1v-44.4h12.1l18.5,44.4
		c-2.1,4.7-4.2,5.6-7,5.6c-2.3,0-4.7-0.7-7.1-2c-0.2-0.1-0.5-0.1-0.8-0.1c-0.2,0.1-0.5,0.3-0.6,0.5l-4.4,9.6c-0.2,0.5,0,1,0.4,1.2
		c4.6,2.5,8.7,3.5,13.8,3.5c9.6,0,14.8-4.5,19.5-16.4l22.5-58c0.1-0.3,0.1-0.6-0.1-0.9c-0.2-0.3-0.5-0.4-0.8-0.4h-13.5
		c-0.4,0-0.8,0.3-0.9,0.6l-13.8,39.4L614,223.3c-0.1-0.4-0.5-0.6-0.9-0.6L591,222.7L591,222.7L591,222.7z M562.2,222.6h-13
		c-0.5,0-0.9,0.4-0.9,0.9v56.5c0,0.5,0.4,1,0.9,1h13c0.5,0,0.9-0.4,0.9-1v-56.5C563.2,223.1,562.8,222.6,562.2,222.6
		C562.2,222.6,562.2,222.6,562.2,222.6z M555.8,196.9c-5.1,0-9.3,4.2-9.3,9.3c0,5.1,4.2,9.3,9.3,9.3s9.3-4.2,9.3-9.3
		C565.1,201.1,560.9,196.9,555.8,196.9z M669.2,240.8c-5.1,0-9.1-4.1-9.1-9.1c0-5,4-9.2,9.2-9.2s9.1,4.1,9.1,9.1
		C678.4,236.6,674.4,240.8,669.2,240.8z M669.3,223.4c-4.7,0-8.2,3.7-8.2,8.3c0,4.5,3.5,8.2,8.2,8.2c4.7,0,8.2-3.7,8.2-8.3
		C677.4,227.1,673.9,223.4,669.3,223.4z M671.3,232.6l2.6,3.6h-2.2l-2.3-3.3h-2v3.3h-1.8v-9.6h4.3c2.2,0,3.7,1.1,3.7,3.1
		C673.5,231.2,672.6,232.2,671.3,232.6L671.3,232.6z M669.8,228.2h-2.4v3h2.4c1.2,0,1.9-0.6,1.9-1.5
		C671.7,228.8,671,228.2,669.8,228.2z"/>
</g>
<g id="Layer_5_1_" class="st5">
	<path id="path6965" class="st13" d="M678,301.9l-39.2-52.8l35.8-47.9h-13.4l-29.1,39.1L603,201.3h-13.4l35.7,48L586.2,302h13.4
		l32.4-43.7l32.5,43.7L678,301.9"/>
	<path id="path6967" class="st13" d="M411.2,301.9l-39.1-52.8l35.7-47.9h-13.4l-29.1,39.1l-29.1-39.1h-13.4l35.8,48L319.4,302h13.4
		l32.5-43.7l32.4,43.7L411.2,301.9"/>
	<path id="path6969" class="st13" d="M458.1,291.4h-29.9v-36.6h29.9c11.4,0,24.9,3.1,24.9,17.5C483,288.9,467.3,291.4,458.1,291.4z
		 M428.2,211.7h29.9c8.1,0,21.7,2,21.7,16c0,10.6-7.9,16.9-21.7,16.9h-29.9V211.7z M485.6,253c-2.1-1.8-4.4-3.2-6.7-4.2
		c7.3-4,12.2-11.5,12.2-20.1c0-6.4-2.4-27.4-33.1-27.4h-41.3v43.5H403c-1.8,2.3-5.9,7.8-7.4,10.1h21.2v47.2H458
		c22.4,0,36.4-11.3,36.4-29.4C494.5,264.6,491.4,257.8,485.6,253"/>
	<path id="path6971" class="st13" d="M548.1,293.5c-21.8,0-37.1-17.2-37.1-42s15.3-42,37.1-42c21.8,0,36.9,17.2,36.9,42
		C585.1,276.2,569.9,293.5,548.1,293.5z M548.1,199c-28.7,0-48.6,21.6-48.6,52.6s20,52.6,48.6,52.6c28.5,0,48.5-21.6,48.5-52.6
		S576.7,199,548.1,199"/>
	<g id="g4146" transform="translate(-1.013 3.163) scale(.23106)" class="st8">
		<path id="path4148" class="st11" d="M814.6,1433c-57.1-5.4-114.9-26-164.6-58.5c-41.6-27.2-51-38.3-51-60.7
			c0-44.8,49.2-123.3,133.3-212.6c47.8-50.8,114.4-110.3,121.5-108.8c14,3.1,125.9,112.5,167.8,163.8
			c66.3,81.5,96.8,148.1,81.3,177.8c-11.8,22.6-84.8,66.7-138.3,83.6C920.4,1431.7,862.3,1437.6,814.6,1433z M542.8,1267.4
			c-34.5-53.1-52-105.5-60.5-181.1c-2.8-25-1.8-39.2,6.3-90.5c10.1-63.9,46.4-137.8,90.1-183.3c18.6-19.4,20.3-19.9,43-12.2
			c27.5,9.3,56.9,29.6,102.5,70.9l26.6,24.1l-14.5,17.9c-67.5,82.9-138.7,200.5-165.5,273.2c-14.6,39.5-20.4,79.2-14.2,95.7
			C560.9,1293.3,557,1289.1,542.8,1267.4z M1149.6,1276.4c3.4-16.7-0.9-47.3-11-78.2c-21.8-66.9-95.1-191.6-162.4-276.3L955,895.2
			l22.9-21.1c29.9-27.5,50.7-44,73.1-58c17.7-11,43-20.8,53.8-20.8c6.7,0,30.3,24.5,49.3,51.3c29.5,41.4,51.2,91.7,62.2,144
			c7.1,33.8,7.7,106.1,1.2,139.8c-5.4,27.6-16.7,63.5-27.8,87.9c-8.3,18.2-28.9,53.6-38,65.1
			C1147.1,1289.1,1147.1,1289.1,1149.6,1276.4L1149.6,1276.4z M820.7,782.7c-31.1-15.8-79-32.7-105.5-37.3c-9.3-1.6-25.1-2.5-35.2-2
			c-21.8,1.1-20.9,0,14.2-16.6c29.1-13.8,53.4-21.8,86.4-28.8c37.1-7.8,106.8-7.9,143.3-0.2c39.4,8.3,85.8,25.6,112,41.7l7.8,4.8
			l-17.8-0.9c-35.5-1.8-87.1,12.5-142.6,39.6c-16.7,8.2-31.2,14.7-32.3,14.4C849.9,797.2,836.3,790.6,820.7,782.7z"/>
	</g>
</g>
<g id="Layer_4_1_" class="st5">
	<g id="g1231" transform="translate(0 -.008)" class="st8">
		
			<linearGradient id="path1192_1_" gradientUnits="userSpaceOnUse" x1="3848.2361" y1="-1138.0774" x2="3783.3313" y2="-1104.5741" gradientTransform="matrix(1.3204 0 0 2.558 -4904.3809 3097.9595)">
			<stop  offset="0" style="stop-color:#00A0FF"/>
			<stop  offset="7.000001e-03" style="stop-color:#00A1FF"/>
			<stop  offset="0.26" style="stop-color:#00BEFF"/>
			<stop  offset="0.512" style="stop-color:#00D2FF"/>
			<stop  offset="0.76" style="stop-color:#00DFFF"/>
			<stop  offset="1" style="stop-color:#00E3FF"/>
		</linearGradient>
		<path id="path1192" class="st14" d="M118.8,180.8c-1.5,1.6-2.3,4-2.3,7.2v112.9c0,3.2,0.8,5.6,2.4,7.1l0.4,0.3l63.3-63.3v-1.4
			l-63.3-63.3C119.2,180.4,118.8,180.8,118.8,180.8z"/>
		
			<linearGradient id="path1203_1_" gradientUnits="userSpaceOnUse" x1="4026.7585" y1="-986.118" x2="3907.647" y2="-986.118" gradientTransform="matrix(1.0374 0 0 0.8735 -3938.9729 1105.7745)">
			<stop  offset="0" style="stop-color:#FFE000"/>
			<stop  offset="0.409" style="stop-color:#FFBD00"/>
			<stop  offset="0.775" style="stop-color:#FFA500"/>
			<stop  offset="1" style="stop-color:#FF9C00"/>
		</linearGradient>
		<path id="path1203" class="st15" d="M203.6,266.3l-21.1-21.1v-1.5l21.1-21.1l0.5,0.3l25,14.2c7.1,4,7.1,10.7,0,14.8L204,266
			C204,266,203.6,266.3,203.6,266.3L203.6,266.3z"/>
		
			<linearGradient id="path1210_1_" gradientUnits="userSpaceOnUse" x1="3757.8513" y1="-1043.5101" x2="3689.6406" y2="-955.0195" gradientTransform="matrix(1.7038 0 0 1.3133 -6210.3945 1626.621)">
			<stop  offset="0" style="stop-color:#FF3A44"/>
			<stop  offset="1" style="stop-color:#C31162"/>
		</linearGradient>
		<path id="path1210" class="st16" d="M204,266l-21.6-21.6l-63.7,63.7c2.3,2.5,6.2,2.8,10.6,0.3L204,266"/>
		
			<linearGradient id="path1223_1_" gradientUnits="userSpaceOnUse" x1="3705.3088" y1="-1128.4829" x2="3735.7668" y2="-1088.9467" gradientTransform="matrix(1.7038 0 0 1.3126 -6210.3945 1624.4999)">
			<stop  offset="0" style="stop-color:#32A071"/>
			<stop  offset="6.900000e-02" style="stop-color:#2DA771"/>
			<stop  offset="0.476" style="stop-color:#15CF74"/>
			<stop  offset="0.801" style="stop-color:#06E775"/>
			<stop  offset="1" style="stop-color:#00F076"/>
		</linearGradient>
		<path id="path1223" class="st17" d="M204,222.9l-74.6-42.4c-4.4-2.5-8.3-2.2-10.6,0.3l63.7,63.6L204,222.9z"/>
		<path id="path1225" class="st18" d="M203.6,265.5l-74.1,42.1c-4.1,2.4-7.8,2.2-10.2,0.1l-0.4,0.4l0.4,0.3
			c2.4,2.2,6.1,2.3,10.2-0.1l74.6-42.4L203.6,265.5z"/>
		<path id="path1227" class="st19" d="M229,251.1l-25.5,14.5l0.5,0.5l25-14.2c3.6-2,5.3-4.7,5.3-7.4
			C234,246.9,232.2,249.2,229,251.1L229,251.1z"/>
		<path id="path1229" class="st20" d="M129.4,181.2l99.6,56.6c3.2,1.8,5.1,4.2,5.3,6.6c0-2.7-1.8-5.3-5.3-7.4l-99.6-56.6
			c-7.1-4.1-12.9-0.7-12.9,7.5v0.7C116.5,180.6,122.3,177.2,129.4,181.2z"/>
	</g>
	<g id="g1237" transform="translate(0 -.008)" class="st8">
		<path id="path1233" class="st21" d="M258.6,240.9c0-18.1,15.2-32.8,33.3-32.8c10,0,17.1,3.9,22.5,9l-6.3,6.3
			c-3.8-3.6-9-6.4-16.2-6.4c-13.2,0-23.5,10.6-23.5,23.8c0,13.2,10.3,23.9,23.5,23.9c8.6,0,13.4-3.4,16.6-6.6
			c2.6-2.6,4.2-6.2,4.9-11.3h-21.4v-8.9h30.2c0.3,1.6,0.5,3.5,0.5,5.6c0,6.7-1.8,15-7.8,21c-5.8,6-13.1,9.2-22.9,9.2
			C273.8,273.7,258.6,259,258.6,240.9L258.6,240.9z M346.9,231.4c-11.7,0-21.2,8.9-21.2,21.1c0,12.2,9.5,21.1,21.2,21.1
			c11.7,0,21.2-9,21.2-21.1C368.2,240.3,358.6,231.4,346.9,231.4z M346.9,265.4c-6.4,0-11.9-5.3-11.9-12.8c0-7.6,5.5-12.8,11.9-12.8
			c6.4,0,11.9,5.2,11.9,12.8C358.9,260.1,353.3,265.4,346.9,265.4z M393.2,231.4c-11.7,0-21.2,8.9-21.2,21.1
			c0,12.2,9.5,21.1,21.2,21.1c11.7,0,21.2-9,21.2-21.1C414.4,240.3,404.9,231.4,393.2,231.4L393.2,231.4z M393.2,265.4
			c-6.4,0-11.9-5.3-11.9-12.8c0-7.6,5.5-12.8,11.9-12.8c6.4,0,11.9,5.2,11.9,12.8C405.1,260.1,399.6,265.4,393.2,265.4L393.2,265.4z
			 M450,232.7v3.4h-0.3c-2.1-2.5-6.1-4.7-11.1-4.7c-10.6,0-20.3,9.3-20.3,21.2c0,11.8,9.7,21,20.3,21c5,0,9-2.2,11.1-4.8h0.3v3
			c0,8.1-4.3,12.4-11.3,12.4c-5.7,0-9.2-4.1-10.6-7.5l-8.1,3.4c2.3,5.6,8.5,12.5,18.7,12.5c10.9,0,20.1-6.4,20.1-22v-37.9L450,232.7
			z M439.4,265.4c-6.4,0-11.8-5.4-11.8-12.7c0-7.4,5.4-12.9,11.8-12.9c6.3,0,11.3,5.4,11.3,12.9C450.6,260,445.7,265.4,439.4,265.4z
			 M465.2,210.3h9.3v62.1h-9.3V210.3z M499.9,265.4c-4.7,0-8.1-2.2-10.2-6.4l28.3-11.7l-1-2.4c-1.8-4.7-7.1-13.4-18.1-13.4
			c-10.9,0-19.9,8.6-19.9,21.1c0,11.8,9,21.1,21,21.1c9.7,0,15.3-5.9,17.6-9.4l-7.2-4.8C507.9,263,504.7,265.4,499.9,265.4
			L499.9,265.4z M499.2,239.6c3.7,0,6.8,1.8,7.8,4.5l-18.9,7.8C487.9,243.7,494.5,239.6,499.2,239.6L499.2,239.6z"/>
		<path id="path1235" class="st21" d="M558.7,210.3h-22.2v62.1h9.3v-23.5h12.9c10.3,0,20.4-7.4,20.4-19.3
			C579.1,217.7,569,210.3,558.7,210.3L558.7,210.3z M559,240.2h-13.2v-21.3H559c6.9,0,10.9,5.7,10.9,10.6
			C569.8,234.4,565.9,240.2,559,240.2z M593.5,272.4v-62.1h-9.3v62.1H593.5z M635.1,272.3v-23.8c0-11-8.2-17.2-18.9-17.2
			c-6.7,0-13.6,3-16.5,9.5l8.2,3.4c1.8-3.4,5-4.6,8.5-4.6c4.8,0,9.7,2.9,9.7,8v0.6c-1.7-1-5.3-2.4-9.7-2.4c-8.9,0-17.9,4.9-17.9,14
			c0,8.3,7.3,13.7,15.4,13.7c6.2,0,9.7-2.8,11.8-6.1h0.3v4.8L635.1,272.3L635.1,272.3z M615.1,265.3c-3,0-7.3-1.5-7.3-5.3
			c0-4.8,5.3-6.6,9.8-6.6c4.1,0,6,0.9,8.5,2.1C625.5,261.1,620.7,265.3,615.1,265.3L615.1,265.3z M667.7,232.7l-10.6,26.9h-0.3
			l-11-26.9h-10l16.5,37.6l-9.4,20.9h9.7l25.5-58.6H667.7z"/>
	</g>
</g>
<g id="Layer_3_1_" class="st5">
	<path class="st13" d="M258.5,269.2c-3.7,8.1-5.4,11.7-10.1,18.9c-6.6,10-15.8,22.5-27.3,22.6c-10.2,0.1-12.8-6.6-26.7-6.6
		c-13.9,0.1-16.7,6.7-26.9,6.6c-11.5-0.1-20.3-11.4-26.9-21.4c-18.4-28-20.3-60.8-9-78.3c8.1-12.4,20.8-19.7,32.7-19.7
		c12.2,0,19.8,6.7,29.9,6.7c9.8,0,15.7-6.7,29.8-6.7c10.6,0,21.9,5.8,29.9,15.8C227.7,221.6,231.9,259.1,258.5,269.2L258.5,269.2z"
		/>
	<path class="st13" d="M213.4,180.2c5.1-6.6,9-15.8,7.6-25.3c-8.4,0.6-18.1,5.9-23.8,12.8c-5.2,6.3-9.5,15.6-7.8,24.7
		C198.4,192.6,207.9,187.2,213.4,180.2z"/>
	<g class="st8">
		<path class="st11" d="M305.2,224.7c0,5.7-4.3,10.3-11.1,10.3c-6.5,0-10.8-4.6-10.7-10.3c-0.1-5.9,4.2-10.4,10.8-10.4
			C300.9,214.3,305.1,218.7,305.2,224.7z M284,309.2v-66.1h20.6v66.1H284z M339.3,235.4h-24.5v-17.3h70v17.3H360v73.8h-20.7
			L339.3,235.4z M450.2,288c0,8.6,0.3,15.7,0.5,21.2h-17.8l-0.9-9.3h-0.4c-2.6,4.1-8.8,10.8-20.7,10.8c-13.4,0-23.3-8.4-23.3-28.8
			v-38.8h20.7v35.6c0,9.6,3.1,15.4,10.3,15.4c5.7,0,8.9-3.9,10.3-7.2c0.5-1.2,0.7-2.8,0.7-4.5v-39.3h20.7L450.2,288L450.2,288
			L450.2,288z M466.7,264.2c0-8.3-0.3-15.3-0.5-21.1H484l0.9,9.1h0.4c2.7-4.2,9.5-10.5,20.4-10.5c13.5,0,23.7,8.9,23.7,28.4v39.2
			h-20.5v-36.6c0-8.5-3-14.3-10.4-14.3c-5.7,0-9.1,3.9-10.4,7.7c-0.5,1.4-0.8,3.2-0.8,5.1v38.1h-20.6L466.7,264.2L466.7,264.2
			L466.7,264.2z M561.7,282.7c0.7,8.5,9.1,12.6,18.7,12.6c7,0,12.7-0.9,18.3-2.7l2.7,13.9c-6.8,2.7-15,4.2-23.9,4.2
			c-22.5,0-35.3-13.1-35.3-33.8c0-16.8,10.4-35.3,33.4-35.3c21.4,0,29.5,16.6,29.5,33c0,3.5-0.4,6.6-0.7,8.1L561.7,282.7
			L561.7,282.7z M585.9,268.6c0-5-2.2-13.4-11.6-13.4c-8.7,0-12.2,7.8-12.7,13.4H585.9z M617.1,291.2c3.8,2.3,11.6,5,17.7,5
			c6.2,0,8.8-2.2,8.8-5.5c0-3.4-2-5-9.7-7.6c-13.7-4.6-18.9-12-18.8-19.7c0-12.4,10.5-21.8,26.9-21.8c7.7,0,14.6,1.8,18.7,3.8
			l-3.7,14.2c-3-1.6-8.6-3.8-14.3-3.8c-5,0-7.8,2-7.8,5.4c0,3.1,2.6,4.7,10.7,7.6c12.6,4.3,17.8,10.7,18,20.4
			c0,12.3-9.7,21.5-28.7,21.5c-8.6,0-16.4-2-21.4-4.7L617.1,291.2L617.1,291.2z"/>
	</g>
</g>
</svg>
