<?xml version="1.0" encoding="utf-8"?>
<!-- Generator: Adobe Illustrator 24.3.0, SVG Export Plug-In . SVG Version: 6.00 Build 0)  -->
<svg version="1.1" id="Layer_1" opacity="0.2" xmlns="http://www.w3.org/2000/svg" xmlns:xlink="http://www.w3.org/1999/xlink"
	 x="0px" y="0px" viewBox="0 0 1200 682" style="enable-background:new 0 0 1200 682;" xml:space="preserve">
<style type="text/css">
	.st0{fill:#484E51;}
	.st1{fill:#333A3D;}
	.st2{fill:#2B2B2B;stroke:#545454;stroke-miterlimit:10;}
	.st3{opacity:0.38;fill:#2B2B2B;stroke:#545454;stroke-width:0.5;stroke-miterlimit:10;enable-background:new    ;}
	.st4{opacity:0.69;fill:#2B2B2B;stroke:#545454;stroke-width:0.5;stroke-miterlimit:10;enable-background:new    ;}
	.st5{opacity:0.26;fill:#2B2B2B;stroke:#545454;stroke-width:0.5;stroke-miterlimit:10;enable-background:new    ;}
	.st6{fill:#2B2B2B;stroke:#545454;stroke-width:0.5;stroke-miterlimit:10;}
	.st7{opacity:0.11;fill:#2B2B2B;stroke:#545454;stroke-width:0.5;stroke-miterlimit:10;enable-background:new    ;}
	.st8{opacity:0.42;fill:#2B2B2B;stroke:#545454;stroke-width:0.5;stroke-miterlimit:10;enable-background:new    ;}
	.st9{opacity:0.51;fill:#2B2B2B;stroke:#545454;stroke-width:0.5;stroke-miterlimit:10;enable-background:new    ;}
	.st10{opacity:0.43;fill:#2B2B2B;stroke:#545454;stroke-width:0.5;stroke-miterlimit:10;enable-background:new    ;}
	.st11{opacity:0.9;fill:#2B2B2B;stroke:#545454;stroke-width:0.5;stroke-miterlimit:10;enable-background:new    ;}
	.st12{opacity:0.76;fill:#2B2B2B;stroke:#545454;stroke-width:0.5;stroke-miterlimit:10;enable-background:new    ;}
	.st13{opacity:0.56;fill:#2B2B2B;stroke:#545454;stroke-width:0.5;stroke-miterlimit:10;enable-background:new    ;}
	.st14{opacity:0.92;fill:#2B2B2B;stroke:#545454;stroke-width:0.5;stroke-miterlimit:10;enable-background:new    ;}
	.st15{opacity:0.31;fill:#2B2B2B;stroke:#545454;stroke-width:0.5;stroke-miterlimit:10;enable-background:new    ;}
	.st16{opacity:0.4;fill:#2B2B2B;stroke:#545454;stroke-width:0.5;stroke-miterlimit:10;enable-background:new    ;}
	.st17{opacity:0.14;fill:#2B2B2B;stroke:#545454;stroke-width:0.5;stroke-miterlimit:10;enable-background:new    ;}
	.st18{opacity:0.86;fill:#2B2B2B;stroke:#545454;stroke-width:0.5;stroke-miterlimit:10;enable-background:new    ;}
	.st19{opacity:0.35;fill:#2B2B2B;stroke:#545454;stroke-width:0.5;stroke-miterlimit:10;enable-background:new    ;}
	.st20{opacity:0.13;fill:#2B2B2B;stroke:#545454;stroke-width:0.5;stroke-miterlimit:10;enable-background:new    ;}
	.st21{opacity:0.44;fill:#2B2B2B;stroke:#545454;stroke-width:0.5;stroke-miterlimit:10;enable-background:new    ;}
	.st22{opacity:0.21;fill:#2B2B2B;stroke:#545454;stroke-width:0.5;stroke-miterlimit:10;enable-background:new    ;}
</style>
<path class="st0" d="M-783.1,67.7"/>
<path class="st1" d="M-399.3,1401.7"/>
<path class="st2" d="M19,0.1"/>
<polygon class="st3" points="42.1,83.8 -5.4,85.6 -27.5,127.6 -2.2,167.9 45.3,166.1 67.4,124.1 "/>
<polygon class="st4" points="43.1,169.6 -4.5,169.6 -28.3,210.8 -4.5,252 43.1,252 66.8,210.8 "/>
<polygon class="st5" points="42.4,254 -5.1,254 -28.9,295.2 -5.1,336.3 42.4,336.3 66.2,295.2 "/>
<polygon class="st6" points="41.8,339 -5.7,339 -29.5,380.2 -5.7,421.4 41.8,421.4 65.6,380.2 "/>
<polygon class="st7" points="40.5,424 -7,424 -30.8,465.1 -7,506.3 40.5,506.3 64.3,465.1 "/>
<polygon class="st8" points="117.2,211.8 69.7,211.8 45.9,253 69.7,294.2 117.2,294.2 141,253 "/>
<polygon class="st9" points="116.6,296.8 69,296.8 45.3,338 69,379.1 116.6,379.1 140.3,338 "/>
<polygon class="st9" points="192,170.3 144.4,170.3 120.7,211.5 144.4,252.6 192,252.6 215.7,211.5 "/>
<polygon class="st10" points="191.3,255.3 143.8,255.3 120,296.4 143.8,337.6 191.3,337.6 215.1,296.4 "/>
<polygon class="st11" points="115.3,381.2 67.7,381.2 44,422.3 67.7,463.5 115.3,463.5 139,422.3 "/>
<polygon class="st12" points="190.1,339.6 142.5,339.6 118.7,380.8 142.5,422 190.1,422 213.9,380.8 "/>
<polygon class="st13" points="266.1,213.8 218.5,213.8 194.8,255 218.5,296.1 266.1,296.1 289.9,255 "/>
<polygon class="st14" points="264.8,298.1 217.3,298.1 193.5,339.2 217.3,380.4 264.8,380.4 288.6,339.2 "/>
<polygon class="st15" points="340.9,171.6 293.3,171.6 269.6,212.7 293.3,253.9 340.9,253.9 364.6,212.7 "/>
<polygon class="st16" points="340.2,256.5 292.7,256.5 268.9,297.8 292.7,338.9 340.2,338.9 364,297.8 "/>
<polygon class="st10" points="415,214.4 367.4,214.4 343.6,255.6 367.4,296.7 415,296.7 438.7,255.6 "/>
<polygon class="st13" points="263.7,383.1 216.2,383.1 192.4,424.3 216.2,465.4 263.7,465.4 287.5,424.3 "/>
<polygon class="st17" points="339.1,341.3 291.6,341.3 267.8,382.5 291.6,423.7 339.1,423.7 362.9,382.5 "/>
<polygon class="st18" points="414.3,299.3 366.7,299.3 343,340.5 366.7,381.7 414.3,381.7 438,340.5 "/>
<polygon class="st19" points="413.5,384.4 365.9,384.4 342.2,425.5 365.9,466.7 413.5,466.7 437.2,425.5 "/>
<polygon class="st18" points="488.1,341.9 440.5,341.9 416.8,383 440.5,424.2 488.1,424.2 511.8,383 "/>
<polygon class="st18" points="338.2,426.9 290.6,426.9 266.9,468.1 290.6,509.2 338.2,509.2 361.9,468.1 "/>
<polygon class="st20" points="489.4,170.1 441.9,170.1 418.1,211.3 441.9,252.4 489.4,252.4 513.2,211.3 "/>
<polygon class="st13" points="489.4,256.6 441.9,256.6 418.1,297.8 441.9,338.9 489.4,338.9 513.2,297.8 "/>
<polygon class="st21" points="563.2,212.6 515.7,212.6 491.9,253.8 515.7,294.9 563.2,294.9 587,253.8 "/>
<polygon class="st8" points="114.2,467.8 66.7,467.8 42.9,509 66.7,550.2 114.2,550.2 138,509 "/>
<polygon class="st9" points="113.6,552.8 66,552.8 42.3,594 66,635.1 113.6,635.1 137.3,594 "/>
<polygon class="st18" points="189,426.3 141.4,426.3 117.7,467.5 141.4,508.6 189,508.6 212.7,467.5 "/>
<polygon class="st10" points="188.3,511.3 140.8,511.3 117,552.4 140.8,593.6 188.3,593.6 212.1,552.4 "/>
<polygon class="st13" points="263.1,469.8 215.5,469.8 191.8,511 215.5,552.1 263.1,552.1 286.9,511 "/>
<polygon class="st14" points="261.8,554.1 214.3,554.1 190.5,595.2 214.3,636.4 261.8,636.4 285.6,595.2 "/>
<polygon class="st10" points="337.3,513.3 289.8,513.3 266,554.4 289.8,595.6 337.3,595.6 361.1,554.4 "/>
<polygon class="st13" points="412.1,470.8 364.5,470.8 340.8,512 364.5,553.1 412.1,553.1 435.9,512 "/>
<polygon class="st14" points="410.8,556.1 363.3,556.1 339.5,597.2 363.3,638.4 410.8,638.4 434.6,597.2 "/>
<polygon class="st10" points="487.1,427.9 439.5,427.9 415.7,469.1 439.5,510.3 487.1,510.3 510.8,469.1 "/>
<polygon class="st12" points="486.8,513.3 439.3,513.3 415.5,554.5 439.3,595.6 486.8,595.6 510.6,554.5 "/>
<polygon class="st14" points="562.5,470.7 515,470.7 491.2,511.9 515,553.1 562.5,553.1 586.3,511.9 "/>
<polygon class="st16" points="636.9,427.2 589.4,427.2 565.6,468.4 589.4,509.6 636.9,509.6 660.7,468.4 "/>
<polygon class="st13" points="561.5,556.8 514,556.8 490.2,597.9 514,639.1 561.5,639.1 585.3,597.9 "/>
<polygon class="st17" points="637.8,514 590.3,514 566.5,555.2 590.3,596.3 637.8,596.3 661.6,555.2 "/>
<polygon class="st22" points="562,384.4 514.4,384.4 490.6,425.6 514.4,466.7 562,466.7 585.7,425.6 "/>
<polygon class="st18" points="564,298.8 516.4,298.8 492.7,340 516.4,381.1 564,381.1 587.7,340 "/>
</svg>
