<?xml version="1.0" encoding="UTF-8"?> <svg xmlns="http://www.w3.org/2000/svg" id="ccde5aa7-7d26-40c2-b38e-b21051eb7851" data-name="Layer 1" viewBox="0 0 331.56 326.08"><title>webmoney</title><g id="1fb96930-dde1-4ac1-9924-462bfb6608e7" data-name="Layer 3"><path d="M84.5,200c.27-89.62,74-163,165.18-163h0a164,164,0,0,1,72.37,16.61c3.38,1.46,6.84,3.38,10.5,5.38L317.4,72.41,294.77,49l-39,34.31L232.62,58.45,160.8,122.24l46.09,50.19L188.81,188l45.36,50.19L216,253.84l64.8,71.37,38.51-34.86,33.4,37.23A182.24,182.24,0,0,1,331,341.91a166.85,166.85,0,0,1-81.41,21.17C158.52,363.26,84.5,290.16,84.5,200" transform="translate(-84.5 -37)" fill="#006cb4"></path><polygon points="134.98 152.77 174.4 117.91 209.72 156.88 170.29 191.74 134.98 152.77" fill="#006cb4"></polygon><polygon points="162.99 220.22 201.96 185.17 237.56 224.14 198.04 259 162.99 220.22" fill="#006cb4"></polygon><polygon points="106.96 86.52 146.38 51.65 181.7 90.62 142.28 125.49 106.96 86.52" fill="#006cb4"></polygon><polygon points="179.06 67.72 208.26 41.71 234.82 70.64 205.61 97.19 179.06 67.72" fill="#006cb4"></polygon><polygon points="231.44 187.82 260.64 161.81 287.2 191.01 258 217.11 231.44 187.82" fill="#006cb4"></polygon><polygon points="257.27 246.59 286.47 220.49 313.03 249.51 283.83 276.07 257.27 246.59" fill="#006cb4"></polygon><polygon points="269.22 112.07 288.66 94.55 306.19 114.08 286.75 131.6 269.22 112.07" fill="#006cb4"></polygon><polygon points="243.85 54.39 263.38 36.6 280.9 56.31 261.38 73.83 243.85 54.39" fill="#006cb4"></polygon><polygon points="294.05 169.56 313.49 152.04 331.56 171.3 311.84 188.82 294.05 169.56" fill="#006cb4"></polygon><polygon points="206.07 126.49 235.37 100.39 261.92 129.41 232.63 155.42 206.07 126.49" fill="#006cb4"></polygon></g></svg> 