<svg class="app-home-new-banner-geom" xmlns="http://www.w3.org/2000/svg" xmlns:xlink="http://www.w3.org/1999/xlink" viewBox="0 0 2000 129"> <defs> <linearGradient id="ad9c5aac-3e77-4012-8680-f63e69ea3907" x1="-4728.22884" y1="2496.78176" x2="-4704.82028" y2="2496.78176" gradientTransform="matrix(-0.7071, 0.70711, 0.70711, 0.7071, -3517.66241, 1602.22081)" gradientUnits="userSpaceOnUse"> <stop offset="0" stop-color="#e83888"></stop> <stop offset="1" stop-color="#9d1b41"></stop> </linearGradient> <linearGradient id="16ab639f-13e5-4d4a-b792-7f0eb8689f45" x1="-4930.16527" y1="2716.92708" x2="-4922.24746" y2="2716.92708" gradientTransform="matrix(-0.7071, 0.70711, 0.70711, 0.7071, -3517.66241, 1602.22081)" gradientUnits="userSpaceOnUse"> <stop offset="0" stop-color="#80acdc"></stop> <stop offset="1" stop-color="#1f3c76"></stop> </linearGradient> <linearGradient id="4b039eb2-abc9-41fa-b708-326c678d4d96" x1="-5005.92837" y1="2762.29239" x2="-4998.01055" y2="2762.29239" xlink:href="#16ab639f-13e5-4d4a-b792-7f0eb8689f45"></linearGradient> <linearGradient id="cdda75b3-6a6b-4a21-956a-3c9ae171fe99" x1="-4536.5799" y1="2292.94041" x2="-4528.66208" y2="2292.94041" xlink:href="#16ab639f-13e5-4d4a-b792-7f0eb8689f45"></linearGradient> <linearGradient id="6c9d9841-4d91-4751-8163-0b50d2efa2f3" x1="-4339.11922" y1="2123.51805" x2="-4331.20139" y2="2123.51805" xlink:href="#16ab639f-13e5-4d4a-b792-7f0eb8689f45"></linearGradient> <linearGradient id="e554eef5-f188-4ac5-aeee-132ef4ee1b50" x1="-4782.33055" y1="2656.43342" x2="-4774.41272" y2="2656.43342" xlink:href="#16ab639f-13e5-4d4a-b792-7f0eb8689f45"></linearGradient> <linearGradient id="6912fe78-0e15-45f9-8c73-f7498e36aad9" x1="-4612.71667" y1="2387.48957" x2="-4604.79886" y2="2387.48957" xlink:href="#16ab639f-13e5-4d4a-b792-7f0eb8689f45"></linearGradient> <linearGradient id="a2e47dba-aac5-4f0b-b08e-bc51f6b66545" x1="-4399.87161" y1="2177.51809" x2="-4391.95379" y2="2177.51809" xlink:href="#16ab639f-13e5-4d4a-b792-7f0eb8689f45"></linearGradient> <linearGradient id="78626900-b2a3-42f9-b514-8c476c987b2d" x1="-4728.09097" y1="2600.43439" x2="-4708.7464" y2="2600.43439" gradientTransform="matrix(-0.7071, 0.70711, 0.70711, 0.7071, -3517.66241, 1602.22081)" gradientUnits="userSpaceOnUse"> <stop offset="0" stop-color="#ffdd51"></stop> <stop offset="1" stop-color="#f28e60"></stop> </linearGradient> <linearGradient id="004208ea-0468-4a31-a3a1-6760ea390538" x1="-4668.92473" y1="2427.09536" x2="-4649.58017" y2="2427.09536" xlink:href="#78626900-b2a3-42f9-b514-8c476c987b2d"></linearGradient> <linearGradient id="404d3365-2967-492d-a4e4-c19e3bdd3f04" x1="-4882.04671" y1="2626.6098" x2="-4879.56504" y2="2626.6098" xlink:href="#78626900-b2a3-42f9-b514-8c476c987b2d"></linearGradient> <linearGradient id="4acf6b8e-3fd4-43f9-b767-a3b25f2ba0cf" x1="-4886.34508" y1="2659.85103" x2="-4875.26645" y2="2659.85103" xlink:href="#ad9c5aac-3e77-4012-8680-f63e69ea3907"></linearGradient> <linearGradient id="109ef5d7-337e-4c42-945f-83eba5f610ab" x1="-4955.44811" y1="2770.89881" x2="-4944.36949" y2="2770.89881" xlink:href="#ad9c5aac-3e77-4012-8680-f63e69ea3907"></linearGradient> <linearGradient id="5eee71ff-814d-4966-8ea7-a6736eebc2df" x1="-4552.31893" y1="2375.59658" x2="-4541.2403" y2="2375.59658" xlink:href="#ad9c5aac-3e77-4012-8680-f63e69ea3907"></linearGradient> <linearGradient id="05254af0-eb77-4e07-8441-a0b69d3557f0" x1="-4792.09124" y1="2548.69085" x2="-4786.57104" y2="2548.69085" xlink:href="#78626900-b2a3-42f9-b514-8c476c987b2d"></linearGradient> <linearGradient id="8bf9b28a-6d8b-4023-b985-75c984c61c93" x1="-4850.98783" y1="1248.68394" x2="-4827.60551" y2="1248.68394" gradientTransform="matrix(-0.87537, 0.48344, 0.48344, 0.87537, -3913.46197, 1313.41299)" xlink:href="#ad9c5aac-3e77-4012-8680-f63e69ea3907"></linearGradient> <linearGradient id="0e1cfe4d-0018-4316-8bfc-c19429cacccb" x1="-4766.04327" y1="1159.19523" x2="-4758.13458" y2="1159.19523" gradientTransform="matrix(-0.87537, 0.48344, 0.48344, 0.87537, -3913.46197, 1313.41299)" xlink:href="#16ab639f-13e5-4d4a-b792-7f0eb8689f45"></linearGradient> <linearGradient id="54bd08af-4c35-4ec4-b9b7-33eb49b2b9f0" x1="-4858.388" y1="1221.27038" x2="-4850.47931" y2="1221.27038" gradientTransform="matrix(-0.87537, 0.48344, 0.48344, 0.87537, -3913.46197, 1313.41299)" xlink:href="#16ab639f-13e5-4d4a-b792-7f0eb8689f45"></linearGradient> <linearGradient id="be55bf33-aeff-493a-a101-0eb5fee53c96" x1="-4909.8294" y1="1232.24893" x2="-4890.51884" y2="1232.24893" gradientTransform="matrix(-0.87537, 0.48344, 0.48344, 0.87537, -3913.46197, 1313.41299)" xlink:href="#78626900-b2a3-42f9-b514-8c476c987b2d"></linearGradient> <linearGradient id="394b40e9-5e46-40d6-b589-2a7c0fd55bb7" x1="-4839.06036" y1="1279.24803" x2="-4833.54991" y2="1279.24803" gradientTransform="matrix(-0.87537, 0.48344, 0.48344, 0.87537, -3913.46197, 1313.41299)" xlink:href="#78626900-b2a3-42f9-b514-8c476c987b2d"></linearGradient> <linearGradient id="82dc11a5-7b5f-4357-aaad-334b2cd18293" x1="-5011.35382" y1="1272.78122" x2="-5005.84336" y2="1272.78122" gradientTransform="matrix(-0.87537, 0.48344, 0.48344, 0.87537, -3913.46197, 1313.41299)" xlink:href="#78626900-b2a3-42f9-b514-8c476c987b2d"></linearGradient> <linearGradient id="9c09778f-0896-4c84-afa2-4f45712c13b9" x1="-5095.35821" y1="1328.82999" x2="-5070.74249" y2="1328.82999" gradientTransform="matrix(-0.87537, 0.48344, 0.48344, 0.87537, -3913.46197, 1313.41299)" xlink:href="#ad9c5aac-3e77-4012-8680-f63e69ea3907"></linearGradient> </defs> <title>Geometry</title> <g id="03911ff7-6ae1-4e75-be83-903d756c1d42" data-name="Layer 2"> <rect width="2000" height="129" fill="none"></rect> </g> <g id="a97087b0-aa81-40fa-8714-497e81673a54" data-name="b2c79cbb-fee5-489e-8f78-55f8d839fa19"> <g opacity="0.42"> <path d="M1574.63306,24.329a11.70427,11.70427,0,1,1,0,16.55232h0A11.71776,11.71776,0,0,1,1574.63306,24.329Zm13.96265,13.96251a8.04181,8.04181,0,1,0-11.3728-.00006h0a8.05126,8.05126,0,0,0,11.3728.00009Z" fill="url(#ad9c5aac-3e77-4012-8680-f63e69ea3907)"></path> <path d="M1884.04358,37.2034a3.95891,3.95891,0,1,1,0,5.59873A3.95894,3.95894,0,0,1,1884.04358,37.2034Zm4.72278,4.72274a2.72009,2.72009,0,1,0-3.8468,0A2.7201,2.7201,0,0,0,1888.76636,41.92614Z" fill="url(#16ab639f-13e5-4d4a-b792-7f0eb8689f45)"></path> <path d="M1969.69421,15.70858a3.95891,3.95891,0,1,1,0,5.59873A3.95893,3.95893,0,0,1,1969.69421,15.70858Zm4.72278,4.72274a2.72009,2.72009,0,1,0-3.8468,0A2.7201,2.7201,0,0,0,1974.417,20.43132Z" fill="url(#4b039eb2-abc9-41fa-b708-326c678d4d96)"></path> <path d="M1305.93274,15.70875a3.95891,3.95891,0,1,1,0,5.59873A3.95893,3.95893,0,0,1,1305.93274,15.70875Zm4.72278,4.72274a2.72009,2.72009,0,1,0-3.8468,0A2.7201,2.7201,0,0,0,1310.65552,20.43149Z" fill="url(#cdda75b3-6a6b-4a21-956a-3c9ae171fe99)"></path> <path d="M1046.50732,35.53589a3.95891,3.95891,0,1,1,0,5.59873h0A3.96359,3.96359,0,0,1,1046.50732,35.53589Zm4.72278,4.72274a2.72009,2.72009,0,1,0-3.8468,0A2.7201,2.7201,0,0,0,1051.2301,40.25863Z" fill="url(#6c9d9841-4d91-4751-8163-0b50d2efa2f3)"></path> <path d="M1736.7334,98.96346a3.9589,3.9589,0,1,1,0,5.59873v0A3.96336,3.96336,0,0,1,1736.7334,98.96346Zm4.72278,4.72273a2.72009,2.72009,0,1,0-3.8468,0A2.7201,2.7201,0,0,0,1741.45618,103.6862Z" fill="url(#e554eef5-f188-4ac5-aeee-132ef4ee1b50)"></path> <path d="M1426.626,28.7278a3.9589,3.9589,0,1,1,0,5.59872A3.95894,3.95894,0,0,1,1426.626,28.7278Zm4.72278,4.72273a2.72009,2.72009,0,1,0-3.8468,0A2.7201,2.7201,0,0,0,1431.34876,33.45053Z" fill="url(#6912fe78-0e15-45f9-8c73-f7498e36aad9)"></path> <path d="M1127.64954,30.76093a3.95891,3.95891,0,1,1,0,5.59873h0A3.96337,3.96337,0,0,1,1127.64954,30.76093Zm4.72278,4.72273a2.72009,2.72009,0,1,0-3.8468,0A2.7201,2.7201,0,0,0,1132.37231,35.48366Z" fill="url(#a2e47dba-aac5-4f0b-b08e-bc51f6b66545)"></path> <path d="M1661.51062,115.344a3.853,3.853,0,0,1-6.06653.79536l-9.47375-9.52a3.848,3.848,0,0,1,1.74048-6.434l12.98108-3.44454a3.84771,3.84771,0,0,1,4.70142,4.72444l-3.50733,12.96409A3.92227,3.92227,0,0,1,1661.51062,115.344Zm-13.517-11.84948a.857.857,0,0,0-.08179.19754.799.799,0,0,0,.209.78693l9.47351,9.5199a.81407.81407,0,0,0,1.36279-.36147l3.50757-12.96455a.81448.81448,0,0,0-.99463-.99989l-12.98083,3.44477a.78323.78323,0,0,0-.49548.37682Z" fill="url(#78626900-b2a3-42f9-b514-8c476c987b2d)"></path> <path d="M1497.10425,34.61231a3.8529,3.8529,0,0,1-6.06653.79535l-9.47375-9.52a3.848,3.848,0,0,1,1.74048-6.434l12.98108-3.44454a3.84771,3.84771,0,0,1,4.70142,4.72443l-3.50732,12.9641A3.92223,3.92223,0,0,1,1497.10425,34.61231Zm-13.517-11.84948a.85707.85707,0,0,0-.08179.19754.79874.79874,0,0,0,.20911.78693l9.47351,9.5199a.81406.81406,0,0,0,1.36279-.36147l3.50757-12.96455a.81447.81447,0,0,0-.99463-.99989L1484.083,22.38606a.7832.7832,0,0,0-.49561.37677Z" fill="url(#004208ea-0468-4a31-a3a1-6760ea390538)"></path> <path d="M1791.38489,9.6258a.49433.49433,0,0,1-.7782.102l-1.21533-1.2213a.49364.49364,0,0,1,.22327-.82539l1.66528-.4419a.49364.49364,0,0,1,.60315.6061l-.45,1.66311A.49865.49865,0,0,1,1791.38489,9.6258Zm-1.734-1.52014a.1116.1116,0,0,0-.0105.02534.1025.1025,0,0,0,.02686.101l1.21533,1.22127a.10439.10439,0,0,0,.17481-.04635l.45-1.66319a.10449.10449,0,0,0-.12756-.12828l-1.66528.44192A.10031.10031,0,0,0,1789.65088,8.10566Z" fill="url(#404d3365-2967-492d-a4e4-c19e3bdd3f04)"></path> <path d="M1810.46411,27.83037a5.53931,5.53931,0,1,1,0,7.8338h0A5.54559,5.54559,0,0,1,1810.46411,27.83037Zm6.60815,6.6081a3.806,3.806,0,1,0-5.38245,0v0A3.8104,3.8104,0,0,0,1817.07227,34.43847Z" fill="url(#4acf6b8e-3fd4-43f9-b767-a3b25f2ba0cf)"></path> <path d="M1937.8501,57.48927a5.53931,5.53931,0,1,1,0,7.8338A5.53926,5.53926,0,0,1,1937.8501,57.48927Zm6.60815,6.60811a3.806,3.806,0,1,0-5.38245-.00005v.00005A3.81041,3.81041,0,0,0,1944.45825,64.09738Z" fill="url(#109ef5d7-337e-4c42-945f-83eba5f610ab)"></path> <path d="M1373.2738,63.026a5.53935,5.53935,0,1,1,0,7.83379h0A5.5458,5.5458,0,0,1,1373.2738,63.026Zm6.60815,6.6081a3.806,3.806,0,1,0-5.38245-.00005v.00005A3.8104,3.8104,0,0,0,1379.882,69.6341Z" fill="url(#5eee71ff-814d-4966-8ea7-a6736eebc2df)"></path> <path d="M1672.22888,20.90568a1.09951,1.09951,0,0,1-1.7312.22693l-2.70337-2.71662a1.098,1.098,0,0,1,.4967-1.836l3.70435-.98294a1.09807,1.09807,0,0,1,1.34155,1.34814l-1.00085,3.6995A1.11615,1.11615,0,0,1,1672.22888,20.90568Zm-3.8573-3.38142a.24253.24253,0,0,0-.02331.0564.22814.22814,0,0,0,.05957.22453l2.70337,2.71661a.23233.23233,0,0,0,.38892-.10311l1.00086-3.69963a.23239.23239,0,0,0-.28381-.2853l-3.70422.983A.22383.22383,0,0,0,1668.37158,17.52426Z" fill="url(#05254af0-eb77-4e07-8441-a0b69d3557f0)"></path> </g> <g opacity="0.51"> <path d="M920.75458,56.73815a11.66947,11.66947,0,1,1-4.57379,15.85665l-.01038-.01881A11.74575,11.74575,0,0,1,920.75458,56.73815ZM930.304,73.9544a7.99913,7.99913,0,1,0-.07178.03973Z" fill="url(#8bf9b28a-6d8b-4023-b985-75c984c61c93)"></path> <path d="M813.65424,22.47989a3.94712,3.94712,0,1,1-1.54712,5.36341l-.00348-.00635A3.973,3.973,0,0,1,813.65424,22.47989Zm3.23,5.8233a2.70322,2.70322,0,1,0-.02429.01347l.02435-.01347Z" fill="url(#0e1cfe4d-0018-4316-8bfc-c19429cacccb)"></path> <path d="M924.50037,32.17509a3.94713,3.94713,0,1,1-1.54712,5.36341l-.00348-.00634A3.97294,3.97294,0,0,1,924.50037,32.17509Zm3.23,5.8233a2.70225,2.70225,0,1,0-.02429.01348l.02435-.01348Z" fill="url(#54bd08af-4c35-4ec4-b9b7-33eb49b2b9f0)"></path> <path d="M972.58954,34.55317a3.86241,3.86241,0,0,1-6.04938-.9145L960.07349,21.913a3.83147,3.83147,0,0,1,3.45435-5.67561l13.42719.28945a3.8327,3.8327,0,0,1,3.20911,5.819l-6.96045,11.43583A3.90252,3.90252,0,0,1,972.58954,34.55317Zm-9.70636-15.07132a.85.85,0,0,0-.13324.16644.79267.79267,0,0,0-.01709.8107l6.46631,11.72552a.81573.81573,0,0,0,1.40955.03051l6.96082-11.43621a.79187.79187,0,0,0,.01733-.81049.80083.80083,0,0,0-.69611-.42094l-13.427-.28916a.7847.7847,0,0,0-.58063.22363Z" fill="url(#be55bf33-aeff-493a-a101-0eb5fee53c96)"></path> <path d="M938.81049,98.40417a1.10217,1.10217,0,0,1-1.72632-.261l-1.84534-3.346a1.09336,1.09336,0,0,1,.98572-1.61961l3.8316.0826a1.09369,1.09369,0,0,1,.91571,1.66049l-1.98621,3.2634A1.11676,1.11676,0,0,1,938.81049,98.40417Zm-2.76984-4.30083a.24685.24685,0,0,0-.038.04754.2263.2263,0,0,0-.00488.2313l1.84521,3.346a.23278.23278,0,0,0,.40222.00875l1.98633-3.2635a.22606.22606,0,0,0,.005-.23125.22851.22851,0,0,0-.19867-.12012l-3.8316-.08255A.22426.22426,0,0,0,936.04065,94.10334Z" fill="url(#394b40e9-5e46-40d6-b589-2a7c0fd55bb7)"></path> <path d="M1086.50586,9.44915a1.10217,1.10217,0,0,1-1.72632-.261l-1.84534-3.34607a1.09331,1.09331,0,0,1,.98572-1.61959l3.83166.08258a1.09365,1.09365,0,0,1,.91565,1.66055L1086.681,9.229A1.11174,1.11174,0,0,1,1086.50586,9.44915Zm-2.76978-4.30079a.24077.24077,0,0,0-.038.0475.22623.22623,0,0,0-.00488.23134l1.84522,3.346a.23277.23277,0,0,0,.40222.00875l1.98633-3.26346a.22614.22614,0,0,0,.005-.23129.2286.2286,0,0,0-.19861-.12012l-3.83154-.08252A.22392.22392,0,0,0,1083.73608,5.14836Z" fill="url(#82dc11a5-7b5f-4357-aaad-334b2cd18293)"></path> <path d="M1172.5802,8.515A12.285,12.285,0,1,1,1184.498,30.00109h0A12.285,12.285,0,1,1,1172.5802,8.515Zm10.05322,18.1244a8.4245,8.4245,0,1,0-.07568.04185l.07568-.04189Z" fill="url(#9c09778f-0896-4c84-afa2-4f45712c13b9)"></path> </g> </g> </svg>