<?xml version="1.0" encoding="utf-8"?>
<!-- Generator: Adobe Illustrator 21.0.0, SVG Export Plug-In . SVG Version: 6.00 Build 0)  -->
<svg version="1.1" id="Layer_3" xmlns="http://www.w3.org/2000/svg" xmlns:xlink="http://www.w3.org/1999/xlink" x="0px" y="0px"
	 viewBox="0 0 500 500" style="enable-background:new 0 0 500 500;" xml:space="preserve">
<style type="text/css">
	.st0{fill:#C91428;}
</style>
<g>
	<path class="st0" d="M249,38.8c-118,0-213.1,95.4-213.1,213.1S131,465,249,465s213.1-95.4,213.1-213.1S366.7,38.8,249,38.8z
		 M154.3,332c-17.1,0-34.2,0-52.2,0c-1.6,0-3.7-1.6-5.6-2.8c1.6-1.2,3.4-3.4,5-3.4c12.1-2.2,14.3-3.7,15.5-16.5
		c0.6-9.9,0.6-19.9,0.6-29.8v-8.4l19.6,1.2v33.9c0,14.3,3.4,17.7,17.7,19.3c1.6,0,3.4,2.2,5.6,3.7
		C158.6,330.5,156.4,331.4,154.3,332z M178.2,259c-22.7,8.4-46.6,7.8-70.2,4.3c-9.9-1.6-19.3-3.4-29.2-5v-1.2
		c14.3,0.6,28.3,1.6,42.6,1.6c13.4,0,26.7-1.2,39.5-3.4c19.9-3.7,31.7-21.1,29.2-41.6c-2.2-23.3-14-34.8-36.7-36.7h-3.4
		c-11.5,0-12.1,0.6-12.1,11.5v63.7h-19.3V232c0-12.7,0-25.5-0.6-38.8c-0.6-11.5-3.4-14-14.3-15.5c-2.2-0.6-4.3-2.2-6.5-3.4
		c2.2-1.2,4.3-3.4,6.5-3.4c22.1,0,44.7-1.6,67.1,0.6c31.1,2.8,49.4,30.4,39.8,59.3C205.2,246.9,191.8,254.1,178.2,259z M362.4,332
		c-2.2,0-3.7-2.2-6.2-3.4c1.6-1.2,3.4-2.8,5.6-2.8c12.1-1.6,14.3-3.4,14.3-15.5c0-33.9,0-67.4-0.6-101.3c0-1.6-0.6-3.4-2.2-3.7
		L309,336.1l-60.6-131.4h-1.6c-1.2,20.5-2.2,41-2.8,62.1c-0.6,12.7-0.6,25.5-1.2,38.2c0,3.4,0.6,7.1,1.2,10.6
		c0.6,7.1,5,9.9,11.5,9.9c1.6,0,2.8,0,4.3,0.6c1.6,1.2,3.4,2.2,5,3.7c-2.2,0.6-3.7,2.2-6.2,2.2c-7.8,0-14.9-0.6-22.7-0.6
		c-7.1,0-14.3,0.6-21.4,0.6c-1.6,0-3.4-1.6-5-2.2c1.6-1.2,2.8-3.4,4.3-3.7c12.1-2.2,14.9-3.7,16.2-16.2c2.8-39.5,5-78.6,7.1-118
		c0.6-9.3-2.2-12.1-11.5-14.3c-2.2-0.6-4.3-0.6-6.2-1.6c-1.2-0.6-1.6-1.6-2.8-2.8c1.2-1.2,2.2-2.8,3.4-2.8c12.1,0,24.2,0,37,0
		c1.2,17.1,9.3,31.7,16.5,46.6c13.4,27.6,27,54.7,41.9,82.6c20.5-42.6,44.7-83.6,62.1-128.9h36c1.2,0,2.2,1.6,3.4,2.8
		c-1.2,1.2-1.6,2.8-3.4,2.8c-19.3,5.6-19.9,5.6-19.3,26.1c0.6,36,1.6,72.1,2.8,108.4c0.6,11.5,3.4,14.3,14.9,15.5
		c1.6,0,3.4,2.2,5,3.4c-1.6,1.2-3.7,2.8-5.6,2.8C395,332,379.2,332,362.4,332L362.4,332L362.4,332z"/>
</g>
</svg>
