<svg class="logo" xmlns="http://www.w3.org/2000/svg" viewBox="0 0 90 90"><title>azmon</title><g style="isolation:isolate"><g id="69aa1e1a-dfca-4553-96c2-667813fd27df" data-name="aa05b4eb-4774-4024-8be5-8eed3f6b4ab5"><g id="2a7b6185-a500-42be-b475-6d7571051da7" data-name="831b819c-a275-40c1-8a75-1e29b6bdd463" opacity="0.19"><path d="M41.84294,21.48666c-14.7,0-30.33.25-30.33,15s15.63,38.32,30.33,38.31a26.66,26.66,0,0,0,0-53.31Z" fill="#5a7993"></path></g><g id="627cd16a-38f6-48be-a376-da7a442db8ae" data-name="c70b1e8d-3116-486b-add1-260df52f5a09"><g id="073010a9-fa97-46fe-acdb-ba9ebab866f2" data-name="941b47b5-db3d-4192-b120-e4579027a741"><rect width="90" height="90" fill="none"></rect></g></g><g id="2347f0fd-6134-4134-9273-c821904ce493" data-name="a473208a-451a-4761-b00f-b571b990335a"><g opacity="0.5" style="mix-blend-mode:multiply"><polygon points="77.988 48.7 77.988 38.429 76.42 38.96 76.42 48.7 77.988 48.7"></polygon><path d="M68.55723,42.78762,50.98687,48.74543a1.55554,1.55554,0,0,1-1.003,0L32.41435,42.78762V57.52245h.0186l-.03988.20247c0,1.753,8.10166,5.66674,18.08257,5.66674,9.98048,0,18.06082-3.91372,18.06082-5.66674l-.04114-.20247h.062Z"></path><polygon points="32.414 41.627 50.486 47.755 68.558 41.627 76.42 38.96 77.988 38.429 78.815 38.148 50.486 28.608 22.157 38.148 32.414 41.627"></polygon><path d="M75.35151,51.10578v5.99656a1.85251,1.85251,0,0,0,3.705,0h0V51.10578a1.84768,1.84768,0,0,0-.533-1.29941H75.88575A1.84712,1.84712,0,0,0,75.35151,51.10578Z"></path><polygon points="75.649 48.7 75.649 49.806 75.886 49.806 78.524 49.806 78.759 49.806 78.759 48.7 77.988 48.7 76.42 48.7 75.649 48.7"></polygon></g><polygon points="76.988 47.7 76.988 37.429 75.42 37.96 75.42 47.7 76.988 47.7" fill="#ffc727"></polygon><path d="M67.55723,41.78762,49.98687,47.74543a1.55554,1.55554,0,0,1-1.003,0L31.41435,41.78762V56.52245h.0186l-.03988.20247c0,1.753,8.10166,5.66674,18.08257,5.66674,9.98048,0,18.06082-3.91372,18.06082-5.66674l-.04114-.20247h.062Z" fill="#ffc727"></path><polygon points="31.414 40.627 49.486 46.755 67.558 40.627 75.42 37.96 76.988 37.429 77.815 37.148 49.486 27.608 21.157 37.148 31.414 40.627" fill="#ffc727"></polygon><path d="M74.35151,50.10578v5.99656a1.85251,1.85251,0,0,0,3.705,0h0V50.10578a1.84768,1.84768,0,0,0-.533-1.29941H74.88575A1.84712,1.84712,0,0,0,74.35151,50.10578Z" fill="#ffc727"></path><polygon points="74.649 47.7 74.649 48.806 74.886 48.806 77.524 48.806 77.759 48.806 77.759 47.7 76.988 47.7 75.42 47.7 74.649 47.7" fill="#ffc727"></polygon></g></g></g></svg>