<svg version="1.1" xmlns="http://www.w3.org/2000/svg" xmlns:xlink="http://www.w3.org/1999/xlink" x="0px" y="0px" viewBox="0 0 100 100" enable-background="new 0 0 100 100" xml:space="preserve"> <g display="none"> <g display="inline"> <rect x="-2.3" y="-2.3" fill="none" width="104.7" height="104.7"></rect> <path display="none" fill="#27356A" d="M79.4,12.4C75.1,7.7,67.6,5.6,58,5.6H29.9c-2,0-3.7,1.4-4,3.4L14.2,83.2 C14,84.7,15.1,86,16.6,86h17.3l4.3-27.6l-0.2,0.9c0.3-1.9,2-3.4,3.9-3.4h8.2c16.2,0,28.9-6.5,32.6-25.6c0.2-0.5,0.2-1.1,0.3-1.6 c-0.5-0.3-0.5-0.3,0,0C84.3,21.6,83.2,16.8,79.4,12.4"></path> <path fill="#EFB91C" d="M44.9,26c0.5-0.2,1-0.3,1.5-0.3h22c2.6,0,5.1,0.1,7.2,0.5c0.6,0.1,1.2,0.2,1.9,0.3 c0.9,0.2,1.7,0.4,2.6,0.7c1.1,0.3,2.1,0.8,3,1.3c1.1-7,0-11.8-3.8-16.2c-4.2-4.8-11.8-6.8-21.4-6.8H29.8c-2,0-3.7,1.4-3.9,3.4 L14.2,83.2C14,84.7,15.1,86,16.5,86h17.3l9-57.3C43.1,27.6,43.9,26.6,44.9,26z"></path> <path fill="#848D9A" d="M82.9,30.3c-3.7,19-16.4,25.5-32.5,25.5h-8.3c-2,0-3.7,1.4-3.9,3.4l-5.4,34.4c-0.2,1.3,0.8,2.4,2.1,2.4 h14.6c1.7,0,3.2-1.2,3.5-3l0.2-0.8l2.8-17.5l0.2-1c0.3-1.7,1.7-3,3.5-3h2.2c14.1,0,25.3-5.7,28.5-22.4c1.4-7,0.6-12.8-2.9-16.9 c-1.1-1.2-2.4-2.3-4-3.1C83.1,29.2,83,29.7,82.9,30.3L82.9,30.3z"></path> <path fill="#C4942C" d="M79.3,27.1c-0.5-0.1-1.2-0.3-1.7-0.4c-0.6-0.1-1.2-0.3-1.9-0.3c-2.2-0.3-4.6-0.5-7.2-0.5h-22 c-0.5,0-1,0.1-1.5,0.3c-1,0.5-1.8,1.4-1.9,2.6l-4.7,29.7l-0.2,0.9c0.3-1.9,2-3.4,3.9-3.4h8.2c16.2,0,28.9-6.5,32.6-25.6 c0.2-0.5,0.2-1.1,0.3-1.6c-1-0.5-1.9-0.9-3-1.3C79.8,27.2,79.6,27.2,79.3,27.1"></path> </g> <g display="inline"> </g> </g> <g display="none"> <g display="inline"> <path fill="#848D9A" d="M4.5,49.9C4.6,25.3,24.8,5.2,49.8,5.2l0,0c6.9,0,13.7,1.5,19.9,4.6c0.9,0.4,1.9,0.9,2.9,1.5l-4.2,3.7 l-6.2-6.4l-10.7,9.4l-6.4-6.8L25.5,28.6l12.6,13.8l-5,4.3l12.4,13.8l-5,4.3l17.8,19.6l10.6-9.6l9.2,10.2c-1.9,1.5-3.9,2.7-6,3.9 c-6.8,3.8-14.5,5.8-22.3,5.8C24.8,94.7,4.5,74.6,4.5,49.9"></path> <polygon fill="#EEB91D" points="41.5,47.1 52.4,37.5 62,48.2 51.2,57.8 "></polygon> <polygon fill="#EEB91D" points="49.2,65.6 59.9,56 69.7,66.7 58.8,76.2 "></polygon> <polygon fill="#EEB91D" points="33.9,28.9 44.7,19.4 54.4,30 43.5,39.6 "></polygon> <polygon fill="#EEB91D" points="53.6,23.8 61.7,16.6 68.9,24.6 60.9,31.9 "></polygon> <polygon fill="#EEB91D" points="68,56.7 76,49.6 83.3,57.6 75.3,64.7 "></polygon> <polygon fill="#EEB91D" points="75.1,72.8 83.1,65.7 90.4,73.6 82.4,80.9 "></polygon> <polygon fill="#EEB91D" points="78.4,35.9 83.7,31.1 88.5,36.5 83.2,41.3 "></polygon> <polygon fill="#EEB91D" points="71.4,20.1 76.8,15.2 81.6,20.6 76.2,25.5 "></polygon> <polygon fill="#EEB91D" points="85.2,51.7 90.5,46.9 95.5,52.2 90.1,57 "></polygon> <polygon fill="#EEB91D" points="61,39.9 69.1,32.7 76.4,40.7 68.3,47.8 "></polygon> </g> <g display="inline"> </g> </g> <g display="none"> <path display="inline" fill="#848D9A" d="M5.2,50c0,24.8,20,44.8,44.8,44.8S94.8,74.8,94.8,50S74.8,5.2,50,5.2 C25.2,5.2,5.2,25.2,5.2,50"></path> <path display="inline" fill="#EDB91D" d="M30.1,66.9c-3.6,0-7.2,0-11,0c-0.3,0-0.8-0.3-1.2-0.6c0.3-0.2,0.7-0.7,1-0.7 c2.5-0.5,3-0.8,3.3-3.5c0.1-2.1,0.1-4.2,0.1-6.3V54l4.1,0.2v7.1c0,3,0.7,3.7,3.7,4.1c0.3,0,0.7,0.5,1.2,0.8 C31,66.5,30.5,66.7,30.1,66.9z"></path> <path display="inline" fill="#EDB91D" d="M35.1,51.5c-4.8,1.8-9.8,1.6-14.8,0.9c-2.1-0.3-4.1-0.7-6.1-1v-0.2c3,0.1,6,0.3,9,0.3 c2.8,0,5.6-0.2,8.3-0.7c4.2-0.8,6.7-4.4,6.2-8.8c-0.5-4.9-3-7.3-7.7-7.7h-0.7c-2.4,0-2.5,0.1-2.5,2.4v13.4h-4.1v-4.2 c0-2.7,0-5.4-0.1-8.2c-0.1-2.4-0.7-3-3-3.3c-0.5-0.1-0.9-0.5-1.4-0.7c0.5-0.2,0.9-0.7,1.4-0.7c4.6,0,9.4-0.3,14.1,0.1 c6.5,0.6,10.4,6.4,8.4,12.5C40.8,49,38,50.5,35.1,51.5z"></path> <path display="inline" fill="#EDB91D" d="M73.9,66.9c-0.5,0-0.8-0.5-1.3-0.7c0.3-0.2,0.7-0.6,1.2-0.6c2.6-0.3,3-0.7,3-3.3 c0-7.1,0-14.2-0.1-21.3c0-0.3-0.1-0.7-0.5-0.8L62.6,67.7L49.9,40.1h-0.3c-0.2,4.3-0.5,8.6-0.6,13.1c-0.1,2.7-0.1,5.4-0.2,8 c0,0.7,0.1,1.5,0.2,2.2c0.1,1.5,1,2.1,2.4,2.1c0.3,0,0.6,0,0.9,0.1c0.3,0.2,0.7,0.5,1,0.8c-0.5,0.1-0.8,0.5-1.3,0.5 c-1.6,0-3.1-0.1-4.8-0.1c-1.5,0-3,0.1-4.5,0.1c-0.3,0-0.7-0.3-1-0.5c0.3-0.2,0.6-0.7,0.9-0.8c2.5-0.5,3.1-0.8,3.4-3.4 c0.6-8.3,1-16.5,1.5-24.8c0.1-2-0.5-2.5-2.4-3c-0.5-0.1-0.9-0.1-1.3-0.3c-0.2-0.1-0.3-0.3-0.6-0.6c0.2-0.2,0.5-0.6,0.7-0.6 c2.5,0,5.1,0,7.8,0c0.2,3.6,2,6.7,3.5,9.8C58,48.5,60.8,54.2,64,60c4.3-9,9.4-17.6,13.1-27.1h7.6c0.2,0,0.5,0.3,0.7,0.6 c-0.2,0.2-0.3,0.6-0.7,0.6c-4.1,1.2-4.2,1.2-4.1,5.5c0.1,7.6,0.3,15.2,0.6,22.8c0.1,2.4,0.7,3,3.1,3.3c0.3,0,0.7,0.5,1.1,0.7 C85,66.6,84.6,67,84.2,67C80.7,66.9,77.4,66.9,73.9,66.9L73.9,66.9L73.9,66.9z"></path> </g> <g> <path fill="none" stroke="#848D9A" stroke-width="5" stroke-miterlimit="10" d="M90.2,60c-5.5,22.2-28,35.7-50.2,30.1 c-22.2-5.5-35.7-28-30.1-50.2S37.8,4.3,60,9.8C82.2,15.3,95.7,37.8,90.2,60L90.2,60z"></path> <path fill="#EFB91C" d="M69.9,44.5c0.9-5.8-3.6-9-9.7-11.1l2-7.9l-4.8-1.2L55.5,32c-1.3-0.3-2.6-0.6-3.9-0.9l1.9-7.8l-4.8-1.2 l-2,7.9c-1-0.2-2.1-0.5-3.1-0.7l0,0L37,27.7l-1.3,5.2c0,0,3.6,0.8,3.5,0.9c2,0.5,2.3,1.8,2.2,2.8l-2.2,9c0.1,0,0.3,0.1,0.5,0.2 l-0.5-0.1l-3.2,12.6c-0.2,0.6-0.8,1.5-2.2,1.1c0,0.1-3.5-0.9-3.5-0.9L28,64l6.3,1.6c1.2,0.3,2.3,0.6,3.4,0.9l-2,8l4.8,1.2l2-7.9 c1.3,0.4,2.6,0.7,3.8,1l-2,7.9l4.8,1.2l2-8c8.2,1.6,14.4,0.9,17-6.5c2.1-6-0.1-9.4-4.4-11.7C66.9,50.9,69.3,48.8,69.9,44.5 L69.9,44.5z M58.9,60c-1.5,6-11.6,2.8-14.8,1.9l2.7-10.6C50,52.1,60.5,53.7,58.9,60L58.9,60z M60.4,44.4c-1.4,5.4-9.8,2.7-12.5,2 l2.4-9.6C53,37.5,61.8,38.7,60.4,44.4z"></path> </g> </svg>