<svg class="logo" xmlns="http://www.w3.org/2000/svg" viewBox="0 0 90 90"><title>buy</title><g style="isolation:isolate"><g id="262220a6-f690-4287-8a73-34f2a3460227" data-name="aa05b4eb-4774-4024-8be5-8eed3f6b4ab5"><g id="2220524f-924f-40a8-8094-f5cbc350e33c" data-name="831b819c-a275-40c1-8a75-1e29b6bdd463" opacity="0.19"><path d="M41.84294,21.48666c-14.7,0-30.33.25-30.33,15s15.63,38.32,30.33,38.31a26.66,26.66,0,0,0,0-53.31Z" fill="#5a7993"></path></g><g id="f839e903-ebbd-4aff-b894-1905363be525" data-name="c70b1e8d-3116-486b-add1-260df52f5a09"><g id="0c560b4f-e779-49d1-9615-6309e08a6240" data-name="941b47b5-db3d-4192-b120-e4579027a741"><rect width="90" height="90" fill="none"></rect></g></g><g id="efa5e4c5-7789-41a1-888f-9dbff3aed382" data-name="a02eaa2a-4c12-4c88-8e83-0084b81d32be"><g opacity="0.5" style="mix-blend-mode:multiply"><path d="M42.07038,63.59764a4.6843,4.6843,0,1,0,4.68391-4.68469h-.0008A4.68393,4.68393,0,0,0,42.07038,63.59764Z"></path><path d="M63.15879,63.59764a4.6843,4.6843,0,1,0,4.68391-4.68469H67.8419A4.68392,4.68392,0,0,0,63.15879,63.59764Z"></path><polygon points="45.608 49.974 67.644 49.974 74.52 32.291 38.865 32.291 45.608 49.974"></polygon><path d="M70.35215,56.92646H43.07929a2.32111,2.32111,0,0,1-2.15812-1.4668L32.68162,34.644H25.555a2.3211,2.3211,0,0,1,0-4.64219h8.7041a2.32112,2.32112,0,0,1,2.15813,1.46677L44.6568,52.28425H70.35215a2.3211,2.3211,0,0,1,.00949,4.64219h-.00949Z"></path></g><path d="M41.07038,62.59764a4.6843,4.6843,0,1,0,4.68391-4.68469h-.0008A4.68393,4.68393,0,0,0,41.07038,62.59764Z" fill="#edbf3b"></path><path d="M62.15879,62.59764a4.6843,4.6843,0,1,0,4.68391-4.68469H66.8419A4.68392,4.68392,0,0,0,62.15879,62.59764Z" fill="#edbf3b"></path><polygon points="44.608 48.974 66.644 48.974 73.52 31.291 37.865 31.291 44.608 48.974" fill="#edbf3b"></polygon><path d="M69.35215,55.92646H42.07929a2.32111,2.32111,0,0,1-2.15812-1.4668L31.68162,33.644H24.555a2.3211,2.3211,0,0,1,0-4.64219h8.7041a2.32112,2.32112,0,0,1,2.15813,1.46677L43.6568,51.28425H69.35215a2.3211,2.3211,0,0,1,.00949,4.64219h-.00949Z" fill="#edbf3b"></path></g></g></g></svg>