<svg class="logo" xmlns="http://www.w3.org/2000/svg" viewBox="0 0 90 90"><title>hosting</title><g style="isolation:isolate"><g id="29d725c0-c179-4771-bfd8-b6f69d9e4413" data-name="aa05b4eb-4774-4024-8be5-8eed3f6b4ab5"><g id="d2ec7f4e-d1c7-43ce-bf6b-65ef126797c6" data-name="831b819c-a275-40c1-8a75-1e29b6bdd463" opacity="0.19"><path d="M41.84294,21.48666c-14.7,0-30.33.25-30.33,15s15.63,38.32,30.33,38.31a26.66,26.66,0,0,0,0-53.31Z" fill="#5a7993"></path></g><g id="56258a34-6be0-4b32-841b-5e17f88af7f5" data-name="c70b1e8d-3116-486b-add1-260df52f5a09"><g id="1f1c8a3e-a40a-47a9-9081-85ecd26935a0" data-name="941b47b5-db3d-4192-b120-e4579027a741"><rect width="90" height="90" fill="none"></rect></g></g><g id="7176bc29-e68f-42b7-8b64-7b98fb8244c8" data-name="ba2787ed-8de6-4557-a382-269cbedbdd9e"><g opacity="0.5" style="mix-blend-mode:multiply"><path d="M27.11991,51.61431a6.70355,6.70355,0,0,0,6.2044,6.6842v.01866h37.9628a7.87878,7.87878,0,0,0,.7364-15.723,13.27382,13.27382,0,0,0-25.72512-4.15124,7.77914,7.77914,0,0,0-3.52244-.83312,7.87549,7.87549,0,0,0-7.86336,7.39091,6.56647,6.56647,0,0,0-1.08994-.08924A6.70385,6.70385,0,0,0,27.11991,51.61431Z"></path><path d="M27.11991,51.61431a6.70355,6.70355,0,0,0,6.2044,6.6842v.01866h37.9628a7.87878,7.87878,0,0,0,.7364-15.723,13.27382,13.27382,0,0,0-25.72512-4.15124,7.77914,7.77914,0,0,0-3.52244-.83312,7.87549,7.87549,0,0,0-7.86336,7.39091,6.56647,6.56647,0,0,0-1.08994-.08924A6.70385,6.70385,0,0,0,27.11991,51.61431Z" opacity="0.1" style="isolation:isolate"></path><path d="M23.33462,51.61431a6.70355,6.70355,0,0,0,6.20441,6.6842v.01866H67.50186a7.87879,7.87879,0,0,0,.7364-15.723,13.27384,13.27384,0,0,0-25.72515-4.15124,7.77908,7.77908,0,0,0-3.52244-.83312,7.87551,7.87551,0,0,0-7.86336,7.39091,6.566,6.566,0,0,0-1.0899-.08924A6.70386,6.70386,0,0,0,23.33462,51.61431Z"></path></g><path d="M26.11991,50.61431a6.70355,6.70355,0,0,0,6.2044,6.6842v.01866h37.9628a7.87878,7.87878,0,0,0,.7364-15.723,13.27382,13.27382,0,0,0-25.72512-4.15124,7.77914,7.77914,0,0,0-3.52244-.83312,7.87549,7.87549,0,0,0-7.86336,7.39091,6.56647,6.56647,0,0,0-1.08994-.08924A6.70385,6.70385,0,0,0,26.11991,50.61431Z" fill="#ffc727"></path><path d="M26.11991,50.61431a6.70355,6.70355,0,0,0,6.2044,6.6842v.01866h37.9628a7.87878,7.87878,0,0,0,.7364-15.723,13.27382,13.27382,0,0,0-25.72512-4.15124,7.77914,7.77914,0,0,0-3.52244-.83312,7.87549,7.87549,0,0,0-7.86336,7.39091,6.56647,6.56647,0,0,0-1.08994-.08924A6.70385,6.70385,0,0,0,26.11991,50.61431Z" opacity="0.1" style="isolation:isolate"></path><path d="M22.33462,50.61431a6.70355,6.70355,0,0,0,6.20441,6.6842v.01866H66.50186a7.87879,7.87879,0,0,0,.7364-15.723,13.27384,13.27384,0,0,0-25.72515-4.15124,7.77908,7.77908,0,0,0-3.52244-.83312,7.87551,7.87551,0,0,0-7.86336,7.39091,6.566,6.566,0,0,0-1.0899-.08924A6.70386,6.70386,0,0,0,22.33462,50.61431Z" fill="#ffc727"></path></g></g></g></svg>