<svg class="logo" id="0c979a97-0b3c-44f7-8fba-6c41fa371345" data-name="0d834f6a-be54-455b-abf7-aca1e18c84eb" xmlns="http://www.w3.org/2000/svg" viewBox="0 0 90 90"><title>defi</title><g id="4f747f80-1b1a-45ad-ad1b-9765792b3e5f" data-name="b705e439-8060-4425-86ec-8d5fc140e8a4" opacity="0.19"><path d="M41.84294,21.48666c-14.7,0-30.33.25-30.33,15s15.63,38.32,30.33,38.31a26.66,26.66,0,0,0,0-53.31Z" fill="#5a7993"></path></g><g id="b2fc2a9f-ff19-4cfe-b9ee-9cef6969f6cf" data-name="beb7ce62-f97a-4280-8fbe-83620db10f83"><g id="df8f00d7-5176-4dc1-bf3e-6e72a7938bf4" data-name="168896de-ab92-48c8-8233-510e53527d83"><rect width="90" height="90" fill="none"></rect></g></g><g id="1fc08cbf-60ae-447a-b3dd-2abbe35f858e" data-name="2eee0ca6-ec3c-4545-899d-f054c1f9f0ef"><g opacity="0.5"><path d="M23.973,33.295h7.49c6.85,0,9.64,3.89,9.64,12.61,0,9.3-2.76,13.62-9.86,13.62h-7.27Zm6.05,21.7h1.12c2.81,0,3.63-2,3.63-9.14,0-6-.74-7.89-3.59-7.89h-1.16Z"></path><path d="M49.593,50.735c0,2.66.26,4.7,2.11,4.7,1.66,0,1.9-1.37,2-2.3h5.68c-.15,1.37-.75,6.77-7.76,6.77-6.79,0-7.9-5.19-7.9-10.74,0-6.89,2.76-10.41,8-10.41,6,0,7.77,4.09,7.77,9.74v2.23Zm4-3.76c0-2-.09-3.83-1.94-3.83s-2,2-2,3.83Z"></path><path d="M62.033,33.295h14.2v4.92h-8.22v5.65h7.71v4.88h-7.71v10.79h-6Z"></path><path d="M78.463,39.095h5.94v20.44h-5.94Zm0-7h5.94v4.77h-5.92Z"></path></g><path d="M22.973,32.295h7.49c6.85,0,9.64,3.89,9.64,12.61,0,9.3-2.76,13.62-9.86,13.62h-7.27Zm6.05,21.7h1.12c2.81,0,3.63-2,3.63-9.14,0-6-.74-7.89-3.59-7.89h-1.16Z" fill="#f0bb0e"></path><path d="M48.593,49.735c0,2.66.26,4.7,2.11,4.7,1.66,0,1.9-1.37,2-2.3h5.68c-.15,1.37-.75,6.77-7.76,6.77-6.79,0-7.9-5.19-7.9-10.74,0-6.89,2.76-10.41,8-10.41,6,0,7.77,4.09,7.77,9.74v2.23Zm4-3.76c0-2-.09-3.83-1.94-3.83s-2,2-2,3.83Z" fill="#f0bb0e"></path><path d="M61.033,32.295h14.2v4.92h-8.22v5.65h7.71v4.88h-7.71v10.79h-6Z" fill="#f0bb0e"></path><path d="M77.463,38.095h5.94v20.44h-5.94Zm0-7h5.94v4.77h-5.92Z" fill="#f0bb0e"></path></g></svg>