<svg class="logo" id="ef1f089a-6aa9-4db3-9d9c-0029a0e89ce8" data-name="c95a6b9c-71d0-4aba-a0fa-3df7f06f5966" xmlns="http://www.w3.org/2000/svg" viewBox="0 0 90 90"><title>atash</title> <g id="b322313c-cbf0-4068-8f54-f56211f40ed3" data-name="da5154c7-9fe5-485c-9b00-a29183602a14" opacity="0.19"> <path d="M41.84294,21.48666c-14.7,0-30.33.25-30.33,15s15.63,38.32,30.33,38.31a26.66,26.66,0,0,0,0-53.31Z" fill="#5a7993"></path> </g> <g id="aff13c0e-c3a3-45bf-b6d7-33456c42db4f" data-name="bc5e2ecb-8ebb-4572-91ac-3358d195e957"> <g id="1dbadf60-b5fa-46ab-8ded-6ad032e87d43" data-name="38a76f8d-0045-4d40-9ec1-118b887d2525"> <rect width="90" height="90" fill="none"></rect> </g> </g> <g opacity="0.5"> <path d="M73.22958,53.14107a9.79065,9.79065,0,0,0,0-1.09,12.86045,12.86045,0,0,0-.25-2v.06a35.84143,35.84143,0,0,0-1.12-4.28c-.43-1.42-.92-2.83-1.37-4.25a41.82886,41.82886,0,0,1-1.17-4.35c-.14-.72-.27-1.44-.35-2.17a14.38122,14.38122,0,0,1-.11-1.75,13.78125,13.78125,0,0,0-1.63,1.3c-.58.52-1.12,1.06-1.7,1.57a10.14152,10.14152,0,0,1-.84.68,5.2303,5.2303,0,0,1-.78.52,3.77,3.77,0,0,1-.8.29,3.2499,3.2499,0,0,1-.87.08,4.08,4.08,0,0,1-1.22-.25,6.5101,6.5101,0,0,1-1.29-.66,12.47992,12.47992,0,0,1-1.71-1.35,8.99987,8.99987,0,0,1-1-1.11,8.25,8.25,0,0,1-1.34-2.62,11.34,11.34,0,0,1-.46-2.88,39.59988,39.59988,0,0,1,.47-6.27,21,21,0,0,0,.18-6.12h0a9.11017,9.11017,0,0,0-.4-1.49,23.55,23.55,0,0,0-1.65,2.22h0c-.54.81-1,1.65-1.48,2.49-.76,1.41-1.47,2.85-2.32,4.23a19.93052,19.93052,0,0,1-1.46,2.06,17.46961,17.46961,0,0,1-1.76,1.85,20.43977,20.43977,0,0,1-2.54,2c-.48.31-1,.61-1.46.91l-1.18.76a28.24024,28.24024,0,0,0-4.08,3.28,17.35009,17.35009,0,0,0-1.55,1.81,14.52,14.52,0,0,0-2.31,4.4,20.45977,20.45977,0,0,0-.66,2.6h0a39.1904,39.1904,0,0,0-.49,5.2.24.24,0,0,1-.21.21.34.34,0,0,1-.32-.1,9.56018,9.56018,0,0,1-1.39-2.48c-.32-.79-.6-1.6-.9-2.41a11.7597,11.7597,0,0,0-1.17,1,9.60963,9.60963,0,0,0-.85,1,10.34007,10.34007,0,0,0-.61,1h0a8.35,8.35,0,0,0-.85,2.58h0a10.5,10.5,0,0,0,0,3.43h0a16.91,16.91,0,0,0,1.84,5h0a28.11007,28.11007,0,0,0,4.73,6.2c.75.74,1.54,1.46,2.39,2.15.61.28,1.24.55,1.86.79a36.91,36.91,0,0,0,5.69,1.71,39.78951,39.78951,0,0,0,6,.82c.75,0,1.49.07,2.19.07a37.59989,37.59989,0,0,0,9.75-1.36,30.10054,30.10054,0,0,0,5.55-2.21,26.99974,26.99974,0,0,0,3.71-2.27l.25-.45a25.3701,25.3701,0,0,0,1.74-4,25.87007,25.87007,0,0,0,1-3.85h0A17.4207,17.4207,0,0,0,73.22958,53.14107Zm-7.16,3.47h0a10.54987,10.54987,0,0,1-1.17,3h0a24.23025,24.23025,0,0,1-2,3.09q-.31.41-.64.81a28.37926,28.37926,0,0,1-3,1,31.51917,31.51917,0,0,1-5.41,1,33.07067,33.07067,0,0,1-3.35.17c-.65,0-1.31,0-2-.06a35.80994,35.80994,0,0,1-5.43-.74l-1.38-.33q-.57-.37-1.1-.78a15.22915,15.22915,0,0,1-1.44-1.26h0a14.38986,14.38986,0,0,1-1.11-1.27,10.58948,10.58948,0,0,1-.89-1.36h0a8.6506,8.6506,0,0,1-.55-1.27,9.23,9.23,0,0,1-.37-1.42h0a3.22008,3.22008,0,0,1,0-1h0a1.82,1.82,0,0,1,.15-.45h0a1.69,1.69,0,0,1,.22-.29h0a3.67981,3.67981,0,0,1,.6-.44h0l.8-.46a9.52975,9.52975,0,0,0,1-.7,6.64988,6.64988,0,0,0,1-1,5,5,0,0,0,.82-1.46,6.64013,6.64013,0,0,0,.41-1.42,14.05027,14.05027,0,0,0,0-1.67,21.47016,21.47016,0,0,1,.15-3.34,13.72017,13.72017,0,0,1,.74-2.35,18.24,18.24,0,0,1,1-2.24h0a28.76018,28.76018,0,0,1,1.82-2.87c.7-1,1.46-1.94,2.24-2.88.37-.46.76-.91,1.12-1.36a15.29994,15.29994,0,0,0,1-1.33,14.81019,14.81019,0,0,0,1.07-2c0,.46.07.93.08,1.39v2.29a10.72,10.72,0,0,0,.69,4.21,6.00007,6.00007,0,0,0,.47.87,5.48,5.48,0,0,0,.74.89,5.15012,5.15012,0,0,0,.86.69,5.24,5.24,0,0,0,1,.49,11.81,11.81,0,0,0,2.19.47l1.17.17a10.83946,10.83946,0,0,1,1.3.3h0a10.1698,10.1698,0,0,1,1.75.8h0a5.22977,5.22977,0,0,1,.9.7,3.41018,3.41018,0,0,1,.5.65h0a2.66,2.66,0,0,1,.21.76,3.28986,3.28986,0,0,1,0,1h0a7.65977,7.65977,0,0,1-.77,2h0c-.58,1.06-1.28,2.08-1.84,3.15a7,7,0,0,0-.58,1.59,3.88015,3.88015,0,0,0-.11.73,2.85,2.85,0,0,0,.06.71,2.48,2.48,0,0,0,.26.7,3.40922,3.40922,0,0,0,.19.3,2.00013,2.00013,0,0,0,.26.29,1.2,1.2,0,0,0,.51.27h.25a1.07,1.07,0,0,0,.3,0,1.86,1.86,0,0,0,.54-.24,5.85959,5.85959,0,0,0,.55-.39,12.8592,12.8592,0,0,1,1.25-.93,3.30016,3.30016,0,0,1,.52-.24h.06a2.2399,2.2399,0,0,1,.36-.08h.31l.33.07a2.22991,2.22991,0,0,1,.41.19,2.90026,2.90026,0,0,1,.49.37h0a2.76947,2.76947,0,0,1,.34.46,2.67,2.67,0,0,1,.25.75A4.11005,4.11005,0,0,1,66.06958,56.61107Z"></path> <path d="M51.40958,47.75107h0a13.99991,13.99991,0,0,0-2.18,3.08h0c-.57,1-1,2.1-1.52,3.16l-.7,1.53c-.24.53-.44.87-.67,1.3h0a6.71988,6.71988,0,0,0-.7,1.79h0a3.70964,3.70964,0,0,0,0,.63,3.29032,3.29032,0,0,0,0,.53h0a3.11,3.11,0,0,0,.3.86h0a3.84006,3.84006,0,0,0,.61.81,6.69991,6.69991,0,0,0,1.12.88h2.95a28.06006,28.06006,0,0,0,6.61-.71,4.13,4.13,0,0,0,.07-.8,4.4601,4.4601,0,0,0-.07-.71h0a5.05961,5.05961,0,0,0-.26-.92,8.08974,8.08974,0,0,0-.42-.91h0a20.6207,20.6207,0,0,0-1.65-2.37c-.17-.23-.36-.45-.52-.69a8.77022,8.77022,0,0,1-.48-.79,7.82,7.82,0,0,1-.67-1.45,8.9302,8.9302,0,0,1-.32-1.4c-.07-.49-.12-1-.15-1.47s-.06-1-.1-1.55a16.40023,16.40023,0,0,0-.21-1.68h0a8.99983,8.99983,0,0,0-1,.86m-5.09,9h0"></path> </g> <path d="M72.22958,52.14107a9.79065,9.79065,0,0,0,0-1.09,12.86045,12.86045,0,0,0-.25-2v.06a35.84143,35.84143,0,0,0-1.12-4.28c-.43-1.42-.92-2.83-1.37-4.25a41.82886,41.82886,0,0,1-1.17-4.35c-.14-.72-.27-1.44-.35-2.17a14.38122,14.38122,0,0,1-.11-1.75,13.78125,13.78125,0,0,0-1.63,1.3c-.58.52-1.12,1.06-1.7,1.57a10.14152,10.14152,0,0,1-.84.68,5.2303,5.2303,0,0,1-.78.52,3.77,3.77,0,0,1-.8.29,3.2499,3.2499,0,0,1-.87.08,4.08,4.08,0,0,1-1.22-.25,6.5101,6.5101,0,0,1-1.29-.66,12.47992,12.47992,0,0,1-1.71-1.35,8.99987,8.99987,0,0,1-1-1.11,8.25,8.25,0,0,1-1.34-2.62,11.34,11.34,0,0,1-.46-2.88,39.59988,39.59988,0,0,1,.47-6.27,21,21,0,0,0,.18-6.12h0a9.11017,9.11017,0,0,0-.4-1.49,23.55,23.55,0,0,0-1.65,2.22h0c-.54.81-1,1.65-1.48,2.49-.76,1.41-1.47,2.85-2.32,4.23a19.93052,19.93052,0,0,1-1.46,2.06,17.46961,17.46961,0,0,1-1.76,1.85,20.43977,20.43977,0,0,1-2.54,2c-.48.31-1,.61-1.46.91l-1.18.76a28.24024,28.24024,0,0,0-4.08,3.28,17.35009,17.35009,0,0,0-1.55,1.81,14.52,14.52,0,0,0-2.31,4.4,20.45977,20.45977,0,0,0-.66,2.6h0a39.1904,39.1904,0,0,0-.49,5.2.24.24,0,0,1-.21.21.34.34,0,0,1-.32-.1,9.56018,9.56018,0,0,1-1.39-2.48c-.32-.79-.6-1.6-.9-2.41a11.7597,11.7597,0,0,0-1.17,1,9.60963,9.60963,0,0,0-.85,1,10.34007,10.34007,0,0,0-.61,1h0a8.35,8.35,0,0,0-.85,2.58h0a10.5,10.5,0,0,0,0,3.43h0a16.91,16.91,0,0,0,1.84,5h0a28.11007,28.11007,0,0,0,4.73,6.2c.75.74,1.54,1.46,2.39,2.15.61.28,1.24.55,1.86.79a36.91,36.91,0,0,0,5.69,1.71,39.78951,39.78951,0,0,0,6,.82c.75,0,1.49.07,2.19.07a37.59989,37.59989,0,0,0,9.75-1.36,30.10054,30.10054,0,0,0,5.55-2.21,26.99974,26.99974,0,0,0,3.71-2.27l.25-.45a25.3701,25.3701,0,0,0,1.74-4,25.87007,25.87007,0,0,0,1-3.85h0A17.4207,17.4207,0,0,0,72.22958,52.14107Zm-7.16,3.47h0a10.54987,10.54987,0,0,1-1.17,3h0a24.23025,24.23025,0,0,1-2,3.09q-.31.41-.64.81a28.37926,28.37926,0,0,1-3,1,31.51917,31.51917,0,0,1-5.41,1,33.07067,33.07067,0,0,1-3.35.17c-.65,0-1.31,0-2-.06a35.80994,35.80994,0,0,1-5.43-.74l-1.38-.33q-.57-.37-1.1-.78a15.22915,15.22915,0,0,1-1.44-1.26h0a14.38986,14.38986,0,0,1-1.11-1.27,10.58948,10.58948,0,0,1-.89-1.36h0a8.6506,8.6506,0,0,1-.55-1.27,9.23,9.23,0,0,1-.37-1.42h0a3.22008,3.22008,0,0,1,0-1h0a1.82,1.82,0,0,1,.15-.45h0a1.69,1.69,0,0,1,.22-.29h0a3.67981,3.67981,0,0,1,.6-.44h0l.8-.46a9.52975,9.52975,0,0,0,1-.7,6.64988,6.64988,0,0,0,1-1,5,5,0,0,0,.82-1.46,6.64013,6.64013,0,0,0,.41-1.42,14.05027,14.05027,0,0,0,0-1.67,21.47016,21.47016,0,0,1,.15-3.34,13.72017,13.72017,0,0,1,.74-2.35,18.24,18.24,0,0,1,1-2.24h0a28.76018,28.76018,0,0,1,1.82-2.87c.7-1,1.46-1.94,2.24-2.88.37-.46.76-.91,1.12-1.36a15.29994,15.29994,0,0,0,1-1.33,14.81019,14.81019,0,0,0,1.07-2c0,.46.07.93.08,1.39v2.29a10.72,10.72,0,0,0,.69,4.21,6.00007,6.00007,0,0,0,.47.87,5.48,5.48,0,0,0,.74.89,5.15012,5.15012,0,0,0,.86.69,5.24,5.24,0,0,0,1,.49,11.81,11.81,0,0,0,2.19.47l1.17.17a10.83946,10.83946,0,0,1,1.3.3h0a10.1698,10.1698,0,0,1,1.75.8h0a5.22977,5.22977,0,0,1,.9.7,3.41018,3.41018,0,0,1,.5.65h0a2.66,2.66,0,0,1,.21.76,3.28986,3.28986,0,0,1,0,1h0a7.65977,7.65977,0,0,1-.77,2h0c-.58,1.06-1.28,2.08-1.84,3.15a7,7,0,0,0-.58,1.59,3.88015,3.88015,0,0,0-.11.73,2.85,2.85,0,0,0,.06.71,2.48,2.48,0,0,0,.26.7,3.40922,3.40922,0,0,0,.19.3,2.00013,2.00013,0,0,0,.26.29,1.2,1.2,0,0,0,.51.27h.25a1.07,1.07,0,0,0,.3,0,1.86,1.86,0,0,0,.54-.24,5.85959,5.85959,0,0,0,.55-.39,12.8592,12.8592,0,0,1,1.25-.93,3.30016,3.30016,0,0,1,.52-.24h.06a2.2399,2.2399,0,0,1,.36-.08h.31l.33.07a2.22991,2.22991,0,0,1,.41.19,2.90026,2.90026,0,0,1,.49.37h0a2.76947,2.76947,0,0,1,.34.46,2.67,2.67,0,0,1,.25.75A4.11005,4.11005,0,0,1,65.06958,55.61107Z" fill="#f0bb0e"></path> <path d="M50.40958,46.75107h0a13.99991,13.99991,0,0,0-2.18,3.08h0c-.57,1-1,2.1-1.52,3.16l-.7,1.53c-.24.53-.44.87-.67,1.3h0a6.71988,6.71988,0,0,0-.7,1.79h0a3.70964,3.70964,0,0,0,0,.63,3.29032,3.29032,0,0,0,0,.53h0a3.11,3.11,0,0,0,.3.86h0a3.84006,3.84006,0,0,0,.61.81,6.69991,6.69991,0,0,0,1.12.88h2.95a28.06006,28.06006,0,0,0,6.61-.71,4.13,4.13,0,0,0,.07-.8,4.4601,4.4601,0,0,0-.07-.71h0a5.05961,5.05961,0,0,0-.26-.92,8.08974,8.08974,0,0,0-.42-.91h0a20.6207,20.6207,0,0,0-1.65-2.37c-.17-.23-.36-.45-.52-.69a8.77022,8.77022,0,0,1-.48-.79,7.82,7.82,0,0,1-.67-1.45,8.9302,8.9302,0,0,1-.32-1.4c-.07-.49-.12-1-.15-1.47s-.06-1-.1-1.55a16.40023,16.40023,0,0,0-.21-1.68h0a8.99983,8.99983,0,0,0-1,.86m-5.09,9h0" fill="#f0bb0e"></path> </svg>