<svg class="logo" xmlns="http://www.w3.org/2000/svg" viewBox="0 0 90 90"><title>app</title><g style="isolation:isolate"><g id="010968f5-c73c-4e4e-9bfe-96198dc96308" data-name="45af0a0a-3fa6-4f92-8dcf-94e24769748e"><g id="40ed6187-ace7-4428-82de-6ec256db3c7c" data-name="09c8b5a0-1e7b-4b36-ab57-da71be80f6db"><g id="f4b0b252-a054-4f4a-a760-90ae9c121099" data-name="939917c0-5105-46f0-9d66-51834860c6e7" opacity="0.19"><path d="M41.84294,21.48666c-14.7,0-30.33.25-30.33,15s15.63,38.32,30.33,38.31a26.66,26.66,0,0,0,0-53.31Z" fill="#5a7993"></path></g><g id="efbb50da-4261-44bb-b0f9-827dda6dbd05" data-name="f0210821-6b7c-428f-90fc-676a98603434"><g id="89a1dfa3-51ae-4c99-a85e-984e256a307b" data-name="eb821c4f-21bf-41ae-9153-804e1cff7b38"><rect width="90" height="90" fill="none"></rect></g></g></g><path d="M73.066,59.80009v-.44156h-.11039l-.11039.33117-.11039-.33117h-.16559v.44156h.05519v-.33117l.11039.276H72.79l.11039-.276v.33117Zm-.77273,0v-.38637h.16559v-.05519h-.38637v.05519h.1655v.38637Z" fill="#f79410"></path><g opacity="0.5" style="mix-blend-mode:multiply"><path d="M53.73976,30.48879l.85016-1.4545a1.89748,1.89748,0,1,1,3.288,1.89495L49.745,45.00307h5.87946a2.60788,2.60788,0,0,1,2.151,3.7899H40.53658a1.89495,1.89495,0,1,1,0-3.7899h4.83468L51.558,34.27869,49.62209,30.919a1.89748,1.89748,0,0,1,3.288-1.89495l.82968,1.46475ZM46.42628,50.74937,44.603,53.9042a1.89748,1.89748,0,0,1-3.288-1.89495l1.35207-2.34564a3.26641,3.26641,0,0,1,3.75917,1.08575ZM62.1185,45.01331h4.93711a1.89495,1.89495,0,0,1,0,3.7899H64.3105l1.854,3.206a1.89748,1.89748,0,0,1-3.288,1.89495Q58.2057,45.80714,55.8703,41.76629a5.24988,5.24988,0,0,1,.66579-6.42234q1.87445,3.21117,5.58241,9.66936ZM53.75,20A23.04666,23.04666,0,1,0,76.79666,43.04666,23.042,23.042,0,0,0,53.75,20ZM73.82621,43.04666A20.07621,20.07621,0,1,1,53.75,22.97046,20.07586,20.07586,0,0,1,73.82621,43.04666Z"></path></g><path d="M52.73976,29.48879l.85016-1.4545a1.89748,1.89748,0,1,1,3.288,1.89495L48.745,44.00307h5.87946a2.60788,2.60788,0,0,1,2.151,3.7899H39.53658a1.89495,1.89495,0,1,1,0-3.7899h4.83468L50.558,33.27869,48.62209,29.919a1.89748,1.89748,0,0,1,3.288-1.89495l.82968,1.46475ZM45.42628,49.74937,43.603,52.9042a1.89748,1.89748,0,0,1-3.288-1.89495l1.35207-2.34564a3.26641,3.26641,0,0,1,3.75917,1.08575ZM61.1185,44.01331h4.93711a1.89495,1.89495,0,0,1,0,3.7899H63.3105l1.854,3.206a1.89748,1.89748,0,0,1-3.288,1.89495Q57.2057,44.80714,54.8703,40.76629a5.24988,5.24988,0,0,1,.66579-6.42234q1.87445,3.21117,5.58241,9.66936ZM52.75,19A23.04666,23.04666,0,1,0,75.79666,42.04666,23.042,23.042,0,0,0,52.75,19ZM72.82621,42.04666A20.07621,20.07621,0,1,1,52.75,21.97046,20.07586,20.07586,0,0,1,72.82621,42.04666Z" fill="#eeb91d"></path></g></g></svg>