<svg class="logo" xmlns="http://www.w3.org/2000/svg" viewBox="0 0 90 90"><title>gsme</title><g style="isolation:isolate"><g id="ff32b225-26cf-47e2-9584-19bc663f1f49" data-name="45af0a0a-3fa6-4f92-8dcf-94e24769748e"><g id="1ef97459-be12-4f22-8dc8-37e774a450d1" data-name="09c8b5a0-1e7b-4b36-ab57-da71be80f6db"><g id="3079760d-8a22-425d-89b6-2dda59d66c6b" data-name="939917c0-5105-46f0-9d66-51834860c6e7" opacity="0.19"><path d="M41.84294,21.48666c-14.7,0-30.33.25-30.33,15s15.63,38.32,30.33,38.31a26.66,26.66,0,0,0,0-53.31Z" fill="#5a7993"></path></g><g id="5ca3ea58-1003-4425-b46f-ce55ca2e9b08" data-name="f0210821-6b7c-428f-90fc-676a98603434"><g id="1a5912d0-39ea-4a7d-aaff-4bd54be2d0fc" data-name="eb821c4f-21bf-41ae-9153-804e1cff7b38"><rect width="90" height="90" fill="none"></rect></g></g></g><path d="M73.066,59.80009v-.44156h-.11039l-.11039.33117-.11039-.33117h-.16559v.44156h.05519v-.33117l.11039.276H72.79l.11039-.276v.33117Zm-.77273,0v-.38637h.16559v-.05519h-.38637v.05519h.1655v.38637Z" fill="#f79410"></path><path d="M41.78472,37.14878a2.34634,2.34634,0,1,0,2.33422,2.34631A2.33823,2.33823,0,0,0,41.78472,37.14878Z" fill="#eeb91d"></path><g opacity="0.5" style="mix-blend-mode:multiply"><path d="M81.84138,41.97666c-2.564-10.70355-5.27316-16.38792-10.70355-17.99647a10.78811,10.78811,0,0,0-3.10826-.48378c-3.33806,0-5.67227,1.77788-11.62272,1.77788s-8.28467-1.77788-11.62272-1.77788a10.66853,10.66853,0,0,0-3.10826.48378c-5.43039,1.60856-8.13953,7.305-10.70355,17.99647-2.564,10.70355-2.09233,18.43187.93127,19.87111a3.52827,3.52827,0,0,0,1.5118.33864c2.62449,0,5.45458-2.87847,8.18791-6.28909,3.10826-3.8823,3.8823-3.99115,13.34013-3.99115h2.93894c9.44573,0,10.23187.09675,13.34013,3.99115,2.72124,3.41062,5.56343,6.28909,8.18791,6.28909a3.56776,3.56776,0,0,0,1.5118-.33864c3.01151-1.45133,3.4711-9.17965.91918-19.87111ZM41.79681,43.75454a4.78963,4.78963,0,1,1,4.741-4.78938A4.7747,4.7747,0,0,1,41.79681,43.75454ZM62.708,41.39613a2.431,2.431,0,1,1,2.431-2.431A2.43112,2.43112,0,0,1,62.708,41.39613Zm5.30945,5.30944a2.42494,2.42494,0,1,1,2.431-2.41888A2.42857,2.42857,0,0,1,68.01748,46.70557Zm0-10.61889a2.431,2.431,0,1,1,2.431-2.431A2.43112,2.43112,0,0,1,68.01748,36.08668Zm5.30944,5.30944a2.431,2.431,0,1,1,2.431-2.431A2.43112,2.43112,0,0,1,73.32692,41.39613Z"></path></g><path d="M80.84138,40.97666c-2.564-10.70355-5.27316-16.38792-10.70355-17.99647a10.78811,10.78811,0,0,0-3.10826-.48378c-3.33806,0-5.67227,1.77788-11.62272,1.77788s-8.28467-1.77788-11.62272-1.77788a10.66853,10.66853,0,0,0-3.10826.48378c-5.43039,1.60856-8.13953,7.305-10.70355,17.99647-2.564,10.70355-2.09233,18.43187.93127,19.87111a3.52827,3.52827,0,0,0,1.5118.33864c2.62449,0,5.45458-2.87847,8.18791-6.28909,3.10826-3.8823,3.8823-3.99115,13.34013-3.99115h2.93894c9.44573,0,10.23187.09675,13.34013,3.99115,2.72124,3.41062,5.56343,6.28909,8.18791,6.28909a3.56776,3.56776,0,0,0,1.5118-.33864c3.01151-1.45133,3.4711-9.17965.91918-19.87111ZM40.79681,42.75454a4.78963,4.78963,0,1,1,4.741-4.78938A4.7747,4.7747,0,0,1,40.79681,42.75454ZM61.708,40.39613a2.431,2.431,0,1,1,2.431-2.431A2.43112,2.43112,0,0,1,61.708,40.39613Zm5.30945,5.30944a2.42494,2.42494,0,1,1,2.431-2.41888A2.42857,2.42857,0,0,1,67.01748,45.70557Zm0-10.61889a2.431,2.431,0,1,1,2.431-2.431A2.43112,2.43112,0,0,1,67.01748,35.08668Zm5.30944,5.30944a2.431,2.431,0,1,1,2.431-2.431A2.43112,2.43112,0,0,1,72.32692,40.39613Z" fill="#eeb91d"></path></g></g></svg>