<svg class="logo" id="80362f07-efcd-487c-89e7-59c53a55480f" data-name="0d834f6a-be54-455b-abf7-aca1e18c84eb" xmlns="http://www.w3.org/2000/svg" viewBox="0 0 90 90"><title>meta</title> <g id="48e453d5-76f6-49a9-becb-292eb534bb44" data-name="b705e439-8060-4425-86ec-8d5fc140e8a4" opacity="0.19"> <path d="M41.84294,21.48666c-14.7,0-30.33.25-30.33,15s15.63,38.32,30.33,38.31a26.66,26.66,0,0,0,0-53.31Z" fill="#5a7993"></path> </g> <g id="4ce3e378-42bb-4a89-8796-8dde4ad9dbdd" data-name="beb7ce62-f97a-4280-8fbe-83620db10f83"> <g id="92b22321-f2e3-4236-ab75-94ca06c48752" data-name="168896de-ab92-48c8-8233-510e53527d83"> <rect width="90" height="90" fill="none"></rect> </g> </g> <g id="9823b33f-f0cc-4ff3-bb7f-2824b447dc52" data-name="f5a0eaaf-5c08-4d46-9cb7-354fd1dc38ee"> <g opacity="0.5"> <path d="M65.58274,28.4555c-4.75253,0-8.42739,3.57787-11.85438,8.12564-4.06282-5.61466-8.42739-8.0502-12.60875-8.11486H40.6131c-8.98777.26942-16.73623,11.71428-16.63924,25.28216.6035,17.17808,16.41293,18.32041,24.78643.42029L53.071,46.625c4.67709,7.73768,11.67118,21.81206,18.97779,20.368C91.30675,65.51661,79.17218,25.85831,65.58274,28.4555ZM44.094,51.32368c-4.91418,7.66224-6.6169,9.365-9.35418,9.365-9.47273-.77592-2.90971-28.71993,7.75923-25.724,2.15534.722,4.61243,3.02826,7.5437,7.02642v.06466C46.32476,47.72426,44.094,51.32368,44.094,51.32368Zm28.01945,9.365c-2.81272,0-4.13825-1.87515-9.45117-10.39952-.88369-1.46563-2.15534-3.621-3.40544-5.61466h0l-1.207-1.929c-.53884-.84058-1.02379-1.60573-1.44408-2.15534h0C65.6582,25.0717,76.46724,37.702,76.43491,53.98561c-.02156,4.22447-1.42253,6.70311-4.343,6.70311Z"></path> </g> <path d="M64.58274,27.4555c-4.75253,0-8.42739,3.57787-11.85438,8.12564-4.06282-5.61466-8.42739-8.0502-12.60875-8.11486H39.6131c-8.98777.26942-16.73623,11.71428-16.63924,25.28216.6035,17.17808,16.41293,18.32041,24.78643.42029L52.071,45.625c4.67709,7.73768,11.67118,21.81206,18.97779,20.368C90.30675,64.51661,78.17218,24.85831,64.58274,27.4555ZM43.094,50.32368c-4.91418,7.66224-6.6169,9.365-9.35418,9.365-9.47273-.77592-2.90971-28.71993,7.75923-25.724,2.15534.722,4.61243,3.02826,7.5437,7.02642v.06466C45.32476,46.72426,43.094,50.32368,43.094,50.32368Zm28.01945,9.365c-2.81272,0-4.13825-1.87515-9.45117-10.39952-.88369-1.46563-2.15534-3.621-3.40544-5.61466h0l-1.207-1.929c-.53884-.84058-1.02379-1.60573-1.44408-2.15534h0C64.6582,24.0717,75.46724,36.702,75.43491,52.98561c-.02156,4.22447-1.42253,6.70311-4.343,6.70311Z" fill="#f0bb0e"></path> </g> </svg>