<svg class="logo" id="71b70182-d06d-4249-874e-27fd2651bc52" data-name="c95a6b9c-71d0-4aba-a0fa-3df7f06f5966" xmlns="http://www.w3.org/2000/svg" viewBox="0 0 90 90"><title>nft</title><g id="7c23c314-1f81-47e8-9077-57b1460f4741" data-name="da5154c7-9fe5-485c-9b00-a29183602a14" opacity="0.19"><path d="M41.84294,21.48666c-14.7,0-30.33.25-30.33,15s15.63,38.32,30.33,38.31a26.66,26.66,0,0,0,0-53.31Z" fill="#5a7993"></path></g><g id="9c3e872e-334e-48e6-a370-993d9e3a5306" data-name="bc5e2ecb-8ebb-4572-91ac-3358d195e957"><g id="665f2993-afcb-4d20-9219-643369a3f4eb" data-name="38a76f8d-0045-4d40-9ec1-118b887d2525"><rect width="90" height="90" fill="none"></rect></g></g><g id="a4351272-9d10-4d1a-95a8-91bc5607397d" data-name="745ec6bf-86af-4e90-9c74-1444baa4020f"><g opacity="0.5"><path d="M29.49113,41.79206l9.26,14v-14.13a3.1,3.1,0,0,1,.59-2.07,2,2,0,0,1,1.6-.69,2.06,2.06,0,0,1,1.64.69,3.08,3.08,0,0,1,.6,2.07v18.7q0,3.13-2.59,3.13a3.44,3.44,0,0,1-1.17-.19,3,3,0,0,1-1-.59,5.77,5.77,0,0,1-.84-.95l-.78-1.11-9-13.85v13.93a3,3,0,0,1-.68,2.06,2.23685,2.23685,0,0,1-3.16215.08846q-.05044-.0477-.09785-.09846a3,3,0,0,1-.62-2.05v-18.34a5.19,5.19,0,0,1,.26-1.83,2.62,2.62,0,0,1,1-1.19,2.78,2.78,0,0,1,1.62-.47,2.52,2.52,0,0,1,1.92.78,5.85992,5.85992,0,0,1,.71.92Z"></path><path d="M62.65112,43.02206h-9.53v6.08h8a2.38,2.38,0,0,1,1.65.49,1.7,1.7,0,0,1,.54,1.32,1.66,1.66,0,0,1-.55,1.31,2.41,2.41,0,0,1-1.64.49h-8v7.83a3.15,3.15,0,0,1-.67,2.21,2.44,2.44,0,0,1-3.45,0h0a3.16,3.16,0,0,1-.67-2.21v-18.28a4,4,0,0,1,.31-1.69,1.91,1.91,0,0,1,1-1,4.06,4.06,0,0,1,1.68-.3h11.33a2.47,2.47,0,0,1,1.71.51,1.73,1.73,0,0,1,.56,1.34,1.75,1.75,0,0,1-.56,1.36A2.47,2.47,0,0,1,62.65112,43.02206Z"></path><path d="M83.94112,43.28206h-5.25v17.27a3.18,3.18,0,0,1-.66,2.21,2.23,2.23,0,0,1-1.72.72,2.26,2.26,0,0,1-1.74-.73,3.16,3.16,0,0,1-.67-2.21v-17.26h-5.27a2.66,2.66,0,0,1-1.83-.54,1.84,1.84,0,0,1-.6-1.44,1.82,1.82,0,0,1,.62-1.46,2.7,2.7,0,0,1,1.81-.54h15.31a2.69,2.69,0,0,1,1.86.55,1.86,1.86,0,0,1,.61,1.44,1.82,1.82,0,0,1-.62,1.44A2.73,2.73,0,0,1,83.94112,43.28206Z"></path></g><path d="M28.49113,40.79206l9.26,14v-14.13a3.1,3.1,0,0,1,.59-2.07,2,2,0,0,1,1.6-.69,2.06,2.06,0,0,1,1.64.69,3.08,3.08,0,0,1,.6,2.07v18.7q0,3.13-2.59,3.13a3.44,3.44,0,0,1-1.17-.19,3,3,0,0,1-1-.59,5.77,5.77,0,0,1-.84-.95l-.78-1.11-9-13.85v13.93a3,3,0,0,1-.68,2.06,2.23685,2.23685,0,0,1-3.16215.08846q-.05044-.0477-.09785-.09846a3,3,0,0,1-.62-2.05v-18.34a5.19,5.19,0,0,1,.26-1.83,2.62,2.62,0,0,1,1-1.19,2.78,2.78,0,0,1,1.62-.47,2.52,2.52,0,0,1,1.92.78,5.85992,5.85992,0,0,1,.71.92Z" fill="#f0bb0e"></path><path d="M61.65112,42.02206h-9.53v6.08h8a2.38,2.38,0,0,1,1.65.49,1.7,1.7,0,0,1,.54,1.32,1.66,1.66,0,0,1-.55,1.31,2.41,2.41,0,0,1-1.64.49h-8v7.83a3.15,3.15,0,0,1-.67,2.21,2.44,2.44,0,0,1-3.45,0h0a3.16,3.16,0,0,1-.67-2.21v-18.28a4,4,0,0,1,.31-1.69,1.91,1.91,0,0,1,1-1,4.06,4.06,0,0,1,1.68-.3h11.33a2.47,2.47,0,0,1,1.71.51,1.73,1.73,0,0,1,.56,1.34,1.75,1.75,0,0,1-.56,1.36A2.47,2.47,0,0,1,61.65112,42.02206Z" fill="#f0bb0e"></path><path d="M82.94112,42.28206h-5.25v17.27a3.18,3.18,0,0,1-.66,2.21,2.23,2.23,0,0,1-1.72.72,2.26,2.26,0,0,1-1.74-.73,3.16,3.16,0,0,1-.67-2.21v-17.26h-5.27a2.66,2.66,0,0,1-1.83-.54,1.84,1.84,0,0,1-.6-1.44,1.82,1.82,0,0,1,.62-1.46,2.7,2.7,0,0,1,1.81-.54h15.31a2.69,2.69,0,0,1,1.86.55,1.86,1.86,0,0,1,.61,1.44,1.82,1.82,0,0,1-.62,1.44A2.73,2.73,0,0,1,82.94112,42.28206Z" fill="#f0bb0e"></path></g></svg>