<svg class="logo" xmlns="http://www.w3.org/2000/svg" viewBox="0 0 90 90"><title>payeer</title><g style="isolation:isolate"><g id="bf5d293f-48a8-4e61-a30c-9563de8ceec8" data-name="Layer 1"><g id="b34fb55e-50b4-4752-9b80-02d6f1c0d634" data-name="0d7b0410-89c0-4934-ad33-1953064db00d"><g id="4f2e6934-5517-43a0-aa87-c99d39d5db58" data-name="41fa65e1-d538-41a1-8b17-5454e5c87ec2" opacity="0.19"><path d="M41.84294,21.48666c-14.7,0-30.33.25-30.33,15s15.63,38.32,30.33,38.31a26.66,26.66,0,0,0,0-53.31Z" fill="#5a7993"></path></g><g id="d5a5826d-6fb3-4f23-b059-c09e9d336cbc" data-name="6ca4f126-4f16-412d-9c6b-ea3f514d9307"><g id="c065fc53-20ea-455b-a47d-0212285e6f27" data-name="4dcc2b4e-932c-4300-b275-c4d5f625de94"><rect width="90" height="90" fill="none"></rect></g></g></g><g opacity="0.5" style="mix-blend-mode:multiply"><path d="M52.27436,58.53312"></path></g><path d="M51.27436,57.53312" fill="#efb91c"></path><g opacity="0.5" style="mix-blend-mode:multiply"><path d="M47.5297,32.47781a36.70568,36.70568,0,0,1,5.87244-.43321c3.03249,0,5.24669.722,6.6426,1.97353a6.334,6.334,0,0,1,2.0698,4.95788,6.84427,6.84427,0,0,1-1.82912,5.05415c-1.63658,1.73285-4.23586,2.59928-7.22021,2.59928a12.7017,12.7017,0,0,1-2.45487-.19254v9.48255H47.5297Zm3.03249,11.40794a9.53974,9.53974,0,0,0,2.55114.24067c3.70638,0,5.92058-1.781,5.92058-5.05415,0-3.12876-2.2142-4.62094-5.58363-4.62094a12.68658,12.68658,0,0,0-2.88809.24067Z" stroke="#000" stroke-miterlimit="10" stroke-width="2"></path></g><path d="M46.5297,31.47781a36.70568,36.70568,0,0,1,5.87244-.43321c3.03249,0,5.24669.722,6.6426,1.97353a6.334,6.334,0,0,1,2.0698,4.95788,6.84427,6.84427,0,0,1-1.82912,5.05415c-1.63658,1.73285-4.23586,2.59928-7.22021,2.59928a12.7017,12.7017,0,0,1-2.45487-.19254v9.48255H46.5297Zm3.03249,11.40794a9.53974,9.53974,0,0,0,2.55114.24067c3.70638,0,5.92058-1.781,5.92058-5.05415,0-3.12876-2.2142-4.62094-5.58363-4.62094a12.68658,12.68658,0,0,0-2.88809.24067Z" fill="#eeb91d" stroke="#eeb91d" stroke-miterlimit="10" stroke-width="2"></path><g opacity="0.5" style="mix-blend-mode:multiply"><circle cx="53.82212" cy="43.98202" r="21.49536" fill="none" stroke="#000" stroke-miterlimit="10" stroke-width="3"></circle></g><circle cx="52.82212" cy="42.98202" r="21.49536" fill="none" stroke="#eeb91d" stroke-miterlimit="10" stroke-width="3"></circle></g></g></svg>