<svg class="logo" id="dede9c14-f991-4c34-9adf-e2d127f41828" data-name="Layer 1" xmlns="http://www.w3.org/2000/svg" viewBox="0 0 90 90"><title>paypal</title><g id="def97215-f69e-42a6-a534-ff4ebd4e68a8" data-name="0d7b0410-89c0-4934-ad33-1953064db00d"><g id="c2b2e92b-a960-4f58-936a-5d715d783c81" data-name="41fa65e1-d538-41a1-8b17-5454e5c87ec2" opacity="0.19"><path d="M41.84294,21.48666c-14.7,0-30.33.25-30.33,15s15.63,38.32,30.33,38.31a26.66,26.66,0,0,0,0-53.31Z" fill="#5a7993"></path></g><g id="de1717b5-e09d-4f4e-ab76-064feea57c07" data-name="6ca4f126-4f16-412d-9c6b-ea3f514d9307"><g id="ff03378c-919f-412f-abbd-d583082ce84d" data-name="4dcc2b4e-932c-4300-b275-c4d5f625de94"><rect width="90" height="90" fill="none"></rect></g></g></g><g id="b1157336-2616-4d05-bd46-befc6b953e24" data-name="Layer 1"><g id="d039f761-dd4a-49c1-b529-c28e7042d7d2" data-name="Layer 2"><rect x="21.90381" y="17.38682" width="51.45358" height="51.45358" fill="none"></rect><path d="M45.0997,31.29452a1.97192,1.97192,0,0,1,.73716-.14743H56.6485a19.66891,19.66891,0,0,1,3.53835.24572c.29486.04914.58972.09829.93373.14743a12.30752,12.30752,0,0,1,1.27774.344,6.67806,6.67806,0,0,1,1.47431.63887c.54058-3.44007,0-5.799-1.86747-7.9613-2.064-2.3589-5.799-3.34178-10.51678-3.34178H37.679a1.87783,1.87783,0,0,0-1.91661,1.67089L30.01254,59.40479a1.1839,1.1839,0,0,0,1.13031,1.376h8.50188L44.06767,32.6214A2.309,2.309,0,0,1,45.0997,31.29452Z" fill="#efb91c"></path><path d="M63.77435,33.4077C61.956,42.745,55.71476,45.93938,47.80261,45.93938H43.72367a1.87784,1.87784,0,0,0-1.91661,1.67089L39.15329,64.51575a1.02221,1.02221,0,0,0,1.032,1.17945h7.175a1.73778,1.73778,0,0,0,1.72-1.47431l.09829-.39315,1.376-8.60017.09829-.49144a1.74442,1.74442,0,0,1,1.72-1.47431h1.08116c6.92928,0,12.43339-2.8012,14.006-11.00822.688-3.44007.29486-6.29041-1.42517-8.30531a6.794,6.794,0,0,0-1.96575-1.52346,3.506,3.506,0,0,0-.29486.98287Z" fill="#dd9f12"></path><path d="M62.00517,31.8351c-.24572-.04914-.58972-.14743-.83544-.19658a5.30435,5.30435,0,0,0-.93373-.14743,26.08553,26.08553,0,0,0-3.53835-.24572H45.886a1.97194,1.97194,0,0,0-.73716.14743,1.5955,1.5955,0,0,0-.93373,1.27774L41.90535,47.26626l-.09829.4423a1.9945,1.9945,0,0,1,1.91661-1.67089h4.02979c7.9613,0,14.20257-3.19435,16.02089-12.58082a4.42584,4.42584,0,0,0,.14743-.7863,13.3254,13.3254,0,0,0-1.47431-.63887,1.11214,1.11214,0,0,0-.4423-.19658" fill="#efb91c"></path></g></g></svg>