<svg version="1.1" xmlns="http://www.w3.org/2000/svg" xmlns:xlink="http://www.w3.org/1999/xlink" x="0px" y="0px" viewBox="0 0 100 100" enable-background="new 0 0 100 100" xml:space="preserve"> <g display="none"> <g display="inline"> <rect x="-2.3" y="-2.3" fill="none" width="104.7" height="104.7"></rect> <path display="none" fill="#27356A" d="M79.4,12.4C75.1,7.7,67.6,5.6,58,5.6H29.9c-2,0-3.7,1.4-4,3.4L14.2,83.2 C14,84.7,15.1,86,16.6,86h17.3l4.3-27.6l-0.2,0.9c0.3-1.9,2-3.4,3.9-3.4h8.2c16.2,0,28.9-6.5,32.6-25.6c0.2-0.5,0.2-1.1,0.3-1.6 c-0.5-0.3-0.5-0.3,0,0C84.3,21.6,83.2,16.8,79.4,12.4"></path> <path fill="#EFB91C" d="M44.9,26c0.5-0.2,1-0.3,1.5-0.3h22c2.6,0,5.1,0.1,7.2,0.5c0.6,0.1,1.2,0.2,1.9,0.3 c0.9,0.2,1.7,0.4,2.6,0.7c1.1,0.3,2.1,0.8,3,1.3c1.1-7,0-11.8-3.8-16.2c-4.2-4.8-11.8-6.8-21.4-6.8H29.8c-2,0-3.7,1.4-3.9,3.4 L14.2,83.2C14,84.7,15.1,86,16.5,86h17.3l9-57.3C43.1,27.6,43.9,26.6,44.9,26z"></path> <path fill="#848D9A" d="M82.9,30.3c-3.7,19-16.4,25.5-32.5,25.5h-8.3c-2,0-3.7,1.4-3.9,3.4l-5.4,34.4c-0.2,1.3,0.8,2.4,2.1,2.4 h14.6c1.7,0,3.2-1.2,3.5-3l0.2-0.8l2.8-17.5l0.2-1c0.3-1.7,1.7-3,3.5-3h2.2c14.1,0,25.3-5.7,28.5-22.4c1.4-7,0.6-12.8-2.9-16.9 c-1.1-1.2-2.4-2.3-4-3.1C83.1,29.2,83,29.7,82.9,30.3L82.9,30.3z"></path> <path fill="#C4942C" d="M79.3,27.1c-0.5-0.1-1.2-0.3-1.7-0.4c-0.6-0.1-1.2-0.3-1.9-0.3c-2.2-0.3-4.6-0.5-7.2-0.5h-22 c-0.5,0-1,0.1-1.5,0.3c-1,0.5-1.8,1.4-1.9,2.6l-4.7,29.7l-0.2,0.9c0.3-1.9,2-3.4,3.9-3.4h8.2c16.2,0,28.9-6.5,32.6-25.6 c0.2-0.5,0.2-1.1,0.3-1.6c-1-0.5-1.9-0.9-3-1.3C79.8,27.2,79.6,27.2,79.3,27.1"></path> </g> <g display="inline"> </g> </g> <g display="none"> <g display="inline"> <path fill="#848D9A" d="M4.5,49.9C4.6,25.3,24.8,5.2,49.8,5.2l0,0c6.9,0,13.7,1.5,19.9,4.6c0.9,0.4,1.9,0.9,2.9,1.5l-4.2,3.7 l-6.2-6.4l-10.7,9.4l-6.4-6.8L25.5,28.6l12.6,13.8l-5,4.3l12.4,13.8l-5,4.3l17.8,19.6l10.6-9.6l9.2,10.2c-1.9,1.5-3.9,2.7-6,3.9 c-6.8,3.8-14.5,5.8-22.3,5.8C24.8,94.7,4.5,74.6,4.5,49.9"></path> <polygon fill="#EEB91D" points="41.5,47.1 52.4,37.5 62,48.2 51.2,57.8 "></polygon> <polygon fill="#EEB91D" points="49.2,65.6 59.9,56 69.7,66.7 58.8,76.2 "></polygon> <polygon fill="#EEB91D" points="33.9,28.9 44.7,19.4 54.4,30 43.5,39.6 "></polygon> <polygon fill="#EEB91D" points="53.6,23.8 61.7,16.6 68.9,24.6 60.9,31.9 "></polygon> <polygon fill="#EEB91D" points="68,56.7 76,49.6 83.3,57.6 75.3,64.7 "></polygon> <polygon fill="#EEB91D" points="75.1,72.8 83.1,65.7 90.4,73.6 82.4,80.9 "></polygon> <polygon fill="#EEB91D" points="78.4,35.9 83.7,31.1 88.5,36.5 83.2,41.3 "></polygon> <polygon fill="#EEB91D" points="71.4,20.1 76.8,15.2 81.6,20.6 76.2,25.5 "></polygon> <polygon fill="#EEB91D" points="85.2,51.7 90.5,46.9 95.5,52.2 90.1,57 "></polygon> <polygon fill="#EEB91D" points="61,39.9 69.1,32.7 76.4,40.7 68.3,47.8 "></polygon> </g> <g display="inline"> </g> </g> <g> <path fill="#EEB91D" stroke="#EEB91D" stroke-width="2" stroke-miterlimit="10" d="M23.8,69.2c-4.1,0-8.2,0-12.6,0 c-0.4,0-0.9-0.4-1.4-0.7c0.4-0.3,0.8-0.8,1.2-0.8c2.9-0.5,3.4-0.9,3.7-4c0.1-2.4,0.1-4.8,0.1-7.2v-2l4.7,0.3V63 c0,3.4,0.8,4.3,4.3,4.7c0.4,0,0.8,0.5,1.4,0.9C24.8,68.9,24.3,69.1,23.8,69.2z"></path> <path fill="#EEB91D" stroke="#EEB91D" stroke-width="2" stroke-miterlimit="10" d="M31,51.8c-6.1,2.3-12.6,2.1-19,1.2 c-2.7-0.4-5.2-0.9-7.9-1.3v-0.3c3.9,0.2,7.6,0.4,11.5,0.4c3.6,0,7.2-0.3,10.7-0.9c5.4-1,8.6-5.7,7.9-11.2c-0.6-6.3-3.8-9.4-9.9-9.9 h-0.9c-3.1,0-3.3,0.2-3.3,3.1V50h-5.2v-5.5c0-3.4,0-6.9-0.2-10.5c-0.2-3.1-0.9-3.8-3.9-4.2c-0.6-0.2-1.2-0.6-1.8-0.9 c0.6-0.3,1.2-0.9,1.8-0.9c6,0,12.1-0.4,18.1,0.2c8.4,0.8,13.3,8.2,10.8,16C38.3,48.6,34.6,50.5,31,51.8z"></path> <path fill="#848D9A" stroke="#848D9A" stroke-width="2" stroke-miterlimit="10" d="M80.7,71.5c-0.6,0-1-0.6-1.7-0.9 c0.4-0.3,0.9-0.8,1.5-0.8c3.3-0.4,3.9-0.9,3.9-4.2c0-9.2,0-18.2-0.2-27.4c0-0.4-0.2-0.9-0.6-1L66.3,72.6L49.9,37.2h-0.4 c-0.3,5.5-0.6,11.1-0.8,16.8c-0.2,3.4-0.2,6.9-0.3,10.3c0,0.9,0.2,1.9,0.3,2.9c0.2,1.9,1.3,2.7,3.1,2.7c0.4,0,0.8,0,1.2,0.2 c0.4,0.3,0.9,0.6,1.3,1c-0.6,0.2-1,0.6-1.7,0.6c-2.1,0-4-0.2-6.1-0.2c-1.9,0-3.9,0.2-5.8,0.2c-0.4,0-0.9-0.4-1.3-0.6 c0.4-0.3,0.8-0.9,1.2-1c3.3-0.6,4-1,4.4-4.4c0.8-10.7,1.3-21.2,1.9-31.9c0.2-2.5-0.6-3.3-3.1-3.9c-0.6-0.2-1.2-0.2-1.7-0.4 c-0.3-0.2-0.4-0.4-0.8-0.8c0.3-0.3,0.6-0.8,0.9-0.8c3.3,0,6.5,0,10,0c0.3,4.6,2.5,8.6,4.5,12.6C60.3,47.9,64,55.3,68,62.8 C73.5,51.3,80.1,40.2,84.8,28h9.7c0.3,0,0.6,0.4,0.9,0.8c-0.3,0.3-0.4,0.8-0.9,0.8c-5.2,1.5-5.4,1.5-5.2,7 c0.2,9.7,0.4,19.5,0.8,29.3c0.2,3.1,0.9,3.9,4,4.2c0.4,0,0.9,0.6,1.3,0.9c-0.4,0.3-1,0.8-1.5,0.8C89.5,71.5,85.3,71.5,80.7,71.5 L80.7,71.5L80.7,71.5z"></path> </g> </svg>