<svg class="logo" xmlns="http://www.w3.org/2000/svg" viewBox="0 0 90 90"><title>perfect</title><g style="isolation:isolate"><g id="0688aad5-f853-4dc9-acf4-2cc8e4d708a5" data-name="Layer 1"><g id="724b100c-97d7-48b6-b05a-beacaa1254a7" data-name="0d7b0410-89c0-4934-ad33-1953064db00d"><g id="dbbdab69-85d0-4d9a-a977-5a90784ffb02" data-name="41fa65e1-d538-41a1-8b17-5454e5c87ec2" opacity="0.19"><path d="M41.84294,21.48666c-14.7,0-30.33.25-30.33,15s15.63,38.32,30.33,38.31a26.66,26.66,0,0,0,0-53.31Z" fill="#5a7993"></path></g><g id="f017cc44-c97b-4cb2-8ea5-37c0c6f53974" data-name="6ca4f126-4f16-412d-9c6b-ea3f514d9307"><g id="78eb13ee-280d-4c04-963a-f0340b400c7f" data-name="4dcc2b4e-932c-4300-b275-c4d5f625de94"><rect width="90" height="90" fill="none"></rect></g></g></g><g opacity="0.5" style="mix-blend-mode:multiply"><path d="M37.91718,58.40179H30.45288a2.16421,2.16421,0,0,1-.82937-.41468c.237-.17772.47392-.47393.71089-.47393,1.718-.2962,2.01417-.53316,2.1919-2.36962.05924-1.42177.05924-2.84354.05924-4.26531V49.69345l2.7843.17772v4.85772c0,2.01418.47392,2.54734,2.54734,2.7843.237,0,.47392.2962.82937.53316A2.077,2.077,0,0,1,37.91718,58.40179Z" stroke="#000" stroke-miterlimit="10" stroke-width="2"></path><path d="M42.18249,48.094c-3.61367,1.36253-7.46429,1.244-11.25568.71089-1.59949-.237-3.0805-.53316-4.68-.77013V47.857c2.31038.11848,4.50227.237,6.81265.237a37.62107,37.62107,0,0,0,6.33873-.53316,5.73619,5.73619,0,0,0,4.68-6.63493c-.35544-3.73215-2.25114-5.5686-5.8648-5.8648h-.53316c-1.83645,0-1.95493.11848-1.95493,1.83645V47.02763h-3.0805V43.76941c0-2.01418,0-4.08759-.11848-6.22025-.11848-1.83645-.53316-2.25114-2.31038-2.4881a8.949,8.949,0,0,1-1.06633-.53316c.35544-.17772.71089-.53316,1.06633-.53316,3.55443,0,7.16809-.237,10.72252.11848a7.11994,7.11994,0,0,1,6.398,9.47847C46.507,46.19827,44.31515,47.32384,42.18249,48.094Z" stroke="#000" stroke-miterlimit="10" stroke-width="2"></path><path d="M71.625,59.76433c-.35544,0-.5924-.35544-1.00709-.53316a1.62991,1.62991,0,0,1,.88861-.47393c1.95494-.237,2.31038-.53316,2.31038-2.4881,0-5.45012,0-10.78176-.11848-16.23188a.59474.59474,0,0,0-.35544-.5924L63.09436,60.416,53.37893,39.44486h-.237c-.17772,3.25822-.35544,6.57569-.47392,9.95239-.11848,2.01418-.11848,4.08759-.17772,6.10177,0,.53316.11848,1.12557.17772,1.718a1.61951,1.61951,0,0,0,1.83645,1.59949,1.50276,1.50276,0,0,1,.71089.11848,6.70516,6.70516,0,0,1,.77013.5924c-.35544.11848-.5924.35544-1.00709.35544-1.244,0-2.36962-.11848-3.61367-.11848-1.12557,0-2.31038.11848-3.43594.11848-.237,0-.53316-.237-.77013-.35544.237-.17772.47392-.53316.71089-.5924,1.95493-.35544,2.36962-.5924,2.60658-2.60658.47392-6.33873.77013-12.559,1.12557-18.8977.11848-1.481-.35544-1.95493-1.83645-2.31038-.35544-.11848-.71089-.11848-1.00709-.237a3.512,3.512,0,0,1-.47392-.47392c.17772-.17772.35544-.47392.53316-.47392h5.924c.17772,2.72506,1.481,5.09468,2.66582,7.4643,2.13265,4.38379,4.32455,8.76758,6.69416,13.21062,3.25822-6.81265,7.16809-13.38834,9.95239-20.61567h5.74632c.17772,0,.35544.237.53316.47392-.17772.17772-.237.47392-.53316.47392-3.0805.88861-3.199.88861-3.0805,4.14683.11848,5.74632.237,11.55188.47393,17.35744.11848,1.83645.53316,2.31038,2.36962,2.4881.237,0,.53316.35544.77013.53316a1.86415,1.86415,0,0,1-.88861.47393c-2.60658-.17772-5.09468-.17772-7.81974-.17772Z" stroke="#000" stroke-miterlimit="10" stroke-width="2"></path></g><path d="M36.91718,57.40179H29.45288a2.16421,2.16421,0,0,1-.82937-.41468c.237-.17772.47392-.47393.71089-.47393,1.718-.2962,2.01417-.53316,2.1919-2.36962.05924-1.42177.05924-2.84354.05924-4.26531V48.69345l2.7843.17772v4.85772c0,2.01418.47392,2.54734,2.54734,2.7843.237,0,.47392.2962.82937.53316A2.077,2.077,0,0,1,36.91718,57.40179Z" fill="#eeb91d" stroke="#eeb91d" stroke-miterlimit="10" stroke-width="2"></path><path d="M41.18249,47.094c-3.61367,1.36253-7.46429,1.244-11.25568.71089-1.59949-.237-3.0805-.53316-4.68-.77013V46.857c2.31038.11848,4.50227.237,6.81265.237a37.62107,37.62107,0,0,0,6.33873-.53316,5.73619,5.73619,0,0,0,4.68-6.63493c-.35544-3.73215-2.25114-5.5686-5.8648-5.8648h-.53316c-1.83645,0-1.95493.11848-1.95493,1.83645V46.02763h-3.0805V42.76941c0-2.01418,0-4.08759-.11848-6.22025-.11848-1.83645-.53316-2.25114-2.31038-2.4881a8.949,8.949,0,0,1-1.06633-.53316c.35544-.17772.71089-.53316,1.06633-.53316,3.55443,0,7.16809-.237,10.72252.11848a7.11994,7.11994,0,0,1,6.398,9.47847C45.507,45.19827,43.31515,46.32384,41.18249,47.094Z" fill="#eeb91d" stroke="#eeb91d" stroke-miterlimit="10" stroke-width="2"></path><path d="M70.625,58.76433c-.35544,0-.5924-.35544-1.00709-.53316a1.62991,1.62991,0,0,1,.88861-.47393c1.95494-.237,2.31038-.53316,2.31038-2.4881,0-5.45012,0-10.78176-.11848-16.23188a.59474.59474,0,0,0-.35544-.5924L62.09436,59.416,52.37893,38.44486h-.237c-.17772,3.25822-.35544,6.57569-.47392,9.95239-.11848,2.01418-.11848,4.08759-.17772,6.10177,0,.53316.11848,1.12557.17772,1.718a1.61951,1.61951,0,0,0,1.83645,1.59949,1.50276,1.50276,0,0,1,.71089.11848,6.70516,6.70516,0,0,1,.77013.5924c-.35544.11848-.5924.35544-1.00709.35544-1.244,0-2.36962-.11848-3.61367-.11848-1.12557,0-2.31038.11848-3.43594.11848-.237,0-.53316-.237-.77013-.35544.237-.17772.47392-.53316.71089-.5924,1.95493-.35544,2.36962-.5924,2.60658-2.60658.47392-6.33873.77013-12.559,1.12557-18.8977.11848-1.481-.35544-1.95493-1.83645-2.31038-.35544-.11848-.71089-.11848-1.00709-.237a3.512,3.512,0,0,1-.47392-.47392c.17772-.17772.35544-.47392.53316-.47392h5.924c.17772,2.72506,1.481,5.09468,2.66582,7.4643,2.13265,4.38379,4.32455,8.76758,6.69416,13.21062,3.25822-6.81265,7.16809-13.38834,9.95239-20.61567h5.74632c.17772,0,.35544.237.53316.47392-.17772.17772-.237.47392-.53316.47392-3.0805.88861-3.199.88861-3.0805,4.14683.11848,5.74632.237,11.55188.47393,17.35744.11848,1.83645.53316,2.31038,2.36962,2.4881.237,0,.53316.35544.77013.53316a1.86415,1.86415,0,0,1-.88861.47393c-2.60658-.17772-5.09468-.17772-7.81974-.17772Z" fill="#eeb91d" stroke="#eeb91d" stroke-miterlimit="10" stroke-width="2"></path></g></g></svg>