<svg class="logo" xmlns="http://www.w3.org/2000/svg" viewBox="0 0 90 90"><title>sefarat</title><g style="isolation:isolate"><g id="a5c6439d-b52f-4e98-91f0-bb4a8d75ab08" data-name="Layer 1"><g id="09950063-88e8-4fab-9f99-14b37bc32b65" data-name="0d7b0410-89c0-4934-ad33-1953064db00d"><g id="14fbfb0d-b314-412c-912d-5c4666fc739f" data-name="41fa65e1-d538-41a1-8b17-5454e5c87ec2" opacity="0.19"><path d="M41.84294,21.48666c-14.7,0-30.33.25-30.33,15s15.63,38.32,30.33,38.31a26.66,26.66,0,0,0,0-53.31Z" fill="#5a7993"></path></g><g id="627ea7bc-da14-4170-b732-b62c38b59420" data-name="6ca4f126-4f16-412d-9c6b-ea3f514d9307"><g id="e871ad97-1649-4bc3-852d-67c76bbac83b" data-name="4dcc2b4e-932c-4300-b275-c4d5f625de94"><rect width="90" height="90" fill="none"></rect></g></g></g><g opacity="0.5" style="mix-blend-mode:multiply"><path d="M69.878,60.2968V32.40823H60.97225V60.2968H58.86069V27.042H51.77224V24.15486c1.70371.49582,2.98407-1.10133,4.77038-.18867V21.14925c-1.78631-.91265-3.06667.68449-4.77038.18867v-.50459h-.94478V27.042H43.73385V60.2968H41.62228V32.40823H32.71655V60.2968H30.73922v3.53653h41.1161V60.2968ZM39.45393,58.52415h-4.187V54.97007h4.187v3.55408Zm0-6.41051h-4.187V48.55517h4.187v3.55847Zm0-6.41051h-4.187V42.14466h4.187v3.55847Zm0-6.41051h-4.187V35.73415h4.187v3.55847ZM55.59267,57.39211H47.00186V53.82925h8.59081v3.56286Zm0-8.04714H47.00186V45.78211h8.59081V49.345Zm0-8.04714H47.00186V37.735h8.59081v3.56286Zm0-8.04714H47.00186V29.68782h8.59081v3.56286ZM67.32759,58.52415h-4.187V54.97007h4.187Zm0-6.41051h-4.187V48.55517h4.187Zm0-6.41051h-4.187V42.14466h4.187Zm0-6.41051h-4.187V35.73415h4.187Z"></path></g><path d="M68.878,59.2968V31.40823H59.97225V59.2968H57.86069V26.042H50.77224V23.15486c1.70371.49582,2.98407-1.10133,4.77038-.18867V20.14925c-1.78631-.91265-3.06667.68449-4.77038.18867v-.50459h-.94478V26.042H42.73385V59.2968H40.62228V31.40823H31.71655V59.2968H29.73922v3.53653h41.1161V59.2968ZM38.45393,57.52415h-4.187V53.97007h4.187v3.55408Zm0-6.41051h-4.187V47.55517h4.187v3.55847Zm0-6.41051h-4.187V41.14466h4.187v3.55847Zm0-6.41051h-4.187V34.73415h4.187v3.55847ZM54.59267,56.39211H46.00186V52.82925h8.59081v3.56286Zm0-8.04714H46.00186V44.78211h8.59081V48.345Zm0-8.04714H46.00186V36.735h8.59081v3.56286Zm0-8.04714H46.00186V28.68782h8.59081v3.56286ZM66.32759,57.52415h-4.187V53.97007h4.187Zm0-6.41051h-4.187V47.55517h4.187Zm0-6.41051h-4.187V41.14466h4.187Zm0-6.41051h-4.187V34.73415h4.187Z" fill="#ffc727"></path></g></g></svg>