<svg class="logo" xmlns="http://www.w3.org/2000/svg" viewBox="0 0 90 90"><title>account</title><g style="isolation:isolate"><g id="46671768-2a73-4af7-ae3c-7771ac7384eb" data-name="aa05b4eb-4774-4024-8be5-8eed3f6b4ab5"><g id="b5c5f077-6248-4951-a00e-c610945f4108" data-name="831b819c-a275-40c1-8a75-1e29b6bdd463" opacity="0.19"><path d="M41.84294,21.48666c-14.7,0-30.33.25-30.33,15s15.63,38.32,30.33,38.31a26.66,26.66,0,0,0,0-53.31Z" fill="#5a7993"></path></g><g id="1422f729-f88e-40e1-a55e-fa9af56cdef4" data-name="c70b1e8d-3116-486b-add1-260df52f5a09"><g id="92b31997-4ed6-4480-8972-0df4a59f9e39" data-name="941b47b5-db3d-4192-b120-e4579027a741"><rect width="90" height="90" fill="none"></rect></g></g><g id="00b4a464-39a3-4bea-b827-a78821402f40" data-name="f8909d2d-a01d-411c-a979-b7afffaeebc0"><g opacity="0.5" style="mix-blend-mode:multiply"><path d="M36.53481,58.91774l-3.70542,1.3558L26.20087,52.435l-.81223.29719L24.35782,49.9149l6.09955-2.23181,1.03082,2.81725-.87971.32188,3.24153,4.56-.09449-5.71144-.87113.31874-1.03082-2.81725,5.1265-1.87577,1.03082,2.81725-.87117.31876,3.63914,4.4145L40.329,47.26552l-.84592.30952-1.03082-2.81725,4.74594-1.73653L44.229,45.83852l-.81223.29719-.038,10.27784L39.7241,57.75079,36.47448,53.798Z"></path><path d="M56.52927,51.60183l-3.70545,1.35581L46.19533,45.119l-.81223.29719L44.35227,42.599l6.09955-2.23181,1.03082,2.81725-.87971.32188,3.24153,4.56L53.75,42.35481l-.87116.31875L51.848,39.85632l5.12648-1.87576,1.03082,2.81725-.87185.319,3.64053,4.414-.44984-5.58142-.84629.30965L58.447,37.44175l4.7456-1.7364,1.03082,2.81725-.81224.2972L63.3736,49.09751l-3.655,1.33737-3.24963-3.95281Z"></path><path d="M76.52337,44.286l-3.70545,1.35581-6.62849-7.8386-.81152.29693-1.03082-2.81725,6.09954-2.2318,1.03082,2.81725-.88039.32213,3.24225,4.55972-.09485-5.71131-.87116.31876-1.03082-2.81725,5.12687-1.87591,1.03082,2.81725-.87188.319L80.7681,38.215l-.44984-5.58142-.84628.30965L78.44116,30.126l4.7463-1.73666,1.03082,2.81725-.81223.29719-.03834,10.278-3.65433,1.33711L76.463,39.16632Z"></path></g><path d="M35.53481,57.91774l-3.70542,1.3558L25.20087,51.435l-.81223.29719L23.35782,48.9149l6.09955-2.23181,1.03082,2.81725-.87971.32188,3.24153,4.56-.09449-5.71144-.87113.31874-1.03082-2.81725,5.1265-1.87577,1.03082,2.81725-.87117.31876,3.63914,4.4145L39.329,46.26552l-.84592.30952-1.03082-2.81725,4.74594-1.73653L43.229,44.83852l-.81223.29719-.038,10.27784L38.7241,56.75079,35.47448,52.798Z" fill="#edbf3b"></path><path d="M55.52927,50.60183l-3.70545,1.35581L45.19533,44.119l-.81223.29719L43.35227,41.599l6.09955-2.23181,1.03082,2.81725-.87971.32188,3.24153,4.56L52.75,41.35481l-.87116.31875L50.848,38.85632l5.12648-1.87576,1.03082,2.81725-.87185.319,3.64053,4.414-.44984-5.58142-.84629.30965L57.447,36.44175l4.7456-1.7364,1.03082,2.81725-.81224.2972L62.3736,48.09751l-3.655,1.33737-3.24963-3.95281Z" fill="#edbf3b"></path><path d="M75.52337,43.286l-3.70545,1.35581-6.62849-7.8386-.81152.29693-1.03082-2.81725,6.09954-2.2318,1.03082,2.81725-.88039.32213,3.24225,4.55972-.09485-5.71131-.87116.31876-1.03082-2.81725,5.12687-1.87591,1.03082,2.81725-.87188.319L79.7681,37.215l-.44984-5.58142-.84628.30965L77.44116,29.126l4.7463-1.73666,1.03082,2.81725-.81223.29719-.03834,10.278-3.65433,1.33711L75.463,38.16632Z" fill="#edbf3b"></path></g></g></g></svg>