<svg class="logo" id="572a63a8-d3a5-4df9-b4a7-79c53d353d02" data-name="0d834f6a-be54-455b-abf7-aca1e18c84eb" xmlns="http://www.w3.org/2000/svg" viewBox="0 0 90 90"><title>stable</title><g id="743fa3e5-f401-4a61-abf6-e1b3c7e1f25f" data-name="b705e439-8060-4425-86ec-8d5fc140e8a4" opacity="0.19"><path d="M41.84294,21.48666c-14.7,0-30.33.25-30.33,15s15.63,38.32,30.33,38.31a26.66,26.66,0,0,0,0-53.31Z" fill="#5a7993"></path></g><g id="4f18eaaf-66c4-466d-b6bf-6fe570d9f5b4" data-name="beb7ce62-f97a-4280-8fbe-83620db10f83"><g id="42ea4314-44a1-44eb-b008-e5157e804b94" data-name="168896de-ab92-48c8-8233-510e53527d83"><rect width="90" height="90" fill="none"></rect></g></g><g opacity="0.5"><path d="M56.11,48.87h0c-.27,0-1.68.1-4.79.1-2.51,0-4.26-.07-4.88-.1h0c-9.64-.42-16.83-2.1-16.83-4.11s7.22-3.69,16.83-4.11v5.88c.63,0,2.43.15,4.93.15,3,0,4.49-.13,4.79-.15V40.65c9.62.43,16.76,2.11,16.76,4.11s-7.18,3.68-16.76,4.11m0-8.91V34.1H69.53V25.16H32.99V34.1H46.41V40c-10.91.5-19.11,2.66-19.11,5.25S35.5,50,46.41,50.5V66.84h9.71V50.47c10.89-.5,19.08-2.66,19.08-5.25S67,40.47,56.12,40"></path></g><path d="M55.11,47.87h0c-.27,0-1.68.1-4.79.1-2.51,0-4.26-.07-4.88-.1h0c-9.64-.42-16.83-2.1-16.83-4.11s7.22-3.69,16.83-4.11v5.88c.63,0,2.43.15,4.93.15,3,0,4.49-.13,4.79-.15V39.65c9.62.43,16.76,2.11,16.76,4.11s-7.18,3.68-16.76,4.11m0-8.91V33.1H68.53V24.16H31.99V33.1H45.41V39c-10.91.5-19.11,2.66-19.11,5.25S34.5,49,45.41,49.5V65.84h9.71V49.47c10.89-.5,19.08-2.66,19.08-5.25S66,39.47,55.12,39" fill="#f0bb0e"></path></svg>