<svg class="logo" id="8c9cc9ae-e919-4bb1-bf01-71c25acfd231" data-name="45af0a0a-3fa6-4f92-8dcf-94e24769748e" xmlns="http://www.w3.org/2000/svg" viewBox="0 0 90 90"><title>visamaster</title><g id="04eac91e-c9d1-48e5-b854-581124834a6b" data-name="09c8b5a0-1e7b-4b36-ab57-da71be80f6db"><g id="54f21a08-5e25-491b-9953-121af55ec1c7" data-name="939917c0-5105-46f0-9d66-51834860c6e7" opacity="0.19"><path d="M41.84294,21.48666c-14.7,0-30.33.25-30.33,15s15.63,38.32,30.33,38.31a26.66,26.66,0,0,0,0-53.31Z" fill="#5a7993"></path></g><g id="80fb5557-5481-493d-9184-ba4aa139f138" data-name="f0210821-6b7c-428f-90fc-676a98603434"><g id="c5dd56d4-d6ed-4faa-83a9-00a342848af2" data-name="eb821c4f-21bf-41ae-9153-804e1cff7b38"><rect width="90" height="90" fill="none"></rect></g></g></g><path d="M49.27681,36.12133h-3.974l2.48379-15.17869h3.974ZM42.04624,20.94264,38.293,31.37454l-.49676-2.263h0l-1.32469-6.84421a1.7032,1.7032,0,0,0-1.87664-1.37988H28.413l-.0552.276a14.47087,14.47087,0,0,1,4.13964,1.71105l3.4221,13.19166H40.004l6.29226-15.17869C46.29627,20.94264,42.04624,20.94264,42.04624,20.94264ZM73.066,36.12133h3.64289L73.56272,20.94264H70.3614A1.77376,1.77376,0,0,0,68.54,22.04655L62.63406,36.12133H66.7737l.82793-2.263H72.6244ZM68.70554,30.7674,70.803,25.08228l1.1591,5.68511Zm-5.74031-6.18187.552-3.25652a11.12025,11.12025,0,0,0-3.5325-.66234c-1.987,0-6.62343.88312-6.62343,5.02277,0,3.91886,5.46433,3.97406,5.46433,6.01628s-4.91238,1.711-6.513.38637l-.60715,3.42211a10.834,10.834,0,0,0,4.47082.88312c2.70457,0,6.73382-1.37988,6.73382-5.18835,0-3.97406-5.51952-4.30523-5.51952-6.01628.05519-1.76625,3.86367-1.54547,5.57472-.60715Z" fill="#eeb91d"></path><path d="M37.8514,29.11154l-1.32469-6.789a1.7032,1.7032,0,0,0-1.87664-1.37988H28.413l-.0552.276A15.182,15.182,0,0,1,34.2085,24.144,12.23346,12.23346,0,0,1,37.8514,29.11154Z" fill="#eeb91d"></path><path d="M73.066,59.80009v-.44156h-.11039l-.11039.33117-.11039-.33117h-.16559v.44156h.05519v-.33117l.11039.276H72.79l.11039-.276v.33117Zm-.77273,0v-.38637h.16559v-.05519h-.38637v.05519h.1655v.38637Z" fill="#f79410"></path><path d="M59.26715,62.61505H48.11771V42.57918H59.26715Z" fill="#c69417"></path><path d="M48.83525,52.62471a12.914,12.914,0,0,1,4.85718-10.04553,12.75017,12.75017,0,1,0,0,20.09107,12.9987,12.9987,0,0,1-4.85718-10.04553" fill="#eeb91d"></path><path d="M74.39065,52.62471a12.78061,12.78061,0,0,1-20.643,10.04553,12.66495,12.66495,0,0,0,4.85718-10.04553,12.91407,12.91407,0,0,0-4.85718-10.04553,12.78061,12.78061,0,0,1,20.643,10.04553" fill="#eeb91d"></path></svg>