<svg version="1.1" xmlns="http://www.w3.org/2000/svg" xmlns:xlink="http://www.w3.org/1999/xlink" x="0px" y="0px" viewBox="0 0 100 100" enable-background="new 0 0 100 100" xml:space="preserve"> <g display="none"> <g display="inline"> <rect x="-2.3" y="-2.3" fill="none" width="104.7" height="104.7"></rect> <path display="none" fill="#27356A" d="M79.4,12.4C75.1,7.7,67.6,5.6,58,5.6H29.9c-2,0-3.7,1.4-4,3.4L14.2,83.2 C14,84.7,15.1,86,16.6,86h17.3l4.3-27.6L38,59.3c0.3-1.9,2-3.4,3.9-3.4h8.2c16.2,0,28.9-6.5,32.6-25.6c0.2-0.5,0.2-1.1,0.3-1.6 c-0.5-0.3-0.5-0.3,0,0C84.3,21.6,83.2,16.8,79.4,12.4"></path> <path fill="#EFB91C" d="M44.9,26c0.5-0.2,1-0.3,1.5-0.3h22c2.6,0,5.1,0.1,7.2,0.5c0.6,0.1,1.2,0.2,1.9,0.3 c0.9,0.2,1.7,0.4,2.6,0.7c1.1,0.3,2.1,0.8,3,1.3c1.1-7,0-11.8-3.8-16.2c-4.2-4.8-11.8-6.8-21.4-6.8H29.8c-2,0-3.7,1.4-3.9,3.4 L14.2,83.2C14,84.7,15.1,86,16.5,86h17.3l9-57.3C43.1,27.6,43.9,26.6,44.9,26z"></path> <path fill="#848D9A" d="M82.9,30.3c-3.7,19-16.4,25.5-32.5,25.5h-8.3c-2,0-3.7,1.4-3.9,3.4l-5.4,34.4c-0.2,1.3,0.8,2.4,2.1,2.4 h14.6c1.7,0,3.2-1.2,3.5-3l0.2-0.8L56,74.7l0.2-1c0.3-1.7,1.7-3,3.5-3h2.2c14.1,0,25.3-5.7,28.5-22.4c1.4-7,0.6-12.8-2.9-16.9 c-1.1-1.2-2.4-2.3-4-3.1C83.1,29.2,83,29.7,82.9,30.3L82.9,30.3z"></path> <path fill="#C4942C" d="M79.3,27.1c-0.5-0.1-1.2-0.3-1.7-0.4c-0.6-0.1-1.2-0.3-1.9-0.3c-2.2-0.3-4.6-0.5-7.2-0.5h-22 c-0.5,0-1,0.1-1.5,0.3c-1,0.5-1.8,1.4-1.9,2.6l-4.7,29.7l-0.2,0.9c0.3-1.9,2-3.4,3.9-3.4h8.2c16.2,0,28.9-6.5,32.6-25.6 c0.2-0.5,0.2-1.1,0.3-1.6c-1-0.5-1.9-0.9-3-1.3C79.8,27.2,79.6,27.2,79.3,27.1"></path> </g> <g display="inline"> </g> </g> <g> <g> <path fill="#848D9A" d="M6.9,49.9C7,26.6,26.1,7.6,49.8,7.6l0,0c6.5,0,13,1.4,18.8,4.4c0.9,0.4,1.8,0.9,2.7,1.4l-4,3.5l-5.9-6.1 l-10.1,8.9l-6.1-6.4L26.8,29.7l11.9,13.1L34,46.9l11.7,13.1L41,64l16.8,18.6l10-9.1l8.7,9.7c-1.8,1.4-3.7,2.6-5.7,3.7 c-6.4,3.6-13.7,5.5-21.1,5.5C26.1,92.3,6.9,73.3,6.9,49.9"></path> <polygon fill="#EEB91D" points="42,47.3 52.3,38.2 61.4,48.3 51.1,57.4 "></polygon> <polygon fill="#EEB91D" points="49.2,64.8 59.4,55.7 68.6,65.8 58.3,74.8 "></polygon> <polygon fill="#EEB91D" points="34.8,30 45,21 54.2,31.1 43.8,40.2 "></polygon> <polygon fill="#EEB91D" points="53.4,25.2 61.1,18.4 67.9,26 60.3,32.9 "></polygon> <polygon fill="#EEB91D" points="67,56.3 74.6,49.6 81.5,57.2 73.9,63.9 "></polygon> <polygon fill="#EEB91D" points="73.8,71.6 81.3,64.9 88.2,72.3 80.7,79.2 "></polygon> <polygon fill="#EEB91D" points="76.9,36.7 81.9,32.1 86.4,37.2 81.4,41.8 "></polygon> <polygon fill="#EEB91D" points="70.3,21.7 75.4,17.1 79.9,22.2 74.8,26.8 "></polygon> <polygon fill="#EEB91D" points="83.3,51.6 88.3,47.1 93.1,52.1 88,56.6 "></polygon> <polygon fill="#EEB91D" points="60.4,40.4 68.1,33.6 75,41.2 67.3,47.9 "></polygon> </g> <g> </g> </g> </svg>