<svg class="logo" xmlns="http://www.w3.org/2000/svg" viewBox="0 0 90 90"><title>webmoney</title><g style="isolation:isolate"><g id="a2d59cbd-e968-4df6-be18-4871e4595655" data-name="Layer 1"><g id="960b1227-1ec8-472c-8375-c789c045f07a" data-name="0d7b0410-89c0-4934-ad33-1953064db00d"><g id="c19dbeff-1179-4b2e-9fe0-e7aa9bb60e1b" data-name="41fa65e1-d538-41a1-8b17-5454e5c87ec2" opacity="0.19"><path d="M41.84294,21.48666c-14.7,0-30.33.25-30.33,15s15.63,38.32,30.33,38.31a26.66,26.66,0,0,0,0-53.31Z" fill="#5a7993"></path></g><g id="c70545ac-96e3-494e-a680-3745800f12d4" data-name="6ca4f126-4f16-412d-9c6b-ea3f514d9307"><g id="858c5674-f817-471d-8c0a-2b084c4e1481" data-name="4dcc2b4e-932c-4300-b275-c4d5f625de94"><rect width="90" height="90" fill="none"></rect></g></g></g><g opacity="0.5" style="mix-blend-mode:multiply"><path d="M29.35794,45.26553a22.99563,22.99563,0,0,1,23.102-22.77887h0a22.03372,22.03372,0,0,1,10.12394,2.36943c.48466.2154.96932.48466,1.454.75391l-2.154,1.88478-3.17719-3.2849L53.26767,29.0026l-3.28489-3.44645-9.90854,8.83152,6.40824,7.05445L43.95149,43.65,50.252,50.70445l-2.531,2.154L56.768,62.87472,62.153,57.9743l4.685,5.22352a23.16431,23.16431,0,0,1-37.48012-17.9323"></path><polygon points="48.26 43.865 53.806 38.965 58.707 44.404 53.16 49.304 48.26 43.865"></polygon><polygon points="52.137 53.289 57.63 48.389 62.584 53.828 57.037 58.674 52.137 53.289"></polygon><polygon points="44.382 34.549 49.875 29.703 54.829 35.142 49.229 40.042 44.382 34.549"></polygon><polygon points="54.399 31.964 58.545 28.303 62.207 32.395 58.114 36.111 54.399 31.964"></polygon><polygon points="61.722 48.712 65.815 45.104 69.531 49.197 65.438 52.805 61.722 48.712"></polygon><polygon points="65.384 56.951 69.423 53.343 73.139 57.328 69.1 61.044 65.384 56.951"></polygon><polygon points="67.053 38.157 69.746 35.68 72.169 38.426 69.477 40.904 67.053 38.157"></polygon><polygon points="63.499 30.08 66.246 27.602 68.669 30.349 65.923 32.826 63.499 30.08"></polygon><polygon points="70.5 46.181 73.192 43.758 75.777 46.45 73.031 48.874 70.5 46.181"></polygon><polygon points="58.168 40.15 62.315 36.488 66.03 40.581 61.884 44.189 58.168 40.15"></polygon></g><path d="M28.35794,44.26553a22.99563,22.99563,0,0,1,23.102-22.77887h0a22.03372,22.03372,0,0,1,10.12394,2.36943c.48466.2154.96932.48466,1.454.75391l-2.154,1.88478-3.17719-3.2849L52.26767,28.0026l-3.28489-3.44645-9.90854,8.83152,6.40824,7.05445L42.95149,42.65,49.252,49.70445l-2.531,2.154L55.768,61.87472,61.153,56.9743l4.685,5.22352a23.16431,23.16431,0,0,1-37.48012-17.9323" fill="#eeb91d"></path><polygon points="47.26 42.865 52.806 37.965 57.707 43.404 52.16 48.304 47.26 42.865" fill="#eeb91d"></polygon><polygon points="51.137 52.289 56.63 47.389 61.584 52.828 56.037 57.674 51.137 52.289" fill="#eeb91d"></polygon><polygon points="43.382 33.549 48.875 28.703 53.829 34.142 48.229 39.042 43.382 33.549" fill="#eeb91d"></polygon><polygon points="53.399 30.964 57.545 27.303 61.207 31.395 57.114 35.111 53.399 30.964" fill="#eeb91d"></polygon><polygon points="60.722 47.712 64.815 44.104 68.531 48.197 64.438 51.805 60.722 47.712" fill="#eeb91d"></polygon><polygon points="64.384 55.951 68.423 52.343 72.139 56.328 68.1 60.044 64.384 55.951" fill="#eeb91d"></polygon><polygon points="66.053 37.157 68.746 34.68 71.169 37.426 68.477 39.904 66.053 37.157" fill="#eeb91d"></polygon><polygon points="62.499 29.08 65.246 26.602 67.669 29.349 64.923 31.826 62.499 29.08" fill="#eeb91d"></polygon><polygon points="69.5 45.181 72.192 42.758 74.777 45.45 72.031 47.874 69.5 45.181" fill="#eeb91d"></polygon><polygon points="57.168 39.15 61.315 35.488 65.03 39.581 60.884 43.189 57.168 39.15" fill="#eeb91d"></polygon></g></g></svg>